<svg width="28" height="40" viewBox="0 0 28 40" fill="none" xmlns="http://www.w3.org/2000/svg">
<g filter="url(#filter0_f_848_935)">
<path d="M14 5.69531V34.3137M21.704 14.5016C21.704 13.7789 21.5616 13.0632 21.285 12.3955C21.0085 11.7278 20.6031 11.121 20.092 10.61C19.581 10.0989 18.9743 9.69356 18.3066 9.41698C17.6388 9.1404 16.9232 8.99805 16.2004 8.99805H11.7976C10.338 8.99805 8.93813 9.57788 7.90602 10.61C6.8739 11.6421 6.29407 13.042 6.29407 14.5016C6.29407 15.9612 6.8739 17.3611 7.90602 18.3932C8.93813 19.4253 10.338 20.0051 11.7976 20.0051H17.3011C18.7608 20.0051 20.1606 20.585 21.1927 21.6171C22.2249 22.6492 22.8047 24.049 22.8047 25.5087C22.8047 26.9683 22.2249 28.3681 21.1927 29.4003C20.1606 30.4324 18.7608 31.0122 17.3011 31.0122H10.6969C9.23727 31.0122 7.83742 30.4324 6.80531 29.4003C5.77319 28.3681 5.19336 26.9683 5.19336 25.5087" stroke="#C9851F" stroke-width="1.54514" stroke-linecap="round" stroke-linejoin="round"/>
</g>
<path d="M14 5.69531V34.3137" stroke="#FFAC2F" stroke-width="1.65106" stroke-linecap="round" stroke-linejoin="round"/>
<path d="M21.704 14.5035C21.704 13.7808 21.5616 13.0651 21.285 12.3974C21.0085 11.7297 20.6031 11.123 20.092 10.6119C19.581 10.1009 18.9743 9.69551 18.3066 9.41893C17.6388 9.14235 16.9232 9 16.2004 9H11.7976C10.338 9 8.93813 9.57984 7.90602 10.6119C6.8739 11.6441 6.29407 13.0439 6.29407 14.5035C6.29407 15.9632 6.8739 17.363 7.90602 18.3951C8.93813 19.4272 10.338 20.0071 11.7976 20.0071H17.3011C18.7608 20.0071 20.1606 20.5869 21.1927 21.619C22.2249 22.6511 22.8047 24.051 22.8047 25.5106C22.8047 26.9702 22.2249 28.3701 21.1927 29.4022C20.1606 30.4343 18.7608 31.0142 17.3011 31.0142H10.6969C9.23727 31.0142 7.83742 30.4343 6.80531 29.4022C5.77319 28.3701 5.19336 26.9702 5.19336 25.5106" stroke="#FFAC2F" stroke-width="1.65106" stroke-linecap="round" stroke-linejoin="round"/>
<defs>
<filter id="filter0_f_848_935" x="0.419922" y="0.921875" width="27.1582" height="38.1641" filterUnits="userSpaceOnUse" color-interpolation-filters="sRGB">
<feFlood flood-opacity="0" result="BackgroundImageFix"/>
<feBlend mode="normal" in="SourceGraphic" in2="BackgroundImageFix" result="shape"/>
<feGaussianBlur stdDeviation="2" result="effect1_foregroundBlur_848_935"/>
</filter>
</defs>
</svg>
