<svg width="23" height="23" viewBox="0 0 23 23" fill="none" xmlns="http://www.w3.org/2000/svg">
<path d="M11.7129 0.257812C9.52028 0.257813 7.37694 0.90799 5.55387 2.12613C3.7308 3.34426 2.30989 5.07564 1.47082 7.10133C0.631756 9.12702 0.412218 11.356 0.839971 13.5065C1.26772 15.6569 2.32355 17.6323 3.87395 19.1826C5.42434 20.733 7.39966 21.7889 9.55012 22.2166C11.7006 22.6444 13.9296 22.4248 15.9553 21.5858C17.9809 20.7467 19.7123 19.3258 20.9305 17.5027C22.1486 15.6797 22.7988 13.5363 22.7988 11.3437C22.7957 8.40451 21.6267 5.58657 19.5484 3.50823C17.47 1.42989 14.6521 0.260916 11.7129 0.257812ZM16.58 9.38877L10.6107 15.3581C10.5315 15.4374 10.4374 15.5003 10.3339 15.5432C10.2304 15.5861 10.1194 15.6082 10.0073 15.6082C9.89528 15.6082 9.78431 15.5861 9.68079 15.5432C9.57726 15.5003 9.48321 15.4374 9.40402 15.3581L6.84573 12.7998C6.68571 12.6398 6.59582 12.4228 6.59582 12.1965C6.59582 11.9702 6.68571 11.7532 6.84573 11.5932C7.00574 11.4331 7.22277 11.3433 7.44906 11.3433C7.67535 11.3433 7.89237 11.4331 8.05239 11.5932L10.0073 13.5492L15.3734 8.18211C15.4526 8.10288 15.5466 8.04003 15.6502 7.99715C15.7537 7.95427 15.8646 7.9322 15.9767 7.9322C16.0887 7.9322 16.1997 7.95427 16.3032 7.99715C16.4067 8.04003 16.5008 8.10288 16.58 8.18211C16.6592 8.26134 16.7221 8.3554 16.765 8.45892C16.8078 8.56244 16.8299 8.67339 16.8299 8.78544C16.8299 8.89749 16.8078 9.00844 16.765 9.11196C16.7221 9.21548 16.6592 9.30954 16.58 9.38877Z" fill="#393939"/>
</svg>
