<svg width="23" height="23" viewBox="0 0 23 23" fill="none" xmlns="http://www.w3.org/2000/svg">
<path d="M11.1562 0.257812C8.96364 0.257813 6.8203 0.90799 4.99723 2.12613C3.17416 3.34426 1.75325 5.07564 0.914182 7.10133C0.0751159 9.12702 -0.144422 11.356 0.28333 13.5065C0.711083 15.6569 1.76691 17.6323 3.31731 19.1826C4.8677 20.733 6.84302 21.7889 8.99348 22.2166C11.1439 22.6444 13.3729 22.4248 15.3986 21.5858C17.4243 20.7467 19.1557 19.3258 20.3738 17.5027C21.592 15.6797 22.2421 13.5363 22.2421 11.3437C22.239 8.40451 21.0701 5.58657 18.9917 3.50823C16.9134 1.42989 14.0954 0.260916 11.1562 0.257812ZM16.0234 9.38877L10.054 15.3581C9.97484 15.4374 9.88078 15.5003 9.77726 15.5432C9.67374 15.5861 9.56277 15.6082 9.4507 15.6082C9.33864 15.6082 9.22767 15.5861 9.12415 15.5432C9.02062 15.5003 8.92657 15.4374 8.84737 15.3581L6.28909 12.7998C6.12907 12.6398 6.03918 12.4228 6.03918 12.1965C6.03918 11.9702 6.12907 11.7532 6.28909 11.5932C6.4491 11.4331 6.66612 11.3433 6.89242 11.3433C7.11871 11.3433 7.33573 11.4331 7.49575 11.5932L9.4507 13.5492L14.8167 8.18211C14.8959 8.10288 14.99 8.04003 15.0935 7.99715C15.197 7.95427 15.308 7.9322 15.42 7.9322C15.5321 7.9322 15.643 7.95427 15.7466 7.99715C15.8501 8.04003 15.9441 8.10288 16.0234 8.18211C16.1026 8.26134 16.1654 8.3554 16.2083 8.45892C16.2512 8.56244 16.2733 8.67339 16.2733 8.78544C16.2733 8.89749 16.2512 9.00844 16.2083 9.11196C16.1654 9.21548 16.1026 9.30954 16.0234 9.38877Z" fill="#FFAC2F"/>
</svg>
