<svg width="93" height="73" viewBox="0 0 93 73" fill="none" xmlns="http://www.w3.org/2000/svg">
<path d="M86.4107 0.322266V15.6903H77.5967C70.666 15.6903 67.2007 19.1556 67.2007 26.0863V33.3183H71.0427C77.0694 33.3183 82.0414 35.1263 85.9587 38.7423C90.0267 42.3583 92.0607 46.9536 92.0607 52.5283C92.0607 58.5549 90.0267 63.4516 85.9587 67.2183C82.0414 70.9849 77.0694 72.8683 71.0427 72.8683C64.8653 72.8683 59.818 70.9849 55.9007 67.2183C51.9834 63.3009 50.0247 58.1029 50.0247 51.6243V25.6343C50.0247 8.7596 58.462 0.322266 75.3367 0.322266H86.4107ZM36.6907 0.322266V15.6903H27.8767C20.946 15.6903 17.4807 19.1556 17.4807 26.0863V33.3183H21.3227C27.3494 33.3183 32.3214 35.1263 36.2387 38.7423C40.3067 42.3583 42.3407 46.9536 42.3407 52.5283C42.3407 58.5549 40.3067 63.4516 36.2387 67.2183C32.3214 70.9849 27.3494 72.8683 21.3227 72.8683C15.1454 72.8683 10.098 70.9849 6.18069 67.2183C2.26335 63.3009 0.304688 58.1029 0.304688 51.6243V25.6343C0.304688 8.7596 8.74202 0.322266 25.6167 0.322266H36.6907Z" fill="url(#paint0_linear_638_2918)"/>
<defs>
<linearGradient id="paint0_linear_638_2918" x1="85.4242" y1="66.0885" x2="-4.1292" y2="56.2697" gradientUnits="userSpaceOnUse">
<stop stop-color="#5008EA"/>
<stop offset="1" stop-color="#FFB74A"/>
</linearGradient>
</defs>
</svg>
