<svg width="20" height="24" viewBox="0 0 20 24" fill="none" xmlns="http://www.w3.org/2000/svg">
<path d="M19.3054 5.03471L14.9217 0.65098C14.8402 0.569588 14.7435 0.505047 14.637 0.461045C14.5306 0.417042 14.4166 0.394441 14.3014 0.394532H5.53392C5.06886 0.394532 4.62286 0.579274 4.29401 0.908118C3.96517 1.23696 3.78042 1.68297 3.78042 2.14803V3.90152H2.02693C1.56188 3.90152 1.11587 4.08626 0.787024 4.4151C0.45818 4.74395 0.273438 5.18996 0.273438 5.65501V21.4365C0.273438 21.9015 0.45818 22.3475 0.787024 22.6764C1.11587 23.0052 1.56188 23.1899 2.02693 23.1899H14.3014C14.7664 23.1899 15.2124 23.0052 15.5413 22.6764C15.8701 22.3475 16.0549 21.9015 16.0549 21.4365V19.683H17.8084C18.2734 19.683 18.7194 19.4982 19.0483 19.1694C19.3771 18.8405 19.5619 18.3945 19.5619 17.9295V5.65501C19.562 5.53984 19.5394 5.42578 19.4954 5.31935C19.4514 5.21292 19.3868 5.1162 19.3054 5.03471ZM10.7944 18.8062H5.53392C5.30139 18.8062 5.07839 18.7138 4.91396 18.5494C4.74954 18.385 4.65717 18.162 4.65717 17.9295C4.65717 17.6969 4.74954 17.4739 4.91396 17.3095C5.07839 17.1451 5.30139 17.0527 5.53392 17.0527H10.7944C11.0269 17.0527 11.2499 17.1451 11.4144 17.3095C11.5788 17.4739 11.6711 17.6969 11.6711 17.9295C11.6711 18.162 11.5788 18.385 11.4144 18.5494C11.2499 18.7138 11.0269 18.8062 10.7944 18.8062ZM10.7944 15.2992H5.53392C5.30139 15.2992 5.07839 15.2069 4.91396 15.0424C4.74954 14.878 4.65717 14.655 4.65717 14.4225C4.65717 14.19 4.74954 13.9669 4.91396 13.8025C5.07839 13.6381 5.30139 13.5457 5.53392 13.5457H10.7944C11.0269 13.5457 11.2499 13.6381 11.4144 13.8025C11.5788 13.9669 11.6711 14.19 11.6711 14.4225C11.6711 14.655 11.5788 14.878 11.4144 15.0424C11.2499 15.2069 11.0269 15.2992 10.7944 15.2992ZM17.8084 17.9295H16.0549V9.162C16.055 9.04683 16.0324 8.93277 15.9884 8.82634C15.9444 8.7199 15.8798 8.62318 15.7984 8.5417L11.4147 4.15797C11.3332 4.07658 11.2365 4.01203 11.1301 3.96803C11.0236 3.92403 10.9096 3.90143 10.7944 3.90152H5.53392V2.14803H13.9386L17.8084 6.01777V17.9295Z" fill="#E77646"/>
</svg>
