<svg width="21" height="27" viewBox="0 0 21 27" fill="none" xmlns="http://www.w3.org/2000/svg">
<path d="M18.3057 0.564453H6.15918C5.62227 0.564453 5.10735 0.777739 4.7277 1.15739C4.34805 1.53704 4.13477 2.05196 4.13477 2.58887V4.61328H2.11035C1.57344 4.61328 1.05853 4.82657 0.678875 5.20622C0.299223 5.58587 0.0859375 6.10079 0.0859375 6.6377V25.8696C0.0859329 26.0556 0.13717 26.238 0.234023 26.3968C0.330877 26.5555 0.469602 26.6846 0.634972 26.7697C0.800342 26.8548 0.985963 26.8927 1.17146 26.8792C1.35695 26.8657 1.53515 26.8014 1.68649 26.6933L8.18359 22.0523L14.682 26.6933C14.8333 26.8011 15.0114 26.8651 15.1967 26.8784C15.382 26.8917 15.5673 26.8537 15.7325 26.7686C15.8977 26.6836 16.0362 26.5547 16.133 26.3961C16.2298 26.2376 16.2811 26.0554 16.2812 25.8696V20.8959L18.7295 22.6445C18.8809 22.7526 19.0591 22.8169 19.2446 22.8304C19.4301 22.8438 19.6157 22.806 19.781 22.7208C19.9464 22.6357 20.0851 22.5067 20.182 22.3479C20.2788 22.1892 20.3301 22.0068 20.3301 21.8208V2.58887C20.3301 2.05196 20.1168 1.53704 19.7371 1.15739C19.3575 0.777739 18.8426 0.564453 18.3057 0.564453ZM18.3057 19.8546L16.2812 18.4046V6.6377C16.2812 6.10079 16.068 5.58587 15.6883 5.20622C15.3087 4.82657 14.7937 4.61328 14.2568 4.61328H6.15918V2.58887H18.3057V19.8546Z" fill="#FE992A"/>
</svg>
