<svg width="22" height="23" viewBox="0 0 22 23" fill="none" xmlns="http://www.w3.org/2000/svg">
<path d="M11.3797 2.64508L12.1765 1.05159C12.271 0.862604 12.4368 0.718919 12.6373 0.652148C12.8378 0.585377 13.0566 0.600989 13.2456 0.69555C13.4346 0.79011 13.5783 0.955874 13.645 1.15637C13.7118 1.35687 13.6962 1.57569 13.6016 1.76468L12.8049 3.35816C12.7581 3.45174 12.6933 3.53518 12.6142 3.60371C12.5351 3.67225 12.4433 3.72454 12.3441 3.7576C12.2448 3.79067 12.14 3.80385 12.0356 3.7964C11.9312 3.78896 11.8293 3.76102 11.7358 3.7142C11.6422 3.66738 11.5587 3.60259 11.4902 3.52352C11.4217 3.44445 11.3694 3.35266 11.3363 3.25338C11.3033 3.1541 11.2901 3.04928 11.2975 2.94491C11.305 2.84054 11.3329 2.73865 11.3797 2.64508ZM0.937432 10.1723H1.73417C1.94548 10.1723 2.14814 10.0883 2.29755 9.93893C2.44697 9.78951 2.53091 9.58686 2.53091 9.37555C2.53091 9.16424 2.44697 8.96159 2.29755 8.81217C2.14814 8.66275 1.94548 8.57881 1.73417 8.57881H0.937432C0.726123 8.57881 0.523469 8.66275 0.374051 8.81217C0.224633 8.96159 0.140691 9.16424 0.140691 9.37555C0.140691 9.58686 0.224633 9.78951 0.374051 9.93893C0.523469 10.0883 0.726123 10.1723 0.937432 10.1723ZM8.90485 3.00162C9.11615 3.00162 9.31881 2.91768 9.46823 2.76826C9.61764 2.61884 9.70159 2.41619 9.70159 2.20488V1.40814C9.70159 1.19683 9.61764 0.994172 9.46823 0.844754C9.31881 0.695336 9.11615 0.611394 8.90485 0.611394C8.69354 0.611394 8.49088 0.695336 8.34146 0.844754C8.19205 0.994172 8.1081 1.19683 8.1081 1.40814V2.20488C8.1081 2.41619 8.19205 2.61884 8.34146 2.76826C8.49088 2.91768 8.69354 3.00162 8.90485 3.00162ZM2.17437 11.8504L0.58089 12.6472C0.391901 12.7417 0.248216 12.9075 0.181445 13.108C0.114674 13.3085 0.130286 13.5273 0.224846 13.7163C0.319407 13.9053 0.485171 14.049 0.685671 14.1157C0.886171 14.1825 1.10498 14.1669 1.29397 14.0723L2.88746 13.2756C2.98103 13.2288 3.06447 13.164 3.13301 13.0849C3.20155 13.0058 3.25384 12.9141 3.2869 12.8148C3.31996 12.7155 3.33315 12.6107 3.3257 12.5063C3.31825 12.4019 3.29032 12.3 3.2435 12.2065C3.19668 12.1129 3.13188 12.0295 3.05282 11.9609C2.97375 11.8924 2.88195 11.8401 2.78268 11.807C2.6834 11.774 2.57858 11.7608 2.47421 11.7682C2.36983 11.7757 2.26795 11.8036 2.17437 11.8504ZM15.6841 13.4339L20.6976 11.2549C20.9913 11.1246 21.2388 10.9086 21.4076 10.6352C21.5764 10.3618 21.6586 10.0438 21.6434 9.72286C21.6282 9.40192 21.5163 9.09307 21.3225 8.83683C21.1287 8.58059 20.8619 8.38893 20.5572 8.287L4.61439 3.08129C4.33542 2.98999 4.03661 2.97777 3.75111 3.04599C3.46562 3.11421 3.20461 3.2602 2.99705 3.46775C2.78949 3.67531 2.6435 3.93632 2.57529 4.22182C2.50707 4.50731 2.51929 4.80613 2.61059 5.0851L7.8163 21.0279C7.91441 21.3356 8.10469 21.6057 8.36138 21.8016C8.61807 21.9976 8.92878 22.1099 9.25143 22.1234H9.32911C9.63859 22.1245 9.94155 22.0345 10.2003 21.8647C10.459 21.6949 10.662 21.4527 10.7842 21.1683L12.9632 16.1548L18.4657 21.6563C18.6137 21.8043 18.7894 21.9217 18.9827 22.0018C19.1761 22.0819 19.3833 22.1232 19.5926 22.1232C19.8019 22.1232 20.0092 22.0819 20.2025 22.0018C20.3959 21.9217 20.5716 21.8043 20.7195 21.6563L21.1856 21.1902C21.3336 21.0423 21.451 20.8666 21.5311 20.6732C21.6112 20.4799 21.6525 20.2726 21.6525 20.0633C21.6525 19.854 21.6112 19.6468 21.5311 19.4535C21.451 19.2601 21.3336 19.0844 21.1856 18.9364L15.6841 13.4339Z" fill="#FF4689"/>
</svg>
