<svg width="32" height="32" viewBox="0 0 32 32" fill="none" xmlns="http://www.w3.org/2000/svg">
<path d="M16.1836 16.2841L27.9228 4.54492" stroke="black" stroke-width="1.36929" stroke-linecap="round" stroke-linejoin="round"/>
<path d="M24.4818 7.98578C22.4025 5.91139 19.6203 4.69297 16.6858 4.57155C13.7512 4.45014 10.8779 5.43457 8.63438 7.3301C6.39084 9.22563 4.94045 11.8942 4.57015 14.8078C4.19985 17.7215 4.93661 20.668 6.63468 23.0645C8.33275 25.461 10.8684 27.1328 13.7401 27.7493C16.6117 28.3658 19.6102 27.8821 22.1423 26.3937C24.6744 24.9054 26.5556 22.5209 27.4138 19.712C28.2721 16.9031 28.0448 13.8744 26.777 11.2251" stroke="black" stroke-width="1.36929" stroke-linecap="round" stroke-linejoin="round"/>
<path d="M20.33 12.1346C19.359 11.1648 18.0789 10.5659 16.7122 10.442C15.3455 10.318 13.9786 10.6769 12.849 11.4561C11.7194 12.2354 10.8986 13.3858 10.5292 14.7075C10.1598 16.0292 10.2651 17.4385 10.8269 18.6905C11.3887 19.9426 12.3715 20.9582 13.6044 21.5608C14.8373 22.1635 16.2424 22.3151 17.5755 21.9894C18.9085 21.6636 20.0853 20.881 20.9013 19.7776C21.7173 18.6743 22.1209 17.3199 22.0419 15.9498" stroke="black" stroke-width="1.36929" stroke-linecap="round" stroke-linejoin="round"/>
</svg>
