<svg width="22" height="22" viewBox="0 0 22 22" fill="none" xmlns="http://www.w3.org/2000/svg">
<path d="M10.792 20.4678C16.1654 20.4678 20.5215 16.1117 20.5215 10.7383C20.5215 5.36483 16.1654 1.00879 10.792 1.00879C5.41854 1.00879 1.0625 5.36483 1.0625 10.7383C1.0625 16.1117 5.41854 20.4678 10.792 20.4678Z" stroke="#3870FF" stroke-width="1.5" stroke-linecap="round" stroke-linejoin="round"/>
<path d="M6.73438 10.7384C6.73438 14.5349 8.08536 17.9261 10.2086 20.2135C10.2824 20.2937 10.372 20.3578 10.4718 20.4016C10.5716 20.4454 10.6793 20.468 10.7883 20.468C10.8973 20.468 11.0051 20.4454 11.1049 20.4016C11.2047 20.3578 11.2943 20.2937 11.368 20.2135C13.4913 17.9261 14.8423 14.5349 14.8423 10.7384C14.8423 6.94188 13.4913 3.55074 11.368 1.2633C11.2943 1.18307 11.2047 1.11903 11.1049 1.07522C11.0051 1.03141 10.8973 1.00879 10.7883 1.00879C10.6793 1.00879 10.5716 1.03141 10.4718 1.07522C10.372 1.11903 10.2824 1.18307 10.2086 1.2633C8.08536 3.55074 6.73438 6.94188 6.73438 10.7384Z" stroke="#3870FF" stroke-width="1.5" stroke-linecap="round" stroke-linejoin="round"/>
<path d="M1.61719 7.49512H19.9694" stroke="#3870FF" stroke-width="1.5" stroke-linecap="round" stroke-linejoin="round"/>
<path d="M1.61719 13.9814H19.9694" stroke="#3870FF" stroke-width="1.5" stroke-linecap="round" stroke-linejoin="round"/>
</svg>
