<svg width="22" height="22" viewBox="0 0 22 22" fill="none" xmlns="http://www.w3.org/2000/svg">
<path d="M21.59 10.8015C21.59 10.8543 21.59 10.905 21.59 10.9588C21.5549 12.4341 21.0076 14.1122 18.6932 14.1122C16.2991 14.1122 15.7963 12.312 15.7963 10.8015V6.6631C15.7965 6.54963 15.7734 6.43733 15.7285 6.33316C15.6835 6.22899 15.6176 6.13519 15.5348 6.05757C15.452 5.97995 15.3542 5.92017 15.2474 5.88196C15.1405 5.84374 15.027 5.8279 14.9138 5.83542C14.7006 5.85372 14.5022 5.95221 14.3588 6.111C14.2154 6.2698 14.1375 6.47708 14.1409 6.69103V7.10487C13.3937 6.43521 12.4612 6.00758 11.4662 5.87832C10.4712 5.74907 9.46035 5.92424 8.56686 6.38078C7.67337 6.83731 6.93913 7.55379 6.46085 8.43583C5.98257 9.31788 5.78269 10.3241 5.88754 11.322C5.99239 12.3199 6.39705 13.2626 7.04822 14.0259C7.69939 14.7893 8.56652 15.3375 9.53539 15.5984C10.5043 15.8592 11.5294 15.8205 12.4758 15.4872C13.4222 15.154 14.2455 14.5419 14.8372 13.7315C14.9406 13.9125 15.0575 14.0854 15.1869 14.2488C15.7425 14.9399 16.8009 15.7676 18.6932 15.7676C19.0127 15.7687 19.3319 15.7427 19.6471 15.69C19.725 15.677 19.805 15.6866 19.8777 15.7176C19.9503 15.7487 20.0126 15.7998 20.0571 15.8651C20.1016 15.9304 20.1265 16.0071 20.1288 16.086C20.1311 16.165 20.1108 16.243 20.0702 16.3108C19.0975 17.9425 17.7102 19.2877 16.0494 20.2099C14.3886 21.1321 12.5133 21.5984 10.6139 21.5614C4.94639 21.4476 0.297925 16.8912 0.0785892 11.2267C0.022488 9.79721 0.252026 8.37084 0.753775 7.03109C1.25552 5.69134 2.01941 4.4651 3.00074 3.4241C3.98207 2.3831 5.16115 1.54825 6.46899 0.968389C7.77683 0.388527 9.18718 0.0752976 10.6175 0.0470236C12.0479 0.0187496 13.4695 0.275999 14.7992 0.803723C16.129 1.33145 17.3401 2.11905 18.3618 3.12045C19.3835 4.12185 20.1953 5.31695 20.7496 6.63583C21.3039 7.95471 21.5896 9.37088 21.59 10.8015ZM7.51945 10.8015C7.51945 11.4563 7.71362 12.0964 8.07741 12.6409C8.4412 13.1853 8.95826 13.6096 9.56322 13.8602C10.1682 14.1108 10.8339 14.1764 11.4761 14.0486C12.1183 13.9209 12.7082 13.6056 13.1712 13.1425C13.6342 12.6795 13.9495 12.0896 14.0773 11.4474C14.205 10.8052 14.1395 10.1395 13.8889 9.53455C13.6383 8.92959 13.214 8.41253 12.6695 8.04874C12.1251 7.68495 11.485 7.49078 10.8302 7.49078C9.95212 7.49078 9.11002 7.83959 8.48914 8.46047C7.86826 9.08135 7.51945 9.92345 7.51945 10.8015Z" fill="#5008EA"/>
</svg>
