<svg width="282" height="54" viewBox="0 0 282 54" fill="none" xmlns="http://www.w3.org/2000/svg">
<rect opacity="0.82" x="0.117188" y="0.291992" width="280.98" height="53.5059" rx="12" fill="white"/>
<path d="M54.3615 32.4951V22.1911H58.5375C60.0628 22.1911 61.1935 22.5964 61.9295 23.4071C62.6655 24.2071 63.0335 25.5405 63.0335 27.4071C63.0335 29.1671 62.6708 30.4578 61.9455 31.2791C61.2202 32.0898 60.0842 32.4951 58.5375 32.4951H54.3615ZM56.1055 31.1511H58.2655C58.9375 31.1511 59.4975 31.0551 59.9455 30.8631C60.3935 30.6605 60.7295 30.2871 60.9535 29.7431C61.1775 29.1991 61.2895 28.4205 61.2895 27.4071C61.2895 26.3938 61.1882 25.6098 60.9855 25.0551C60.7828 24.5005 60.4575 24.1111 60.0095 23.8871C59.5722 23.6631 58.9908 23.5511 58.2655 23.5511H56.1055V31.1511ZM68.5921 32.6551C67.2695 32.6551 66.2455 32.3298 65.5201 31.6791C64.7948 31.0285 64.4321 30.0311 64.4321 28.6871C64.4321 27.4711 64.7415 26.5111 65.3601 25.8071C65.9788 25.1031 66.9175 24.7511 68.1761 24.7511C69.3281 24.7511 70.1921 25.0551 70.7681 25.6631C71.3548 26.2605 71.6481 27.0338 71.6481 27.9831V29.3911H66.0961C66.1815 30.1271 66.4481 30.6338 66.8961 30.9111C67.3441 31.1885 68.0268 31.3271 68.9441 31.3271C69.3281 31.3271 69.7228 31.2898 70.1281 31.2151C70.5335 31.1405 70.8855 31.0445 71.1841 30.9271V32.2071C70.8428 32.3565 70.4481 32.4685 70.0001 32.5431C69.5628 32.6178 69.0935 32.6551 68.5921 32.6551ZM66.0961 28.2551H70.1121V27.7271C70.1121 27.2045 69.9681 26.7991 69.6801 26.5111C69.3921 26.2125 68.9068 26.0631 68.2241 26.0631C67.4135 26.0631 66.8535 26.2391 66.5441 26.5911C66.2455 26.9431 66.0961 27.4978 66.0961 28.2551ZM75.1429 32.4951L72.1509 24.9111H73.9589L76.0869 30.7991L78.2149 24.9111H80.0069L77.0309 32.4951H75.1429ZM84.6859 32.6551C83.3632 32.6551 82.3392 32.3298 81.6139 31.6791C80.8886 31.0285 80.5259 30.0311 80.5259 28.6871C80.5259 27.4711 80.8352 26.5111 81.4539 25.8071C82.0726 25.1031 83.0112 24.7511 84.2699 24.7511C85.4219 24.7511 86.2859 25.0551 86.8619 25.6631C87.4486 26.2605 87.7419 27.0338 87.7419 27.9831V29.3911H82.1899C82.2752 30.1271 82.5419 30.6338 82.9899 30.9111C83.4379 31.1885 84.1206 31.3271 85.0379 31.3271C85.4219 31.3271 85.8166 31.2898 86.2219 31.2151C86.6272 31.1405 86.9792 31.0445 87.2779 30.9271V32.2071C86.9366 32.3565 86.5419 32.4685 86.0939 32.5431C85.6566 32.6178 85.1872 32.6551 84.6859 32.6551ZM82.1899 28.2551H86.2059V27.7271C86.2059 27.2045 86.0619 26.7991 85.7739 26.5111C85.4859 26.2125 85.0006 26.0631 84.3179 26.0631C83.5072 26.0631 82.9472 26.2391 82.6379 26.5911C82.3392 26.9431 82.1899 27.4978 82.1899 28.2551ZM91.3276 32.6551C90.709 32.6551 90.2396 32.5058 89.9196 32.2071C89.5996 31.8978 89.4396 31.3911 89.4396 30.6871V21.7111H91.1836V30.5271C91.1836 30.8258 91.237 31.0285 91.3436 31.1351C91.4503 31.2418 91.6103 31.2951 91.8236 31.2951C92.0796 31.2951 92.325 31.2631 92.5596 31.1991V32.4631C92.357 32.5378 92.1596 32.5858 91.9676 32.6071C91.7863 32.6391 91.573 32.6551 91.3276 32.6551ZM97.556 32.6551C96.1907 32.6551 95.188 32.3138 94.548 31.6311C93.9187 30.9485 93.604 29.9725 93.604 28.7031C93.604 27.4338 93.924 26.4578 94.564 25.7751C95.204 25.0925 96.2013 24.7511 97.556 24.7511C98.9213 24.7511 99.924 25.0925 100.564 25.7751C101.204 26.4578 101.524 27.4338 101.524 28.7031C101.524 29.9725 101.204 30.9485 100.564 31.6311C99.9347 32.3138 98.932 32.6551 97.556 32.6551ZM97.556 31.1831C98.356 31.1831 98.9213 30.9911 99.252 30.6071C99.5933 30.2125 99.764 29.5778 99.764 28.7031C99.764 27.8285 99.5933 27.1991 99.252 26.8151C98.9213 26.4311 98.356 26.2391 97.556 26.2391C96.7667 26.2391 96.2013 26.4311 95.86 26.8151C95.5293 27.1991 95.364 27.8285 95.364 28.7031C95.364 29.5778 95.5293 30.2125 95.86 30.6071C96.2013 30.9911 96.7667 31.1831 97.556 31.1831ZM103.221 35.9511V24.9111H104.725L104.821 25.6631C105.162 25.3538 105.536 25.1245 105.941 24.9751C106.346 24.8258 106.826 24.7511 107.381 24.7511C108.469 24.7511 109.317 25.0498 109.925 25.6471C110.533 26.2338 110.837 27.2098 110.837 28.5751C110.837 29.9405 110.522 30.9645 109.893 31.6471C109.264 32.3191 108.405 32.6551 107.317 32.6551C106.4 32.6551 105.616 32.4418 104.965 32.0151V35.9511H103.221ZM106.869 31.3431C108.341 31.3431 109.077 30.4151 109.077 28.5591C109.077 27.6631 108.912 27.0285 108.581 26.6551C108.25 26.2711 107.696 26.0791 106.917 26.0791C106.138 26.0791 105.488 26.3458 104.965 26.8791V30.6711C105.21 30.8738 105.482 31.0391 105.781 31.1671C106.09 31.2845 106.453 31.3431 106.869 31.3431ZM116.373 32.6551C115.051 32.6551 114.027 32.3298 113.301 31.6791C112.576 31.0285 112.213 30.0311 112.213 28.6871C112.213 27.4711 112.523 26.5111 113.141 25.8071C113.76 25.1031 114.699 24.7511 115.957 24.7511C117.109 24.7511 117.973 25.0551 118.549 25.6631C119.136 26.2605 119.429 27.0338 119.429 27.9831V29.3911H113.877C113.963 30.1271 114.229 30.6338 114.677 30.9111C115.125 31.1885 115.808 31.3271 116.725 31.3271C117.109 31.3271 117.504 31.2898 117.909 31.2151C118.315 31.1405 118.667 31.0445 118.965 30.9271V32.2071C118.624 32.3565 118.229 32.4685 117.781 32.5431C117.344 32.6178 116.875 32.6551 116.373 32.6551ZM113.877 28.2551H117.893V27.7271C117.893 27.2045 117.749 26.7991 117.461 26.5111C117.173 26.2125 116.688 26.0631 116.005 26.0631C115.195 26.0631 114.635 26.2391 114.325 26.5911C114.027 26.9431 113.877 27.4978 113.877 28.2551ZM121.127 32.4951V24.9111H122.727L122.823 25.7911C123.186 25.5565 123.618 25.3431 124.119 25.1511C124.62 24.9591 125.116 24.8258 125.607 24.7511V26.0791C125.308 26.1325 124.983 26.2125 124.631 26.3191C124.29 26.4151 123.964 26.5271 123.655 26.6551C123.346 26.7725 123.084 26.8951 122.871 27.0231V32.4951H121.127ZM125.042 34.4151L125.522 31.3911H127.042L126.306 34.4151H125.042ZM132.424 32.4951V22.1911H136.6C138.125 22.1911 139.256 22.5964 139.992 23.4071C140.728 24.2071 141.096 25.5405 141.096 27.4071C141.096 29.1671 140.733 30.4578 140.008 31.2791C139.283 32.0898 138.147 32.4951 136.6 32.4951H132.424ZM134.168 31.1511H136.328C137 31.1511 137.56 31.0551 138.008 30.8631C138.456 30.6605 138.792 30.2871 139.016 29.7431C139.24 29.1991 139.352 28.4205 139.352 27.4071C139.352 26.3938 139.251 25.6098 139.048 25.0551C138.845 24.5005 138.52 24.1111 138.072 23.8871C137.635 23.6631 137.053 23.5511 136.328 23.5511H134.168V31.1511ZM146.655 32.6551C145.332 32.6551 144.308 32.3298 143.583 31.6791C142.857 31.0285 142.495 30.0311 142.495 28.6871C142.495 27.4711 142.804 26.5111 143.423 25.8071C144.041 25.1031 144.98 24.7511 146.239 24.7511C147.391 24.7511 148.255 25.0551 148.831 25.6631C149.417 26.2605 149.711 27.0338 149.711 27.9831V29.3911H144.159C144.244 30.1271 144.511 30.6338 144.959 30.9111C145.407 31.1885 146.089 31.3271 147.007 31.3271C147.391 31.3271 147.785 31.2898 148.191 31.2151C148.596 31.1405 148.948 31.0445 149.247 30.9271V32.2071C148.905 32.3565 148.511 32.4685 148.063 32.5431C147.625 32.6178 147.156 32.6551 146.655 32.6551ZM144.159 28.2551H148.175V27.7271C148.175 27.2045 148.031 26.7991 147.743 26.5111C147.455 26.2125 146.969 26.0631 146.287 26.0631C145.476 26.0631 144.916 26.2391 144.607 26.5911C144.308 26.9431 144.159 27.4978 144.159 28.2551ZM153.858 32.6551C153.336 32.6551 152.834 32.6178 152.354 32.5431C151.885 32.4685 151.496 32.3778 151.186 32.2711V30.7991C151.549 30.9378 151.949 31.0445 152.386 31.1191C152.824 31.1938 153.24 31.2311 153.634 31.2311C154.232 31.2311 154.658 31.1778 154.914 31.0711C155.17 30.9645 155.298 30.7565 155.298 30.4471C155.298 30.2231 155.218 30.0471 155.058 29.9191C154.909 29.7911 154.68 29.6738 154.37 29.5671C154.072 29.4605 153.688 29.3325 153.218 29.1831C152.77 29.0338 152.381 28.8738 152.05 28.7031C151.72 28.5218 151.464 28.2925 151.282 28.0151C151.101 27.7378 151.01 27.3751 151.01 26.9271C151.01 26.2338 151.261 25.7005 151.762 25.3271C152.264 24.9431 153.069 24.7511 154.178 24.7511C154.616 24.7511 155.032 24.7831 155.426 24.8471C155.821 24.9111 156.157 24.9911 156.434 25.0871V26.5431C156.136 26.4258 155.805 26.3351 155.442 26.2711C155.09 26.2071 154.76 26.1751 154.45 26.1751C153.896 26.1751 153.474 26.2231 153.186 26.3191C152.909 26.4151 152.77 26.6071 152.77 26.8951C152.77 27.1938 152.914 27.4071 153.202 27.5351C153.501 27.6525 153.976 27.8178 154.626 28.0311C155.224 28.2125 155.698 28.4045 156.05 28.6071C156.402 28.8098 156.653 29.0551 156.802 29.3431C156.962 29.6205 157.042 29.9831 157.042 30.4311C157.042 31.1778 156.77 31.7378 156.226 32.1111C155.682 32.4738 154.893 32.6551 153.858 32.6551ZM159.392 23.3271V21.8871H161.296V23.3271H159.392ZM159.536 32.4951V26.2391H158.384L158.544 24.9111H161.28V32.4951H159.536ZM166.387 35.3111C165.821 35.3111 165.256 35.2738 164.691 35.1991C164.125 35.1351 163.645 35.0338 163.251 34.8951V33.5511C163.677 33.6898 164.168 33.7965 164.723 33.8711C165.277 33.9458 165.805 33.9831 166.307 33.9831C167.075 33.9831 167.635 33.9405 167.987 33.8551C168.339 33.7698 168.515 33.5778 168.515 33.2791C168.515 33.0551 168.429 32.8951 168.259 32.7991C168.088 32.7138 167.763 32.6711 167.283 32.6711H165.235C163.859 32.6711 163.171 32.1858 163.171 31.2151C163.171 30.9058 163.261 30.6178 163.443 30.3511C163.624 30.0845 163.912 29.8818 164.307 29.7431C163.869 29.5298 163.544 29.2365 163.331 28.8631C163.128 28.4898 163.027 28.0418 163.027 27.5191C163.027 26.5485 163.315 25.8445 163.891 25.4071C164.477 24.9698 165.352 24.7511 166.515 24.7511C166.76 24.7511 167.016 24.7725 167.283 24.8151C167.549 24.8471 167.757 24.8791 167.907 24.9111H170.691L170.643 26.0471H169.363C169.565 26.2178 169.715 26.4311 169.811 26.6871C169.907 26.9431 169.955 27.2205 169.955 27.5191C169.955 28.3298 169.709 28.9698 169.219 29.4391C168.728 29.8978 167.987 30.1271 166.995 30.1271C166.824 30.1271 166.664 30.1218 166.515 30.1111C166.376 30.0898 166.221 30.0685 166.051 30.0471C165.731 30.0791 165.443 30.1645 165.187 30.3031C164.931 30.4418 164.803 30.6285 164.803 30.8631C164.803 31.0231 164.867 31.1405 164.995 31.2151C165.123 31.2791 165.336 31.3111 165.635 31.3111H167.763C168.52 31.3111 169.101 31.4765 169.507 31.8071C169.923 32.1271 170.131 32.5965 170.131 33.2151C170.131 33.9618 169.805 34.4951 169.155 34.8151C168.515 35.1458 167.592 35.3111 166.387 35.3111ZM166.515 29.0231C167.208 29.0231 167.688 28.9058 167.955 28.6711C168.232 28.4365 168.371 28.0365 168.371 27.4711C168.371 26.9058 168.232 26.4951 167.955 26.2391C167.688 25.9831 167.208 25.8551 166.515 25.8551C165.864 25.8551 165.389 25.9778 165.091 26.2231C164.792 26.4685 164.643 26.8845 164.643 27.4711C164.643 28.0151 164.781 28.4098 165.059 28.6551C165.347 28.9005 165.832 29.0231 166.515 29.0231ZM171.768 32.4951V24.9111H173.368L173.448 25.7111C173.789 25.4445 174.194 25.2205 174.664 25.0391C175.144 24.8471 175.672 24.7511 176.248 24.7511C177.229 24.7511 177.944 24.9805 178.392 25.4391C178.84 25.8978 179.064 26.6125 179.064 27.5831V32.4951H177.336V27.6631C177.336 27.0765 177.213 26.6658 176.968 26.4311C176.733 26.1965 176.285 26.0791 175.624 26.0791C175.229 26.0791 174.84 26.1591 174.456 26.3191C174.082 26.4791 173.768 26.6871 173.512 26.9431V32.4951H171.768ZM184.702 32.6551C183.379 32.6551 182.355 32.3298 181.63 31.6791C180.904 31.0285 180.542 30.0311 180.542 28.6871C180.542 27.4711 180.851 26.5111 181.47 25.8071C182.088 25.1031 183.027 24.7511 184.286 24.7511C185.438 24.7511 186.302 25.0551 186.878 25.6631C187.464 26.2605 187.758 27.0338 187.758 27.9831V29.3911H182.206C182.291 30.1271 182.558 30.6338 183.006 30.9111C183.454 31.1885 184.136 31.3271 185.054 31.3271C185.438 31.3271 185.832 31.2898 186.238 31.2151C186.643 31.1405 186.995 31.0445 187.294 30.9271V32.2071C186.952 32.3565 186.558 32.4685 186.11 32.5431C185.672 32.6178 185.203 32.6551 184.702 32.6551ZM182.206 28.2551H186.222V27.7271C186.222 27.2045 186.078 26.7991 185.79 26.5111C185.502 26.2125 185.016 26.0631 184.334 26.0631C183.523 26.0631 182.963 26.2391 182.654 26.5911C182.355 26.9431 182.206 27.4978 182.206 28.2551ZM189.455 32.4951V24.9111H191.055L191.151 25.7911C191.514 25.5565 191.946 25.3431 192.447 25.1511C192.949 24.9591 193.445 24.8258 193.935 24.7511V26.0791C193.637 26.1325 193.311 26.2125 192.959 26.3191C192.618 26.4151 192.293 26.5271 191.983 26.6551C191.674 26.7725 191.413 26.8951 191.199 27.0231V32.4951H189.455ZM193.37 34.4151L193.85 31.3911H195.37L194.634 34.4151H193.37ZM200.752 32.4951V24.9111H202.352L202.432 25.7111C202.805 25.4125 203.216 25.1778 203.664 25.0071C204.112 24.8365 204.592 24.7511 205.104 24.7511C205.648 24.7511 206.069 24.8418 206.368 25.0231C206.677 25.1938 206.912 25.4338 207.072 25.7431C207.424 25.4551 207.829 25.2205 208.288 25.0391C208.747 24.8471 209.296 24.7511 209.936 24.7511C210.811 24.7511 211.456 24.9751 211.872 25.4231C212.288 25.8711 212.496 26.5591 212.496 27.4871V32.4951H210.784V27.6631C210.784 27.0765 210.661 26.6658 210.416 26.4311C210.171 26.1965 209.771 26.0791 209.216 26.0791C208.853 26.0791 208.507 26.1431 208.176 26.2711C207.856 26.3991 207.579 26.5911 207.344 26.8471C207.376 26.9645 207.397 27.0871 207.408 27.2151C207.419 27.3431 207.424 27.4818 207.424 27.6311V32.4951H205.808V27.6791C205.808 27.1245 205.712 26.7191 205.52 26.4631C205.328 26.2071 204.965 26.0791 204.432 26.0791C204.059 26.0791 203.701 26.1698 203.36 26.3511C203.029 26.5218 202.731 26.7298 202.464 26.9751V32.4951H200.752ZM216.589 32.6551C216.109 32.6551 215.661 32.5698 215.245 32.3991C214.84 32.2285 214.514 31.9725 214.269 31.6311C214.024 31.2791 213.901 30.8471 213.901 30.3351C213.901 29.6098 214.146 29.0285 214.637 28.5911C215.138 28.1431 215.906 27.9191 216.941 27.9191H219.373V27.5831C219.373 27.2205 219.314 26.9325 219.197 26.7191C219.09 26.5058 218.888 26.3511 218.589 26.2551C218.301 26.1591 217.874 26.1111 217.309 26.1111C216.413 26.1111 215.576 26.2445 214.797 26.5111V25.2151C215.138 25.0765 215.554 24.9645 216.045 24.8791C216.536 24.7938 217.064 24.7511 217.629 24.7511C218.738 24.7511 219.581 24.9751 220.157 25.4231C220.744 25.8711 221.037 26.6018 221.037 27.6151V32.4951H219.549L219.437 31.7271C219.128 32.0258 218.744 32.2551 218.285 32.4151C217.837 32.5751 217.272 32.6551 216.589 32.6551ZM217.053 31.4071C217.576 31.4071 218.029 31.3218 218.413 31.1511C218.808 30.9698 219.128 30.7298 219.373 30.4311V29.1031H216.973C216.461 29.1031 216.088 29.2045 215.853 29.4071C215.629 29.5991 215.517 29.8978 215.517 30.3031C215.517 30.6978 215.65 30.9805 215.917 31.1511C216.184 31.3218 216.562 31.4071 217.053 31.4071ZM222.971 32.4951V24.9111H224.571L224.651 25.7111C224.992 25.4445 225.398 25.2205 225.867 25.0391C226.347 24.8471 226.875 24.7511 227.451 24.7511C228.432 24.7511 229.147 24.9805 229.595 25.4391C230.043 25.8978 230.267 26.6125 230.267 27.5831V32.4951H228.539V27.6631C228.539 27.0765 228.416 26.6658 228.171 26.4311C227.936 26.1965 227.488 26.0791 226.827 26.0791C226.432 26.0791 226.043 26.1591 225.659 26.3191C225.286 26.4791 224.971 26.6871 224.715 26.9431V32.4951H222.971ZM234.355 32.6551C233.875 32.6551 233.427 32.5698 233.011 32.3991C232.605 32.2285 232.28 31.9725 232.035 31.6311C231.789 31.2791 231.667 30.8471 231.667 30.3351C231.667 29.6098 231.912 29.0285 232.403 28.5911C232.904 28.1431 233.672 27.9191 234.707 27.9191H237.139V27.5831C237.139 27.2205 237.08 26.9325 236.963 26.7191C236.856 26.5058 236.653 26.3511 236.355 26.2551C236.067 26.1591 235.64 26.1111 235.075 26.1111C234.179 26.1111 233.341 26.2445 232.563 26.5111V25.2151C232.904 25.0765 233.32 24.9645 233.811 24.8791C234.301 24.7938 234.829 24.7511 235.395 24.7511C236.504 24.7511 237.347 24.9751 237.923 25.4231C238.509 25.8711 238.803 26.6018 238.803 27.6151V32.4951H237.315L237.203 31.7271C236.893 32.0258 236.509 32.2551 236.051 32.4151C235.603 32.5751 235.037 32.6551 234.355 32.6551ZM234.819 31.4071C235.341 31.4071 235.795 31.3218 236.179 31.1511C236.573 30.9698 236.893 30.7298 237.139 30.4311V29.1031H234.739C234.227 29.1031 233.853 29.2045 233.619 29.4071C233.395 29.5991 233.283 29.8978 233.283 30.3031C233.283 30.6978 233.416 30.9805 233.683 31.1511C233.949 31.3218 234.328 31.4071 234.819 31.4071ZM243.809 35.3111C243.243 35.3111 242.678 35.2738 242.113 35.1991C241.547 35.1351 241.067 35.0338 240.673 34.8951V33.5511C241.099 33.6898 241.59 33.7965 242.145 33.8711C242.699 33.9458 243.227 33.9831 243.729 33.9831C244.497 33.9831 245.057 33.9405 245.409 33.8551C245.761 33.7698 245.937 33.5778 245.937 33.2791C245.937 33.0551 245.851 32.8951 245.681 32.7991C245.51 32.7138 245.185 32.6711 244.705 32.6711H242.657C241.281 32.6711 240.593 32.1858 240.593 31.2151C240.593 30.9058 240.683 30.6178 240.865 30.3511C241.046 30.0845 241.334 29.8818 241.729 29.7431C241.291 29.5298 240.966 29.2365 240.753 28.8631C240.55 28.4898 240.449 28.0418 240.449 27.5191C240.449 26.5485 240.737 25.8445 241.313 25.4071C241.899 24.9698 242.774 24.7511 243.937 24.7511C244.182 24.7511 244.438 24.7725 244.705 24.8151C244.971 24.8471 245.179 24.8791 245.329 24.9111H248.113L248.065 26.0471H246.785C246.987 26.2178 247.137 26.4311 247.233 26.6871C247.329 26.9431 247.377 27.2205 247.377 27.5191C247.377 28.3298 247.131 28.9698 246.641 29.4391C246.15 29.8978 245.409 30.1271 244.417 30.1271C244.246 30.1271 244.086 30.1218 243.937 30.1111C243.798 30.0898 243.643 30.0685 243.473 30.0471C243.153 30.0791 242.865 30.1645 242.609 30.3031C242.353 30.4418 242.225 30.6285 242.225 30.8631C242.225 31.0231 242.289 31.1405 242.417 31.2151C242.545 31.2791 242.758 31.3111 243.057 31.3111H245.185C245.942 31.3111 246.523 31.4765 246.929 31.8071C247.345 32.1271 247.553 32.5965 247.553 33.2151C247.553 33.9618 247.227 34.4951 246.577 34.8151C245.937 35.1458 245.014 35.3111 243.809 35.3111ZM243.937 29.0231C244.63 29.0231 245.11 28.9058 245.377 28.6711C245.654 28.4365 245.793 28.0365 245.793 27.4711C245.793 26.9058 245.654 26.4951 245.377 26.2391C245.11 25.9831 244.63 25.8551 243.937 25.8551C243.286 25.8551 242.811 25.9778 242.513 26.2231C242.214 26.4685 242.065 26.8845 242.065 27.4711C242.065 28.0151 242.203 28.4098 242.481 28.6551C242.769 28.9005 243.254 29.0231 243.937 29.0231ZM253.28 32.6551C251.957 32.6551 250.933 32.3298 250.208 31.6791C249.482 31.0285 249.12 30.0311 249.12 28.6871C249.12 27.4711 249.429 26.5111 250.048 25.8071C250.666 25.1031 251.605 24.7511 252.864 24.7511C254.016 24.7511 254.88 25.0551 255.456 25.6631C256.042 26.2605 256.336 27.0338 256.336 27.9831V29.3911H250.784C250.869 30.1271 251.136 30.6338 251.584 30.9111C252.032 31.1885 252.714 31.3271 253.632 31.3271C254.016 31.3271 254.41 31.2898 254.816 31.2151C255.221 31.1405 255.573 31.0445 255.872 30.9271V32.2071C255.53 32.3565 255.136 32.4685 254.688 32.5431C254.25 32.6178 253.781 32.6551 253.28 32.6551ZM250.784 28.2551H254.8V27.7271C254.8 27.2045 254.656 26.7991 254.368 26.5111C254.08 26.2125 253.594 26.0631 252.912 26.0631C252.101 26.0631 251.541 26.2391 251.232 26.5911C250.933 26.9431 250.784 27.4978 250.784 28.2551ZM258.033 32.4951V24.9111H259.633L259.729 25.7911C260.092 25.5565 260.524 25.3431 261.025 25.1511C261.527 24.9591 262.023 24.8258 262.513 24.7511V26.0791C262.215 26.1325 261.889 26.2125 261.537 26.3191C261.196 26.4151 260.871 26.5271 260.561 26.6551C260.252 26.7725 259.991 26.8951 259.777 27.0231V32.4951H258.033Z" fill="#0A0C10"/>
<circle cx="31.2051" cy="27.7832" r="15.5273" fill="#1B1B1B"/>
<path d="M31.0942 31.3779C33.6143 31.3779 35.6572 29.335 35.6572 26.8149C35.6572 24.2949 33.6143 22.252 31.0942 22.252C28.5742 22.252 26.5312 24.2949 26.5312 26.8149C26.5312 29.335 28.5742 31.3779 31.0942 31.3779Z" stroke="white" stroke-width="1.5" stroke-linecap="round" stroke-linejoin="round"/>
<path d="M34.3203 30.041L37.4819 33.2026" stroke="white" stroke-width="1.5" stroke-linecap="round" stroke-linejoin="round"/>
</svg>
