<svg width="1048" height="574" viewBox="0 0 1048 574" fill="none" xmlns="http://www.w3.org/2000/svg">
<path d="M998.563 499.048L997.924 497.768L1003.49 494.986L1004.13 496.266L998.563 499.048Z" fill="#DBDBDB"/>
<path d="M992.374 510.984L991.088 510.347L995.889 500.765L997.171 501.402L992.374 510.984Z" fill="#DBDBDB"/>
<path d="M993.19 494.048L992.551 492.768L1007.11 485.497L1007.75 486.777L993.19 494.048Z" fill="#DBDBDB"/>
<path d="M977.762 524.784L976.48 524.147L988.008 501.131L989.289 501.769L977.762 524.784Z" fill="#DBDBDB"/>
<path d="M997.44 484.245L996.801 482.966L1001.43 480.65L1002.07 481.93L997.44 484.245Z" fill="#DBDBDB"/>
<path d="M972.366 520.201L971.08 519.563L975.676 510.388L976.957 511.025L972.366 520.201Z" fill="#DBDBDB"/>
<path d="M922.528 512.157L921.246 511.519L923.544 506.932L924.826 507.569L922.528 512.157Z" fill="#DBDBDB"/>
<path d="M921.452 498.949L920.17 498.311L936.25 466.201L937.532 466.839L921.452 498.949Z" fill="#DBDBDB"/>
<path d="M914.559 512.713L913.277 512.075L917.873 502.899L919.155 503.537L914.559 512.713Z" fill="#DBDBDB"/>
<path d="M913.477 499.501L912.195 498.863L935.185 452.96L936.467 453.598L913.477 499.501Z" fill="#DBDBDB"/>
<path d="M905.741 499.586L904.459 498.949L929.743 448.462L931.024 449.1L905.741 499.586Z" fill="#DBDBDB"/>
<path d="M900.34 495.008L899.059 494.37L926.666 439.244L927.948 439.882L900.34 495.008Z" fill="#DBDBDB"/>
<path d="M894.934 490.432L893.652 489.795L918.936 439.316L920.218 439.954L894.934 490.432Z" fill="#DBDBDB"/>
<path d="M889.538 485.854L888.256 485.217L915.85 430.112L917.136 430.75L889.538 485.854Z" fill="#DBDBDB"/>
<path d="M924.93 412.891L924.291 411.607L928.929 409.292L929.568 410.572L924.93 412.891Z" fill="#DBDBDB"/>
<path d="M881.833 485.867L880.547 485.229L912.809 420.816L914.091 421.45L881.833 485.867Z" fill="#DBDBDB"/>
<path d="M937.699 398.832L937.061 397.553L941.656 395.259L942.295 396.538L937.699 398.832Z" fill="#DBDBDB"/>
<path d="M919.248 408.041L918.609 406.762L923.248 404.446L923.886 405.726L919.248 408.041Z" fill="#DBDBDB"/>
<path d="M876.426 481.291L875.145 480.653L907.394 416.267L908.676 416.904L876.426 481.291Z" fill="#DBDBDB"/>
<path d="M922.824 398.575L922.186 397.295L935.981 390.409L936.619 391.689L922.824 398.575Z" fill="#DBDBDB"/>
<path d="M905.724 407.109L905.561 406.78L904.674 406.339L904.871 405.937L917.573 399.599L918.212 400.878L905.724 407.109Z" fill="#DBDBDB"/>
<path d="M900.918 417.032L899.637 416.395L901.982 411.713L903.263 412.351L900.918 417.032Z" fill="#DBDBDB"/>
<path d="M868.715 481.321L867.434 480.683L892.717 430.205L893.999 430.843L868.715 481.321Z" fill="#DBDBDB"/>
<path d="M897.85 407.793L896.568 407.155L899.745 400.817L911.894 394.753L912.532 396.033L900.812 401.883L897.85 407.793Z" fill="#DBDBDB"/>
<path d="M860.985 481.398L859.703 480.76L887.315 425.63L888.596 426.263L860.985 481.398Z" fill="#DBDBDB"/>
<path d="M895.243 397.638L893.961 396.996L894.613 395.695L906.217 389.904L906.856 391.184L895.68 396.76L895.243 397.638Z" fill="#DBDBDB"/>
<path d="M890.108 407.892L888.826 407.254L891.158 402.598L892.44 403.231L890.108 407.892Z" fill="#DBDBDB"/>
<path d="M835.852 491.78L835.213 490.501L851.1 482.571L884.211 416.459L885.493 417.097L852.167 483.636L835.852 491.78Z" fill="#DBDBDB"/>
<path d="M887.03 398.669L885.748 398.031L889.486 390.572L895.861 387.388L896.499 388.667L890.554 391.637L887.03 398.669Z" fill="#DBDBDB"/>
<path d="M881.624 394.103L880.342 393.465L882.768 388.616L884.05 389.254L881.624 394.103Z" fill="#DBDBDB"/>
<path d="M824.502 482.082L823.863 480.803L840.843 472.325L868.811 416.484L870.092 417.122L841.911 473.39L824.502 482.082Z" fill="#DBDBDB"/>
<path d="M876.213 389.532L874.932 388.895L879.227 380.327L879.446 380.22L879.806 380.887L880.397 381.183L876.213 389.532Z" fill="#DBDBDB"/>
<path d="M823.44 474.931L822.801 473.652L835.713 467.207L858.819 421.072L860.1 421.71L836.78 468.272L823.44 474.931Z" fill="#DBDBDB"/>
<path d="M863.885 398.789L862.604 398.151L867.212 388.954L868.494 389.592L863.885 398.789Z" fill="#DBDBDB"/>
<path d="M859.288 407.965L858.006 407.327L860.304 402.739L861.585 403.377L859.288 407.965Z" fill="#DBDBDB"/>
<path d="M822.393 467.772L821.754 466.492L830.585 462.084L848.821 425.669L850.103 426.307L831.652 463.15L822.393 467.772Z" fill="#DBDBDB"/>
<path d="M863.086 385.017L861.805 384.38L864.12 379.758L865.401 380.395L863.086 385.017Z" fill="#DBDBDB"/>
<path d="M856.186 398.802L854.904 398.165L859.5 388.98L860.786 389.618L856.186 398.802Z" fill="#DBDBDB"/>
<path d="M849.293 412.557L848.012 411.919L852.607 402.748L853.889 403.386L849.293 412.557Z" fill="#DBDBDB"/>
<path d="M821.424 460.57L820.785 459.291L825.454 456.967L834.229 439.446L835.51 440.084L826.521 458.033L821.424 460.57Z" fill="#DBDBDB"/>
<path d="M853.077 389.635L851.795 388.997L858.714 375.187L859.996 375.824L853.077 389.635Z" fill="#DBDBDB"/>
<path d="M846.19 403.394L844.908 402.756L849.504 393.585L850.785 394.223L846.19 403.394Z" fill="#DBDBDB"/>
<path d="M839.299 417.148L838.018 416.51L840.311 411.927L841.593 412.564L839.299 417.148Z" fill="#DBDBDB"/>
<path d="M821.175 453.016L820.708 452.301L820.215 452.057L821.78 448.941L823.061 449.579L821.389 452.909L821.175 453.016Z" fill="#DBDBDB"/>
<path d="M833.899 412.573L832.617 411.936L848.697 379.83L849.979 380.463L833.899 412.573Z" fill="#DBDBDB"/>
<path d="M849.129 366.79L847.848 366.152L853.06 355.744L854.342 356.382L849.129 366.79Z" fill="#DBDBDB"/>
<path d="M837.624 389.763L836.342 389.125L840.937 379.954L842.219 380.592L837.624 389.763Z" fill="#DBDBDB"/>
<path d="M845.778 358.124L844.496 357.487L848.444 349.603L854.39 346.638L855.029 347.917L849.512 350.669L845.778 358.124Z" fill="#DBDBDB"/>
<path d="M825.063 399.487L823.781 398.849L835.266 375.919L836.547 376.557L825.063 399.487Z" fill="#DBDBDB"/>
<path d="M820.467 408.654L819.186 408.016L821.483 403.433L822.765 404.07L820.467 408.654Z" fill="#DBDBDB"/>
<path d="M842.471 349.359L841.189 348.721L843.311 344.48L852.845 339.726L853.484 341.005L844.379 345.546L842.471 349.359Z" fill="#DBDBDB"/>
<path d="M819.385 395.45L818.104 394.812L834.183 362.702L835.465 363.34L819.385 395.45Z" fill="#DBDBDB"/>
<path d="M812.495 409.21L811.213 408.572L813.511 403.984L814.792 404.622L812.495 409.21Z" fill="#DBDBDB"/>
<path d="M839.038 340.529L838.751 339.96L838.035 339.661L838.185 339.357L846.609 335.154L847.248 336.434L839.038 340.529Z" fill="#DBDBDB"/>
<path d="M827.495 363.902L826.213 363.264L830.817 354.071L832.099 354.709L827.495 363.902Z" fill="#DBDBDB"/>
<path d="M811.419 396.003L810.133 395.365L823.915 367.852L825.197 368.489L811.419 396.003Z" fill="#DBDBDB"/>
<path d="M804.522 409.77L803.24 409.132L807.84 399.948L809.122 400.586L804.522 409.77Z" fill="#DBDBDB"/>
<path d="M1047.13 162.26L1045.48 163.082L1046.12 164.361L1047.77 163.539L1047.13 162.26Z" fill="#DBDBDB"/>
<path d="M841.006 331.868L840.367 330.588L845.023 328.265L845.661 329.544L841.006 331.868Z" fill="#DBDBDB"/>
<path d="M808.04 387.384L806.758 386.746L811.349 377.575L812.631 378.213L808.04 387.384Z" fill="#DBDBDB"/>
<path d="M798.846 405.742L797.564 405.104L799.866 400.504L801.148 401.142L798.846 405.742Z" fill="#DBDBDB"/>
<path d="M1039.27 160.063L1038.63 158.783L1043.67 156.267L1044.31 157.546L1039.27 160.063Z" fill="#DBDBDB"/>
<path d="M958.538 201.845L957.252 201.208L958.457 198.802L959.168 198.447L959.807 199.727L959.524 199.868L958.538 201.845Z" fill="#DBDBDB"/>
<path d="M793.169 401.711L791.883 401.074L796.487 391.881L797.769 392.519L793.169 401.711Z" fill="#DBDBDB"/>
<path d="M1041.79 150.563L1040.51 149.925L1042.93 145.089L1044.21 145.727L1041.79 150.563Z" fill="#DBDBDB"/>
<path d="M1033.02 155.497L1032.38 154.217L1037.2 151.816L1037.84 153.096L1033.02 155.497Z" fill="#DBDBDB"/>
<path d="M948.032 207.455L946.75 206.818L953.326 193.684L963.344 188.681L963.983 189.96L954.393 194.749L948.032 207.455Z" fill="#DBDBDB"/>
<path d="M837.834 318.087L837.195 316.808L846.408 312.207L847.046 313.487L837.834 318.087Z" fill="#DBDBDB"/>
<path d="M787.493 397.681L786.207 397.043L793.113 383.263L794.395 383.9L787.493 397.681Z" fill="#DBDBDB"/>
<path d="M1026.79 150.93L1026.15 149.65L1035.44 145.016L1035.71 145.572L1036.45 145.863L1036.34 146.077L1036.07 146.295L1026.79 150.93Z" fill="#DBDBDB"/>
<path d="M985.381 171.596L984.742 170.317L1012.31 156.558L1012.95 157.837L985.381 171.596Z" fill="#DBDBDB"/>
<path d="M942.354 203.423L941.072 202.786L948.197 188.56L966.356 179.496L966.995 180.776L949.264 189.626L942.354 203.423Z" fill="#DBDBDB"/>
<path d="M818.518 320.049L818.213 319.441L817.527 319.146L817.656 318.881L817.879 318.769L844.783 305.34L845.422 306.619L818.518 320.049Z" fill="#DBDBDB"/>
<path d="M800.204 356.938L798.922 356.301L808.113 337.945L809.395 338.583L800.204 356.938Z" fill="#DBDBDB"/>
<path d="M784.12 389.049L782.838 388.411L792.029 370.056L793.311 370.693L784.12 389.049Z" fill="#DBDBDB"/>
<path d="M943.918 184.611L943.832 184.436L942.82 183.931L943.065 183.439L1030.09 140L1031.42 137.343L1032.7 137.985L1031.15 141.066L944.102 184.568L944.051 184.547L943.918 184.611Z" fill="#DBDBDB"/>
<path d="M913.702 245.275L912.42 244.638L914.713 240.05L915.995 240.687L913.702 245.275Z" fill="#DBDBDB"/>
<path d="M866.76 288.284L866.121 287.005L899.554 270.314L903.181 263.073L904.462 263.711L900.621 271.38L866.76 288.284Z" fill="#DBDBDB"/>
<path d="M810.67 320.669L809.389 320.032L812.535 313.754L843.156 298.467L843.795 299.746L813.603 314.819L810.67 320.669Z" fill="#DBDBDB"/>
<path d="M806.022 329.951L804.74 329.314L807.051 324.7L808.333 325.338L806.022 329.951Z" fill="#DBDBDB"/>
<path d="M794.528 352.898L793.246 352.261L802.437 333.914L803.719 334.552L794.528 352.898Z" fill="#DBDBDB"/>
<path d="M778.444 385.017L777.162 384.379L786.357 366.02L787.639 366.657L778.444 385.017Z" fill="#DBDBDB"/>
<path d="M966.531 165.644L965.893 164.364L1025.17 134.771L1025.45 135.323L1026.2 135.609L1026.09 135.823L1025.81 136.05L966.531 165.644Z" fill="#DBDBDB"/>
<path d="M867.91 280.025L867.271 278.745L894.424 265.196L908.129 237.832L909.411 238.47L895.492 266.262L867.91 280.025Z" fill="#DBDBDB"/>
<path d="M787.944 350.681L786.662 350.043L807.406 308.629L844.307 290.21L844.946 291.49L808.473 309.695L787.944 350.681Z" fill="#DBDBDB"/>
<path d="M781.055 364.44L779.773 363.803L782.071 359.215L783.353 359.853L781.055 364.44Z" fill="#DBDBDB"/>
<path d="M774.159 378.207L772.877 377.57L777.477 368.386L778.759 369.023L774.159 378.207Z" fill="#DBDBDB"/>
<path d="M951.66 165.383L951.021 164.103L1020.04 129.652L1020.36 130.281L1021.01 130.598L1020.91 130.812L1020.68 130.932L951.66 165.383Z" fill="#DBDBDB"/>
<path d="M933.66 174.37L933.343 173.736L932.67 173.475L932.777 173.21L941.771 168.721L942.41 170L933.66 174.37Z" fill="#DBDBDB"/>
<path d="M910.903 220.136L909.617 219.498L911.915 214.91L913.197 215.548L910.903 220.136Z" fill="#DBDBDB"/>
<path d="M906.307 229.302L905.025 228.665L907.319 224.081L908.601 224.719L906.307 229.302Z" fill="#DBDBDB"/>
<path d="M901.712 238.478L900.43 237.841L902.727 233.253L904.009 233.891L901.712 238.478Z" fill="#DBDBDB"/>
<path d="M897.102 247.68L895.82 247.042L898.127 242.438L899.408 243.075L897.102 247.68Z" fill="#DBDBDB"/>
<path d="M857.643 277.471L857.004 276.191L866.195 271.604L866.834 272.883L857.643 277.471Z" fill="#DBDBDB"/>
<path d="M775.653 359.862L774.371 359.224L802.274 303.512L843.222 283.068L843.861 284.348L803.341 304.578L775.653 359.862Z" fill="#DBDBDB"/>
<path d="M768.756 373.634L767.475 372.996L772.074 363.808L773.356 364.445L768.756 373.634Z" fill="#DBDBDB"/>
<path d="M1017.64 121.957L1016.36 121.32L1018.76 116.535L1020.04 117.173L1017.64 121.957Z" fill="#DBDBDB"/>
<path d="M926.253 174.118L924.971 173.485L927.676 168.075L1009.84 127.063L1010.48 128.343L928.743 169.141L926.253 174.118Z" fill="#DBDBDB"/>
<path d="M900.907 224.728L899.625 224.09L908.812 205.748L910.093 206.386L900.907 224.728Z" fill="#DBDBDB"/>
<path d="M856.563 270.328L855.924 269.049L865.119 264.461L865.758 265.741L856.563 270.328Z" fill="#DBDBDB"/>
<path d="M774.842 346.112L773.561 345.474L797.142 298.39L842.145 275.926L842.784 277.205L798.21 299.455L774.842 346.112Z" fill="#DBDBDB"/>
<path d="M1010.25 120.776L1009.81 119.903L1009.46 119.732L1010.92 116.826L1012.2 117.464L1010.64 120.579L1010.25 120.776Z" fill="#DBDBDB"/>
<path d="M918.495 174.242L917.213 173.605L922.55 162.957L1004.14 122.224L1004.78 123.508L923.617 164.023L918.495 174.242Z" fill="#DBDBDB"/>
<path d="M883.973 243.173L882.691 242.536L908.001 192.002L909.283 192.64L883.973 243.173Z" fill="#DBDBDB"/>
<path d="M855.486 263.185L854.848 261.905L864.051 257.309L864.69 258.588L855.486 263.185Z" fill="#DBDBDB"/>
<path d="M771.739 336.949L770.457 336.311L792.011 293.266L845.656 266.493L846.295 267.773L793.079 294.332L771.739 336.949Z" fill="#DBDBDB"/>
<path d="M910.778 174.284L909.496 173.646L917.418 157.833L993.771 119.719L994.409 120.998L918.486 158.899L910.778 174.284Z" fill="#DBDBDB"/>
<path d="M876.01 243.704L874.729 243.066L900.299 192.006L901.581 192.644L876.01 243.704Z" fill="#DBDBDB"/>
<path d="M854.406 256.038L853.768 254.758L867.665 247.825L868.304 249.105L854.406 256.038Z" fill="#DBDBDB"/>
<path d="M764.04 336.957L762.758 336.319L786.884 288.148L835.389 263.934L836.028 265.213L787.951 289.213L764.04 336.957Z" fill="#DBDBDB"/>
<path d="M900.778 178.893L899.492 178.255L912.288 152.71L974.271 121.769L974.91 123.052L913.356 153.776L900.778 178.893Z" fill="#DBDBDB"/>
<path d="M760.936 327.795L759.654 327.158L781.753 283.026L868.775 239.588L890.308 196.604L891.59 197.241L869.843 240.654L782.82 284.092L760.936 327.795Z" fill="#DBDBDB"/>
<path d="M625.688 467.514L624.406 466.877L631.295 453.122L632.577 453.76L625.688 467.514Z" fill="#DBDBDB"/>
<path d="M757.829 318.631L756.547 317.994L776.626 277.907L863.645 234.464L907.156 147.588L959.408 121.508L960.047 122.787L908.223 148.653L864.712 235.53L777.694 278.972L757.829 318.631Z" fill="#DBDBDB"/>
<path d="M726.147 369.859L725.508 368.58L730.365 366.153L731.004 367.433L726.147 369.859Z" fill="#DBDBDB"/>
<path d="M617.987 467.528L616.705 466.891L635.078 430.197L636.36 430.835L617.987 467.528Z" fill="#DBDBDB"/>
<path d="M720.465 365.015L719.826 363.731L728.198 359.55L728.494 360.149L729.184 360.453L729.077 360.667L728.837 360.829L720.465 365.015Z" fill="#DBDBDB"/>
<path d="M614.885 458.361L613.604 457.724L631.981 421.03L633.263 421.668L614.885 458.361Z" fill="#DBDBDB"/>
<path d="M735.542 332.407L734.26 331.769L766.364 267.66L853.386 224.222L896.897 137.346L948.061 111.81L948.699 113.089L897.965 138.412L854.454 225.288L767.431 268.726L735.542 332.407Z" fill="#DBDBDB"/>
<path d="M710.142 362.481L709.508 361.201L723.071 354.431L723.71 355.71L710.142 362.481Z" fill="#DBDBDB"/>
<path d="M616.372 440.028L615.09 439.39L617.383 434.807L618.665 435.444L616.372 440.028Z" fill="#DBDBDB"/>
<path d="M709.098 355.322L708.459 354.042L717.727 349.416L761.234 262.539L848.257 219.101L891.768 132.229L937.795 109.252L938.434 110.532L892.839 133.295L849.324 220.167L762.301 263.605L718.795 350.481L709.098 355.322Z" fill="#DBDBDB"/>
<path d="M555.293 497.25L554.654 495.971L582.39 482.126L583.029 483.406L555.293 497.25Z" fill="#DBDBDB"/>
<path d="M708.113 348.131L707.475 346.851L712.593 344.297L756.104 257.416L843.127 213.982L886.638 127.106L927.526 106.696L928.164 107.976L887.705 128.171L844.194 215.048L757.172 258.482L713.66 345.362L708.113 348.131Z" fill="#DBDBDB"/>
<path d="M600.971 440.04L599.689 439.403L608.876 421.064L610.158 421.702L600.971 440.04Z" fill="#DBDBDB"/>
<path d="M587.149 467.644L585.867 467.006L592.799 453.17L594.081 453.808L587.149 467.644Z" fill="#DBDBDB"/>
<path d="M545.025 494.691L544.387 493.411L582.059 474.606L583.44 471.854L584.721 472.492L583.127 475.672L545.025 494.691Z" fill="#DBDBDB"/>
<path d="M702.422 343.29L701.783 342.011L707.463 339.173L750.974 252.297L837.997 208.859L881.508 121.983L921.852 101.843L922.49 103.122L882.576 123.048L839.064 209.925L752.042 253.363L708.531 340.239L702.422 343.29Z" fill="#DBDBDB"/>
<path d="M539.352 489.842L538.713 488.562L576.93 469.484L605.772 411.901L607.053 412.539L578.002 470.549L539.352 489.842Z" fill="#DBDBDB"/>
<path d="M702.502 335.567L701.863 334.287L702.331 334.052L745.842 247.176L832.869 203.737L876.375 116.861L911.583 99.2891L912.222 100.569L877.443 117.927L833.936 204.803L746.909 248.241L703.398 335.118L702.502 335.567Z" fill="#DBDBDB"/>
<path d="M538.272 482.7L537.633 481.42L571.803 464.366L615.314 377.49L631.643 369.337L632.282 370.617L616.382 378.555L572.871 465.431L538.272 482.7Z" fill="#DBDBDB"/>
<path d="M920.328 88.8372L919.689 87.5576L933.472 80.6846L934.11 81.9642L920.328 88.8372Z" fill="#DBDBDB"/>
<path d="M897.361 100.303L896.723 99.0238L910.505 92.1465L911.144 93.4261L897.361 100.303Z" fill="#DBDBDB"/>
<path d="M701.583 323.391L700.301 322.753L740.717 242.056L827.739 198.618L871.251 111.742L887.519 103.619L888.158 104.899L872.318 112.807L828.807 199.684L741.784 243.122L701.583 323.391Z" fill="#DBDBDB"/>
<path d="M532.596 477.85L531.957 476.571L566.672 459.243L610.183 372.366L635.171 359.896L635.81 361.175L611.25 373.432L567.739 460.308L532.596 477.85Z" fill="#DBDBDB"/>
<path d="M914.652 83.9933L914.014 82.7137L923.2 78.126L923.839 79.4056L914.652 83.9933Z" fill="#DBDBDB"/>
<path d="M896.279 93.1642L895.641 91.8846L904.827 87.2969L905.466 88.5765L896.279 93.1642Z" fill="#DBDBDB"/>
<path d="M873.188 104.689L872.549 103.41L877.221 101.077L877.86 102.357L873.188 104.689Z" fill="#DBDBDB"/>
<path d="M693.393 324.375L692.111 323.737L735.584 236.934L822.606 193.496L866.118 106.619L866.816 106.269L867.459 107.548L867.185 107.685L823.674 194.561L736.651 238L693.393 324.375Z" fill="#DBDBDB"/>
<path d="M531.516 470.708L530.877 469.428L561.541 454.124L605.052 367.248L638.686 350.459L639.325 351.739L606.119 368.314L562.608 455.19L531.516 470.708Z" fill="#DBDBDB"/>
<path d="M895.199 86.0163L894.561 84.7367L912.934 75.5654L913.573 76.845L895.199 86.0163Z" fill="#DBDBDB"/>
<path d="M690.758 314.274L689.477 313.636L730.459 231.81L817.477 188.376L860.988 101.496L866.852 98.5684L867.491 99.848L862.055 102.561L818.544 189.442L731.526 232.876L690.758 314.274Z" fill="#DBDBDB"/>
<path d="M530.436 463.566L529.797 462.286L556.414 449.002L599.921 362.126L623.824 350.194L624.463 351.478L600.988 363.192L557.481 450.068L530.436 463.566Z" fill="#DBDBDB"/>
<path d="M889.525 81.1686L888.887 79.889L907.26 70.7178L907.899 71.9974L889.525 81.1686Z" fill="#DBDBDB"/>
<path d="M682.999 314.403L681.717 313.766L725.327 226.693L812.349 183.254L855.86 96.3781L865.861 91.3838L866.5 92.6634L856.928 97.4437L813.416 184.32L726.394 227.758L682.999 314.403Z" fill="#DBDBDB"/>
<path d="M529.359 456.423L528.721 455.144L551.282 443.88L594.793 357.003L664.098 322.411L664.737 323.691L595.861 358.073L552.35 444.945L529.359 456.423Z" fill="#DBDBDB"/>
<path d="M674.858 310.954L674.219 309.674L676.684 308.446L720.195 221.569L807.217 178.131L850.729 91.255L861.831 85.7129L862.47 86.9925L851.796 92.3206L808.285 179.197L721.262 222.635L677.751 309.511L674.858 310.954Z" fill="#DBDBDB"/>
<path d="M614.748 340.959L614.109 339.679L664.672 314.442L665.311 315.722L614.748 340.959Z" fill="#DBDBDB"/>
<path d="M525.316 450.756L524.678 449.476L546.15 438.76L589.662 351.884L609.505 341.977L610.144 343.256L590.729 352.95L547.218 439.826L525.316 450.756Z" fill="#DBDBDB"/>
<path d="M663.725 308.831L663.086 307.551L671.552 303.323L715.064 216.447L802.09 173.009L843.728 89.8643L845.014 90.5019L803.158 174.074L716.131 217.513L672.62 304.389L663.725 308.831Z" fill="#DBDBDB"/>
<path d="M613.121 334.09L612.482 332.81L658.446 309.867L659.084 311.147L613.121 334.09Z" fill="#DBDBDB"/>
<path d="M523.695 443.883L523.057 442.603L541.023 433.637L584.534 346.761L603.285 337.401L603.923 338.681L585.601 347.827L542.09 434.703L523.695 443.883Z" fill="#DBDBDB"/>
<path d="M648.25 308.874L647.611 307.594L666.426 298.205L709.937 211.324L796.96 167.886L835.653 90.6348L836.935 91.2724L798.027 168.952L711.005 212.394L667.494 299.271L648.25 308.874Z" fill="#DBDBDB"/>
<path d="M606.902 329.511L606.264 328.231L643.015 309.889L643.653 311.168L606.902 329.511Z" fill="#DBDBDB"/>
<path d="M522.084 437.006L521.445 435.727L535.892 428.515L579.403 341.639L601.669 330.529L602.308 331.809L580.471 342.705L536.959 429.581L522.084 437.006Z" fill="#DBDBDB"/>
<path d="M646.637 301.996L645.998 300.717L661.293 293.082L704.805 206.206L791.827 162.768L829.971 86.6074L831.253 87.2451L792.895 163.833L705.872 207.271L662.361 294.148L646.637 301.996Z" fill="#DBDBDB"/>
<path d="M605.279 322.641L604.641 321.361L636.796 305.309L637.435 306.588L605.279 322.641Z" fill="#DBDBDB"/>
<path d="M525.15 427.797L524.512 426.517L530.762 423.397L574.269 336.521L600.041 323.656L600.68 324.936L575.336 337.586L531.829 424.463L525.15 427.797Z" fill="#DBDBDB"/>
<path d="M597.434 311.194L596.795 309.914L651.036 282.837L694.547 195.965L781.566 152.527L816.306 83.167L817.588 83.8047L782.633 153.592L695.615 197.031L652.104 283.903L597.434 311.194Z" fill="#DBDBDB"/>
<path d="M524.026 409.316L522.744 408.679L564.013 326.275L592.204 312.203L592.842 313.483L565.081 327.34L524.026 409.316Z" fill="#DBDBDB"/>
<path d="M811.913 79.7684L810.631 79.1307L819.843 60.7412L821.125 61.3789L811.913 79.7684Z" fill="#DBDBDB"/>
<path d="M520.704 400.582L519.422 399.944L558.882 321.157L645.905 277.714L689.416 190.842L776.438 147.404L808.332 83.7275L809.614 84.3652L777.506 148.47L690.483 191.908L646.972 278.784L559.95 322.222L520.704 400.582Z" fill="#DBDBDB"/>
<path d="M303.433 571.328L302.224 571.93L302.863 573.209L304.072 572.608L303.433 571.328Z" fill="#DBDBDB"/>
<path d="M644.874 252.242L643.592 251.604L679.155 180.597L766.178 137.159L806.47 56.7061L807.751 57.3437L767.245 138.224L680.223 181.662L644.874 252.242Z" fill="#DBDBDB"/>
<path d="M516.524 378.199L515.242 377.562L548.624 310.911L635.646 267.473L636.353 266.061L637.635 266.698L636.714 268.538L549.691 311.977L516.524 378.199Z" fill="#DBDBDB"/>
<path d="M288.486 572.88L287.209 572.238L287.56 571.54L298.655 565.998L299.294 567.278L288.624 572.606L288.486 572.88Z" fill="#DBDBDB"/>
<path d="M641.776 243.066L640.494 242.429L674.026 175.478L761.048 132.04L798.729 56.7959L800.015 57.4336L762.116 133.106L675.093 176.544L641.776 243.066Z" fill="#DBDBDB"/>
<path d="M587.371 285.49L586.732 284.21L630.514 262.354L630.668 262.042L631.954 262.68L631.581 263.42L587.371 285.49Z" fill="#DBDBDB"/>
<path d="M511.122 373.62L509.84 372.983L543.491 305.793L582.137 286.5L582.776 287.78L544.559 306.858L511.122 373.62Z" fill="#DBDBDB"/>
<path d="M281.635 571.194L280.354 570.557L282.428 566.418L292.978 561.154L293.617 562.434L283.496 567.484L281.635 571.194Z" fill="#DBDBDB"/>
<path d="M796.936 48.2158L795.654 47.5781L798.132 42.6309L799.414 43.2685L796.936 48.2158Z" fill="#DBDBDB"/>
<path d="M643.266 224.724L641.984 224.087L668.893 170.356L755.915 126.918L793.326 52.2256L794.608 52.8633L756.983 127.983L669.96 171.422L643.266 224.724Z" fill="#DBDBDB"/>
<path d="M636.374 238.491L635.088 237.854L639.688 228.674L640.969 229.311L636.374 238.491Z" fill="#DBDBDB"/>
<path d="M590.883 276.054L590.244 274.774L625.383 257.232L632.787 242.45L634.068 243.088L626.451 258.298L590.883 276.054Z" fill="#DBDBDB"/>
<path d="M503.415 373.647L502.133 373.009L538.365 300.671L567.28 286.235L567.918 287.515L539.432 301.736L503.415 373.647Z" fill="#DBDBDB"/>
<path d="M276.62 565.848L275.334 565.21L277.297 561.294L287.294 556.309L287.933 557.588L278.365 562.36L276.62 565.848Z" fill="#DBDBDB"/>
<path d="M789.21 48.2889L787.928 47.6512L792.669 38.1719L793.951 38.8095L789.21 48.2889Z" fill="#DBDBDB"/>
<path d="M635.569 224.733L634.287 224.095L663.768 165.234L750.79 121.795L785.616 52.2559L786.898 52.8935L751.857 122.861L664.835 166.303L635.569 224.733Z" fill="#DBDBDB"/>
<path d="M594.393 266.618L593.754 265.338L620.255 252.11L627.384 237.876L628.666 238.514L621.322 253.176L594.393 266.618Z" fill="#DBDBDB"/>
<path d="M580.617 273.494L579.979 272.215L584.57 269.921L585.208 271.205L580.617 273.494Z" fill="#DBDBDB"/>
<path d="M498.008 369.071L496.727 368.433L533.233 295.547L561.603 281.386L562.242 282.665L534.301 296.613L498.008 369.071Z" fill="#DBDBDB"/>
<path d="M273.019 557.349L272.856 557.019L271.965 556.579L272.166 556.176L290.857 546.847L291.496 548.126L273.019 557.349Z" fill="#DBDBDB"/>
<path d="M781.497 48.3181L780.215 47.6804L787.232 33.6689L788.514 34.3066L781.497 48.3181Z" fill="#DBDBDB"/>
<path d="M574.94 268.646L574.301 267.366L615.124 246.987L658.635 160.115L745.658 116.677L773.316 61.4482L774.598 62.0859L746.725 117.742L659.703 161.181L616.192 248.053L574.94 268.646Z" fill="#DBDBDB"/>
<path d="M561.162 275.523L560.523 274.244L565.115 271.954L565.753 273.234L561.162 275.523Z" fill="#DBDBDB"/>
<path d="M487.921 373.851L486.635 373.213L528.101 290.424L537.489 285.742L538.128 287.022L529.169 291.49L487.921 373.851Z" fill="#DBDBDB"/>
<path d="M267.888 552.227L267.798 552.038L266.795 551.537L267.035 551.054L298.976 535.112L299.615 536.392L268.077 552.175L268.03 552.158L267.888 552.227Z" fill="#DBDBDB"/>
<path d="M776.094 43.7388L774.812 43.1011L781.804 29.1367L783.086 29.7744L776.094 43.7388Z" fill="#DBDBDB"/>
<path d="M610.796 243.066L610.521 242.398L609.887 242.082L653.505 154.991L740.528 111.553L765.618 61.4561L766.9 62.0937L741.595 112.619L654.573 156.057L611.048 242.963L610.796 243.066Z" fill="#DBDBDB"/>
<path d="M569.27 263.797L568.631 262.517L600.846 246.435L601.485 247.714L569.27 263.797Z" fill="#DBDBDB"/>
<path d="M480.314 373.354L479.962 372.7L479.354 372.396L522.972 285.305L531.807 280.897L532.446 282.177L524.039 286.371L480.528 373.247L480.314 373.354Z" fill="#DBDBDB"/>
<path d="M266.07 545.456L265.432 544.172L293.3 530.264L293.939 531.543L266.07 545.456Z" fill="#DBDBDB"/>
<path d="M768.391 43.756L767.109 43.1183L774.028 29.3037L775.31 29.9414L768.391 43.756Z" fill="#DBDBDB"/>
<path d="M698.963 126.221L698.324 124.941L735.397 106.436L757.92 61.4658L759.201 62.1035L736.464 107.502L698.963 126.221Z" fill="#DBDBDB"/>
<path d="M605.718 237.918L605.311 237.238L604.758 236.96L648.376 149.869L693.726 127.234L694.365 128.514L649.444 150.935L605.932 237.811L605.718 237.918Z" fill="#DBDBDB"/>
<path d="M563.594 258.949L562.955 257.669L590.536 243.897L591.175 245.177L563.594 258.949Z" fill="#DBDBDB"/>
<path d="M554.406 263.532L553.768 262.252L558.359 259.958L558.998 261.238L554.406 263.532Z" fill="#DBDBDB"/>
<path d="M465.025 373.304L464.387 372.024L474.332 367.06L517.843 280.184L521.303 278.459L521.937 279.739L518.911 281.249L475.4 368.126L465.025 373.304Z" fill="#DBDBDB"/>
<path d="M369.538 449.182L368.256 448.544L375.149 434.785L376.431 435.423L369.538 449.182Z" fill="#DBDBDB"/>
<path d="M269.854 535.883L269.215 534.603L301.4 518.533L302.039 519.817L269.854 535.883Z" fill="#DBDBDB"/>
<path d="M762.991 39.1762L761.709 38.5385L770.969 20.042L772.255 20.6797L762.991 39.1762Z" fill="#DBDBDB"/>
<path d="M707.068 114.49L706.43 113.21L730.269 101.313L747.926 66.0576L749.208 66.6953L731.336 102.379L707.068 114.49Z" fill="#DBDBDB"/>
<path d="M600.323 232.927L599.835 231.939L599.629 231.84L599.706 231.682L599.689 231.648L599.736 231.622L643.247 144.75L701.835 115.503L702.474 116.783L644.315 145.815L600.804 232.692L600.323 232.927Z" fill="#DBDBDB"/>
<path d="M562.514 251.805L561.875 250.525L571.057 245.938L571.696 247.217L562.514 251.805Z" fill="#DBDBDB"/>
<path d="M548.731 258.683L548.092 257.403L557.278 252.815L557.917 254.095L548.731 258.683Z" fill="#DBDBDB"/>
<path d="M530.344 267.863L529.705 266.583L534.309 264.285L534.948 265.565L530.344 267.863Z" fill="#DBDBDB"/>
<path d="M459.346 368.456L458.707 367.176L469.201 361.938L512.712 275.066L520.437 271.21L521.076 272.49L513.78 276.132L470.269 363.004L459.346 368.456Z" fill="#DBDBDB"/>
<path d="M357.247 458.361L355.965 457.724L382.179 405.375L389.655 401.644L390.294 402.923L383.246 406.441L357.247 458.361Z" fill="#DBDBDB"/>
<path d="M314.742 505.792L314.104 504.512L323.307 499.92L323.946 501.2L314.742 505.792Z" fill="#DBDBDB"/>
<path d="M268.791 528.731L268.152 527.451L309.507 506.811L310.146 508.09L268.791 528.731Z" fill="#DBDBDB"/>
<path d="M757.584 34.6019L756.303 33.9643L763.217 20.1582L764.499 20.7959L757.584 34.6019Z" fill="#DBDBDB"/>
<path d="M705.992 107.347L705.354 106.068L725.137 96.1903L733.329 79.8379L734.611 80.4756L726.205 97.2559L705.992 107.347Z" fill="#DBDBDB"/>
<path d="M584.443 233.175L583.805 231.896L594.603 226.504L638.114 139.627L700.753 108.36L701.392 109.64L639.182 140.693L595.671 227.569L584.443 233.175Z" fill="#DBDBDB"/>
<path d="M543.059 253.833L542.42 252.554L574.58 236.501L575.218 237.781L543.059 253.833Z" fill="#DBDBDB"/>
<path d="M524.668 263.013L524.029 261.729L537.824 254.848L538.463 256.127L524.668 263.013Z" fill="#DBDBDB"/>
<path d="M453.666 363.61L453.027 362.33L464.07 356.818L507.586 269.942L519.413 264.036L520.048 265.316L508.653 271.008L465.142 357.884L453.666 363.61Z" fill="#DBDBDB"/>
<path d="M272.32 519.289L271.682 518.01L333.54 487.132L377.047 400.252L378.393 399.584L379.032 400.864L378.115 401.322L334.608 488.198L272.32 519.289Z" fill="#DBDBDB"/>
<path d="M754.485 25.431L753.203 24.7934L757.816 15.5879L759.098 16.2256L754.485 25.431Z" fill="#DBDBDB"/>
<path d="M704.92 100.196L704.285 98.9164L720.009 91.0676L725.616 79.8721L726.898 80.5097L721.077 92.1332L704.92 100.196Z" fill="#DBDBDB"/>
<path d="M686.529 109.375L685.891 108.095L699.677 101.218L700.316 102.497L686.529 109.375Z" fill="#DBDBDB"/>
<path d="M583.424 225.999L582.785 224.72L589.473 221.382L632.984 134.505L681.301 110.39L681.939 111.669L634.051 135.571L590.54 222.447L583.424 225.999Z" fill="#DBDBDB"/>
<path d="M546.568 244.396L545.93 243.117L578.124 227.047L578.762 228.326L546.568 244.396Z" fill="#DBDBDB"/>
<path d="M532.793 251.275L532.154 249.996L541.341 245.412L541.98 246.692L532.793 251.275Z" fill="#DBDBDB"/>
<path d="M447.99 358.761L447.352 357.481L458.943 351.695L502.454 264.819L503.29 264.399L503.929 265.679L503.522 265.884L460.011 352.761L447.99 358.761Z" fill="#DBDBDB"/>
<path d="M271.24 512.143L270.602 510.863L328.409 482.01L371.921 395.134L372.576 394.809L373.215 396.088L372.988 396.199L329.477 483.076L271.24 512.143Z" fill="#DBDBDB"/>
<path d="M746.78 25.4436L745.498 24.8059L747.8 20.2139L749.082 20.8515L746.78 25.4436Z" fill="#DBDBDB"/>
<path d="M685.449 102.237L684.811 100.958L698.606 94.0674L699.244 95.347L685.449 102.237Z" fill="#DBDBDB"/>
<path d="M540.895 239.548L540.256 238.268L584.346 216.262L627.857 129.386L675.625 105.54L676.264 106.82L628.925 130.452L585.413 217.328L540.895 239.548Z" fill="#DBDBDB"/>
<path d="M527.115 246.426L526.477 245.146L535.663 240.562L536.302 241.842L527.115 246.426Z" fill="#DBDBDB"/>
<path d="M513.316 253.315L512.678 252.036L517.282 249.733L517.921 251.017L513.316 253.315Z" fill="#DBDBDB"/>
<path d="M442.311 353.913L441.672 352.634L453.812 346.574L495.874 262.595L497.156 263.232L454.88 347.639L442.311 353.913Z" fill="#DBDBDB"/>
<path d="M274.756 502.706L274.117 501.427L323.278 476.887L365.195 393.199L366.477 393.837L324.346 477.953L274.756 502.706Z" fill="#DBDBDB"/>
<path d="M684.369 95.0893L683.73 93.8097L702.194 84.5957L702.833 85.8753L684.369 95.0893Z" fill="#DBDBDB"/>
<path d="M661.406 106.555L660.768 105.275L665.359 102.985L665.997 104.265L661.406 106.555Z" fill="#DBDBDB"/>
<path d="M521.44 241.576L520.801 240.297L579.213 211.14L622.724 124.263L646.983 112.156L647.622 113.436L623.792 125.329L580.28 212.205L521.44 241.576Z" fill="#DBDBDB"/>
<path d="M512.246 246.164L511.607 244.885L516.207 242.591L516.846 243.87L512.246 246.164Z" fill="#DBDBDB"/>
<path d="M493.152 255.699L492.514 254.42L502.373 249.498L503.012 250.778L493.152 255.699Z" fill="#DBDBDB"/>
<path d="M441.272 346.748L440.633 345.469L448.683 341.455L485.692 267.55L486.973 268.187L449.751 342.52L441.272 346.748Z" fill="#DBDBDB"/>
<path d="M273.67 495.568L273.031 494.288L318.146 471.765L359.754 388.697L361.035 389.335L319.213 472.83L273.67 495.568Z" fill="#DBDBDB"/>
<path d="M692.506 83.3511L691.867 82.0715L696.51 79.752L697.149 81.0316L692.506 83.3511Z" fill="#DBDBDB"/>
<path d="M651.139 104L650.5 102.721L655.091 100.427L655.73 101.706L651.139 104Z" fill="#DBDBDB"/>
<path d="M529.547 229.85L528.908 228.571L574.087 206.017L617.598 119.141L622.76 116.564L623.398 117.844L618.666 120.206L575.154 207.083L529.547 229.85Z" fill="#DBDBDB"/>
<path d="M515.77 236.728L515.131 235.448L524.318 230.86L524.956 232.14L515.77 236.728Z" fill="#DBDBDB"/>
<path d="M435.588 341.904L434.949 340.624L443.553 336.332L487.064 249.455L496.692 244.649L497.331 245.929L488.132 250.521L444.62 337.397L435.588 341.904Z" fill="#DBDBDB"/>
<path d="M277.186 486.132L276.547 484.852L313.019 466.647L354.327 384.17L355.609 384.808L314.087 467.712L277.186 486.132Z" fill="#DBDBDB"/>
<path d="M645.463 99.1515L644.824 97.8719L654.007 93.2842L654.645 94.5638L645.463 99.1515Z" fill="#DBDBDB"/>
<path d="M627.057 108.336L626.418 107.056L631.031 104.754L631.669 106.034L627.057 108.336Z" fill="#DBDBDB"/>
<path d="M471.563 268.234L470.281 267.596L481.933 244.332L568.955 200.894L603.237 132.45L604.519 133.088L570.023 201.96L483 245.402L471.563 268.234Z" fill="#DBDBDB"/>
<path d="M439.326 332.357L438.945 331.736L438.314 331.424L467.984 272.189L469.265 272.827L439.502 332.25L439.326 332.357Z" fill="#DBDBDB"/>
<path d="M639.785 94.3028L639.146 93.0232L652.924 86.1416L653.563 87.4212L639.785 94.3028Z" fill="#DBDBDB"/>
<path d="M599.118 128.509L597.836 127.872L604.811 113.941L606.092 114.579L599.118 128.509Z" fill="#DBDBDB"/>
<path d="M463.864 268.244L462.582 267.606L476.801 239.215L563.824 195.777L593.236 137.052L594.518 137.689L564.891 196.842L477.869 240.28L463.864 268.244Z" fill="#DBDBDB"/>
<path d="M436.155 323.571L434.873 322.934L437.278 318.132L438.56 318.769L436.155 323.571Z" fill="#DBDBDB"/>
<path d="M279.615 469.551L278.977 468.272L302.76 456.404L341.14 379.761L342.426 380.398L303.827 457.47L279.615 469.551Z" fill="#DBDBDB"/>
<path d="M638.705 87.1564L638.066 85.8768L665.631 72.1221L666.269 73.4017L638.705 87.1564Z" fill="#DBDBDB"/>
<path d="M593.711 123.934L592.43 123.296L599.396 109.388L600.678 110.025L593.711 123.934Z" fill="#DBDBDB"/>
<path d="M484.926 229.076L484.287 227.797L558.698 190.654L590.133 127.885L591.415 128.522L559.765 191.72L484.926 229.076Z" fill="#DBDBDB"/>
<path d="M463.061 254.489L461.775 253.851L471.459 234.524L472.741 235.162L463.061 254.489Z" fill="#DBDBDB"/>
<path d="M278.541 462.409L277.902 461.13L297.63 451.282L335.74 375.19L337.022 375.828L298.698 452.348L278.541 462.409Z" fill="#DBDBDB"/>
<path d="M646.813 75.4293L646.174 74.1497L684.099 55.2166L685.334 52.7559L686.616 53.3935L685.167 56.2823L646.813 75.4293Z" fill="#DBDBDB"/>
<path d="M479.25 224.228L478.611 222.948L553.566 185.536L591.646 109.504L592.928 110.142L554.634 186.601L479.25 224.228Z" fill="#DBDBDB"/>
<path d="M462.27 240.699L460.988 240.061L466.192 229.675L467.474 230.312L462.27 240.699Z" fill="#DBDBDB"/>
<path d="M282.09 452.956L281.451 451.676L292.498 446.16L330.334 370.62L331.616 371.258L293.566 447.225L282.09 452.956Z" fill="#DBDBDB"/>
<path d="M557.295 165.917L556.014 165.279L585.901 105.608L587.183 106.246L557.295 165.917Z" fill="#DBDBDB"/>
<path d="M546.891 182.779L546.252 181.5L548.434 180.412L553.702 169.897L554.984 170.535L549.501 181.478L546.891 182.779Z" fill="#DBDBDB"/>
<path d="M477.514 217.41L476.875 216.131L541.302 183.974L541.94 185.253L477.514 217.41Z" fill="#DBDBDB"/>
<path d="M280.379 446.126L279.74 444.847L287.367 441.042L326.912 362.083L328.194 362.721L288.434 442.108L280.379 446.126Z" fill="#DBDBDB"/>
<path d="M553.922 157.29L552.641 156.652L580.222 101.582L581.504 102.22L553.922 157.29Z" fill="#DBDBDB"/>
<path d="M498.879 199.063L498.24 197.783L521.209 186.318L521.848 187.598L498.879 199.063Z" fill="#DBDBDB"/>
<path d="M485.096 205.944L484.457 204.665L493.644 200.081L494.282 201.361L485.096 205.944Z" fill="#DBDBDB"/>
<path d="M278.893 439.189L278.254 437.91L282.241 435.92L318.914 362.695L320.196 363.333L283.308 436.985L278.893 439.189Z" fill="#DBDBDB"/>
<path d="M679.974 17.3887L677.674 21.9971L678.955 22.6346L681.255 18.0262L679.974 17.3887Z" fill="#DBDBDB"/>
<path d="M557.44 134.902L556.158 134.265L576.859 92.9277L578.141 93.5654L557.44 134.902Z" fill="#DBDBDB"/>
<path d="M552.846 144.074L551.564 143.436L553.862 138.849L555.144 139.486L552.846 144.074Z" fill="#DBDBDB"/>
<path d="M543.62 162.49L542.338 161.852L544.657 157.226L545.939 157.863L543.62 162.49Z" fill="#DBDBDB"/>
<path d="M524.836 178.427L524.197 177.147L538.361 170.077L539 171.357L524.836 178.427Z" fill="#DBDBDB"/>
<path d="M515.625 183.023L514.986 181.743L519.586 179.445L520.225 180.725L515.625 183.023Z" fill="#DBDBDB"/>
<path d="M469.678 205.957L469.039 204.677L492.021 193.208L492.659 194.488L469.678 205.957Z" fill="#DBDBDB"/>
<path d="M272.608 434.643L271.969 433.363L277.109 430.796L313.234 358.667L314.515 359.305L278.176 431.861L272.608 434.643Z" fill="#DBDBDB"/>
<path d="M668.612 27.8878L667.326 27.2501L671.969 17.9805L673.251 18.6181L668.612 27.8878Z" fill="#DBDBDB"/>
<path d="M509.408 178.444L508.77 177.164L533.046 165.049L568.867 93.5234L570.148 94.1611L534.113 166.114L509.408 178.444Z" fill="#DBDBDB"/>
<path d="M468.063 199.085L467.424 197.805L490.393 186.34L491.031 187.619L468.063 199.085Z" fill="#DBDBDB"/>
<path d="M266.35 430.081L265.711 428.802L271.983 425.673L307.559 354.636L308.841 355.273L273.05 426.739L266.35 430.081Z" fill="#DBDBDB"/>
<path d="M660.124 29.4627L658.842 28.825L663.982 18.5625L665.263 19.2002L660.124 29.4627Z" fill="#DBDBDB"/>
<path d="M512.391 169.273L511.752 167.993L527.918 159.926L560.887 94.0928L562.169 94.7304L528.985 160.992L512.391 169.273Z" fill="#DBDBDB"/>
<path d="M471.035 189.918L470.396 188.638L484.174 181.761L484.813 183.04L471.035 189.918Z" fill="#DBDBDB"/>
<path d="M452.611 199.111L451.973 197.831L465.802 190.933L466.441 192.212L452.611 199.111Z" fill="#DBDBDB"/>
<path d="M265.003 423.08L264.355 421.796L266.85 420.555L301.882 350.604L303.164 351.242L267.918 421.621L265.003 423.08Z" fill="#DBDBDB"/>
<path d="M651.035 27.2286L650.396 25.949L653.32 24.494L660.646 9.86621L661.928 10.5039L654.388 25.5596L651.035 27.2286Z" fill="#DBDBDB"/>
<path d="M501.565 166.997L500.926 165.717L522.784 154.804L550.614 99.2334L551.896 99.8711L523.852 155.87L501.565 166.997Z" fill="#DBDBDB"/>
<path d="M455.619 189.931L454.98 188.651L477.958 177.182L478.597 178.461L455.619 189.931Z" fill="#DBDBDB"/>
<path d="M258.629 418.573L257.99 417.293L261.72 415.432L293.905 351.169L295.187 351.807L262.787 416.497L258.629 418.573Z" fill="#DBDBDB"/>
<path d="M635.334 27.3864L634.695 26.1068L648.405 19.2637L648.567 19.5932L649.459 20.0383L649.258 20.4363L635.334 27.3864Z" fill="#DBDBDB"/>
<path d="M504.559 157.821L503.92 156.541L517.655 149.685L540.354 104.368L541.636 105.006L518.723 150.751L504.559 157.821Z" fill="#DBDBDB"/>
<path d="M463.191 178.469L462.553 177.19L480.926 168.019L481.565 169.298L463.191 178.469Z" fill="#DBDBDB"/>
<path d="M257.438 411.49L257.065 410.81L256.486 410.527L290.532 342.541L291.814 343.179L257.657 411.383L257.438 411.49Z" fill="#DBDBDB"/>
<path d="M624.504 25.1096L623.865 23.83L637.789 16.8799L638.428 18.1595L624.504 25.1096Z" fill="#DBDBDB"/>
<path d="M502.955 150.939L502.316 149.659L512.523 144.562L513.818 141.981L515.1 142.619L513.591 145.628L502.955 150.939Z" fill="#DBDBDB"/>
<path d="M466.156 169.303L465.518 168.023L479.3 161.15L479.938 162.43L466.156 169.303Z" fill="#DBDBDB"/>
<path d="M251.807 406.617L251.168 405.337L251.459 405.191L280.258 347.69L281.54 348.328L252.527 406.257L251.807 406.617Z" fill="#DBDBDB"/>
<path d="M618.285 20.5348L617.646 19.2552L622.246 16.957L622.885 18.2366L618.285 20.5348Z" fill="#DBDBDB"/>
<path d="M278.165 339.704L276.883 339.067L279.181 334.475L280.462 335.112L278.165 339.704Z" fill="#DBDBDB"/>
<path d="M250.536 394.869L249.254 394.231L272.287 348.242L273.569 348.88L250.536 394.869Z" fill="#DBDBDB"/>
<path d="M269.563 341.514L268.281 340.877L272.877 331.701L274.158 332.339L269.563 341.514Z" fill="#DBDBDB"/>
<path d="M260.377 359.857L259.096 359.22L261.393 354.632L262.675 355.269L260.377 359.857Z" fill="#DBDBDB"/>
<path d="M264.163 336.936L262.881 336.298L265.174 331.715L266.456 332.353L264.163 336.936Z" fill="#DBDBDB"/>
<path d="M250.381 364.449L249.1 363.811L253.695 354.64L254.977 355.277L250.381 364.449Z" fill="#DBDBDB"/>
<path d="M258.758 332.356L257.477 331.718L262.072 322.547L263.354 323.185L258.758 332.356Z" fill="#DBDBDB"/>
<path d="M244.979 359.87L243.697 359.232L245.995 354.648L247.277 355.286L244.979 359.87Z" fill="#DBDBDB"/>
<path d="M254.751 324.992L253.469 324.354L258.064 315.179L259.346 315.816L254.751 324.992Z" fill="#DBDBDB"/>
<path d="M250.161 334.162L248.875 333.524L251.173 328.937L252.455 329.574L250.161 334.162Z" fill="#DBDBDB"/>
<path d="M240.975 352.504L239.693 351.866L246.582 338.107L247.864 338.745L240.975 352.504Z" fill="#DBDBDB"/>
<path d="M250.167 318.782L248.885 318.144L251.182 313.561L252.464 314.198L250.167 318.782Z" fill="#DBDBDB"/>
<path d="M234.09 350.883L232.809 350.245L239.698 336.486L240.979 337.124L234.09 350.883Z" fill="#DBDBDB"/>
<path d="M418.668 139.238L418.029 137.959L450.18 121.91L450.819 123.19L418.668 139.238Z" fill="#DBDBDB"/>
<path d="M251.327 301.098L250.045 300.46L252.351 295.855L253.633 296.493L251.327 301.098Z" fill="#DBDBDB"/>
<path d="M242.137 319.453L240.855 318.815L243.153 314.231L244.435 314.869L242.137 319.453Z" fill="#DBDBDB"/>
<path d="M228.354 346.967L227.072 346.329L231.668 337.158L232.95 337.796L228.354 346.967Z" fill="#DBDBDB"/>
<path d="M414.082 133.842L413.443 132.562L422.63 127.979L423.269 129.258L414.082 133.842Z" fill="#DBDBDB"/>
<path d="M246.471 295.432L245.189 294.794L253.93 277.342L268.866 269.887L269.504 271.166L254.998 278.407L246.471 295.432Z" fill="#DBDBDB"/>
<path d="M414.09 126.156L413.451 124.877L418.042 122.587L418.681 123.867L414.09 126.156Z" fill="#DBDBDB"/>
<path d="M239.311 294.362L238.029 293.724L248.798 272.223L268.89 262.196L269.525 263.476L249.869 273.289L239.311 294.362Z" fill="#DBDBDB"/>
<path d="M216.338 340.231L215.057 339.593L226.545 316.654L227.827 317.292L216.338 340.231Z" fill="#DBDBDB"/>
<path d="M362.811 162.729L361.529 162.091L366.129 152.907L367.411 153.545L362.811 162.729Z" fill="#DBDBDB"/>
<path d="M330.061 225.58L329.418 224.301L330.695 223.663L333.911 217.239L335.192 217.877L331.763 224.729L330.061 225.58Z" fill="#DBDBDB"/>
<path d="M232.155 293.288L230.873 292.65L243.669 267.101L273.493 252.212L274.131 253.492L244.737 268.166L232.155 293.288Z" fill="#DBDBDB"/>
<path d="M209.18 339.164L207.898 338.527L212.502 329.334L213.784 329.972L209.18 339.164Z" fill="#DBDBDB"/>
<path d="M404.92 115.371L404.281 114.091L422.65 104.92L423.289 106.2L404.92 115.371Z" fill="#DBDBDB"/>
<path d="M355.657 161.656L354.375 161.018L369.074 131.664L395.091 118.68L395.73 119.959L370.142 132.73L355.657 161.656Z" fill="#DBDBDB"/>
<path d="M325.93 219.956L325.291 218.677L325.561 218.544L329.059 211.56L330.341 212.197L326.629 219.61L325.93 219.956Z" fill="#DBDBDB"/>
<path d="M297.111 234.344L296.473 233.064L314.893 223.867L315.532 225.147L297.111 234.344Z" fill="#DBDBDB"/>
<path d="M222.706 296.796L221.424 296.158L238.541 261.977L287.287 237.647L287.925 238.927L239.613 263.043L222.706 296.796Z" fill="#DBDBDB"/>
<path d="M202.012 338.108L200.73 337.47L207.645 323.673L208.927 324.311L202.012 338.108Z" fill="#DBDBDB"/>
<path d="M350.799 155.989L349.518 155.352L363.943 126.545L422.659 97.2344L423.298 98.514L365.01 127.611L350.799 155.989Z" fill="#DBDBDB"/>
<path d="M315.639 217.411L315 216.131L320.431 213.422L326.532 201.242L327.813 201.88L321.499 214.488L315.639 217.411Z" fill="#DBDBDB"/>
<path d="M215.554 295.714L214.268 295.076L233.413 256.859L301.08 223.08L301.719 224.36L234.48 257.925L215.554 295.714Z" fill="#DBDBDB"/>
<path d="M197.159 332.438L195.877 331.8L202.783 318.007L204.065 318.644L197.159 332.438Z" fill="#DBDBDB"/>
<path d="M343.643 154.91L342.361 154.273L358.814 121.422L422.666 89.5479L423.305 90.8275L359.882 122.488L343.643 154.91Z" fill="#DBDBDB"/>
<path d="M318.241 205.633L316.959 204.995L323.981 190.971L325.263 191.608L318.241 205.633Z" fill="#DBDBDB"/>
<path d="M189.983 331.407L188.701 330.769L228.281 251.737L310.438 210.726L311.077 212.005L229.349 252.803L189.983 331.407Z" fill="#DBDBDB"/>
<path d="M338.788 149.244L337.506 148.606L353.684 116.304L427.298 79.5547L427.936 80.8343L354.752 117.369L338.788 149.244Z" fill="#DBDBDB"/>
<path d="M182.743 330.494L181.461 329.856L223.15 246.614L310.173 203.175L319.124 185.304L320.405 185.941L311.24 204.241L224.218 247.679L182.743 330.494Z" fill="#DBDBDB"/>
<path d="M333.93 143.583L332.648 142.945L348.557 111.182L432.137 69.46L432.776 70.7396L349.624 112.248L333.93 143.583Z" fill="#DBDBDB"/>
<path d="M180.274 320.057L178.992 319.42L218.019 241.496L305.046 198.058L311.965 184.239L313.247 184.877L306.114 199.119L219.087 242.562L180.274 320.057Z" fill="#DBDBDB"/>
<path d="M331.366 133.329L330.084 132.691L343.425 106.059L430.468 62.5779L430.498 62.5907L430.657 62.5137L430.764 62.7277L431.746 63.2198L431.51 63.6863L431.296 63.7933L344.492 107.124L331.366 133.329Z" fill="#DBDBDB"/>
<path d="M175.422 314.386L174.141 313.748L212.893 236.373L299.916 192.935L309.416 173.972L310.697 174.609L300.983 194L213.961 237.438L175.422 314.386Z" fill="#DBDBDB"/>
<path d="M445.702 19.9986L444.42 19.3609L451.386 5.45215L452.668 6.08981L445.702 19.9986Z" fill="#DBDBDB"/>
<path d="M331.11 118.479L329.828 117.841L338.295 100.936L425.317 57.4983L432.909 42.3398L434.191 42.9775L426.384 58.5639L339.362 102.002L331.11 118.479Z" fill="#DBDBDB"/>
<path d="M170.565 308.716L169.283 308.078L207.762 231.255L294.784 187.812L304.554 168.306L305.836 168.943L295.852 188.882L208.829 232.32L170.565 308.716Z" fill="#DBDBDB"/>
<path d="M328.563 108.203L327.281 107.565L333.163 95.8175L420.185 52.3794L441.889 9.04395L443.171 9.68161L421.253 53.445L334.23 96.8831L328.563 108.203Z" fill="#DBDBDB"/>
<path d="M160.52 313.41L159.238 312.772L202.634 226.131L289.652 182.693L299.696 162.639L300.978 163.276L290.719 183.759L203.701 227.197L160.52 313.41Z" fill="#DBDBDB"/>
<path d="M326.043 97.872L324.762 97.2343L328.033 90.6951L415.059 47.2569L434.749 7.94434L436.03 8.582L416.127 48.3226L329.1 91.7607L326.043 97.872Z" fill="#DBDBDB"/>
<path d="M307.61 134.681L306.328 134.044L308.622 129.456L309.903 130.094L307.61 134.681Z" fill="#DBDBDB"/>
<path d="M298.418 153.023L297.137 152.386L299.434 147.798L300.716 148.436L298.418 153.023Z" fill="#DBDBDB"/>
<path d="M255.828 193.491L255.189 192.211L284.524 177.571L290.226 166.183L291.512 166.82L285.592 178.636L255.828 193.491Z" fill="#DBDBDB"/>
<path d="M158.522 302.03L157.24 301.393L197.502 221.009L250.599 194.505L251.237 195.784L198.569 222.074L158.522 302.03Z" fill="#DBDBDB"/>
<path d="M326.514 85.3713L325.875 84.0917L409.927 42.1343L425.274 11.4922L426.555 12.1299L410.994 43.1999L326.514 85.3713Z" fill="#DBDBDB"/>
<path d="M288.959 156.541L287.678 155.904L306.06 119.206L307.341 119.844L288.959 156.541Z" fill="#DBDBDB"/>
<path d="M260.441 183.511L259.803 182.227L279.394 172.449L285.374 160.513L286.655 161.15L280.461 173.514L260.441 183.511Z" fill="#DBDBDB"/>
<path d="M151.188 301.315L149.902 300.678L192.372 215.886L250.608 186.818L251.247 188.098L193.439 216.951L151.188 301.315Z" fill="#DBDBDB"/>
<path d="M322.022 79.9311L321.383 78.6515L404.796 37.0151L422.839 0.989258L424.121 1.62692L405.863 38.0807L322.022 79.9311Z" fill="#DBDBDB"/>
<path d="M284.104 150.875L282.822 150.237L298.906 118.127L300.188 118.765L284.104 150.875Z" fill="#DBDBDB"/>
<path d="M260.463 175.816L259.824 174.536L274.262 167.329L280.517 154.846L281.798 155.483L275.33 168.395L260.463 175.816Z" fill="#DBDBDB"/>
<path d="M148.821 290.677L147.539 290.04L187.239 210.764L241.429 183.717L242.068 185.001L188.307 211.83L148.821 290.677Z" fill="#DBDBDB"/>
<path d="M322.248 72.135L321.609 70.8554L399.664 31.8937L415.294 0.695312L416.575 1.33298L400.731 32.9594L322.248 72.135Z" fill="#DBDBDB"/>
<path d="M279.247 145.209L277.965 144.571L291.751 117.049L293.033 117.686L279.247 145.209Z" fill="#DBDBDB"/>
<path d="M260.51 168.11L259.871 166.83L269.135 162.208L275.659 149.177L276.941 149.814L270.202 163.274L260.51 168.11Z" fill="#DBDBDB"/>
<path d="M317.67 66.7373L317.031 65.4577L394.537 26.7742L407.929 0.0351562L409.211 0.67282L395.604 27.8398L317.67 66.7373Z" fill="#DBDBDB"/>
<path d="M272.089 144.147L270.803 143.51L289.193 106.795L290.475 107.433L272.089 144.147Z" fill="#DBDBDB"/>
<path d="M260.682 160.345L260.043 159.065L264.004 157.084L266.122 152.855L267.403 153.497L265.071 158.149L260.682 160.345Z" fill="#DBDBDB"/>
<path d="M139.116 279.328L137.83 278.69L176.982 200.523L223.069 177.516L223.708 178.795L178.049 201.588L139.116 279.328Z" fill="#DBDBDB"/>
<path d="M275.374 122.214L274.092 121.576L285.576 98.6504L286.858 99.2881L275.374 122.214Z" fill="#DBDBDB"/>
<path d="M263.844 145.238L262.562 144.601L267.192 135.353L268.474 135.99L263.844 145.238Z" fill="#DBDBDB"/>
<path d="M253.904 156.044L253.266 154.764L258.877 151.965L260.116 149.487L261.398 150.125L259.944 153.031L253.904 156.044Z" fill="#DBDBDB"/>
<path d="M133.188 275.798L131.906 275.16L171.851 195.405L216.374 173.177L217.013 174.456L172.918 196.471L133.188 275.798Z" fill="#DBDBDB"/>
<path d="M298.105 61.1396L297.787 60.5062L297.106 60.2836L297.2 59.9926L384.274 16.5288L392.539 0.0351562L393.821 0.67282L385.346 17.5944L298.105 61.1396Z" fill="#DBDBDB"/>
<path d="M266.196 125.184L264.914 124.546L278.692 97.0283L279.978 97.666L266.196 125.184Z" fill="#DBDBDB"/>
<path d="M240.559 155.022L239.92 153.742L253.942 146.745L254.581 148.025L240.559 155.022Z" fill="#DBDBDB"/>
<path d="M128.614 269.57L127.332 268.932L166.724 190.281L212.335 167.514L212.974 168.793L167.791 191.347L128.614 269.57Z" fill="#DBDBDB"/>
<path d="M289.211 63.8614L287.93 63.2237L292.126 54.8443L379.149 11.4061L384.846 0.0351562L386.128 0.67282L380.216 12.4717L293.194 55.9099L289.211 63.8614Z" fill="#DBDBDB"/>
<path d="M266.204 109.799L264.922 109.161L274.109 90.8232L275.39 91.4609L266.204 109.799Z" fill="#DBDBDB"/>
<path d="M236.525 149.355L235.887 148.076L248.829 141.613L249.12 142.2L249.819 142.512L249.712 142.722L249.467 142.893L236.525 149.355Z" fill="#DBDBDB"/>
<path d="M126.35 258.722L125.068 258.084L161.592 185.16L212.888 159.555L213.523 160.834L162.659 186.225L126.35 258.722Z" fill="#DBDBDB"/>
<path d="M284.635 57.6303L283.354 56.9926L286.993 49.7258L374.016 6.2834L377.149 0.0351562L378.431 0.67282L375.083 7.35331L288.06 50.7915L284.635 57.6303Z" fill="#DBDBDB"/>
<path d="M259.319 108.177L258.037 107.54L267.224 89.1973L268.505 89.8349L259.319 108.177Z" fill="#DBDBDB"/>
<path d="M126.368 243.32L125.086 242.682L156.465 180.037L243.484 136.603L248.829 125.93L250.111 126.567L244.551 137.669L157.533 181.103L126.368 243.32Z" fill="#DBDBDB"/>
<path d="M277.725 56.0636L276.443 55.4259L281.866 44.6028L369.103 1.05762L369.266 1.38715L370.153 1.82795L369.956 2.23023L369.742 2.33722L282.934 45.6684L277.725 56.0636Z" fill="#DBDBDB"/>
<path d="M126.38 227.938L125.094 227.3L151.333 174.918L238.352 131.48L262.641 82.9873L263.922 83.625L239.423 132.545L152.401 175.983L126.38 227.938Z" fill="#DBDBDB"/>
<path d="M295.418 31.7556L294.779 30.476L340.751 7.52441L341.39 8.80402L295.418 31.7556Z" fill="#DBDBDB"/>
<path d="M273.147 49.8456L271.865 49.208L274.223 44.4961L275.505 45.1338L273.147 49.8456Z" fill="#DBDBDB"/>
<path d="M124.091 217.144L122.805 216.507L146.202 169.795L233.225 126.357L255.756 81.3691L257.038 82.0068L234.292 127.422L147.27 170.86L124.091 217.144Z" fill="#DBDBDB"/>
<path d="M295.986 23.7915L295.348 22.5076L309.134 15.626L309.773 16.9056L295.986 23.7915Z" fill="#DBDBDB"/>
<path d="M266.251 48.2496L264.969 47.612L271.605 34.3623L281.507 29.415L282.146 30.6946L272.672 35.4279L266.251 48.2496Z" fill="#DBDBDB"/>
<path d="M252.454 75.7969L251.168 75.1592L260.359 56.8125L261.641 57.4502L252.454 75.7969Z" fill="#DBDBDB"/>
<path d="M234.053 112.542L232.771 111.905L246.579 84.3311L247.861 84.9687L234.053 112.542Z" fill="#DBDBDB"/>
<path d="M117.208 215.523L115.926 214.885L141.072 164.672L228.095 121.234L230.41 116.612L231.691 117.25L229.162 122.3L142.14 165.738L117.208 215.523Z" fill="#DBDBDB"/>
<path d="M243.272 78.7592L241.99 78.1215L266.477 29.2397L309.722 7.65332L310.361 8.93293L267.544 30.3053L243.272 78.7592Z" fill="#DBDBDB"/>
<path d="M229.469 106.323L228.188 105.685L239.698 82.708L240.979 83.3457L229.469 106.323Z" fill="#DBDBDB"/>
<path d="M114.918 204.729L113.637 204.091L135.941 159.553L222.968 116.115L223.041 115.974L223.139 116.025L223.182 116.008L223.208 116.059L224.314 116.616L224.035 117.18L137.013 160.619L114.918 204.729Z" fill="#DBDBDB"/>
<path d="M243.278 63.386L241.996 62.7483L261.347 24.1162L296.507 6.56543L297.146 7.84504L262.414 25.1818L243.278 63.386Z" fill="#DBDBDB"/>
<path d="M234.09 81.7326L232.809 81.0949L239.698 67.3359L240.979 67.9736L234.09 81.7326Z" fill="#DBDBDB"/>
<path d="M224.883 100.114L223.602 99.4768L230.512 85.6836L231.794 86.3213L224.883 100.114Z" fill="#DBDBDB"/>
<path d="M198.463 122.261L197.824 120.982L217.835 110.993L218.757 109.157L220.039 109.795L218.903 112.059L198.463 122.261Z" fill="#DBDBDB"/>
<path d="M108.032 203.117L106.75 202.479L130.812 154.432L188.628 125.57L189.267 126.85L131.879 155.498L108.032 203.117Z" fill="#DBDBDB"/>
<path d="M233.824 66.8948L232.543 66.2571L256.215 18.993L278.12 8.05859L278.759 9.3382L257.282 20.0586L233.824 66.8948Z" fill="#DBDBDB"/>
<path d="M226.936 80.6503L225.654 80.0169L230.25 70.8457L231.532 71.4834L226.936 80.6503Z" fill="#DBDBDB"/>
<path d="M220.03 94.447L218.744 93.8093L221.055 89.2002L222.336 89.8379L220.03 94.447Z" fill="#DBDBDB"/>
<path d="M207.791 109.923L207.152 108.643L212.704 105.874L216.42 98.4492L217.702 99.0869L213.771 106.94L207.791 109.923Z" fill="#DBDBDB"/>
<path d="M100.874 202.037L99.592 201.4L125.682 149.312L193.238 115.589L193.876 116.868L126.753 150.378L100.874 202.037Z" fill="#DBDBDB"/>
<path d="M231.266 56.6452L229.984 56.0076L251.084 13.8747L264.33 7.2627L264.969 8.5423L252.152 14.9403L231.266 56.6452Z" fill="#DBDBDB"/>
<path d="M219.782 79.5805L218.5 78.9428L227.687 60.5918L228.968 61.2295L219.782 79.5805Z" fill="#DBDBDB"/>
<path d="M208.425 101.925L208.026 101.244L207.465 100.966L216.197 83.5352L217.479 84.1728L208.639 101.818L208.425 101.925Z" fill="#DBDBDB"/>
<path d="M166.316 122.946L165.678 121.662L188.655 110.197L189.294 111.477L166.316 122.946Z" fill="#DBDBDB"/>
<path d="M98.315 191.787L97.0332 191.149L120.555 144.189L156.496 126.249L157.134 127.529L121.622 145.255L98.315 191.787Z" fill="#DBDBDB"/>
<path d="M226.409 50.9844L225.127 50.3468L245.957 8.75313L246.342 8.56055L246.767 9.42931L247.131 9.60477L226.409 50.9844Z" fill="#DBDBDB"/>
<path d="M217.223 69.3263L215.941 68.6887L222.83 54.9297L224.112 55.5673L217.223 69.3263Z" fill="#DBDBDB"/>
<path d="M212.624 78.5061L211.342 77.8684L213.644 73.2764L214.926 73.914L212.624 78.5061Z" fill="#DBDBDB"/>
<path d="M207.999 87.7409L206.717 87.1032L209.036 82.4727L210.318 83.1103L207.999 87.7409Z" fill="#DBDBDB"/>
<path d="M193.947 101.467L193.309 100.188L202.444 95.6301L204.334 91.8555L205.616 92.4931L203.511 96.6957L193.947 101.467Z" fill="#DBDBDB"/>
<path d="M93.4556 186.121L92.1738 185.483L115.421 139.067L184.07 104.8L184.709 106.084L116.489 140.132L93.4556 186.121Z" fill="#DBDBDB"/>
<path d="M219.252 49.9019L217.971 49.2642L234.059 17.1328L235.341 17.7705L219.252 49.9019Z" fill="#DBDBDB"/>
<path d="M214.657 59.0727L213.375 58.435L215.673 53.8516L216.954 54.4892L214.657 59.0727Z" fill="#DBDBDB"/>
<path d="M210.067 68.2479L208.781 67.6102L211.083 63.0225L212.365 63.6601L210.067 68.2479Z" fill="#DBDBDB"/>
<path d="M205.46 77.4447L204.178 76.807L206.484 72.2021L207.766 72.8398L205.46 77.4447Z" fill="#DBDBDB"/>
<path d="M189.369 96.0705L188.73 94.7909L197.313 90.507L199.499 86.1504L200.781 86.7881L198.38 91.5727L189.369 96.0705Z" fill="#DBDBDB"/>
<path d="M88.6001 180.46L87.3184 179.822L110.291 133.944L184.098 97.1055L184.736 98.3851L111.359 135.01L88.6001 180.46Z" fill="#DBDBDB"/>
<path d="M216.69 39.6514L215.408 39.0137L226.905 16.0664L228.187 16.7041L216.69 39.6514Z" fill="#DBDBDB"/>
<path d="M207.507 57.9944L206.221 57.3568L210.816 48.1855L212.098 48.8232L207.507 57.9944Z" fill="#DBDBDB"/>
<path d="M195.938 81.0911L194.656 80.4535L201.627 66.5361L202.908 67.1738L195.938 81.0911Z" fill="#DBDBDB"/>
<path d="M189.598 88.276L188.959 86.9964L192.401 85.2803L192.684 85.8537L193.4 86.1533L193.293 86.3673L193.036 86.5599L189.598 88.276Z" fill="#DBDBDB"/>
<path d="M143.373 111.353L142.734 110.069L184.154 89.3945L184.792 90.6741L143.373 111.353Z" fill="#DBDBDB"/>
<path d="M81.4458 179.377L80.1641 178.739L105.161 128.826L128.952 116.95L129.591 118.23L106.228 129.892L81.4458 179.377Z" fill="#DBDBDB"/>
<path d="M207.243 43.1566L205.961 42.519L215.148 24.168L216.434 24.8056L207.243 43.1566Z" fill="#DBDBDB"/>
<path d="M202.647 52.3237L201.365 51.6903L203.663 47.1025L204.949 47.7402L202.647 52.3237Z" fill="#DBDBDB"/>
<path d="M191.088 75.4027L189.807 74.7651L194.462 65.4697L195.744 66.1074L191.088 75.4027Z" fill="#DBDBDB"/>
<path d="M143.383 103.667L142.744 102.383L156.522 95.5059L157.161 96.7855L143.383 103.667Z" fill="#DBDBDB"/>
<path d="M129.604 110.543L128.965 109.264L138.147 104.676L138.786 105.955L129.604 110.543Z" fill="#DBDBDB"/>
<path d="M76.5864 173.71L75.3047 173.072L100.031 123.702L119.763 113.851L120.402 115.13L101.098 124.768L76.5864 173.71Z" fill="#DBDBDB"/>
<path d="M200.088 42.0741L198.807 41.4364L201.104 36.8486L202.386 37.4863L200.088 42.0741Z" fill="#DBDBDB"/>
<path d="M193.196 55.8413L191.914 55.2036L196.514 46.0195L197.796 46.6572L193.196 55.8413Z" fill="#DBDBDB"/>
<path d="M175.648 79.8754L175.01 78.5958L181.924 75.1421L187.3 64.4131L188.582 65.0508L182.992 76.2077L175.648 79.8754Z" fill="#DBDBDB"/>
<path d="M120.422 107.445L119.783 106.165L151.939 90.1123L152.577 91.3919L120.422 107.445Z" fill="#DBDBDB"/>
<path d="M69.4322 172.636L68.1504 171.999L93.6527 121.071L94.9345 121.709L69.4322 172.636Z" fill="#DBDBDB"/>
<path d="M192.936 40.9903L191.654 40.3526L196.25 31.1729L197.532 31.8105L192.936 40.9903Z" fill="#DBDBDB"/>
<path d="M186.036 54.767L184.754 54.1294L189.354 44.9453L190.635 45.583L186.036 54.767Z" fill="#DBDBDB"/>
<path d="M181.397 64.0318L180.115 63.3941L182.443 58.7422L183.725 59.3799L181.397 64.0318Z" fill="#DBDBDB"/>
<path d="M152.586 83.7066L151.947 82.427L176.798 70.0246L177.518 68.5781L178.8 69.2158L177.865 71.0903L152.586 83.7066Z" fill="#DBDBDB"/>
<path d="M120.43 99.7594L119.791 98.4797L142.756 87.0146L143.394 88.2943L120.43 99.7594Z" fill="#DBDBDB"/>
<path d="M62.2782 171.554L60.9922 170.916L83.9824 125.021L85.2685 125.655L62.2782 171.554Z" fill="#DBDBDB"/>
<path d="M181.184 49.1006L179.898 48.4629L182.205 43.8623L183.487 44.5L181.184 49.1006Z" fill="#DBDBDB"/>
<path d="M166.508 69.0739L165.869 67.7943L171.665 64.9012L172.797 62.6416L174.078 63.2793L172.732 65.9669L166.508 69.0739Z" fill="#DBDBDB"/>
<path d="M143.404 80.6074L142.766 79.3278L161.19 70.1309L161.829 71.4105L143.404 80.6074Z" fill="#DBDBDB"/>
<path d="M125.029 89.7785L124.391 88.4989L133.577 83.9111L134.216 85.1907L125.029 89.7785Z" fill="#DBDBDB"/>
<path d="M52.8228 175.068L51.541 174.43L76.8161 123.965L78.0979 124.603L52.8228 175.068Z" fill="#DBDBDB"/>
<path d="M134.225 77.5089L133.586 76.2293L166.534 59.7784L172.737 47.3975L174.019 48.0351L167.602 60.844L134.225 77.5089Z" fill="#DBDBDB"/>
<path d="M38.5984 188.107L37.3167 187.474L69.6564 122.895L70.9382 123.532L38.5984 188.107Z" fill="#DBDBDB"/>
<path d="M152.666 60.6168L152.027 59.3372L161.403 54.6596L163.169 51.1289L164.455 51.7666L162.47 55.7252L152.666 60.6168Z" fill="#DBDBDB"/>
<path d="M129.637 72.1131L128.998 70.8335L147.397 61.6494L148.036 62.929L129.637 72.1131Z" fill="#DBDBDB"/>
<path d="M7.89264 198.04L7.25391 196.761L30.8743 184.975L62.5025 121.82L63.7842 122.458L31.9417 186.04L7.89264 198.04Z" fill="#DBDBDB"/>
<path d="M12.6364 180.31L12.002 179.031L20.6099 174.73L48.187 119.668L49.4688 120.306L21.6773 175.795L12.6364 180.31Z" fill="#DBDBDB"/>
<path d="M2.47272 177.7L1.83398 176.42L15.4789 169.611L41.0327 118.59L42.3144 119.228L16.5464 170.677L2.47272 177.7Z" fill="#DBDBDB"/>
<path d="M16.7622 154.881L15.4805 154.244L36.1772 112.924L37.459 113.561L16.7622 154.881Z" fill="#DBDBDB"/>
<path d="M8.28131 167.12L7.64258 165.84L10.3518 164.488L13.1383 158.92L14.42 159.558L11.4193 165.553L8.28131 167.12Z" fill="#DBDBDB"/>
<path d="M6.39504 160.218L5.11328 159.584L26.7274 116.429L28.0092 117.066L6.39504 160.218Z" fill="#DBDBDB"/>
<path d="M9.45949 138.738L8.17773 138.1L15.0752 124.324L16.357 124.962L9.45949 138.738Z" fill="#DBDBDB"/>
<path d="M2.06692 153.502L0.785156 152.864L3.5373 147.369L4.81906 148.007L2.06692 153.502Z" fill="#DBDBDB"/>
</svg>
