<svg width="78" height="21" viewBox="0 0 78 21" fill="none" xmlns="http://www.w3.org/2000/svg">
<path d="M13.7072 1.73219L12.666 17.7139L10.4867 18.0771L2.64112 5.09802H2.4474L2.52004 17.7139L0.0985773 17.8349L0.752373 1.97433L6.61232 1.61111L10.8499 13.6942H11.0436L11.2858 1.85326L13.7072 1.73219ZM26.744 13.2584C26.744 15.018 26.3565 16.3013 25.5817 17.1085C24.823 17.8995 23.4104 18.295 21.3441 18.295C19.2778 18.295 17.6635 17.8269 16.5012 16.8906C16.259 15.7283 16.138 14.566 16.138 13.4037C16.138 12.2414 16.2994 11.1517 16.6222 10.1347C16.9613 9.10152 17.381 8.22172 17.8814 7.49528C18.9307 6.01011 19.867 5.06574 20.6903 4.66216C22.2401 5.45317 23.6041 6.52669 24.7826 7.88271C26.0902 9.36788 26.744 11.1598 26.744 13.2584ZM23.9351 12.6046C23.9351 11.071 23.6122 9.66653 22.9665 8.39122C21.6266 9.10152 20.5208 10.1831 19.6491 11.636C18.7774 13.0889 18.3415 14.5579 18.3415 16.0431C18.8581 16.1399 19.6007 16.1883 20.5692 16.1883C21.5378 16.1883 22.5306 16.0188 23.5476 15.6798C23.8059 14.6951 23.9351 13.67 23.9351 12.6046ZM37.231 9.74724C36.1333 9.74724 35.3019 10.1347 34.7369 10.9095C34.1719 11.6683 33.7602 13.0727 33.502 15.1229L33.1629 17.8592L30.7657 18.0771L29.5307 6.06661L34.7127 5.26753L34.2284 9.14187H34.3979C35.6893 6.36526 37.3359 4.88816 39.3377 4.71059L38.6597 9.86831C38.0624 9.7876 37.5862 9.74724 37.231 9.74724ZM50.5909 5.0496C50.8815 5.0496 51.172 5.09802 51.4626 5.19488C52.0438 5.88904 52.5119 6.93834 52.8671 8.34279C53.2384 9.7311 53.424 11.184 53.424 12.7014C53.424 14.6547 52.9962 16.0753 52.1406 16.9632C51.3012 17.8511 49.7434 18.295 47.4672 18.295C45.6107 18.295 43.8431 17.8753 42.1642 17.0359L41.0261 1.17525L46.208 0.376164L45.3363 10.0862H45.5542C46.2 8.53651 46.9587 7.30963 47.8304 6.40562C48.7183 5.5016 49.6384 5.0496 50.5909 5.0496ZM44.7552 16.6726C45.191 16.7211 45.8125 16.7453 46.6197 16.7453C47.4268 16.7453 48.2098 16.6484 48.9685 16.4547C49.2107 15.2117 49.3317 14.0413 49.3317 12.9436C49.3317 11.8297 49.2833 10.8046 49.1864 9.86831C49.0896 8.93201 48.9766 8.28629 48.8474 7.93114C46.7811 8.75444 45.417 11.6683 44.7552 16.6726ZM61.1736 4.66216C65.0803 6.22804 67.0336 8.17329 67.0336 10.4979C67.0336 11.7086 66.6865 12.5884 65.9924 13.1373C65.3144 13.67 64.0471 13.9364 62.1907 13.9364C61.0122 13.9364 60.0436 13.8476 59.2849 13.67C58.9782 14.4287 58.8248 15.2198 58.8248 16.0431C59.5513 16.1399 60.3746 16.1883 61.2947 16.1883C62.9736 16.1883 64.5556 15.922 66.0408 15.3893L66.7672 17.7381C65.5888 18.1094 64.2651 18.295 62.796 18.295C60.1808 18.295 58.2598 17.8188 57.0329 16.8664C56.7746 15.7202 56.6455 14.6386 56.6455 13.6216C56.6455 11.5876 57.0894 9.75531 57.9773 8.12486C58.8813 6.4944 59.9468 5.34017 61.1736 4.66216ZM59.7692 12.5319C59.9791 12.5481 60.5037 12.5561 61.3431 12.5561C62.1987 12.5561 63.1754 12.4431 64.2731 12.2171C64.3216 11.9104 64.3458 11.6037 64.3458 11.297C64.3458 10.3284 64.0794 9.40016 63.5467 8.51229C61.9485 9.57774 60.6894 10.9176 59.7692 12.5319ZM69.8226 9.74724C69.8226 7.68092 70.9123 5.79218 73.0916 4.08101L77.0628 6.74462C75.2709 7.89078 74.375 9.09344 74.375 10.3526C74.375 11.0145 74.7382 11.8781 75.4646 12.9436C76.2072 14.009 76.5785 14.8404 76.5785 15.4377C76.5785 17.5524 75.1256 19.1829 72.2199 20.3291L71.1544 18.9004C72.4297 18.2062 73.0674 17.4394 73.0674 16.6C73.0674 15.809 72.5266 14.8081 71.445 13.5974C71.0414 13.1454 70.6701 12.5723 70.3311 11.8781C69.9921 11.184 69.8226 10.4737 69.8226 9.74724Z" fill="#A3A3A3"/>
</svg>
