<svg width="65" height="53" viewBox="0 0 65 53" fill="none" xmlns="http://www.w3.org/2000/svg">
<path d="M16.9589 21.6353L17.3554 21.3777C17.4774 21.3072 17.6448 21.2823 17.8577 21.303C18.0777 21.3195 18.2105 21.3672 18.256 21.4461C18.3113 21.6247 18.2973 23.5558 18.214 27.2396C17.9497 38.7297 17.8704 45.1713 17.9763 46.5644C18.0803 46.1313 18.2114 45.6873 18.3697 45.2323C18.5393 44.7804 18.642 44.544 18.6779 44.5233C18.721 44.4985 18.7764 44.4951 18.8444 44.5133C18.9164 44.5387 18.9649 44.5729 18.9897 44.616C19.0187 44.6662 19.0216 44.7458 18.9985 44.8549C18.9753 44.9639 18.9129 45.3779 18.8113 46.0967C18.721 46.8186 18.6426 47.3374 18.5762 47.6532C18.5139 47.9762 18.4758 48.2996 18.4618 48.6234C18.4592 48.9502 18.433 49.1949 18.3834 49.3575C18.3409 49.516 18.2444 49.6387 18.0937 49.7257C17.656 49.9784 17.1766 50.0016 16.6557 49.7953C16.1461 49.592 15.8167 49.3612 15.6675 49.1029C15.3775 48.6006 15.3121 46.0265 15.4713 41.3804C15.6376 36.7303 15.8662 32.7761 16.1569 29.5179C14.9582 36.1418 13.645 40.794 12.2171 43.4745C11.7238 44.4099 11.2332 45.0184 10.7453 45.3002C10.5085 45.4369 10.2323 45.5054 9.91681 45.5058C9.60848 45.502 9.34042 45.4272 9.11265 45.2812C8.89204 45.1311 8.62846 44.7906 8.32189 44.2596C8.01117 43.7214 7.79751 42.821 7.68089 41.5585C7.56013 40.2888 7.53277 38.8742 7.59879 37.3149C7.70666 34.5354 7.88392 32.1082 8.13059 30.0331C7.67034 31.4565 7.13525 32.3443 6.52532 32.6964C6.24547 32.858 6.03612 32.9262 5.89727 32.9012C5.76144 32.8648 5.56489 32.806 5.30759 32.725C5.05334 32.6326 4.86613 32.4823 4.74599 32.2742C4.62171 32.059 4.56023 31.8696 4.56155 31.7062C4.57006 31.5387 4.58796 31.404 4.61525 31.3021C4.71837 30.9173 4.79337 30.6826 4.84027 30.5981C4.88717 30.5136 4.96085 30.4424 5.06131 30.3844C5.16894 30.3223 5.23312 30.3091 5.25383 30.345C5.2704 30.3737 5.25787 30.4431 5.21622 30.5533C5.18175 30.6593 5.17487 30.7302 5.19559 30.7661C5.2163 30.802 5.26612 30.7971 5.34506 30.7516C5.42399 30.706 5.51409 30.6301 5.61536 30.5238C5.71249 30.4103 5.82892 30.2474 5.96467 30.0351C6.10344 29.8114 6.2269 29.611 6.33505 29.4337C6.44624 29.2452 6.60942 28.9644 6.82461 28.5914C7.03566 28.2112 7.19677 27.9268 7.30795 27.7383C7.42631 27.5456 7.57859 27.2376 7.76477 26.8144C7.954 26.3798 8.10268 26.0739 8.21083 25.8967C8.38519 25.5855 8.57353 25.4146 8.77585 25.3839C8.98535 25.3491 9.14296 25.3155 9.24867 25.2831C9.36156 25.2467 9.46631 25.2292 9.56292 25.2309C9.66257 25.2212 9.75918 25.2228 9.85276 25.2357C10.1664 25.2652 10.3853 25.3875 10.5096 25.6028C10.6297 25.8109 10.6665 26.1149 10.62 26.5149C10.5807 26.9108 10.5082 27.8376 10.4027 29.2954C10.293 30.746 10.1812 32.4083 10.0672 34.2824C9.95632 36.1451 9.9018 37.8652 9.90369 39.4428C9.91275 41.0162 10.0064 41.9572 10.1845 42.2657C10.2466 42.3734 10.3064 42.4106 10.3638 42.3775C10.4212 42.3443 10.5521 42.0822 10.7565 41.591C11.822 38.9954 12.9281 35.2521 14.0749 30.3612C15.0179 26.3438 15.5301 23.9001 15.6116 23.0303C15.6402 22.765 15.7004 22.5628 15.7923 22.4236C15.8914 22.2803 16.0772 22.13 16.3499 21.9726L16.9589 21.6353ZM25.5597 25.8688C25.8332 26.3424 25.8797 26.8704 25.6994 27.4529C25.5262 28.0312 25.1956 28.4613 24.7077 28.743C24.5498 28.8341 24.4251 28.8583 24.3334 28.8156C24.2376 28.7656 24.1545 28.6797 24.0841 28.5577C24.0136 28.4357 23.9596 28.309 23.9221 28.1776C23.7135 28.4129 23.5031 28.7114 23.2909 29.073C23.0788 29.4347 22.8446 29.9239 22.5883 30.5407C22.3321 31.1574 22.2537 31.5519 22.3531 31.7241C22.3862 31.7815 22.4853 31.7626 22.6504 31.6673C22.8226 31.5679 23.0514 31.3593 23.3367 31.0414C23.6179 30.7165 23.8266 30.5146 23.9629 30.4359C24.1065 30.353 24.2039 30.3064 24.2552 30.2958C24.3775 30.2922 24.5422 30.3454 24.7492 30.4555C24.9522 30.5584 25.0826 30.6601 25.1406 30.7605C25.1945 30.8538 25.1737 31.0333 25.0783 31.2988C24.9829 31.5644 24.8416 31.8086 24.6545 32.0314C24.4633 32.2471 24.3406 32.3992 24.2866 32.4878C23.2614 34.2087 22.8399 35.227 23.0222 35.5427C23.3453 36.1024 23.9841 36.1068 24.9384 35.5558C25.5484 35.2036 26.05 34.6557 26.4434 33.9119C26.7767 33.2794 27.054 32.6744 27.2755 32.0968C27.5 31.508 27.6433 31.143 27.7054 31.0019C27.7746 30.8567 27.8379 30.7676 27.8953 30.7344C28.0819 30.6267 28.2953 30.7809 28.5356 31.1971C28.7759 31.6133 28.9103 31.9041 28.9388 32.0694C28.9631 32.2276 28.9128 32.4719 28.7879 32.8023C27.9731 34.9375 26.8805 36.4007 25.51 37.192C24.778 37.6145 24.1352 37.8517 23.5815 37.9035C22.5666 38.0015 21.8416 37.6738 21.4066 36.9204C20.8349 35.9302 21.0872 34.7847 22.1636 33.4839C21.8205 33.5194 21.5556 33.4666 21.369 33.3256C21.1782 33.1774 20.9627 32.8952 20.7224 32.4791C20.4779 32.0557 20.4148 31.4989 20.533 30.8088C20.6543 30.1074 20.9113 29.4423 21.3042 28.8136C22.1735 27.4028 23.1033 26.4116 24.0936 25.8398C24.3304 25.7031 24.6039 25.6217 24.9141 25.5957C25.2244 25.5696 25.4396 25.6607 25.5597 25.8688ZM29.9319 26.2578C30.515 23.357 31.4022 21.5628 32.5933 20.8751C32.8875 20.7052 33.1797 20.6561 33.4699 20.7278C33.763 20.7882 33.9904 20.9583 34.152 21.2381C34.3135 21.518 34.384 22.104 34.3633 22.9961C34.3456 23.877 34.2987 24.6408 34.2224 25.2876C34.1756 25.6207 34.0374 25.8536 33.8078 25.9862C33.5853 26.1146 33.3619 26.1336 33.1374 26.0431C32.9201 25.9485 32.7473 25.79 32.6189 25.5676C32.333 25.0724 32.2754 24.3595 32.4459 23.4286L32.412 23.4195C32.1876 23.5777 31.8685 24.3839 31.4546 25.8379C31.0479 27.2878 30.7237 28.5656 30.482 29.6715C30.2433 30.7661 30.0383 32.0517 29.8671 33.5282C29.8228 33.9652 29.7217 34.2293 29.5639 34.3204C29.4132 34.4074 29.1853 34.4768 28.8803 34.5285C28.564 34.5772 28.3683 34.5945 28.2932 34.5804C28.211 34.5705 28.1408 34.5153 28.0828 34.4149C28.0248 34.3144 27.9872 34.183 27.9701 34.0207C27.9488 33.8513 27.9466 33.599 27.9636 33.2639C27.9735 32.9329 27.9752 32.4056 27.9689 31.6822C27.9698 30.9545 27.9813 29.8476 28.0035 28.3614C28.0256 26.8752 28.035 25.98 28.0316 25.6759C28.0308 25.0448 28.0544 24.572 28.1023 24.2573C28.1891 23.6618 28.6164 23.1425 29.3842 22.6992C29.5564 22.5998 29.7046 22.6577 29.8289 22.873C30.0236 23.2102 30.0781 24.0255 29.9924 25.3187L29.9319 26.2578ZM36.7268 20.627C37.1452 19.7444 37.6136 18.9812 38.1318 18.3376C38.65 17.694 39.153 17.2314 39.641 16.9496C40.1289 16.6679 40.5218 16.6276 40.8197 16.8288C40.9132 16.3443 41.1618 15.9712 41.5655 15.7093C41.6834 15.6317 41.832 15.5412 42.0114 15.4376C42.1908 15.334 42.3165 15.2949 42.3885 15.3203C42.4564 15.3385 42.5456 15.4018 42.6561 15.5103C42.7665 15.6187 42.8295 15.678 42.8449 15.6882C42.8604 15.6984 42.8785 15.7215 42.8992 15.7574C42.9158 15.7861 42.9206 15.8359 42.9137 15.9068C42.9027 15.9706 42.8845 16.0385 42.8591 16.1106C42.841 16.1785 42.8303 16.2181 42.8273 16.2294C42.5548 19.4197 42.4307 22.9499 42.4552 26.8202C43.2888 24.3202 44.1896 22.3506 45.1575 20.9116C45.2187 20.8189 45.2888 20.7497 45.3677 20.7041C45.4825 20.6378 45.6014 20.6697 45.7243 20.7997C45.843 20.9224 45.9811 21.1202 46.1385 21.3929C46.2959 21.6655 46.3753 21.8445 46.3768 21.9298C46.3853 22.011 46.2949 22.2354 46.1054 22.6032C45.9158 22.9709 45.6698 23.4478 45.3671 24.034C45.0645 24.6201 44.7518 25.2551 44.4291 25.9389C43.6553 27.5816 43.1381 29.1383 42.8775 30.6091C42.551 32.5293 42.3844 34.0223 42.3779 35.0881C42.3838 35.4961 42.1823 35.8182 41.7733 36.0543C40.9624 36.5224 40.3354 36.3726 39.8921 35.6048C39.4405 34.8227 39.3625 33.801 39.658 32.5396C39.8799 31.5983 40.1194 30.7951 40.3764 30.13C40.6335 29.465 40.769 29.0949 40.7831 29.0198C40.8542 27.9168 40.9229 26.3702 40.989 24.3803C40.6822 25.6385 40.3016 26.7193 39.8473 27.6227C39.4001 28.5219 38.9971 29.075 38.6384 29.2822C37.5405 29.916 36.7202 29.763 36.1775 28.823C35.7466 28.0767 35.5018 27.2135 35.4429 26.2333C35.3841 25.2531 35.4805 24.2933 35.7323 23.3538C35.9798 22.4072 36.3113 21.4983 36.7268 20.627ZM40.6661 17.9795C39.9373 18.6394 39.3271 19.3888 38.8354 20.2276C38.3397 21.0591 37.9917 21.8484 37.7915 22.5955C37.5872 23.3353 37.4558 24.0522 37.3972 24.7462C37.2858 26.0447 37.3772 26.9487 37.6714 27.4582C37.7418 27.5802 37.8057 27.6246 37.8631 27.5914C37.9277 27.5541 38.0267 27.4109 38.1603 27.1615C38.301 26.9081 38.476 26.5152 38.6853 25.983C38.8905 25.4435 39.1056 24.8218 39.3307 24.1179C39.8444 22.4722 40.2895 20.4261 40.6661 17.9795ZM46.9244 8.51093C47.1605 8.91994 47.2086 9.44233 47.0686 10.0781C46.9244 10.7067 46.6442 11.1411 46.228 11.3814C45.819 11.6175 45.4902 11.5203 45.2417 11.0898C44.9931 10.6593 44.9363 10.1467 45.0714 9.55205C45.2095 8.9461 45.4974 8.51677 45.9351 8.26406C46.1289 8.1522 46.3142 8.11695 46.4912 8.1583C46.6681 8.19965 46.8125 8.31719 46.9244 8.51093ZM50.6058 18.9141C50.7301 19.1294 50.7976 19.2961 50.8084 19.4142C50.8711 20.3348 50.647 21.2392 50.136 22.1274C49.621 23.0084 49.08 23.6125 48.5131 23.9398C47.9462 24.2671 47.3485 24.3586 46.7199 24.2145C46.0913 24.0703 45.6631 23.8009 45.4353 23.4062C45.2074 23.0116 45.0733 22.3236 45.033 21.3423C44.9926 20.361 44.9854 19.4371 45.0114 18.5706C45.0373 17.7041 45.0358 17.2458 45.0068 17.1955C44.9736 17.1381 44.8362 17.074 44.5943 17.0031C44.3597 16.9281 44.2216 16.8547 44.1802 16.783C44.1346 16.704 44.1678 16.4218 44.2797 15.9362C44.3947 15.4393 44.5748 14.9144 44.82 14.3614C45.0682 13.7971 45.3036 13.4507 45.526 13.3223C45.7556 13.1897 46.0181 13.1721 46.3135 13.2695C46.6089 13.3668 46.8043 13.498 46.8995 13.663C46.9948 13.8281 47.0379 15.8746 47.0286 19.8026C47.032 19.8581 47.0269 19.9902 47.0134 20.1989C47.003 20.3962 46.9981 20.5617 46.9987 20.6953C47.0023 20.8176 47.0076 20.9676 47.0146 21.1454C47.0368 21.5153 47.1038 21.7971 47.2157 21.9908C47.3565 22.2348 47.592 22.2615 47.9221 22.0709C48.2521 21.8804 48.5288 21.5723 48.7519 21.1469C48.9782 20.7101 49.1417 20.2808 49.2426 19.859C49.4987 18.7449 49.6734 18.1609 49.7666 18.107C49.9532 17.9993 50.2329 18.2683 50.6058 18.9141ZM55.8798 16.8881C56.0621 17.2039 56.3685 17.2374 56.799 16.9889C57.0286 16.8563 57.2494 16.5758 57.4612 16.1473C57.6803 15.7147 57.851 15.2812 57.9734 14.847C58.293 13.677 58.503 13.0631 58.6034 13.0051C58.79 12.8974 59.0386 13.1126 59.3494 13.6508C59.6601 14.1889 59.7048 14.6558 59.4835 15.0515C58.9919 16.5696 58.5242 17.5906 58.0805 18.1147C57.8269 18.4046 57.5079 18.6558 57.1234 18.8682C56.739 19.0806 56.267 19.133 55.7074 19.0255C55.1478 18.9181 54.7355 18.6347 54.4703 18.1755C54.201 17.709 54.0185 17.1112 53.9228 16.382C53.8271 15.6527 53.7846 15.0075 53.7955 14.4463C53.8094 13.8738 53.8434 13.2036 53.8975 12.4356C53.9475 11.6605 53.9439 11.1985 53.8867 11.0498L53.8528 11.0407C53.6284 11.1989 53.3093 12.005 52.8954 13.4591C52.4887 14.9089 52.1751 16.1472 51.9546 17.1738C51.7341 18.2005 51.5257 19.5215 51.3294 21.137C51.2708 21.5822 51.1661 21.8484 51.0154 21.9354C50.8647 22.0224 50.6369 22.0917 50.3319 22.1434C50.0156 22.1921 49.8163 22.2115 49.734 22.2016C49.6517 22.1917 49.5858 22.1437 49.536 22.0576C49.4863 21.9715 49.4514 21.8529 49.4312 21.7019C49.4068 21.5438 49.397 21.4107 49.4016 21.3028C49.395 21.1918 49.3958 21.0192 49.404 20.7848C49.4122 20.5505 49.4146 20.0659 49.4114 19.3311C49.4111 18.5849 49.4221 17.4688 49.4442 15.9826C49.4664 14.4964 49.4758 13.6012 49.4724 13.297C49.4716 12.666 49.4952 12.1931 49.5431 11.8784C49.6299 11.283 50.0572 10.7636 50.825 10.3203C50.9972 10.2209 51.1454 10.2788 51.2697 10.4941C51.4644 10.8314 51.5189 11.6466 51.4332 12.9399L51.3727 13.879C51.8186 11.7845 52.3629 10.3078 53.0055 9.44889C53.3181 9.02922 53.6395 8.72409 53.9695 8.53352C54.3068 8.33881 54.6241 8.27522 54.9214 8.34275C55.2259 8.40614 55.4423 8.54906 55.5708 8.7715C55.6951 8.98677 55.7709 9.29218 55.7984 9.68773C55.8217 10.0761 55.8249 10.4379 55.8078 10.773C55.7939 11.0968 55.767 11.5141 55.7271 12.0251C55.6872 12.5361 55.6669 12.8157 55.6661 12.864C55.6611 12.9051 55.6534 13.0244 55.643 13.2217C55.6356 13.4078 55.629 13.5455 55.6233 13.635C55.6175 13.7244 55.612 13.8807 55.6069 14.1037C55.5975 14.3196 55.5917 14.5 55.5892 14.6449C55.594 14.7856 55.5953 14.9619 55.5931 15.1736C55.5982 15.3812 55.6051 15.559 55.614 15.7069C55.63 15.8507 55.6487 16.0074 55.67 16.1768C55.7146 16.486 55.7845 16.7231 55.8798 16.8881Z" fill="#A3A3A3"/>
</svg>
