<svg width="64" height="58" viewBox="0 0 64 58" fill="none" xmlns="http://www.w3.org/2000/svg">
<rect x="3.04688" y="0.618164" width="38.3502" height="35.5447" fill="#A3A3A3"/>
<path d="M18.234 22.2904L18.4367 22.5165C18.4993 22.6249 18.5172 22.7862 18.4903 23.0004C18.4165 23.5608 18.1959 24.2841 17.8287 25.1705C17.4633 26.0497 17.1248 26.5793 16.8133 26.7592C16.5017 26.9391 16.2057 26.9896 15.9253 26.9106C15.6423 26.8271 15.433 26.668 15.2975 26.4332C15.1358 26.1532 15.0722 25.3652 15.1065 24.069C15.1658 22.1382 15.3308 19.8273 15.6014 17.1364C15.4845 17.6012 15.1809 18.8482 14.6907 20.8772C13.6002 25.3601 12.9332 27.9277 12.6897 28.58C12.6494 28.6875 12.5548 28.7843 12.4058 28.8704C12.2613 28.9538 12.0739 28.9837 11.8435 28.9602C11.6106 28.9321 11.4511 28.8436 11.3651 28.6945L11.3455 28.6607C11.2541 28.4606 11.1541 27.2811 11.0455 25.1221C10.937 22.9632 10.8875 21.2247 10.8972 19.9066C10.586 21.3385 10.3284 22.8841 10.1243 24.5432C9.73408 27.6945 9.60098 30.2639 9.72495 32.2514C9.74064 32.435 9.69881 32.5555 9.59947 32.6129C9.50013 32.6702 9.34129 32.7288 9.12297 32.7886C8.66303 32.9097 8.35485 32.8348 8.19843 32.5638C8.10458 32.4013 8.10146 31.6294 8.18909 30.2482C8.27411 28.8626 8.4131 27.3253 8.60607 25.6365C8.79643 23.9431 9.04447 22.2767 9.35019 20.6372C9.77018 18.3717 10.1653 17.1321 10.5356 16.9183C10.5943 16.8844 10.6599 16.8677 10.7323 16.868C10.8021 16.8638 10.8438 16.8578 10.8573 16.85C10.8709 16.8421 10.8805 16.8275 10.8863 16.8062C10.9032 16.7 10.9975 16.5974 11.1691 16.4984C11.3452 16.3967 11.5341 16.3328 11.7358 16.3067C11.942 16.278 12.0698 16.3065 12.1193 16.3923C12.1506 16.4465 12.1738 17.0081 12.1889 18.077C12.2248 21.6326 12.2725 24.0615 12.332 25.3638C12.4819 24.4764 12.7307 23.2701 13.0784 21.7449C13.4305 20.217 13.8291 18.6654 14.2741 17.0899C14.8568 15.0436 15.2768 13.9462 15.5342 13.7976C15.638 13.7376 15.782 13.6846 15.9661 13.6385C16.293 13.5581 16.5852 13.4437 16.8425 13.2951C16.9226 13.2669 17.0018 13.2633 17.0802 13.2843C17.1604 13.2982 17.2149 13.3299 17.2436 13.3796C17.2723 13.4293 17.2822 13.4778 17.2733 13.525C16.932 16.323 16.6881 18.7577 16.5414 20.8292C16.3948 22.9007 16.3553 24.2661 16.4229 24.9255C16.8396 24.5524 17.2191 23.5777 17.5614 22.0014C17.5707 21.9238 17.5792 21.8707 17.5868 21.8422C17.5945 21.8137 17.5998 21.7865 17.603 21.7606C17.6276 21.626 17.7189 21.6486 17.8768 21.8283C17.9627 21.9353 18.0222 22.0123 18.0554 22.0594C18.0905 22.0993 18.1259 22.1451 18.1617 22.1966C18.1995 22.2411 18.2235 22.2724 18.234 22.2904ZM21.6484 16.7699C21.7838 16.6917 21.9568 16.6731 22.1671 16.7142C22.382 16.7527 22.5625 16.8984 22.7084 17.1513C22.8518 17.3996 22.9515 17.7756 23.0074 18.2791C23.0607 18.7782 23.0538 19.3241 22.9866 19.9168C22.9168 20.505 22.8023 21.0888 22.6432 21.6684C22.486 22.2408 22.2607 22.7682 21.9673 23.2507C21.6758 23.726 21.3562 24.0641 21.0085 24.2648C20.6608 24.4656 20.3183 24.5188 19.9809 24.4246C19.6454 24.3233 19.3656 24.0784 19.1414 23.6901C18.9146 23.2973 18.7591 22.809 18.6751 22.2254C18.5955 21.6392 18.6027 21.0781 18.6967 20.5422C18.788 20.0017 18.9264 19.4854 19.1118 18.993C19.5063 17.9765 19.9812 17.308 20.5366 16.9873C20.785 16.8439 21.0076 16.7967 21.2044 16.8456C21.273 16.8602 21.3165 16.8833 21.3347 16.9149L21.3582 16.9555C21.4162 16.91 21.5129 16.8481 21.6484 16.7699ZM21.4844 18.0657L21.437 18.0931C21.2789 18.1843 21.1334 18.1148 21.0005 17.8845C20.7334 18.1832 20.4974 18.5723 20.2926 19.0518C20.0878 19.5313 19.9501 20.0383 19.8794 20.5728C19.7289 21.6471 19.7965 22.4419 20.082 22.9574C20.228 23.2102 20.3936 23.2832 20.5787 23.1763C20.7639 23.0695 20.9689 22.7885 21.1939 22.3335C21.4189 21.8785 21.5794 21.3222 21.6754 20.6647C21.776 20.0046 21.8191 19.4589 21.8049 19.0276C21.7926 18.5892 21.7526 18.3112 21.6848 18.1938C21.6144 18.0719 21.5476 18.0292 21.4844 18.0657ZM25.7254 11.2552C25.8975 11.5532 25.9031 11.9383 25.7422 12.4105C25.5858 12.8801 25.3586 13.2009 25.0606 13.3729C24.8484 13.4955 24.668 13.428 24.5194 13.1707C24.3681 12.9088 24.3594 12.5495 24.4932 12.093C24.627 11.6365 24.8339 11.3274 25.1138 11.1657C25.3938 11.0041 25.5976 11.0339 25.7254 11.2552ZM27.0727 17.7653C27.1137 17.6694 27.1665 17.6149 27.2311 17.6016C27.3002 17.5858 27.365 17.6146 27.4255 17.6881C27.6537 17.9477 27.7935 18.1951 27.845 18.4303C27.8433 18.4794 27.7352 18.6833 27.5208 19.0419C27.3109 19.3979 27.0715 19.8071 26.8026 20.2694C26.5382 20.7291 26.2664 21.2803 25.9873 21.9231C25.7082 22.5659 25.51 23.156 25.3927 23.6933C25.4221 24.1821 25.3854 24.7391 25.2828 25.3643C25.0792 26.5656 24.754 27.2952 24.3069 27.5533C24.1263 27.6576 23.9389 27.6875 23.7447 27.6431C23.5504 27.5987 23.4025 27.4885 23.3008 27.3124C23.1992 27.1363 23.1491 26.9454 23.1508 26.7397C23.1506 26.5412 23.1957 26.2803 23.2861 25.9572C23.3765 25.6341 23.4584 25.364 23.5318 25.147C23.6052 24.9301 23.7288 24.5968 23.9027 24.1472C24.0721 23.7002 24.1869 23.3931 24.2469 23.226C24.2527 22.7771 24.2566 22.1999 24.2586 21.4943C24.2606 20.7887 24.2646 20.2325 24.2706 19.8257C24.2874 18.666 24.3223 17.7879 24.3753 17.1914C24.3501 17.1999 24.3017 17.2308 24.2302 17.2842C24.1586 17.3376 24.0957 17.3799 24.0415 17.4112C23.9893 17.4353 23.9194 17.4395 23.8321 17.4237C23.7466 17.4008 23.6635 17.3404 23.5829 17.2425C23.4646 17.1001 23.5694 16.6873 23.8975 16.0042C24.2275 15.3139 24.4896 14.9128 24.6838 14.8007C25.0224 14.6051 25.2895 14.6767 25.4851 15.0154C25.5059 15.0515 25.5283 15.1319 25.5521 15.2566C25.5759 15.3813 25.563 16.2558 25.5133 17.8799C25.4682 19.5015 25.4285 20.6112 25.3943 21.2089C25.4193 21.1583 25.4913 20.9963 25.6104 20.7229C25.734 20.4468 25.8627 20.1588 25.9965 19.8587C26.1304 19.5587 26.2719 19.2512 26.4212 18.9362C26.7653 18.2078 26.9824 17.8175 27.0727 17.7653ZM29.8034 12.0616C29.9389 11.9834 30.1118 11.9648 30.3221 12.0059C30.537 12.0444 30.7175 12.1901 30.8635 12.443C31.0069 12.6913 31.1065 13.0673 31.1624 13.5708C31.2157 14.0699 31.2088 14.6158 31.1416 15.2085C31.0718 15.7966 30.9573 16.3805 30.7982 16.96C30.641 17.5325 30.4157 18.0599 30.1223 18.5424C29.8308 19.0177 29.5112 19.3558 29.1635 19.5565C28.8158 19.7573 28.4733 19.8105 28.1359 19.7163C27.8005 19.615 27.5206 19.3701 27.2964 18.9818C27.0696 18.589 26.9142 18.1007 26.8301 17.5171C26.7505 16.9309 26.7577 16.3698 26.8517 15.8339C26.9431 15.2934 27.0814 14.7771 27.2668 14.2847C27.6613 13.2682 28.1363 12.5997 28.6917 12.279C28.94 12.1356 29.1626 12.0884 29.3594 12.1373C29.428 12.1519 29.4715 12.175 29.4897 12.2066L29.5132 12.2472C29.5712 12.2017 29.6679 12.1398 29.8034 12.0616ZM29.6394 13.3574L29.592 13.3848C29.4339 13.476 29.2884 13.4065 29.1555 13.1762C28.8884 13.4749 28.6525 13.864 28.4477 14.3435C28.2428 14.823 28.1051 15.33 28.0344 15.8645C27.8839 16.9387 27.9515 17.7336 28.2371 18.2491C28.3831 18.5019 28.5486 18.5749 28.7338 18.468C28.9189 18.3612 29.124 18.0802 29.3489 17.6252C29.5739 17.1702 29.7344 16.6139 29.8304 15.9564C29.931 15.2963 29.9741 14.7506 29.9599 14.3193C29.9476 13.8809 29.9076 13.6029 29.8398 13.4855C29.7694 13.3636 29.7026 13.3209 29.6394 13.3574ZM33.0094 3.53665C33.2262 3.41151 33.4536 3.36749 33.6918 3.40458C33.9319 3.43456 34.1249 3.57598 34.2709 3.82885C34.4169 4.08172 34.5063 4.5599 34.5392 5.2634C34.5695 5.96238 34.5511 6.7075 34.4842 7.49875C34.4146 8.28549 34.3139 9.13833 34.1822 10.0573C33.9753 11.5133 33.7413 12.8496 33.4803 14.0659C33.507 14.1227 33.5454 14.2361 33.5953 14.4059C33.6471 14.5687 33.716 14.7246 33.8021 14.8736C33.8881 15.0226 34.034 15.1189 34.2399 15.1626C34.4476 15.1992 34.6531 15.1589 34.8563 15.0416C35.0595 14.9242 35.2346 14.7268 35.3814 14.4494C35.5328 14.1693 35.6435 13.8917 35.7134 13.6165C35.8964 12.8907 36.0421 12.4966 36.1505 12.434C36.2588 12.3714 36.4082 12.5049 36.5985 12.8346L36.6767 12.97C36.7784 13.1462 36.8211 13.2931 36.8048 13.4109C36.694 14.095 36.468 14.689 36.1269 15.1931C35.7831 15.6926 35.399 16.0649 34.9745 16.3099C34.55 16.555 34.1529 16.6127 33.783 16.483C33.4106 16.3489 33.094 16.056 32.8333 15.6045C32.3249 14.724 31.9627 13.5543 31.7467 12.0956C31.5325 10.6298 31.4801 9.30843 31.5893 8.13154C31.8316 5.47497 32.305 3.94334 33.0094 3.53665ZM33.3538 4.83698C33.3147 4.76925 33.2726 4.74842 33.2274 4.77449C33.0694 4.86574 32.9146 5.55714 32.7632 6.84869C32.6118 8.14024 32.54 9.14203 32.5477 9.85404C32.5599 10.5635 32.6674 11.4015 32.8703 12.3681C33.0381 11.4283 33.2058 10.0189 33.3734 8.14008C33.5428 6.2541 33.5363 5.15307 33.3538 4.83698Z" fill="#181819"/>
<path d="M10.0583 44.1901H9.62027C9.54727 43.9294 9.47428 43.7 9.40128 43.5019C9.33871 43.3037 9.2605 43.1265 9.16665 42.97C9.08322 42.8032 8.98937 42.6572 8.88509 42.5321C8.7808 42.3965 8.66088 42.2557 8.52531 42.1097C7.89963 41.4527 7.16966 41.1243 6.3354 41.1243C5.78271 41.1243 5.3343 41.2702 4.99017 41.5622C4.65647 41.8542 4.48962 42.2505 4.48962 42.751C4.48962 43.2412 4.69297 43.7 5.09967 44.1276C5.50637 44.5551 6.17377 45.0244 7.10187 45.5354C8.29068 46.1819 9.14579 46.8128 9.6672 47.4281C10.199 48.0433 10.4649 48.7159 10.4649 49.4459C10.4649 49.9048 10.3711 50.3323 10.1834 50.7286C9.99568 51.1248 9.74019 51.469 9.41692 51.761C9.09365 52.0529 8.70781 52.2824 8.2594 52.4492C7.81099 52.6161 7.33129 52.6995 6.82031 52.6995C6.45533 52.6995 6.09556 52.6682 5.741 52.6056C5.38644 52.5431 5.04231 52.4388 4.70861 52.2928C4.53134 52.2302 4.3697 52.1833 4.22371 52.152C4.07771 52.1103 3.95779 52.0894 3.86393 52.0894C3.72837 52.0894 3.61366 52.1468 3.51981 52.2615C3.42595 52.3762 3.37381 52.517 3.36338 52.6839H2.97233L2.44049 48.8984H2.84719C3.2956 49.9934 3.80658 50.7964 4.38013 51.3073C4.95368 51.8079 5.64715 52.0582 6.46054 52.0582C7.11752 52.0582 7.64414 51.8757 8.04041 51.5107C8.4471 51.1457 8.65045 50.666 8.65045 50.0716C8.65045 49.8422 8.62438 49.6388 8.57224 49.4616C8.53053 49.2843 8.46796 49.1331 8.38453 49.0079C8.17597 48.6742 7.84227 48.3301 7.38343 47.9755C6.93502 47.621 6.39276 47.2664 5.75664 46.9119C5.25609 46.6512 4.82854 46.3905 4.47398 46.1298C4.11942 45.8691 3.82744 45.5979 3.59802 45.3164C3.37903 45.0348 3.21739 44.7428 3.11311 44.4404C3.00883 44.138 2.95669 43.8095 2.95669 43.4549C2.95669 42.4643 3.30081 41.6926 3.98907 41.1399C4.28106 40.9001 4.60433 40.7176 4.95889 40.5924C5.31345 40.4569 5.66279 40.3891 6.00692 40.3891C6.31976 40.3891 6.63261 40.4256 6.94545 40.4986C7.26872 40.5611 7.59721 40.655 7.93091 40.7801C8.09776 40.8531 8.24897 40.9053 8.38453 40.9365C8.5201 40.9678 8.63481 40.9835 8.72866 40.9835C9.02065 40.9835 9.20836 40.7853 9.29178 40.3891H9.6672L10.0583 44.1901ZM15.1889 41.3745C14.6883 41.3745 14.2764 41.4006 13.9532 41.4527C13.6403 41.5049 13.3796 41.6144 13.1711 41.7812C12.9729 41.9481 12.8113 42.1827 12.6861 42.4851C12.5714 42.7771 12.4619 43.1682 12.3577 43.6583H11.9197L12.0292 40.6237H22.1028L22.2123 43.6583H21.7743C21.67 43.1682 21.5553 42.7771 21.4301 42.4851C21.3154 42.1827 21.159 41.9481 20.9609 41.7812C20.7627 41.6144 20.502 41.5049 20.1788 41.4527C19.8555 41.4006 19.4384 41.3745 18.9274 41.3745H17.9732V50.5252C17.9732 50.8485 17.9941 51.1092 18.0358 51.3073C18.0775 51.5055 18.1557 51.6619 18.2704 51.7766C18.3956 51.8913 18.5676 51.9747 18.7866 52.0269C19.016 52.0686 19.3132 52.0999 19.6782 52.1207V52.4492H14.485V52.1207C14.85 52.0999 15.142 52.0686 15.361 52.0269C15.58 51.9747 15.7468 51.8861 15.8615 51.761C15.9867 51.6254 16.0649 51.4429 16.0961 51.2135C16.1379 50.9841 16.1587 50.6816 16.1587 50.3062V41.3745H15.1889ZM35.164 52.4492H30.6121V52.1207C30.7685 52.1207 30.8989 52.1207 31.0032 52.1207C31.1075 52.1103 31.1909 52.0999 31.2535 52.0894C31.3264 52.0686 31.389 52.0529 31.4412 52.0425C31.4933 52.0217 31.5454 51.9956 31.5976 51.9643C31.681 51.9122 31.7436 51.8496 31.7853 51.7766C31.8374 51.6932 31.8635 51.6098 31.8635 51.5263C31.8635 51.2343 31.7488 50.8276 31.5194 50.3062L30.7685 48.6012H26.1072L25.2781 50.6816C25.2364 50.7964 25.1999 50.9163 25.1686 51.0414C25.1478 51.1561 25.1373 51.2708 25.1373 51.3855C25.1373 51.6254 25.2312 51.8079 25.4189 51.933C25.6066 52.0582 25.9195 52.1207 26.3574 52.1207V52.4492H22.8067V52.1207C23.0256 52.1103 23.2134 52.0738 23.3698 52.0112C23.5262 51.9487 23.6826 51.8183 23.839 51.6202C23.9955 51.4116 24.1623 51.1196 24.3396 50.7442C24.5273 50.3584 24.7619 49.837 25.0435 49.18L28.7507 40.4204H29.0948L33.5529 50.5565C33.6989 50.8902 33.824 51.1561 33.9283 51.3543C34.043 51.5524 34.1577 51.7088 34.2724 51.8235C34.3871 51.9278 34.5122 52.0008 34.6478 52.0425C34.7938 52.0842 34.9659 52.1103 35.164 52.1207V52.4492ZM30.5339 47.8817L28.4691 42.9544L26.4044 47.8817H30.5339ZM47.0521 52.4492H44.1739L39.9192 46.9432L38.9338 46.9901V50.5252C38.9338 50.8381 38.9494 51.0936 38.9807 51.2917C39.0224 51.4898 39.1006 51.6515 39.2153 51.7766C39.33 51.8913 39.4917 51.9747 39.7002 52.0269C39.9088 52.0686 40.1852 52.0999 40.5293 52.1207V52.4492H35.5863V52.1207C35.92 52.0894 36.186 52.0477 36.3841 51.9956C36.5927 51.9435 36.7491 51.8548 36.8534 51.7297C36.9576 51.6045 37.0254 51.4325 37.0567 51.2135C37.088 50.9841 37.1036 50.6816 37.1036 50.3062V42.579C37.1036 42.2661 37.088 42.0159 37.0567 41.8282C37.0254 41.63 36.9576 41.4736 36.8534 41.3589C36.7491 41.2442 36.5927 41.1608 36.3841 41.1086C36.186 41.0565 35.92 41.0148 35.5863 40.9835V40.6237H40.5136C41.3896 40.6237 42.1717 40.7436 42.86 40.9835C43.5587 41.2129 44.0749 41.5257 44.4086 41.922C44.6275 42.1619 44.7892 42.4434 44.8935 42.7667C44.9977 43.0795 45.0499 43.4184 45.0499 43.7834C45.0499 44.5968 44.7944 45.2382 44.2834 45.7074C43.7829 46.1767 42.9643 46.526 41.8276 46.7555L45.5035 51.2917C45.7538 51.5837 45.9884 51.787 46.2074 51.9017C46.4368 52.0165 46.7184 52.0894 47.0521 52.1207V52.4492ZM38.9338 46.3331C39.3509 46.3227 39.7107 46.307 40.0131 46.2862C40.3259 46.2653 40.5971 46.234 40.8265 46.1923C41.0663 46.1402 41.2853 46.0776 41.4835 46.0046C41.6816 45.9316 41.8849 45.8378 42.0935 45.7231C42.4168 45.5458 42.6671 45.2851 42.8443 44.941C43.0216 44.5864 43.1102 44.1849 43.1102 43.7365C43.1102 42.8918 42.8443 42.2766 42.3125 41.8907C41.7911 41.4945 40.9568 41.2963 39.8097 41.2963C39.4552 41.2963 39.2206 41.3432 39.1058 41.4371C38.9911 41.5205 38.9338 41.6874 38.9338 41.9377V46.3331ZM50.7593 41.3745C50.2587 41.3745 49.8468 41.4006 49.5236 41.4527C49.2107 41.5049 48.95 41.6144 48.7414 41.7812C48.5433 41.9481 48.3817 42.1827 48.2565 42.4851C48.1418 42.7771 48.0323 43.1682 47.9281 43.6583H47.4901L47.5996 40.6237H57.6732L57.7826 43.6583H57.3447C57.2404 43.1682 57.1257 42.7771 57.0005 42.4851C56.8858 42.1827 56.7294 41.9481 56.5313 41.7812C56.3331 41.6144 56.0724 41.5049 55.7492 41.4527C55.4259 41.4006 55.0088 41.3745 54.4978 41.3745H53.5436V50.5252C53.5436 50.8485 53.5645 51.1092 53.6062 51.3073C53.6479 51.5055 53.7261 51.6619 53.8408 51.7766C53.9659 51.8913 54.138 51.9747 54.357 52.0269C54.5864 52.0686 54.8836 52.0999 55.2486 52.1207V52.4492H50.0554V52.1207C50.4204 52.0999 50.7124 52.0686 50.9314 52.0269C51.1503 51.9747 51.3172 51.8861 51.4319 51.761C51.557 51.6254 51.6353 51.4429 51.6665 51.2135C51.7083 50.9841 51.7291 50.6816 51.7291 50.3062V41.3745H50.7593Z" fill="#A3A3A3"/>
<path d="M46.2328 30.5101C46.2328 29.6654 46.4101 28.8624 46.7647 28.1012C47.1192 27.3295 47.6093 26.6777 48.235 26.1459C48.7669 25.7079 49.3873 25.369 50.0964 25.1291C50.8056 24.8893 51.5668 24.7694 52.3802 24.7694C53.2875 24.7694 54.1217 24.9154 54.883 25.2073C55.6338 25.4889 56.2803 25.8904 56.8226 26.4118C57.3649 26.9228 57.7872 27.538 58.0896 28.2576C58.392 28.9667 58.5432 29.7488 58.5432 30.6039C58.5432 31.4694 58.392 32.262 58.0896 32.9815C57.7872 33.7011 57.3649 34.3163 56.8226 34.8273C56.2699 35.3383 55.6129 35.7346 54.8517 36.0161C54.0904 36.2977 53.251 36.4385 52.3333 36.4385C51.4365 36.4385 50.6126 36.2925 49.8618 36.0005C49.111 35.7085 48.4697 35.3018 47.9378 34.7804C47.3956 34.259 46.9784 33.6385 46.6864 32.919C46.384 32.189 46.2328 31.386 46.2328 30.5101ZM46.8585 30.6665C46.8585 31.1566 46.9732 31.6259 47.2026 32.0743C47.4216 32.5227 47.7293 32.9137 48.1255 33.2474C48.3341 33.4247 48.5948 33.5864 48.9076 33.7324C49.2205 33.8679 49.5646 33.9878 49.94 34.0921C50.305 34.1964 50.6961 34.2746 51.1132 34.3268C51.5303 34.3789 51.9474 34.405 52.3646 34.405C53.4387 34.405 54.3928 34.2642 55.2271 33.9826C56.0613 33.7011 56.687 33.31 57.1042 32.8095C57.636 32.1838 57.9019 31.4434 57.9019 30.5883C57.9019 30.1399 57.8185 29.7175 57.6516 29.3212C57.4848 28.9146 57.2502 28.56 56.9477 28.2576C55.9988 27.2878 54.445 26.8029 52.2864 26.8029C51.254 26.8029 50.3363 26.9488 49.5333 27.2408C48.7304 27.5224 48.1099 27.9187 47.6719 28.4296C47.1296 29.0866 46.8585 29.8322 46.8585 30.6665ZM58.4963 13.5383L48.673 21.4376L55.6651 21.4376C56.1239 21.4376 56.4993 21.4167 56.7913 21.375C57.0729 21.3229 57.2971 21.2342 57.4639 21.1091C57.6308 20.9839 57.7507 20.8119 57.8237 20.5929C57.8967 20.3739 57.9436 20.0923 57.9645 19.7482L58.293 19.7482L58.293 23.9403L57.9645 23.9403C57.9332 23.5753 57.8863 23.2834 57.8237 23.0644C57.7507 22.8349 57.6308 22.6629 57.4639 22.5482C57.2971 22.423 57.0729 22.3396 56.7913 22.2979C56.4993 22.2562 56.1239 22.2353 55.6651 22.2353L47.8127 22.2353C47.6041 22.4126 47.4373 22.5638 47.3121 22.689C47.1766 22.8141 47.0775 22.9392 47.0149 23.0644C46.9419 23.1895 46.895 23.3199 46.8742 23.4554C46.8429 23.591 46.8272 23.7526 46.8272 23.9403L46.4675 23.9403L46.4675 20.8901L55.1176 14.0232L49.0953 14.0232C48.0108 14.0232 47.3434 14.1952 47.0931 14.5394C47.0097 14.6749 46.9524 14.8261 46.9211 14.993C46.8794 15.1494 46.8481 15.3945 46.8272 15.7282L46.4675 15.7282L46.4675 11.5517L46.8272 11.5517C46.8481 11.8854 46.8846 12.1357 46.9367 12.3025C46.9889 12.4589 47.0566 12.5945 47.1401 12.7092C47.3695 13.0638 48.0212 13.2411 49.0953 13.2411L58.4963 13.2411L58.4963 13.5383ZM58.293 1.41554L58.293 11.0511L57.9645 11.0511C57.9436 10.7279 57.9071 10.4672 57.855 10.269C57.8028 10.0605 57.7194 9.90405 57.6047 9.79977C57.49 9.68506 57.3336 9.60684 57.1354 9.56513C56.9373 9.52342 56.6818 9.50256 56.369 9.50256L48.4227 9.50256C48.1099 9.50256 47.8544 9.52342 47.6563 9.56513C47.4581 9.59642 47.3017 9.66941 47.187 9.78412C47.0723 9.89883 46.9889 10.0605 46.9367 10.269C46.8846 10.4672 46.8481 10.7279 46.8272 11.0511L46.4675 11.0511L46.4675 1.57196L49.0328 1.54068L49.0328 1.96302C48.6261 2.04644 48.3028 2.14029 48.063 2.24458C47.8127 2.34886 47.6198 2.50007 47.4842 2.6982C47.3486 2.88591 47.26 3.1414 47.2183 3.46467C47.1766 3.77751 47.1557 4.18421 47.1557 4.68476L47.1557 7.09366C47.1557 7.33351 47.1922 7.49515 47.2652 7.57857C47.3382 7.65157 47.5051 7.68807 47.7658 7.68807L51.7232 7.68807L51.7232 4.95068C51.7232 4.58569 51.7024 4.28849 51.6607 4.05907C51.619 3.82965 51.5407 3.64716 51.426 3.5116C51.3009 3.3656 51.1288 3.25611 50.9098 3.18311C50.6909 3.11011 50.3989 3.04233 50.0339 2.97976L50.0339 2.55742L54.1791 2.55742L54.1791 2.97976C53.8037 3.04233 53.5064 3.11011 53.2875 3.18311C53.058 3.25611 52.886 3.36039 52.7713 3.49595C52.6461 3.63152 52.5627 3.81401 52.521 4.04343C52.4793 4.27285 52.4584 4.57527 52.4584 4.95068L52.4584 7.68807L56.8695 7.68807C57.0468 7.68807 57.1772 7.67764 57.2606 7.65678C57.344 7.63593 57.4066 7.59943 57.4483 7.54729C57.5004 7.46386 57.5474 7.26573 57.5891 6.95288C57.6204 6.62961 57.636 6.24898 57.636 5.811L57.636 5.31045C57.636 4.67433 57.6047 4.1425 57.5421 3.71494C57.4796 3.27696 57.3596 2.90676 57.1824 2.60435C57.0051 2.2915 56.7652 2.02037 56.4628 1.79095C56.1604 1.56153 55.7641 1.33733 55.274 1.11834L55.274 0.602143L58.293 1.41554Z" fill="#A3A3A3"/>
</svg>
