<svg width="70" height="33" viewBox="0 0 70 33" fill="none" xmlns="http://www.w3.org/2000/svg">
<path d="M0.616338 32.2088V13.8963H0.168965L0.467213 11.1226H5.17955C6.01464 11.1226 6.69067 11.3811 7.20764 11.898C7.7246 12.3951 7.98308 13.0612 7.98308 13.8963V20.1595C7.98308 20.4379 7.94332 20.7063 7.86378 20.9648C8.34098 21.4818 8.57958 22.1379 8.57958 22.9332V29.4351C8.57958 30.2702 8.26145 30.9462 7.62519 31.4632C7.0088 31.9602 6.28307 32.2088 5.44797 32.2088H0.616338ZM5.0006 13.8963H3.4497V20.1595H5.0006C5.10001 20.1595 5.14972 20.1098 5.14972 20.0104V14.0454C5.14972 13.946 5.10001 13.8963 5.0006 13.8963ZM5.59709 22.9332H3.4497V29.4351H5.59709C5.69651 29.4351 5.74622 29.3854 5.74622 29.2859V23.0824C5.74622 22.9829 5.69651 22.9332 5.59709 22.9332ZM17.3672 29.3456C17.3672 30.1807 17.1087 30.8567 16.5918 31.3737C16.0748 31.8708 15.3988 32.1193 14.5637 32.1193H12.7145C11.8794 32.1193 11.2034 31.8708 10.6864 31.3737C10.1695 30.8567 9.91098 30.1807 9.91098 29.3456V13.8963H9.46361L9.76186 11.1226H12.7443V29.1965C12.7443 29.2959 12.7941 29.3456 12.8935 29.3456H14.3847C14.4841 29.3456 14.5338 29.2959 14.5338 29.1965V11.1822H17.3672V29.3456ZM30.9142 29.2263C30.9142 30.0614 30.6557 30.7374 30.1388 31.2544C29.6218 31.7515 28.9458 32 28.1107 32H23.1598V13.8963H22.7124L23.0106 11.1226H28.1107C28.9458 11.1226 29.6218 11.3811 30.1388 11.898C30.6557 12.3951 30.9142 13.0612 30.9142 13.8963V29.2263ZM27.9317 13.8963H25.9931V29.2263H27.9317C28.0312 29.2263 28.0809 29.1766 28.0809 29.0772V14.0454C28.0809 13.946 28.0312 13.8963 27.9317 13.8963ZM40.2939 26.035V29.1965C40.2939 29.2959 40.3436 29.3456 40.443 29.3456H41.636C41.7355 29.3456 41.7852 29.2959 41.7852 29.1965V23.828L39.429 22.7841C39.25 22.7245 39.0015 22.625 38.6834 22.4859C38.3652 22.3268 38.0769 22.0981 37.8185 21.7999C37.5799 21.5016 37.4606 21.094 37.4606 20.5771V13.777C37.4606 12.9419 37.719 12.2758 38.236 11.7787C38.753 11.2618 39.429 11.0033 40.2641 11.0033H41.815C42.6501 11.0033 43.3261 11.2618 43.8431 11.7787C44.36 12.2758 44.6185 12.9419 44.6185 13.777V18.1911L41.7852 17.9525V13.9261C41.7852 13.8267 41.7355 13.777 41.636 13.777H40.443C40.3436 13.777 40.2939 13.8267 40.2939 13.9261V20.1595L42.6501 21.2034C42.829 21.2829 43.0776 21.3923 43.3957 21.5315C43.7138 21.6706 43.9922 21.8894 44.2308 22.1876C44.4893 22.4859 44.6185 22.8935 44.6185 23.4104V29.3456C44.6185 30.1807 44.36 30.8567 43.8431 31.3737C43.3261 31.8708 42.6501 32.1193 41.815 32.1193H40.2641C39.429 32.1193 38.753 31.8708 38.236 31.3737C37.719 30.8567 37.4606 30.1807 37.4606 29.3456V26.035H40.2939ZM52.7356 29.2263L52.497 32H45.9653V13.8963H45.5179L45.8162 11.1226H52.7356L52.4373 13.8963H48.7987V20.1595H52.1391L51.8408 22.9332H48.7987V29.2263H52.7356ZM61.4325 29.2263L61.1939 32H54.0658V13.8963H53.6184L53.9167 11.1226H56.8992V29.2263H61.4325ZM68.799 20.1595L68.5008 22.9332H65.4587V32H62.6253V13.8963H62.1779L62.4762 11.1226H69.3955L69.0973 13.8963H65.4587V20.1595H68.799Z" fill="#A3A3A3"/>
<path d="M18.8526 32V13.8963H18.4052L18.7035 11.1226H21.686V32H18.8526Z" fill="#6B6B6B"/>
<rect x="1.41797" y="5.44336" width="68.1487" height="3.1887" fill="#A3A3A3"/>
</svg>
