<svg width="102" height="39" viewBox="0 0 102 39" fill="none" xmlns="http://www.w3.org/2000/svg">
<path d="M4.79559 29.9378L7.67209 22.6006H8.07507L10.5903 29.9934C10.7848 30.577 10.9145 30.9985 10.9794 31.2579C11.0535 30.9522 11.1832 30.5353 11.3684 30.0073L13.9253 22.4061H14.6201L11.16 32.4252H10.7709L8.20014 25.0602C8.16308 24.9398 8.12139 24.8194 8.07507 24.6989C8.03802 24.5785 8.00559 24.472 7.9778 24.3793C7.95001 24.2867 7.92222 24.2079 7.89442 24.1431L7.83884 23.9763C7.82957 23.93 7.82494 23.9022 7.82494 23.893C7.71377 24.2265 7.57018 24.6109 7.39416 25.0463L4.48988 32.4252H4.10079L0.612867 22.4061H1.34936L3.89235 29.8822C4.01278 30.2157 4.11005 30.5168 4.18416 30.7854C4.26754 31.0541 4.31386 31.2023 4.32313 31.2301C4.36945 31.017 4.52694 30.5863 4.79559 29.9378ZM17.3608 31.0217C16.4437 30.0304 15.9851 28.8122 15.9851 27.367C15.9851 25.9218 16.4437 24.7082 17.3608 23.7262C18.2872 22.735 19.4545 22.2393 20.8626 22.2393C22.2708 22.2393 23.438 22.735 24.3644 23.7262C25.2909 24.7082 25.7541 25.9218 25.7541 27.367C25.7541 28.8122 25.2909 30.0304 24.3644 31.0217C23.438 32.0129 22.2708 32.5086 20.8626 32.5086C19.4545 32.5086 18.2872 32.0129 17.3608 31.0217ZM17.8611 24.157C17.0922 25.0186 16.7077 26.0886 16.7077 27.367C16.7077 28.6454 17.0922 29.7201 17.8611 30.5909C18.6393 31.4617 19.6398 31.8971 20.8626 31.8971C22.0948 31.8971 23.0953 31.4617 23.8642 30.5909C24.6424 29.7201 25.0315 28.6454 25.0315 27.367C25.0315 26.0886 24.6424 25.0186 23.8642 24.157C23.0953 23.2862 22.0948 22.8508 20.8626 22.8508C19.6305 22.8508 18.63 23.2862 17.8611 24.157ZM29.6285 31.0217C28.7113 30.0304 28.2528 28.8122 28.2528 27.367C28.2528 25.9218 28.7113 24.7082 29.6285 23.7262C30.5549 22.735 31.7221 22.2393 33.1303 22.2393C34.5384 22.2393 35.7057 22.735 36.6321 23.7262C37.5585 24.7082 38.0217 25.9218 38.0217 27.367C38.0217 28.8122 37.5585 30.0304 36.6321 31.0217C35.7057 32.0129 34.5384 32.5086 33.1303 32.5086C31.7221 32.5086 30.5549 32.0129 29.6285 31.0217ZM30.1287 24.157C29.3598 25.0186 28.9753 26.0886 28.9753 27.367C28.9753 28.6454 29.3598 29.7201 30.1287 30.5909C30.9069 31.4617 31.9074 31.8971 33.1303 31.8971C34.3624 31.8971 35.3629 31.4617 36.1318 30.5909C36.91 29.7201 37.2991 28.6454 37.2991 27.367C37.2991 26.0886 36.91 25.0186 36.1318 24.157C35.3629 23.2862 34.3624 22.8508 33.1303 22.8508C31.8982 22.8508 30.8976 23.2862 30.1287 24.157ZM44.2862 31.8554C45.5925 31.8554 46.6393 31.5034 47.4268 30.7993C48.2235 30.086 48.6218 29.016 48.6218 27.5893C48.6218 26.1627 48.1725 25.0278 47.2739 24.1848C46.3846 23.3418 45.2821 22.9202 43.9666 22.9202C43.1236 22.9202 42.3917 22.9434 41.7711 22.9897V31.7443C42.3732 31.8184 43.2116 31.8554 44.2862 31.8554ZM43.9666 22.3088C45.4952 22.3088 46.7736 22.7859 47.802 23.7401C48.8303 24.685 49.3444 25.9728 49.3444 27.6032C49.3444 28.4277 49.2101 29.1596 48.9414 29.7988C48.682 30.4288 48.3207 30.9337 47.8575 31.3135C46.9033 32.0824 45.7129 32.4669 44.2862 32.4669C43.3506 32.4669 42.2898 32.4159 41.104 32.314V22.4061C42.049 22.3412 43.0032 22.3088 43.9666 22.3088ZM59.9253 32.3418V27.367H53.1023V32.3418H52.4353V22.4061H53.1023V26.7695H59.9253V22.4061H60.5923V32.3418H59.9253ZM65.0472 31.0217C64.1301 30.0304 63.6715 28.8122 63.6715 27.367C63.6715 25.9218 64.1301 24.7082 65.0472 23.7262C65.9736 22.735 67.1409 22.2393 68.5491 22.2393C69.9572 22.2393 71.1245 22.735 72.0509 23.7262C72.9773 24.7082 73.4405 25.9218 73.4405 27.367C73.4405 28.8122 72.9773 30.0304 72.0509 31.0217C71.1245 32.0129 69.9572 32.5086 68.5491 32.5086C67.1409 32.5086 65.9736 32.0129 65.0472 31.0217ZM65.5475 24.157C64.7786 25.0186 64.3941 26.0886 64.3941 27.367C64.3941 28.6454 64.7786 29.7201 65.5475 30.5909C66.3257 31.4617 67.3262 31.8971 68.5491 31.8971C69.7812 31.8971 70.7817 31.4617 71.5506 30.5909C72.3288 29.7201 72.7179 28.6454 72.7179 27.367C72.7179 26.0886 72.3288 25.0186 71.5506 24.157C70.7817 23.2862 69.7812 22.8508 68.5491 22.8508C67.3169 22.8508 66.3164 23.2862 65.5475 24.157ZM83.2207 31.383C82.5815 32.1334 81.6088 32.5086 80.3025 32.5086C78.9963 32.5086 78.019 32.1287 77.3705 31.3691C76.7312 30.6094 76.4116 29.5718 76.4116 28.2563V22.4061H77.0787V28.2563C77.0787 30.7021 78.1487 31.9249 80.2887 31.9249C82.4379 31.9249 83.5125 30.7021 83.5125 28.2563V22.4061H84.1796V28.2563C84.1796 29.5811 83.8599 30.6233 83.2207 31.383ZM92.0259 23.2815C91.3496 22.9944 90.6779 22.8508 90.0109 22.8508C88.6584 22.8508 87.9821 23.351 87.9821 24.3515C87.9821 24.787 88.1349 25.1946 88.4407 25.5744C88.7464 25.945 89.1169 26.2785 89.5523 26.5749C89.9878 26.8621 90.4232 27.1586 90.8586 27.4643C91.294 27.77 91.6646 28.1359 91.9703 28.5621C92.276 28.9882 92.4288 29.4514 92.4288 29.9517C92.4288 30.7947 92.1463 31.4339 91.5812 31.8693C91.0161 32.2955 90.2333 32.5086 89.2327 32.5086C88.2415 32.5086 87.3938 32.2538 86.6898 31.7443L87.0233 31.244C87.6903 31.6794 88.4221 31.8971 89.2188 31.8971C90.0156 31.8971 90.627 31.7396 91.0531 31.4247C91.4793 31.1004 91.6923 30.6372 91.6923 30.035C91.6923 29.6182 91.5395 29.2244 91.2338 28.8539C90.9281 28.474 90.5575 28.1359 90.1221 27.8395C89.6867 27.5337 89.2513 27.2234 88.8159 26.9084C88.3804 26.5934 88.0099 26.2182 87.7042 25.7828C87.3985 25.3474 87.2456 24.8796 87.2456 24.3793C87.2456 23.7216 87.4865 23.2028 87.9682 22.823C88.4592 22.4339 89.1169 22.2393 89.9414 22.2393C90.7752 22.2393 91.5488 22.4061 92.2621 22.7396L92.0259 23.2815ZM95.3314 32.3418V22.4061H99.9449V22.9897H95.9984V26.6444H99.5697V27.2141H95.9984V31.7582H100.098V32.3418H95.3314Z" fill="#A3A3A3"/>
<rect x="34.5352" y="0.833008" width="4.68381" height="11.1066" fill="#A3A3A3"/>
<rect x="41.9141" y="0.833008" width="1.81402" height="11.1066" fill="#A3A3A3"/>
<rect x="46.4258" y="0.833008" width="11.2554" height="11.1066" fill="#A3A3A3"/>
<rect x="60.377" y="0.833008" width="1.09789" height="11.1066" fill="#A3A3A3"/>
<rect x="64.1699" y="0.833008" width="2.61704" height="11.1066" fill="#A3A3A3"/>
<rect x="70.1584" y="1.50701" width="4.13618" height="9.7586" stroke="#A3A3A3" stroke-width="1.34801"/>
</svg>
