<svg width="64" height="64" viewBox="0 0 64 64" fill="none" xmlns="http://www.w3.org/2000/svg">
<path d="M13.3646 40.5265C13.2869 40.2543 13.2091 40.021 13.1313 39.8266C13.0536 39.6225 12.971 39.4427 12.8835 39.2872C12.8057 39.1219 12.7134 38.9761 12.6065 38.8498C12.5093 38.7234 12.3926 38.5922 12.2565 38.4561C11.9261 38.1159 11.547 37.8632 11.1193 37.698C10.7014 37.523 10.2542 37.4355 9.77796 37.4355C9.17533 37.4355 8.62615 37.5522 8.13044 37.7854C7.64444 38.0187 7.22649 38.354 6.87657 38.7914C6.53637 39.2191 6.27393 39.7391 6.08926 40.3515C5.90458 40.9638 5.81224 41.6442 5.81224 42.3927C5.81224 43.3647 5.94346 44.2152 6.2059 44.9442C6.46833 45.6731 6.84255 46.2418 7.32855 46.65C8.05754 47.2332 8.92747 47.5248 9.93834 47.5248C10.6285 47.5248 11.2651 47.3936 11.8483 47.1311C12.4315 46.8687 13.0341 46.441 13.6562 45.8481L13.9478 46.1397C13.4424 46.8104 12.796 47.3304 12.0087 47.6998C11.2311 48.0691 10.366 48.2538 9.41347 48.2538C8.58727 48.2538 7.83398 48.1177 7.15359 47.8455C6.47319 47.5734 5.89 47.1943 5.404 46.7083C4.91801 46.2126 4.53893 45.6197 4.26677 44.9296C4.00433 44.2395 3.87311 43.4716 3.87311 42.626C3.87311 41.6637 4.03835 40.7986 4.36883 40.0307C4.69931 39.2531 5.1853 38.6019 5.82682 38.077C6.33225 37.6688 6.90087 37.3529 7.53266 37.1293C8.16446 36.8961 8.80111 36.7794 9.44263 36.7794C10.2688 36.7794 11.0853 36.9155 11.892 37.1877C12.1642 37.2849 12.3829 37.3335 12.5481 37.3335C12.7134 37.3335 12.8543 37.2849 12.971 37.1877C13.0973 37.0905 13.1848 36.9544 13.2334 36.7794H13.5833L13.7437 40.5265H13.3646ZM24.6786 43.7923C24.6786 44.4339 24.6349 44.9685 24.5474 45.3961C24.4696 45.8141 24.3335 46.198 24.1391 46.5479C23.4782 47.6852 22.234 48.2538 20.4067 48.2538C18.9876 48.2538 17.9378 47.9087 17.2574 47.2186C16.577 46.5285 16.2368 45.4593 16.2368 44.011V38.8206C16.2368 38.5193 16.2174 38.2763 16.1785 38.0916C16.1494 37.9069 16.0813 37.7611 15.9744 37.6542C15.8772 37.5473 15.7314 37.4744 15.537 37.4355C15.3426 37.3869 15.0802 37.3529 14.7497 37.3335V36.9981H19.459V37.3335C19.1188 37.3626 18.8466 37.4015 18.6425 37.4501C18.4481 37.489 18.2975 37.5619 18.1906 37.6688C18.0836 37.7757 18.0107 37.9215 17.9719 38.1062C17.9427 38.2812 17.9281 38.5193 17.9281 38.8206V44.1423C17.9281 44.6671 17.9621 45.0997 18.0302 45.4399C18.0982 45.7801 18.2051 46.0814 18.3509 46.3438C18.8078 47.1311 19.6242 47.5248 20.8004 47.5248C21.4321 47.5248 21.9959 47.4082 22.4916 47.1749C22.9873 46.9416 23.347 46.6257 23.5705 46.2272C23.7066 45.9647 23.7989 45.6634 23.8475 45.3232C23.9059 44.9733 23.935 44.5116 23.935 43.9381V39.4475C23.935 39.0296 23.9156 38.6894 23.8767 38.4269C23.8378 38.1645 23.7601 37.9555 23.6434 37.8C23.5365 37.6445 23.381 37.5327 23.1769 37.4647C22.9825 37.3966 22.7249 37.3529 22.4041 37.3335V36.9981H26.2532V37.3335C25.913 37.3723 25.636 37.4258 25.4222 37.4938C25.2181 37.5619 25.0577 37.6688 24.941 37.8146C24.8341 37.9604 24.7612 38.1645 24.7223 38.4269C24.6932 38.6894 24.6786 39.0296 24.6786 39.4475V43.7923ZM37.4943 48.0205H34.8116L30.8459 42.8884L29.9274 42.9321V46.2272C29.9274 46.5188 29.9419 46.7569 29.9711 46.9416C30.01 47.1263 30.0829 47.2769 30.1898 47.3936C30.2967 47.5005 30.4474 47.5783 30.6418 47.6269C30.8362 47.6657 31.0937 47.6949 31.4145 47.7143V48.0205H26.8073V47.7143C27.1183 47.6852 27.3662 47.6463 27.5508 47.5977C27.7452 47.5491 27.891 47.4665 27.9882 47.3498C28.0854 47.2332 28.1486 47.0728 28.1778 46.8687C28.2069 46.6549 28.2215 46.373 28.2215 46.0231V38.8206C28.2215 38.529 28.2069 38.2957 28.1778 38.1208C28.1486 37.9361 28.0854 37.7903 27.9882 37.6834C27.891 37.5765 27.7452 37.4987 27.5508 37.4501C27.3662 37.4015 27.1183 37.3626 26.8073 37.3335V36.9981H31.3999C32.2164 36.9981 32.9454 37.1099 33.5869 37.3335C34.2381 37.5473 34.7193 37.8389 35.0303 38.2083C35.2344 38.4318 35.3851 38.6942 35.4823 38.9956C35.5795 39.2872 35.6281 39.6031 35.6281 39.9433C35.6281 40.7014 35.3899 41.2992 34.9137 41.7366C34.4471 42.174 33.6841 42.4996 32.6246 42.7134L36.0509 46.9416C36.2842 47.2138 36.5029 47.4033 36.707 47.5102C36.9208 47.6171 37.1833 47.6852 37.4943 47.7143V48.0205ZM29.9274 42.3198C30.3162 42.3101 30.6515 42.2955 30.9334 42.276C31.225 42.2566 31.4777 42.2274 31.6915 42.1886C31.9151 42.14 32.1192 42.0816 32.3039 42.0136C32.4886 41.9456 32.6781 41.8581 32.8725 41.7512C33.1738 41.5859 33.4071 41.3429 33.5723 41.0222C33.7376 40.6917 33.8202 40.3175 33.8202 39.8995C33.8202 39.1122 33.5723 38.5387 33.0766 38.1791C32.5906 37.8097 31.813 37.6251 30.7438 37.6251C30.4133 37.6251 30.1947 37.6688 30.0877 37.7563C29.9808 37.834 29.9274 37.9896 29.9274 38.2228V42.3198ZM49.2165 37.3335C49.0221 37.3432 48.8569 37.3675 48.7208 37.4064C48.5945 37.4355 48.4778 37.5084 48.3709 37.6251C48.264 37.732 48.1571 37.8875 48.0501 38.0916C47.9529 38.286 47.8314 38.5484 47.6856 38.8789L43.9969 48.21H43.7491L39.6521 39.0685C39.4675 38.6894 39.3071 38.3881 39.171 38.1645C39.0446 37.941 38.9183 37.7709 38.7919 37.6542C38.6753 37.5279 38.5441 37.4452 38.3983 37.4064C38.2622 37.3578 38.0921 37.3335 37.888 37.3335V36.9981H42.3348V37.3335L41.8391 37.348C41.324 37.3772 41.0664 37.5522 41.0664 37.8729C41.0664 37.941 41.0761 38.0187 41.0955 38.1062C41.115 38.184 41.149 38.2909 41.1976 38.4269C41.2462 38.563 41.3142 38.7331 41.4017 38.9372C41.4892 39.1414 41.6058 39.3989 41.7516 39.71L44.2594 45.3378L46.6942 39.2434C46.8108 38.981 46.8935 38.7428 46.9421 38.529C47.0004 38.3152 47.0295 38.1402 47.0295 38.0041C47.0295 37.9264 47.0052 37.8438 46.9566 37.7563C46.908 37.6591 46.8449 37.5862 46.7671 37.5376C46.6602 37.4598 46.5436 37.4112 46.4172 37.3918C46.3006 37.3626 46.1013 37.3432 45.8194 37.3335V36.9981H49.2165V37.3335ZM58.8247 48.0205H49.8435V47.7143C50.1448 47.6949 50.3878 47.6609 50.5725 47.6123C50.7669 47.5637 50.9127 47.4859 51.0099 47.379C51.1168 47.2721 51.1897 47.1263 51.2286 46.9416C51.2674 46.7569 51.2869 46.5188 51.2869 46.2272V38.8206C51.2869 38.529 51.2674 38.2909 51.2286 38.1062C51.1994 37.9215 51.1314 37.7757 51.0244 37.6688C50.9175 37.5619 50.7669 37.4841 50.5725 37.4355C50.3878 37.3869 50.1448 37.3529 49.8435 37.3335V36.9981H58.6789L58.708 39.3892H58.3144C58.2366 39.0101 58.1491 38.7088 58.0519 38.4853C57.9547 38.252 57.8138 38.0722 57.6291 37.9458C57.4542 37.8195 57.216 37.7368 56.9147 37.698C56.6231 37.6591 56.244 37.6396 55.7775 37.6396H53.5322C53.3086 37.6396 53.158 37.6737 53.0802 37.7417C53.0122 37.8097 52.9781 37.9653 52.9781 38.2083V41.897H55.5296C55.8698 41.897 56.1468 41.8775 56.3607 41.8386C56.5745 41.7998 56.7446 41.7269 56.871 41.6199C57.007 41.5033 57.1091 41.3429 57.1771 41.1388C57.2452 40.9347 57.3084 40.6625 57.3667 40.3223H57.7603V44.186H57.3667C57.3084 43.8361 57.2452 43.5591 57.1771 43.3549C57.1091 43.1411 57.0119 42.9807 56.8855 42.8738C56.7592 42.7572 56.5891 42.6794 56.3752 42.6405C56.1614 42.6017 55.8795 42.5822 55.5296 42.5822H52.9781V46.6937C52.9781 46.859 52.9879 46.9805 53.0073 47.0582C53.0267 47.136 53.0608 47.1943 53.1094 47.2332C53.1871 47.2818 53.3718 47.3255 53.6634 47.3644C53.9647 47.3936 54.3195 47.4082 54.7277 47.4082H55.1943C55.7872 47.4082 56.2829 47.379 56.6814 47.3207C57.0897 47.2624 57.4347 47.1506 57.7166 46.9853C58.0082 46.8201 58.2609 46.5965 58.4748 46.3147C58.6886 46.0328 58.8976 45.6634 59.1017 45.2066H59.5828L58.8247 48.0205Z" fill="#A3A3A3"/>
<path d="M9.70054 56.1121C9.70054 56.4596 9.67684 56.7491 9.62946 56.9808C9.58734 57.2072 9.51363 57.4152 9.40833 57.6047C9.05031 58.2207 8.3764 58.5287 7.38659 58.5287C6.61791 58.5287 6.04929 58.3418 5.68074 57.968C5.3122 57.5942 5.12792 57.015 5.12792 56.2305V53.4191C5.12792 53.2558 5.11739 53.1242 5.09633 53.0242C5.08054 52.9242 5.04368 52.8452 4.98577 52.7873C4.93312 52.7294 4.85415 52.6899 4.74885 52.6688C4.64355 52.6425 4.50139 52.6241 4.32238 52.6135V52.4319H6.87326V52.6135C6.68898 52.6293 6.54156 52.6504 6.431 52.6767C6.3257 52.6978 6.24409 52.7373 6.18618 52.7952C6.12826 52.8531 6.08878 52.9321 6.06772 53.0321C6.05192 53.1269 6.04403 53.2558 6.04403 53.4191V56.3016C6.04403 56.5859 6.06245 56.8202 6.09931 57.0045C6.13616 57.1888 6.19408 57.352 6.27305 57.4941C6.5205 57.9206 6.96276 58.1338 7.59982 58.1338C7.94204 58.1338 8.24741 58.0707 8.51592 57.9443C8.78443 57.8179 8.97924 57.6468 9.10033 57.431C9.17404 57.2888 9.22406 57.1256 9.25038 56.9413C9.28197 56.7518 9.29777 56.5017 9.29777 56.1911V53.7587C9.29777 53.5323 9.28724 53.348 9.26618 53.2058C9.24512 53.0637 9.203 52.9505 9.13982 52.8662C9.0819 52.782 8.99767 52.7215 8.8871 52.6846C8.7818 52.6477 8.64228 52.6241 8.46854 52.6135V52.4319H10.5535V52.6135C10.3692 52.6346 10.2191 52.6635 10.1033 52.7004C9.99274 52.7373 9.90587 52.7952 9.84269 52.8741C9.78478 52.9531 9.74529 53.0637 9.72423 53.2058C9.70843 53.348 9.70054 53.5323 9.70054 53.7587V56.1121ZM16.0659 58.505L12.0777 53.5454V57.0756C12.0777 57.3072 12.0882 57.4968 12.1093 57.6442C12.1356 57.7863 12.1803 57.8995 12.2435 57.9838C12.3067 58.068 12.3936 58.1286 12.5041 58.1654C12.6147 58.2023 12.7568 58.226 12.9306 58.2365V58.4023H10.8141V58.2365C10.9983 58.2207 11.1458 58.197 11.2563 58.1654C11.3722 58.1286 11.459 58.068 11.5169 57.9838C11.5801 57.8995 11.6222 57.7863 11.6433 57.6442C11.6644 57.4968 11.6749 57.3072 11.6749 57.0756V53.1111C11.5854 53.0058 11.509 52.9215 11.4459 52.8583C11.3827 52.7899 11.3195 52.7399 11.2563 52.7083C11.1932 52.6714 11.1273 52.6477 11.0589 52.6372C10.9905 52.6214 10.9088 52.6135 10.8141 52.6135V52.4319H12.3541L15.821 56.7992V53.7587C15.821 53.2111 15.7342 52.8741 15.5604 52.7478C15.492 52.7057 15.4156 52.6767 15.3314 52.6609C15.2524 52.6399 15.1287 52.6241 14.9602 52.6135V52.4319H17.0688V52.6135C16.9004 52.6241 16.774 52.6425 16.6898 52.6688C16.6108 52.6951 16.5423 52.7294 16.4844 52.7715C16.3054 52.8873 16.2159 53.2164 16.2159 53.7587V58.505H16.0659ZM18.2456 53.4191C18.2456 53.2506 18.235 53.1163 18.214 53.0163C18.1982 52.9163 18.1587 52.8373 18.0955 52.7794C18.0323 52.7215 17.9428 52.682 17.827 52.6609C17.7112 52.6399 17.5585 52.6241 17.3689 52.6135V52.4319H20.0462V52.6135C19.8566 52.6188 19.704 52.6346 19.5881 52.6609C19.4723 52.682 19.3828 52.7215 19.3196 52.7794C19.2564 52.8373 19.2143 52.9189 19.1933 53.0242C19.1722 53.1242 19.1617 53.2558 19.1617 53.4191V57.431C19.1617 57.5942 19.1722 57.7284 19.1933 57.8337C19.2196 57.9338 19.2643 58.0127 19.3275 58.0707C19.3907 58.1286 19.4802 58.1707 19.596 58.197C19.7118 58.2181 19.8619 58.2312 20.0462 58.2365V58.4023H17.3689V58.2365C17.5585 58.2312 17.7112 58.2181 17.827 58.197C17.9428 58.1707 18.0297 58.1286 18.0876 58.0707C18.1508 58.0127 18.1929 57.9338 18.214 57.8337C18.235 57.7337 18.2456 57.5994 18.2456 57.431V53.4191ZM26.4984 52.6135C26.3931 52.6188 26.3036 52.632 26.2299 52.653C26.1614 52.6688 26.0982 52.7083 26.0403 52.7715C25.9824 52.8294 25.9245 52.9136 25.8666 53.0242C25.8139 53.1295 25.7481 53.2716 25.6691 53.4507L23.6711 58.505H23.5368L21.3177 53.5533C21.2176 53.348 21.1308 53.1848 21.057 53.0637C20.9886 52.9426 20.9202 52.8504 20.8517 52.7873C20.7885 52.7188 20.7175 52.6741 20.6385 52.653C20.5648 52.6267 20.4726 52.6135 20.3621 52.6135V52.4319H22.7708V52.6135L22.5023 52.6214C22.2232 52.6372 22.0837 52.732 22.0837 52.9057C22.0837 52.9426 22.089 52.9847 22.0995 53.0321C22.11 53.0742 22.1285 53.1321 22.1548 53.2058C22.1811 53.2795 22.218 53.3717 22.2654 53.4822C22.3127 53.5928 22.3759 53.7323 22.4549 53.9008L23.8132 56.9492L25.1321 53.6481C25.1953 53.5059 25.2401 53.3769 25.2664 53.2611C25.298 53.1453 25.3138 53.0505 25.3138 52.9768C25.3138 52.9347 25.3006 52.8899 25.2743 52.8426C25.2479 52.7899 25.2137 52.7504 25.1716 52.7241C25.1137 52.682 25.0505 52.6556 24.9821 52.6451C24.9189 52.6293 24.811 52.6188 24.6583 52.6135V52.4319H26.4984V52.6135ZM31.7028 58.4023H26.838V58.2365C27.0012 58.226 27.1328 58.2075 27.2328 58.1812C27.3381 58.1549 27.4171 58.1128 27.4698 58.0549C27.5277 57.9969 27.5672 57.918 27.5882 57.8179C27.6093 57.7179 27.6198 57.5889 27.6198 57.431V53.4191C27.6198 53.2611 27.6093 53.1321 27.5882 53.0321C27.5724 52.9321 27.5356 52.8531 27.4777 52.7952C27.4197 52.7373 27.3381 52.6951 27.2328 52.6688C27.1328 52.6425 27.0012 52.6241 26.838 52.6135V52.4319H31.6238L31.6396 53.7271H31.4264C31.3843 53.5217 31.3369 53.3585 31.2842 53.2374C31.2316 53.1111 31.1552 53.0137 31.0552 52.9452C30.9604 52.8768 30.8314 52.832 30.6682 52.811C30.5103 52.7899 30.3049 52.7794 30.0522 52.7794H28.836C28.7149 52.7794 28.6333 52.7978 28.5912 52.8347C28.5543 52.8715 28.5359 52.9557 28.5359 53.0874V55.0854H29.918C30.1022 55.0854 30.2523 55.0749 30.3681 55.0538C30.4839 55.0328 30.5761 54.9933 30.6445 54.9354C30.7182 54.8722 30.7735 54.7853 30.8104 54.6748C30.8472 54.5642 30.8815 54.4168 30.913 54.2325H31.1263V56.3253H30.913C30.8815 56.1358 30.8472 55.9857 30.8104 55.8752C30.7735 55.7593 30.7209 55.6725 30.6524 55.6145C30.584 55.5514 30.4918 55.5093 30.376 55.4882C30.2602 55.4671 30.1075 55.4566 29.918 55.4566H28.5359V57.6837C28.5359 57.7732 28.5412 57.839 28.5517 57.8811C28.5622 57.9232 28.5807 57.9548 28.607 57.9759C28.6491 58.0022 28.7491 58.0259 28.9071 58.047C29.0703 58.0628 29.2625 58.0707 29.4836 58.0707H29.7363C30.0575 58.0707 30.326 58.0549 30.5419 58.0233C30.763 57.9917 30.9499 57.9311 31.1026 57.8416C31.2605 57.7521 31.3974 57.631 31.5132 57.4783C31.6291 57.3257 31.7423 57.1256 31.8528 56.8781H32.1135L31.7028 58.4023ZM38.1708 58.4023H36.7177L34.5696 55.6224L34.072 55.6461V57.431C34.072 57.5889 34.0799 57.7179 34.0957 57.8179C34.1168 57.918 34.1563 57.9996 34.2142 58.0628C34.2721 58.1207 34.3537 58.1628 34.459 58.1891C34.5643 58.2102 34.7038 58.226 34.8776 58.2365V58.4023H32.382V58.2365C32.5504 58.2207 32.6847 58.1996 32.7847 58.1733C32.89 58.147 32.969 58.1022 33.0217 58.0391C33.0743 57.9759 33.1085 57.889 33.1243 57.7784C33.1401 57.6626 33.148 57.5099 33.148 57.3204V53.4191C33.148 53.2611 33.1401 53.1348 33.1243 53.04C33.1085 52.94 33.0743 52.861 33.0217 52.8031C32.969 52.7451 32.89 52.703 32.7847 52.6767C32.6847 52.6504 32.5504 52.6293 32.382 52.6135V52.4319H34.8697C35.3119 52.4319 35.7068 52.4924 36.0543 52.6135C36.407 52.7294 36.6676 52.8873 36.8361 53.0874C36.9467 53.2085 37.0283 53.3506 37.0809 53.5138C37.1336 53.6718 37.1599 53.8429 37.1599 54.0272C37.1599 54.4378 37.0309 54.7616 36.7729 54.9986C36.5202 55.2355 36.1069 55.4118 35.533 55.5277L37.3889 57.8179C37.5153 57.9654 37.6338 58.068 37.7443 58.1259C37.8601 58.1838 38.0023 58.2207 38.1708 58.2365V58.4023ZM34.072 55.3144C34.2826 55.3092 34.4643 55.3013 34.6169 55.2908C34.7749 55.2802 34.9118 55.2644 35.0276 55.2434C35.1487 55.217 35.2593 55.1855 35.3593 55.1486C35.4593 55.1117 35.562 55.0644 35.6673 55.0064C35.8305 54.9169 35.9569 54.7853 36.0464 54.6116C36.1359 54.4326 36.1806 54.2299 36.1806 54.0035C36.1806 53.577 36.0464 53.2664 35.7779 53.0716C35.5146 52.8715 35.0934 52.7715 34.5143 52.7715C34.3353 52.7715 34.2168 52.7952 34.1589 52.8426C34.101 52.8847 34.072 52.9689 34.072 53.0953V55.3144ZM43.6279 54.3431C43.5858 54.1956 43.5437 54.0693 43.5015 53.964C43.4594 53.8534 43.4147 53.756 43.3673 53.6718C43.3252 53.5823 43.2752 53.5033 43.2172 53.4349C43.1646 53.3664 43.1014 53.2953 43.0277 53.2216C42.8487 53.0374 42.6434 52.9005 42.4117 52.811C42.1853 52.7162 41.9431 52.6688 41.6851 52.6688C41.3587 52.6688 41.0612 52.732 40.7927 52.8583C40.5295 52.9847 40.3031 53.1663 40.1136 53.4033C39.9293 53.6349 39.7871 53.9166 39.6871 54.2483C39.5871 54.58 39.537 54.9485 39.537 55.3539C39.537 55.8804 39.6081 56.3411 39.7503 56.736C39.8924 57.1309 40.0951 57.4389 40.3584 57.66C40.7532 57.9759 41.2245 58.1338 41.772 58.1338C42.1458 58.1338 42.4907 58.0628 42.8066 57.9206C43.1225 57.7784 43.4489 57.5468 43.7859 57.2256L43.9438 57.3836C43.67 57.7469 43.3199 58.0285 42.8934 58.2286C42.4723 58.4287 42.0037 58.5287 41.4877 58.5287C41.0402 58.5287 40.6321 58.455 40.2636 58.3076C39.8951 58.1602 39.5792 57.9548 39.3159 57.6916C39.0527 57.4231 38.8473 57.1019 38.6999 56.7281C38.5578 56.3543 38.4867 55.9383 38.4867 55.4803C38.4867 54.9591 38.5762 54.4905 38.7552 54.0746C38.9342 53.6534 39.1974 53.3006 39.5449 53.0163C39.8187 52.7952 40.1267 52.6241 40.4689 52.503C40.8112 52.3766 41.156 52.3134 41.5035 52.3134C41.951 52.3134 42.3933 52.3871 42.8303 52.5346C42.9777 52.5872 43.0961 52.6135 43.1857 52.6135C43.2752 52.6135 43.3515 52.5872 43.4147 52.5346C43.4831 52.4819 43.5305 52.4082 43.5568 52.3134H43.7464L43.8332 54.3431H43.6279ZM45.2864 53.4191C45.2864 53.2506 45.2758 53.1163 45.2548 53.0163C45.239 52.9163 45.1995 52.8373 45.1363 52.7794C45.0731 52.7215 44.9836 52.682 44.8678 52.6609C44.752 52.6399 44.5993 52.6241 44.4098 52.6135V52.4319H47.087V52.6135C46.8974 52.6188 46.7448 52.6346 46.6289 52.6609C46.5131 52.682 46.4236 52.7215 46.3604 52.7794C46.2972 52.8373 46.2551 52.9189 46.2341 53.0242C46.213 53.1242 46.2025 53.2558 46.2025 53.4191V57.431C46.2025 57.5942 46.213 57.7284 46.2341 57.8337C46.2604 57.9338 46.3051 58.0127 46.3683 58.0707C46.4315 58.1286 46.521 58.1707 46.6368 58.197C46.7527 58.2181 46.9027 58.2312 47.087 58.2365V58.4023H44.4098V58.2365C44.5993 58.2312 44.752 58.2181 44.8678 58.197C44.9836 58.1707 45.0705 58.1286 45.1284 58.0707C45.1916 58.0127 45.2337 57.9338 45.2548 57.8337C45.2758 57.7337 45.2864 57.5994 45.2864 57.431V53.4191ZM49.0613 52.811C48.8086 52.811 48.6007 52.8241 48.4374 52.8504C48.2795 52.8768 48.1479 52.9321 48.0426 53.0163C47.9425 53.1005 47.8609 53.219 47.7978 53.3717C47.7398 53.5191 47.6846 53.7165 47.6319 53.964H47.4108L47.4661 52.4319H52.552L52.6073 53.964H52.3862C52.3335 53.7165 52.2756 53.5191 52.2124 53.3717C52.1545 53.219 52.0755 53.1005 51.9755 53.0163C51.8755 52.9321 51.7438 52.8768 51.5806 52.8504C51.4174 52.8241 51.2068 52.811 50.9488 52.811H50.4671V57.431C50.4671 57.5942 50.4776 57.7258 50.4987 57.8258C50.5197 57.9259 50.5592 58.0048 50.6171 58.0628C50.6803 58.1207 50.7672 58.1628 50.8778 58.1891C50.9936 58.2102 51.1436 58.226 51.3279 58.2365V58.4023H48.706V58.2365C48.8902 58.226 49.0376 58.2102 49.1482 58.1891C49.2588 58.1628 49.343 58.118 49.4009 58.0549C49.4641 57.9864 49.5036 57.8943 49.5194 57.7784C49.5405 57.6626 49.551 57.5099 49.551 57.3204V52.811H49.0613ZM59.1069 52.6135C58.9858 52.6188 58.8779 52.6372 58.7831 52.6688C58.6936 52.7004 58.6014 52.7557 58.5067 52.8347C58.4172 52.9084 58.3198 53.011 58.2145 53.1427C58.1144 53.269 57.996 53.4322 57.8591 53.6323L56.5244 55.6698V57.431C56.5244 57.5994 56.5349 57.7363 56.556 57.8416C56.5771 57.9417 56.6192 58.0206 56.6824 58.0785C56.7508 58.1365 56.8456 58.176 56.9667 58.197C57.0878 58.2181 57.2483 58.2312 57.4484 58.2365V58.4023H54.6922V58.2365C54.8975 58.226 55.0608 58.2102 55.1819 58.1891C55.3029 58.1628 55.3925 58.118 55.4504 58.0549C55.5135 57.9917 55.553 57.9022 55.5688 57.7863C55.5899 57.6705 55.6004 57.5152 55.6004 57.3204V55.7567L54.4237 54.0272C54.1973 53.706 54.013 53.4533 53.8709 53.269C53.734 53.0795 53.6155 52.9373 53.5155 52.8426C53.4155 52.7478 53.3233 52.6872 53.2391 52.6609C53.1601 52.6293 53.068 52.6135 52.9627 52.6135V52.4319H55.482V52.6135H55.2608C54.9818 52.6293 54.8423 52.7136 54.8423 52.8662C54.8423 52.9873 54.8949 53.1242 55.0002 53.2769L56.3349 55.275L57.6222 53.2374C57.7064 53.1163 57.7485 53.0058 57.7485 52.9057C57.7485 52.8004 57.7038 52.7267 57.6143 52.6846C57.5248 52.6372 57.3615 52.6135 57.1246 52.6135V52.4319H59.1069V52.6135Z" fill="#A3A3A3"/>
<path d="M0.91309 31.6919C0.91309 14.6738 14.709 0.877934 31.7271 0.877934H62.541V62.5059H0.91309V31.6919Z" stroke="#A3A3A3" stroke-width="1.24415"/>
<path d="M38.0234 15.9349C38.0234 9.69509 43.0818 4.63672 49.3216 4.63672H58.8479V15.9349H38.0234Z" fill="#A3A3A3"/>
</svg>
