<svg width="107" height="34" viewBox="0 0 107 34" fill="none" xmlns="http://www.w3.org/2000/svg">
<path d="M23.1005 7.78027L2.63402 7.78027C2.14056 7.78027 1.66732 7.9763 1.31839 8.32523C0.969463 8.67415 0.773438 9.1474 0.773438 9.64086L0.773439 26.3861C0.773439 26.8796 0.969464 27.3528 1.31839 27.7017C1.66732 28.0507 2.14057 28.2467 2.63402 28.2467L23.1005 28.2467C23.5939 28.2467 24.0672 28.0507 24.4161 27.7017C24.765 27.3528 24.961 26.8796 24.961 26.3861L24.961 9.64086C24.961 9.1474 24.765 8.67415 24.4161 8.32522C24.0672 7.9763 23.5939 7.78027 23.1005 7.78027ZM5.89005 14.2923C5.61405 14.2923 5.34426 14.2105 5.11478 14.0571C4.8853 13.9038 4.70645 13.6859 4.60083 13.4309C4.49521 13.1759 4.46758 12.8953 4.52142 12.6246C4.57526 12.354 4.70817 12.1053 4.90332 11.9102C5.09848 11.715 5.34712 11.5821 5.61781 11.5283C5.8885 11.4744 6.16907 11.502 6.42406 11.6077C6.67904 11.7133 6.89698 11.8921 7.05031 12.1216C7.20364 12.3511 7.28548 12.6209 7.28548 12.8969C7.28548 13.267 7.13846 13.6219 6.87677 13.8836C6.61507 14.1453 6.26014 14.2923 5.89005 14.2923ZM10.5415 14.2923C10.2655 14.2923 9.99572 14.2105 9.76624 14.0571C9.53676 13.9038 9.35791 13.6859 9.25229 13.4309C9.14667 13.1759 9.11904 12.8953 9.17288 12.6246C9.22672 12.354 9.35963 12.1053 9.55478 11.9102C9.74994 11.715 9.99858 11.5821 10.2693 11.5283C10.54 11.4744 10.8205 11.502 11.0755 11.6077C11.3305 11.7133 11.5484 11.8921 11.7018 12.1216C11.8551 12.3511 11.9369 12.6209 11.9369 12.8969C11.9369 13.267 11.7899 13.6219 11.5282 13.8836C11.2665 14.1453 10.9116 14.2923 10.5415 14.2923Z" fill="#A3A3A3"/>
<path d="M40.0728 22.3346C40.0728 23.931 39.6959 25.1653 38.942 26.0375C38.2029 26.8948 37.1386 27.3235 35.7491 27.3235C35.0247 27.3235 34.4261 27.1535 33.953 26.8135C33.4948 26.4735 33.2657 26.0301 33.2657 25.4831C33.2657 25.1432 33.3839 24.8549 33.6204 24.6184C33.8717 24.3671 34.1674 24.2415 34.5074 24.2415C35.143 24.2415 35.5791 24.6627 35.8156 25.5053C35.9191 25.8305 36.0152 26.0597 36.1038 26.1927C36.1925 26.3257 36.3256 26.3922 36.503 26.3922C37.1386 26.3922 37.4564 25.8305 37.4564 24.7071V12.9775C37.4564 12.5192 37.4268 12.1497 37.3677 11.8688C37.3234 11.588 37.2199 11.3662 37.0573 11.2036C36.8947 11.041 36.6582 10.9302 36.3477 10.871C36.0373 10.7971 35.6234 10.7454 35.1061 10.7158V10.2058H42.3788V10.7158C41.8615 10.7454 41.4476 10.7971 41.1371 10.871C40.8415 10.9302 40.6124 11.041 40.4498 11.2036C40.302 11.3662 40.1985 11.588 40.1394 11.8688C40.095 12.1497 40.0728 12.5192 40.0728 12.9775V22.3346ZM58.3213 20.5385C58.3213 21.5142 58.2548 22.3272 58.1218 22.9776C58.0035 23.6132 57.7966 24.1971 57.5009 24.7293C56.4958 26.4588 54.6036 27.3235 51.8246 27.3235C49.6664 27.3235 48.07 26.7988 47.0352 25.7492C46.0005 24.6997 45.4831 23.0737 45.4831 20.8711V12.9775C45.4831 12.5192 45.4535 12.1497 45.3944 11.8688C45.35 11.588 45.2466 11.3662 45.084 11.2036C44.9361 11.041 44.7144 10.9302 44.4188 10.871C44.1231 10.7971 43.724 10.7454 43.2214 10.7158V10.2058H50.3834V10.7158C49.866 10.7602 49.4521 10.8193 49.1417 10.8932C48.846 10.9523 48.6169 11.0632 48.4543 11.2258C48.2917 11.3884 48.1808 11.6101 48.1217 11.891C48.0773 12.1571 48.0552 12.5192 48.0552 12.9775V21.0707C48.0552 21.8689 48.1069 22.5267 48.2104 23.0441C48.3139 23.5615 48.4765 24.0197 48.6982 24.4188C49.393 25.6162 50.6347 26.2149 52.4233 26.2149C53.3841 26.2149 54.2415 26.0375 54.9954 25.6827C55.7493 25.3279 56.2962 24.8475 56.6362 24.2415C56.8431 23.8423 56.9836 23.3841 57.0575 22.8667C57.1462 22.3346 57.1905 21.6324 57.1905 20.7603V13.9309C57.1905 13.2953 57.1609 12.7779 57.1018 12.3788C57.0427 11.9797 56.9244 11.6619 56.7471 11.4254C56.5844 11.1889 56.3479 11.0189 56.0375 10.9154C55.7419 10.8119 55.3501 10.7454 54.8623 10.7158V10.2058H60.716V10.7158C60.1987 10.775 59.7774 10.8563 59.4522 10.9597C59.1418 11.0632 58.8978 11.2258 58.7205 11.4475C58.5579 11.6693 58.447 11.9797 58.3879 12.3788C58.3435 12.7779 58.3213 13.2953 58.3213 13.9309V20.5385ZM63.7538 12.9775C63.7538 12.5045 63.7316 12.1275 63.6872 11.8467C63.6429 11.5658 63.5394 11.3515 63.3768 11.2036C63.229 11.041 63.0073 10.9302 62.7116 10.871C62.4308 10.8119 62.039 10.7602 61.5365 10.7158V10.2058H68.3658C69.9475 10.2058 71.3666 10.398 72.623 10.7823C73.8795 11.1519 74.9364 11.6914 75.7938 12.401C76.6659 13.1105 77.3311 13.9827 77.7894 15.0174C78.2476 16.0522 78.4767 17.22 78.4767 18.5208C78.4767 19.8068 78.2328 21.0042 77.745 22.1128C77.2572 23.2215 76.5699 24.1528 75.6829 24.9066C74.8995 25.5571 73.8869 26.067 72.6452 26.4366C71.4183 26.7914 70.1027 26.9688 68.6984 26.9688H61.5365V26.5031C62.0243 26.4735 62.4086 26.4292 62.6895 26.3701C62.9851 26.2962 63.2068 26.1779 63.3547 26.0153C63.5173 25.8379 63.6207 25.6088 63.6651 25.3279C63.7242 25.0471 63.7538 24.6849 63.7538 24.2415V12.9775ZM66.3259 24.9953C66.3259 25.4092 66.4145 25.6901 66.5919 25.8379C66.7841 25.971 67.1241 26.0375 67.6119 26.0375C68.7501 26.0375 69.7036 25.9636 70.4722 25.8157C71.2557 25.6531 71.9726 25.3797 72.623 24.9953C74.6925 23.8128 75.7273 21.7137 75.7273 18.6982C75.7273 17.3086 75.4612 16.0743 74.929 14.9952C74.4117 13.9162 73.643 13.0366 72.623 12.3566C72.0022 11.9427 71.2852 11.6397 70.4722 11.4475C69.674 11.2554 68.7206 11.1593 67.6119 11.1593C67.1093 11.1593 66.7693 11.2258 66.5919 11.3588C66.4145 11.4919 66.3259 11.7506 66.3259 12.1349V24.9953ZM82.3127 12.9775C82.3127 12.5045 82.2831 12.1275 82.224 11.8467C82.1797 11.5658 82.0688 11.3441 81.8914 11.1815C81.714 11.0189 81.4627 10.908 81.1375 10.8489C80.8123 10.7897 80.3836 10.7454 79.8515 10.7158V10.2058H87.3682V10.7158C86.836 10.7306 86.4073 10.775 86.0821 10.8489C85.7569 10.908 85.5056 11.0189 85.3282 11.1815C85.1509 11.3441 85.0326 11.5732 84.9735 11.8688C84.9143 12.1497 84.8848 12.5192 84.8848 12.9775V24.2415C84.8848 24.6997 84.9143 25.0766 84.9735 25.3723C85.0474 25.6531 85.173 25.8749 85.3504 26.0375C85.5278 26.2001 85.7791 26.3183 86.1043 26.3922C86.4295 26.4514 86.8508 26.4883 87.3682 26.5031V26.9688H79.8515V26.5031C80.3836 26.4883 80.8123 26.4514 81.1375 26.3922C81.4627 26.3183 81.7066 26.2001 81.8692 26.0375C82.0466 25.8749 82.1649 25.6531 82.224 25.3723C82.2831 25.0914 82.3127 24.7145 82.3127 24.2415V12.9775ZM97.1244 9.87325C98.3217 9.87325 99.4599 10.1245 100.539 10.6271C101.633 11.1297 102.557 11.8245 103.311 12.7114C103.932 13.4653 104.412 14.3448 104.752 15.35C105.092 16.3552 105.262 17.4343 105.262 18.5873C105.262 19.8733 105.055 21.0559 104.641 22.135C104.242 23.1993 103.673 24.1158 102.934 24.8845C102.209 25.6531 101.337 26.2518 100.317 26.6805C99.3121 27.1092 98.2035 27.3235 96.9913 27.3235C95.7644 27.3235 94.641 27.1092 93.621 26.6805C92.601 26.2518 91.7289 25.6531 91.0046 24.8845C90.2803 24.101 89.7185 23.1697 89.3194 22.0907C88.9203 21.0116 88.7207 19.8216 88.7207 18.5208C88.7207 17.2495 88.9277 16.0817 89.3416 15.0174C89.7555 13.9531 90.332 13.044 91.0711 12.2901C91.8102 11.5215 92.6897 10.9302 93.7097 10.5163C94.7444 10.0876 95.8827 9.87325 97.1244 9.87325ZM96.9026 10.7602C96.2079 10.7602 95.5427 10.9228 94.9071 11.248C94.2714 11.5584 93.7171 11.9945 93.2441 12.5562C92.9928 12.8518 92.7636 13.2214 92.5567 13.6649C92.3645 14.1083 92.1945 14.5961 92.0467 15.1283C91.8989 15.6457 91.788 16.2 91.7141 16.7913C91.6402 17.3826 91.6033 17.9738 91.6033 18.5651C91.6033 20.0877 91.8028 21.4402 92.2019 22.6228C92.601 23.8054 93.1554 24.6923 93.8649 25.2836C94.7518 26.0375 95.8014 26.4144 97.0135 26.4144C97.6491 26.4144 98.2478 26.2962 98.8095 26.0597C99.386 25.8231 99.8886 25.4905 100.317 25.0619C101.692 23.7167 102.379 21.5142 102.379 18.4543C102.379 16.9908 102.172 15.69 101.759 14.5518C101.359 13.4136 100.798 12.534 100.073 11.9132C99.1421 11.1445 98.0852 10.7602 96.9026 10.7602Z" fill="#A3A3A3"/>
</svg>
