<svg width="105" height="37" viewBox="0 0 105 37" fill="none" xmlns="http://www.w3.org/2000/svg">
<path d="M34.8409 28.6476C33.5131 28.6476 32.5947 27.5425 32.0859 25.3321C31.7281 23.7499 31.5492 22.116 31.5492 20.4304C31.5492 19.683 31.577 19.0072 31.6327 18.4029C31.6486 17.6396 31.6844 16.8723 31.74 16.1011C31.7957 15.3299 31.911 14.5626 32.0859 13.7993C32.2131 13.1871 32.3999 12.6265 32.6464 12.1177C32.9009 11.6009 33.2904 11.1914 33.8152 10.8893C34.1173 10.7143 34.4076 10.6269 34.6858 10.6269C34.8687 10.6269 35.0595 10.6786 35.2583 10.7819C35.6479 11.0284 35.8427 11.3504 35.8427 11.748C35.8427 11.8593 35.8268 11.9746 35.795 12.0938C35.6916 12.4834 35.4769 12.6782 35.151 12.6782C35.0237 12.6782 34.8806 12.6504 34.7216 12.5947C34.658 12.5788 34.5984 12.5709 34.5427 12.5709C34.336 12.5709 34.1611 12.7299 34.018 13.0479C34.018 13.0559 34.014 13.0599 34.006 13.0599C33.6403 13.847 33.4375 14.6739 33.3978 15.5406L33.3739 15.9341C33.2149 17.739 33.1354 19.2338 33.1354 20.4184C33.1354 22.4777 33.3938 24.2905 33.9106 25.8569C34.0458 26.2862 34.1929 26.5486 34.3519 26.644C34.5189 26.7394 34.6819 26.7871 34.8409 26.7871C34.984 26.7871 35.147 26.7593 35.3299 26.7036C35.4412 26.6798 35.5406 26.6679 35.628 26.6679C36.0097 26.6679 36.2561 26.8627 36.3675 27.2523C36.3834 27.3397 36.3913 27.4272 36.3913 27.5146C36.3913 27.9201 36.1766 28.2342 35.7473 28.4568C35.4451 28.584 35.143 28.6476 34.8409 28.6476ZM42.5215 26.8468C42.76 26.8468 43.0104 26.7394 43.2728 26.5247C43.9566 25.9682 44.3701 25.181 44.5132 24.1633C44.7358 22.6924 44.8471 21.3845 44.8471 20.2395C44.8471 18.228 44.4098 16.0733 43.5352 13.7754C43.3523 13.3381 43.0542 13.1195 42.6407 13.1195C42.3783 13.1195 42.1319 13.2388 41.9013 13.4773C41.1539 14.3439 40.7325 15.3338 40.6371 16.447C40.5178 17.3772 40.4582 18.2598 40.4582 19.0946C40.4582 19.5955 40.4821 20.0805 40.5298 20.5496C40.5854 22.1637 40.7723 23.6227 41.0903 24.9266C41.1778 25.4355 41.3765 25.9046 41.6866 26.3339C41.941 26.6758 42.2193 26.8468 42.5215 26.8468ZM42.5811 28.433C42.4141 28.433 42.1239 28.3773 41.7105 28.266C41.297 28.1467 40.8557 27.8009 40.3866 27.2284C40.0448 26.7991 39.7983 26.3379 39.6472 25.8449C39.4961 25.344 39.3809 24.8233 39.3013 24.2826C39.0231 22.8991 38.8839 21.7582 38.8839 20.8597L38.8958 20.5377C38.864 20.0527 38.8481 19.5717 38.8481 19.0946C38.8481 18.1644 38.9038 17.2301 39.0151 16.2919C39.1344 15.0277 39.5756 13.8907 40.3389 12.881C40.6888 12.4119 41.1181 12.0541 41.627 11.8076C41.9212 11.6645 42.2432 11.5929 42.593 11.5929C42.8236 11.5929 43.0661 11.6247 43.3205 11.6883C44.1872 11.9428 44.8034 12.551 45.1691 13.5131C46.0437 15.8029 46.481 18.1326 46.481 20.5019C46.481 21.623 46.3816 22.756 46.1829 23.9009C46.0556 24.8233 45.7694 25.6939 45.3242 26.5128C45.03 26.9978 44.6523 27.4232 44.1912 27.7889C43.6346 28.2183 43.0979 28.433 42.5811 28.433ZM58.145 28.5045C57.9224 28.5045 57.7316 28.4369 57.5726 28.3018C57.4215 28.1666 57.338 27.9718 57.3221 27.7174C57.2585 26.7951 57.1472 25.8807 56.9882 24.9743C56.8769 24.3064 56.7854 23.6386 56.7139 22.9707C56.1891 17.5959 55.879 14.6779 55.7836 14.2167C55.6643 14.2724 55.5968 14.3638 55.5809 14.491C55.3821 15.0794 55.0958 15.7035 54.7222 16.3635C54.5234 16.7213 54.3365 17.083 54.1616 17.4488C54.0026 17.7748 53.7482 17.9378 53.3983 17.9378C53.0564 17.9378 52.798 17.7708 52.6231 17.4368C52.4482 17.1029 52.2613 16.769 52.0626 16.435C51.7604 15.9421 51.4782 15.4292 51.2158 14.8965C51.1283 15.6996 51.0568 16.2561 51.0011 16.5662C50.7785 17.9656 50.6115 19.3689 50.5002 20.7762C50.3969 22.1835 50.3094 23.5909 50.2378 24.9982C50.2299 25.2685 50.1901 26.0556 50.1186 27.3596C50.0709 27.9718 49.8005 28.2779 49.3076 28.2779C48.7828 28.2382 48.5085 27.9122 48.4847 27.3C48.5006 26.8627 48.5244 26.4214 48.5562 25.9761L48.6158 24.8312C48.7828 21.3805 49.1168 17.9457 49.6177 14.5268C49.6892 13.8907 49.7449 13.0161 49.7846 11.903C49.7846 11.6565 49.8204 11.4339 49.892 11.2351C49.9635 11.0364 50.1384 10.8932 50.4167 10.8058C50.5042 10.7899 50.5877 10.7819 50.6672 10.7819C51.0886 10.7819 51.4344 11.0006 51.7048 11.4379C52.1182 12.2489 52.4561 13.0917 52.7185 13.9663C52.7344 13.9981 52.7463 14.0339 52.7543 14.0736C52.7622 14.0816 52.7662 14.0935 52.7662 14.1094C52.8934 14.5626 53.1002 15.0158 53.3864 15.469C53.9827 14.2923 54.428 13.0917 54.7222 11.8672C54.8653 11.3027 55.2032 10.9091 55.7359 10.6865C55.8949 10.6229 56.038 10.5911 56.1652 10.5911C56.4594 10.5911 56.694 10.7461 56.8689 11.0562C56.9643 11.2471 57.0279 11.4458 57.0597 11.6526C57.1313 12.1853 57.2068 12.714 57.2863 13.2388C57.5646 14.9641 57.7753 16.6974 57.9184 18.4387C58.149 21.2533 58.471 24.06 58.8845 26.8587C58.9242 27.1052 58.9441 27.3516 58.9441 27.5981C58.9361 27.8605 58.8606 28.0752 58.7175 28.2421C58.5744 28.4012 58.3836 28.4886 58.145 28.5045ZM71.0255 28.5045C70.8029 28.5045 70.6121 28.4369 70.453 28.3018C70.302 28.1666 70.2185 27.9718 70.2026 27.7174C70.139 26.7951 70.0277 25.8807 69.8687 24.9743C69.7573 24.3064 69.6659 23.6386 69.5944 22.9707C69.0696 17.5959 68.7595 14.6779 68.6641 14.2167C68.5448 14.2724 68.4772 14.3638 68.4613 14.491C68.2626 15.0794 67.9763 15.7035 67.6026 16.3635C67.4039 16.7213 67.217 17.083 67.0421 17.4488C66.8831 17.7748 66.6287 17.9378 66.2788 17.9378C65.9369 17.9378 65.6785 17.7708 65.5036 17.4368C65.3287 17.1029 65.1418 16.769 64.9431 16.435C64.6409 15.9421 64.3587 15.4292 64.0963 14.8965C64.0088 15.6996 63.9373 16.2561 63.8816 16.5662C63.659 17.9656 63.492 19.3689 63.3807 20.7762C63.2773 22.1835 63.1899 23.5909 63.1183 24.9982C63.1104 25.2685 63.0706 26.0556 62.9991 27.3596C62.9514 27.9718 62.681 28.2779 62.1881 28.2779C61.6633 28.2382 61.389 27.9122 61.3651 27.3C61.381 26.8627 61.4049 26.4214 61.4367 25.9761L61.4963 24.8312C61.6633 21.3805 61.9972 17.9457 62.4982 14.5268C62.5697 13.8907 62.6254 13.0161 62.6651 11.903C62.6651 11.6565 62.7009 11.4339 62.7725 11.2351C62.844 11.0364 63.0189 10.8932 63.2972 10.8058C63.3847 10.7899 63.4682 10.7819 63.5477 10.7819C63.9691 10.7819 64.3149 11.0006 64.5853 11.4379C64.9987 12.2489 65.3366 13.0917 65.599 13.9663C65.6149 13.9981 65.6268 14.0339 65.6348 14.0736C65.6427 14.0816 65.6467 14.0935 65.6467 14.1094C65.7739 14.5626 65.9807 15.0158 66.2669 15.469C66.8632 14.2923 67.3085 13.0917 67.6026 11.8672C67.7458 11.3027 68.0837 10.9091 68.6164 10.6865C68.7754 10.6229 68.9185 10.5911 69.0457 10.5911C69.3399 10.5911 69.5745 10.7461 69.7494 11.0562C69.8448 11.2471 69.9084 11.4458 69.9402 11.6526C70.0118 12.1853 70.0873 12.714 70.1668 13.2388C70.4451 14.9641 70.6558 16.6974 70.7989 18.4387C71.0295 21.2533 71.3515 24.06 71.765 26.8587C71.8047 27.1052 71.8246 27.3516 71.8246 27.5981C71.8166 27.8605 71.7411 28.0752 71.598 28.2421C71.4549 28.4012 71.264 28.4886 71.0255 28.5045ZM76.7979 28.6357C76.5276 28.6357 76.2254 28.5562 75.8915 28.3972C75.5575 28.2382 75.2554 27.8446 74.9851 27.2165C74.7943 26.7394 74.6631 26.2544 74.5915 25.7615C74.5279 25.2685 74.4802 24.7716 74.4484 24.2707C74.3291 22.6725 74.2695 21.4322 74.2695 20.5496C74.2695 19.2457 74.341 17.9417 74.4842 16.6378C74.667 13.37 75.0129 11.5293 75.5218 11.1159C75.7523 10.933 76.1022 10.8416 76.5713 10.8416C77.1676 10.8416 77.744 10.8575 78.3006 10.8893C78.8572 10.9449 79.1434 11.2192 79.1593 11.7122C79.1593 11.9428 79.0838 12.1376 78.9327 12.2966C78.7816 12.4556 78.5789 12.547 78.3245 12.5709L77.8951 12.5828C77.7043 12.5828 77.3703 12.5629 76.8933 12.5232C76.615 12.5232 76.46 12.6941 76.4282 13.036C76.3407 13.9186 76.2373 14.8011 76.1181 15.6837L76.1062 15.8864C76.1062 16.0375 76.1817 16.113 76.3328 16.113C76.6269 16.113 76.9688 16.0494 77.3584 15.9222C77.5095 15.8586 77.6447 15.8268 77.7639 15.8268C78.0263 15.8268 78.241 15.9779 78.4079 16.28C78.4636 16.4072 78.4914 16.5304 78.4914 16.6497C78.4914 16.9439 78.3205 17.2023 77.9786 17.4249C77.5492 17.6634 77.0841 17.7827 76.5832 17.7827C76.3049 17.7827 76.126 17.8384 76.0465 17.9497C75.9193 18.1485 75.8557 19.031 75.8557 20.5973C75.8557 21.5594 75.9074 22.6527 76.0107 23.8771C76.0266 24.8471 76.138 25.67 76.3447 26.3459C76.4719 26.7275 76.6746 26.9183 76.9529 26.9183C77.0483 26.9183 77.1557 26.8945 77.2749 26.8468L77.8236 26.6082C77.9587 26.5526 78.082 26.5247 78.1933 26.5247C78.4397 26.5247 78.6465 26.6559 78.8134 26.9183C78.9009 27.0853 78.9446 27.2443 78.9446 27.3954C78.9446 27.626 78.8333 27.8207 78.6107 27.9798C77.9667 28.4171 77.3624 28.6357 76.7979 28.6357ZM83.3455 23.5074C83.7987 23.2052 84.1326 22.9945 84.3473 22.8753C84.6256 22.7401 84.8283 22.5612 84.9555 22.3386C85.0907 22.116 85.1901 21.8615 85.2537 21.5753C85.4922 20.5655 85.6115 19.5637 85.6115 18.5699C85.6115 17.1148 85.3809 15.6002 84.9197 14.0259C84.7369 13.3342 84.4308 12.8054 84.0014 12.4397C83.8583 12.3204 83.7271 12.2608 83.6078 12.2608C83.4091 12.2608 83.3097 12.3522 83.3097 12.5351C83.3097 12.5669 83.3137 12.5987 83.3216 12.6305C83.3296 12.6544 83.3335 12.6782 83.3335 12.7021C83.3256 12.7418 83.258 14.3718 83.1308 17.5919C83.1149 18.1485 83.1069 18.709 83.1069 19.2735C83.1069 20.8875 83.1864 22.2988 83.3455 23.5074ZM83.0115 28.5522C82.6696 28.5522 82.4271 28.3654 82.284 27.9917C82.0614 27.3715 81.9501 26.7832 81.9501 26.2266C81.6718 23.3722 81.5207 21.4481 81.4969 20.4542L81.4611 19.8102C81.6201 15.0317 81.7036 12.4914 81.7116 12.1892C81.7275 11.8792 81.8904 11.585 82.2005 11.3067C82.6776 10.8694 83.1944 10.6507 83.751 10.6507C83.9895 10.6507 84.2201 10.7104 84.4427 10.8296C85.9136 11.6724 86.7962 13.5409 87.0903 16.435C87.1858 17.3573 87.2335 18.0491 87.2335 18.5102C87.2335 19.4564 87.1341 20.4105 86.9353 21.3726C86.8478 21.8655 86.7206 22.3346 86.5537 22.7799C86.3867 23.2251 86.0965 23.6107 85.683 23.9367C85.6194 23.9844 85.5876 24.0321 85.5876 24.0798C85.5876 24.1355 85.5956 24.1872 85.6115 24.2349C85.6353 24.2746 85.6552 24.3144 85.6711 24.3541C85.846 24.9187 86.0925 25.4514 86.4105 25.9523C86.6014 26.2703 86.7723 26.5963 86.9234 26.9302C86.9393 26.97 86.9592 27.0058 86.983 27.0376C87.0784 27.2364 87.1261 27.4312 87.1261 27.622C87.1261 27.94 86.983 28.1706 86.6968 28.3137C86.5616 28.3614 86.4384 28.3853 86.3271 28.3853C86.0249 28.3853 85.7983 28.2302 85.6473 27.9201C85.4803 27.5782 85.2974 27.2443 85.0986 26.9183C84.7727 26.4174 84.5103 25.8847 84.3115 25.3202C84.3036 25.2963 84.2996 25.2685 84.2996 25.2367C84.2678 25.0777 84.2121 24.9982 84.1326 24.9982C84.1088 24.9982 84.0372 25.0181 83.9179 25.0578C83.6635 25.0976 83.5283 25.2407 83.5124 25.4872C83.5363 26.004 83.6078 26.5764 83.7271 27.2046C83.7828 27.451 83.8106 27.6379 83.8106 27.7651C83.8106 28.1626 83.6118 28.4171 83.2143 28.5284C83.1427 28.5443 83.0751 28.5522 83.0115 28.5522ZM92.9939 28.6476C91.6661 28.6476 90.7478 27.5425 90.2389 25.3321C89.8811 23.7499 89.7022 22.116 89.7022 20.4304C89.7022 19.683 89.7301 19.0072 89.7857 18.4029C89.8016 17.6396 89.8374 16.8723 89.8931 16.1011C89.9487 15.3299 90.064 14.5626 90.2389 13.7993C90.3661 13.1871 90.553 12.6265 90.7995 12.1177C91.0539 11.6009 91.4435 11.1914 91.9682 10.8893C92.2704 10.7143 92.5606 10.6269 92.8389 10.6269C93.0217 10.6269 93.2126 10.6786 93.4113 10.7819C93.8009 11.0284 93.9957 11.3504 93.9957 11.748C93.9957 11.8593 93.9798 11.9746 93.948 12.0938C93.8447 12.4834 93.63 12.6782 93.304 12.6782C93.1768 12.6782 93.0337 12.6504 92.8746 12.5947C92.811 12.5788 92.7514 12.5709 92.6958 12.5709C92.489 12.5709 92.3141 12.7299 92.171 13.0479C92.171 13.0559 92.167 13.0599 92.1591 13.0599C91.7933 13.847 91.5906 14.6739 91.5508 15.5406L91.527 15.9341C91.3679 17.739 91.2884 19.2338 91.2884 20.4184C91.2884 22.4777 91.5468 24.2905 92.0637 25.8569C92.1988 26.2862 92.3459 26.5486 92.5049 26.644C92.6719 26.7394 92.8349 26.7871 92.9939 26.7871C93.137 26.7871 93.3 26.7593 93.4829 26.7036C93.5942 26.6798 93.6936 26.6679 93.7811 26.6679C94.1627 26.6679 94.4092 26.8627 94.5205 27.2523C94.5364 27.3397 94.5443 27.4272 94.5443 27.5146C94.5443 27.9201 94.3297 28.2342 93.9003 28.4568C93.5982 28.584 93.296 28.6476 92.9939 28.6476ZM99.6011 28.6357C99.3308 28.6357 99.0287 28.5562 98.6947 28.3972C98.3608 28.2382 98.0586 27.8446 97.7883 27.2165C97.5975 26.7394 97.4663 26.2544 97.3947 25.7615C97.3311 25.2685 97.2834 24.7716 97.2516 24.2707C97.1324 22.6725 97.0727 21.4322 97.0727 20.5496C97.0727 19.2457 97.1443 17.9417 97.2874 16.6378C97.4703 13.37 97.8161 11.5293 98.325 11.1159C98.5556 10.933 98.9054 10.8416 99.3745 10.8416C99.9708 10.8416 100.547 10.8575 101.104 10.8893C101.66 10.9449 101.947 11.2192 101.963 11.7122C101.963 11.9428 101.887 12.1376 101.736 12.2966C101.585 12.4556 101.382 12.547 101.128 12.5709L100.698 12.5828C100.508 12.5828 100.174 12.5629 99.6965 12.5232C99.4183 12.5232 99.2632 12.6941 99.2314 13.036C99.1439 13.9186 99.0406 14.8011 98.9213 15.6837L98.9094 15.8864C98.9094 16.0375 98.9849 16.113 99.136 16.113C99.4302 16.113 99.7721 16.0494 100.162 15.9222C100.313 15.8586 100.448 15.8268 100.567 15.8268C100.83 15.8268 101.044 15.9779 101.211 16.28C101.267 16.4072 101.295 16.5304 101.295 16.6497C101.295 16.9439 101.124 17.2023 100.782 17.4249C100.352 17.6634 99.8874 17.7827 99.3864 17.7827C99.1082 17.7827 98.9293 17.8384 98.8498 17.9497C98.7225 18.1485 98.6589 19.031 98.6589 20.5973C98.6589 21.5594 98.7106 22.6527 98.814 23.8771C98.8299 24.8471 98.9412 25.67 99.1479 26.3459C99.2751 26.7275 99.4779 26.9183 99.7562 26.9183C99.8516 26.9183 99.9589 26.8945 100.078 26.8468L100.627 26.6082C100.762 26.5526 100.885 26.5247 100.997 26.5247C101.243 26.5247 101.45 26.6559 101.617 26.9183C101.704 27.0853 101.748 27.2443 101.748 27.3954C101.748 27.626 101.637 27.8207 101.414 27.9798C100.77 28.4171 100.166 28.6357 99.6011 28.6357Z" fill="#A3A3A3"/>
<path d="M7.07837 25.8015V16.3815H1.42637C1.17654 16.3815 0.93694 16.4808 0.76028 16.6574C0.583621 16.8341 0.484375 17.0737 0.484375 17.3235V31.4535C0.484375 31.7033 0.583621 31.9429 0.76028 32.1196C0.93694 32.2963 1.17654 32.3955 1.42637 32.3955H15.5564C15.8062 32.3955 16.0458 32.2963 16.2225 32.1196C16.3991 31.9429 16.4984 31.7033 16.4984 31.4535V25.8015H7.07837ZM22.1504 25.8015H16.4984V16.3815H7.07837V10.7295C7.07837 10.4797 7.17762 10.2401 7.35428 10.0634C7.53094 9.88676 7.77054 9.78752 8.02037 9.78752H22.1504C22.4002 9.78752 22.6398 9.88676 22.8165 10.0634C22.9931 10.2401 23.0924 10.4797 23.0924 10.7295V24.8595C23.0924 25.1093 22.9931 25.3489 22.8165 25.5256C22.6398 25.7023 22.4002 25.8015 22.1504 25.8015Z" fill="#A3A3A3"/>
</svg>
