<svg width="37" height="37" viewBox="0 0 37 37" fill="none" xmlns="http://www.w3.org/2000/svg">
<path d="M18.8765 24.1925C21.8879 24.1925 24.3292 21.7512 24.3292 18.7398C24.3292 15.7284 21.8879 13.2871 18.8765 13.2871C15.8651 13.2871 13.4238 15.7284 13.4238 18.7398C13.4238 21.7512 15.8651 24.1925 18.8765 24.1925Z" stroke="#FE9929" stroke-width="1.54514" stroke-linecap="round" stroke-linejoin="round"/>
<g filter="url(#filter0_f_901_245)">
<path d="M7.07779 25.5682C6.47523 24.5303 6.0136 23.4168 5.70508 22.2571L7.99248 19.3944C7.96658 18.9568 7.96658 18.518 7.99248 18.0803L5.70644 15.2177C6.01444 14.0577 6.47513 12.9438 7.07643 11.9051L10.7175 11.4962C11.0082 11.1686 11.3182 10.8586 11.6458 10.5679L12.0547 6.92821C13.0919 6.32978 14.204 5.87183 15.3618 5.56641L18.2244 7.85381C18.6621 7.82791 19.1009 7.82791 19.5385 7.85381L22.4012 5.56777C23.5611 5.87576 24.6751 6.33645 25.7137 6.93776L26.1226 10.5788C26.4502 10.8695 26.7602 11.1795 27.051 11.5071L30.6906 11.9161C31.2932 12.9539 31.7548 14.0674 32.0633 15.2272L29.7759 18.0899C29.8018 18.5275 29.8018 18.9663 29.7759 19.404L32.062 22.2666C31.7561 23.4262 31.2978 24.5401 30.6988 25.5791L27.0578 25.9881C26.767 26.3156 26.457 26.6256 26.1295 26.9164L25.7205 30.556C24.6826 31.1586 23.5691 31.6202 22.4094 31.9288L19.5467 29.6414C19.1091 29.6673 18.6703 29.6673 18.2326 29.6414L15.37 31.9274C14.2103 31.6216 13.0965 31.1632 12.0575 30.5642L11.6485 26.9232C11.3209 26.6324 11.0109 26.3225 10.7202 25.9949L7.07779 25.5682Z" stroke="#FE9929" stroke-width="1.54514" stroke-linecap="round" stroke-linejoin="round"/>
</g>
<g filter="url(#filter1_f_901_245)">
<path d="M18.8765 24.1925C21.8879 24.1925 24.3292 21.7512 24.3292 18.7398C24.3292 15.7284 21.8879 13.2871 18.8765 13.2871C15.8651 13.2871 13.4238 15.7284 13.4238 18.7398C13.4238 21.7512 15.8651 24.1925 18.8765 24.1925Z" stroke="#FE9929" stroke-width="1.54514" stroke-linecap="round" stroke-linejoin="round"/>
</g>
<path d="M7.07779 25.5682C6.47523 24.5303 6.0136 23.4168 5.70508 22.2571L7.99248 19.3944C7.96658 18.9568 7.96658 18.518 7.99248 18.0803L5.70644 15.2177C6.01444 14.0577 6.47513 12.9438 7.07643 11.9051L10.7175 11.4962C11.0082 11.1686 11.3182 10.8586 11.6458 10.5679L12.0547 6.92821C13.0919 6.32978 14.204 5.87183 15.3618 5.56641L18.2244 7.85381C18.6621 7.82791 19.1009 7.82791 19.5385 7.85381L22.4012 5.56777C23.5611 5.87576 24.6751 6.33645 25.7137 6.93776L26.1226 10.5788C26.4502 10.8695 26.7602 11.1795 27.051 11.5071L30.6906 11.9161C31.2932 12.9539 31.7548 14.0674 32.0633 15.2272L29.7759 18.0899C29.8018 18.5275 29.8018 18.9663 29.7759 19.404L32.062 22.2666C31.7561 23.4262 31.2978 24.5401 30.6988 25.5791L27.0578 25.9881C26.767 26.3156 26.457 26.6256 26.1295 26.9164L25.7205 30.556C24.6826 31.1586 23.5691 31.6202 22.4094 31.9288L19.5467 29.6414C19.1091 29.6673 18.6703 29.6673 18.2326 29.6414L15.37 31.9274C14.2103 31.6216 13.0965 31.1632 12.0575 30.5642L11.6485 26.9232C11.3209 26.6324 11.0109 26.3225 10.7202 25.9949L7.07779 25.5682Z" stroke="#FE9929" stroke-width="1.54514" stroke-linecap="round" stroke-linejoin="round"/>
<defs>
<filter id="filter0_f_901_245" x="0.931641" y="0.793945" width="35.9043" height="35.9072" filterUnits="userSpaceOnUse" color-interpolation-filters="sRGB">
<feFlood flood-opacity="0" result="BackgroundImageFix"/>
<feBlend mode="normal" in="SourceGraphic" in2="BackgroundImageFix" result="shape"/>
<feGaussianBlur stdDeviation="2" result="effect1_foregroundBlur_901_245"/>
</filter>
<filter id="filter1_f_901_245" x="8.65039" y="8.51465" width="20.4512" height="20.4502" filterUnits="userSpaceOnUse" color-interpolation-filters="sRGB">
<feFlood flood-opacity="0" result="BackgroundImageFix"/>
<feBlend mode="normal" in="SourceGraphic" in2="BackgroundImageFix" result="shape"/>
<feGaussianBlur stdDeviation="2" result="effect1_foregroundBlur_901_245"/>
</filter>
</defs>
</svg>
