<svg width="476" height="231" viewBox="0 0 476 231" fill="none" xmlns="http://www.w3.org/2000/svg">
<line y1="-0.5" x2="230.301" y2="-0.5" transform="matrix(-0.0115715 0.999933 -0.999951 -0.00986799 232.318 0.570312)" stroke="url(#paint0_radial_179_454)"/>
<line y1="-0.5" x2="230.301" y2="-0.5" transform="matrix(-0.0115715 0.999933 -0.999951 -0.00986799 293.459 0.570312)" stroke="url(#paint1_radial_179_454)"/>
<line y1="-0.5" x2="230.301" y2="-0.5" transform="matrix(-0.0115715 0.999933 -0.999951 -0.00986799 354.6 0.570312)" stroke="url(#paint2_radial_179_454)"/>
<line y1="-0.5" x2="230.301" y2="-0.5" transform="matrix(-0.0113773 0.999935 -0.99995 -0.0100365 415.74 0.570312)" stroke="url(#paint3_radial_179_454)"/>
<line y1="-0.5" x2="230.301" y2="-0.5" transform="matrix(-0.0115715 0.999933 -0.999951 -0.00986799 171.178 0.570312)" stroke="url(#paint4_radial_179_454)"/>
<line y1="-0.5" x2="230.301" y2="-0.5" transform="matrix(-0.0115715 0.999933 -0.999951 -0.00986799 110.037 0.570312)" stroke="url(#paint5_radial_179_454)"/>
<line y1="-0.5" x2="230.301" y2="-0.5" transform="matrix(-0.0115715 0.999933 -0.999951 -0.00986799 48.8965 0.570312)" stroke="url(#paint6_radial_179_454)"/>
<line x1="0.949219" y1="61.957" x2="461.307" y2="61.957" stroke="url(#paint7_radial_179_454)"/>
<line x1="0.949219" y1="111.8" x2="461.307" y2="111.8" stroke="url(#paint8_radial_179_454)"/>
<line x1="0.949219" y1="164.177" x2="461.307" y2="164.177" stroke="url(#paint9_radial_179_454)"/>
<path d="M0.333984 152.517L47.4388 144.721L85.5458 112.712L109.363 127.485L144.823 73.7275L170.228 111.891L211.51 132.82L262.319 102.863L280.844 105.736L308.365 127.075L344.884 95.4769L387.225 136.924L443.856 74.1379" stroke="url(#paint10_linear_179_454)"/>
<path d="M67.117 132.288C67.117 142.147 59.1017 150.141 49.2128 150.141C39.3239 150.141 31.3086 142.147 31.3086 132.288C31.3086 122.429 39.3239 114.436 49.2128 114.436C59.1017 114.436 67.117 122.429 67.117 132.288Z" fill="url(#paint11_linear_179_454)" stroke="url(#paint12_linear_179_454)" stroke-width="0.5"/>
<mask id="mask0_179_454" style="mask-type:alpha" maskUnits="userSpaceOnUse" x="31" y="114" width="37" height="37">
<path d="M67.1209 132.287C67.1209 142.146 59.1056 150.14 49.2167 150.14C39.3278 150.14 31.3125 142.146 31.3125 132.287C31.3125 122.428 39.3278 114.435 49.2167 114.435C59.1056 114.435 67.1209 122.428 67.1209 132.287Z" fill="url(#paint13_linear_179_454)" stroke="url(#paint14_linear_179_454)" stroke-width="0.5"/>
</mask>
<g mask="url(#mask0_179_454)">
<path d="M18.8516 149.731L52.4434 142.48L67.8538 127.545L84.6494 113.301" stroke="#FFAC2F" stroke-width="3"/>
</g>
<path d="M365.026 95.1494C365.026 104.288 357.596 111.698 348.429 111.698C339.262 111.698 331.832 104.288 331.832 95.1494C331.832 86.0104 339.262 78.6006 348.429 78.6006C357.596 78.6006 365.026 86.0104 365.026 95.1494Z" fill="url(#paint15_linear_179_454)" stroke="url(#paint16_linear_179_454)" stroke-width="0.5"/>
<g filter="url(#filter0_f_179_454)">
<path d="M348.427 88.168C347.209 88.168 346.018 88.5282 345.005 89.2031C343.992 89.878 343.203 90.8373 342.736 91.9596C342.27 93.0819 342.148 94.3169 342.386 95.5083C342.624 96.6997 343.21 97.7942 344.072 98.6531C344.933 99.5121 346.031 100.097 347.226 100.334C348.42 100.571 349.659 100.449 350.784 99.9846C351.91 99.5197 352.872 98.7325 353.549 97.7224C354.226 96.7123 354.587 95.5248 354.587 94.31C354.585 92.6816 353.936 91.1203 352.781 89.9688C351.626 88.8173 350.06 88.1697 348.427 88.168ZM351.131 93.2269L347.815 96.5342C347.771 96.5781 347.719 96.613 347.661 96.6367C347.603 96.6605 347.542 96.6727 347.48 96.6727C347.417 96.6727 347.356 96.6605 347.298 96.6367C347.241 96.613 347.188 96.5781 347.144 96.5342L345.723 95.1168C345.634 95.0281 345.584 94.9079 345.584 94.7825C345.584 94.6571 345.634 94.5369 345.723 94.4482C345.812 94.3596 345.932 94.3098 346.058 94.3098C346.184 94.3098 346.304 94.3596 346.393 94.4482L347.48 95.532L350.461 92.5584C350.505 92.5145 350.557 92.4797 350.615 92.4559C350.672 92.4321 350.734 92.4199 350.796 92.4199C350.859 92.4199 350.92 92.4321 350.978 92.4559C351.035 92.4797 351.087 92.5145 351.131 92.5584C351.176 92.6023 351.21 92.6544 351.234 92.7117C351.258 92.7691 351.27 92.8306 351.27 92.8926C351.27 92.9547 351.258 93.0162 351.234 93.0735C351.21 93.1309 351.176 93.183 351.131 93.2269Z" fill="#2EFF4F"/>
</g>
<ellipse cx="348.85" cy="95.1491" rx="5.4752" ry="5.87959" fill="#12151C"/>
<path d="M348.428 85.9102C346.595 85.9102 344.804 86.452 343.28 87.4673C341.756 88.4825 340.569 89.9255 339.867 91.6138C339.166 93.302 338.983 95.1598 339.34 96.952C339.698 98.7443 340.58 100.391 341.876 101.683C343.172 102.975 344.823 103.855 346.62 104.211C348.418 104.568 350.281 104.385 351.974 103.686C353.667 102.986 355.114 101.802 356.132 100.283C357.15 98.7632 357.694 96.9769 357.694 95.1495C357.691 92.6999 356.714 90.3513 354.977 88.6192C353.24 86.887 350.884 85.9127 348.428 85.9102ZM352.496 93.5202L347.507 98.4952C347.44 98.5613 347.362 98.6137 347.275 98.6495C347.189 98.6853 347.096 98.7037 347.002 98.7037C346.909 98.7037 346.816 98.6853 346.729 98.6495C346.643 98.6137 346.564 98.5613 346.498 98.4952L344.36 96.3631C344.226 96.2297 344.151 96.0488 344.151 95.8602C344.151 95.6716 344.226 95.4908 344.36 95.3574C344.494 95.224 344.675 95.1491 344.864 95.1491C345.053 95.1491 345.235 95.224 345.368 95.3574L347.002 96.9876L351.487 92.5145C351.554 92.4485 351.632 92.3961 351.719 92.3604C351.805 92.3246 351.898 92.3062 351.992 92.3062C352.085 92.3062 352.178 92.3246 352.264 92.3604C352.351 92.3961 352.43 92.4485 352.496 92.5145C352.562 92.5805 352.615 92.6589 352.65 92.7452C352.686 92.8315 352.705 92.924 352.705 93.0174C352.705 93.1107 352.686 93.2032 352.65 93.2895C352.615 93.3758 352.562 93.4542 352.496 93.5202Z" fill="#2EFF4F"/>
<path d="M223.918 35.4736C223.918 30.6411 227.835 26.7236 232.668 26.7236H466.071C470.904 26.7236 474.821 30.6411 474.821 35.4736V53.7648C474.821 58.5934 470.91 62.5094 466.081 62.5148L364.685 62.6289C362.322 62.6316 360.05 63.5383 358.335 65.163L352.913 70.2975C351.839 71.3148 350.153 71.3001 349.097 70.2642L343.915 65.1817C342.186 63.4864 339.861 62.5364 337.44 62.5357L232.666 62.5071C227.834 62.5058 223.918 58.5887 223.918 53.7571V35.4736Z" fill="url(#paint17_linear_179_454)" stroke="url(#paint18_linear_179_454)" stroke-width="0.5"/>
<path d="M295.456 40.1283H296.476V47.5683H299.776V48.5283H295.456V40.1283ZM300.318 45.7683C300.318 45.2083 300.442 44.7123 300.69 44.2803C300.946 43.8483 301.29 43.5083 301.722 43.2603C302.154 43.0123 302.638 42.8883 303.174 42.8883C303.718 42.8883 304.202 43.0123 304.626 43.2603C305.058 43.5083 305.398 43.8483 305.646 44.2803C305.902 44.7123 306.03 45.2083 306.03 45.7683C306.03 46.3203 305.902 46.8163 305.646 47.2563C305.398 47.6883 305.058 48.0283 304.626 48.2763C304.202 48.5243 303.718 48.6483 303.174 48.6483C302.638 48.6483 302.154 48.5243 301.722 48.2763C301.29 48.0283 300.946 47.6883 300.69 47.2563C300.442 46.8163 300.318 46.3203 300.318 45.7683ZM301.29 45.7683C301.29 46.1523 301.37 46.4923 301.53 46.7883C301.698 47.0843 301.922 47.3203 302.202 47.4963C302.49 47.6643 302.814 47.7483 303.174 47.7483C303.534 47.7483 303.854 47.6643 304.134 47.4963C304.422 47.3203 304.646 47.0843 304.806 46.7883C304.974 46.4923 305.058 46.1523 305.058 45.7683C305.058 45.3843 304.974 45.0443 304.806 44.7483C304.646 44.4443 304.422 44.2083 304.134 44.0403C303.854 43.8723 303.534 43.7883 303.174 43.7883C302.814 43.7883 302.49 43.8723 302.202 44.0403C301.922 44.2083 301.698 44.4443 301.53 44.7483C301.37 45.0443 301.29 45.3843 301.29 45.7683ZM307.781 46.8243C307.781 47.0323 307.829 47.2123 307.925 47.3643C308.029 47.5163 308.169 47.6323 308.345 47.7123C308.529 47.7843 308.737 47.8203 308.969 47.8203C309.265 47.8203 309.529 47.7603 309.761 47.6403C310.001 47.5203 310.189 47.3523 310.325 47.1363C310.469 46.9123 310.541 46.6563 310.541 46.3683L310.733 47.0883C310.733 47.4403 310.625 47.7323 310.409 47.9643C310.201 48.1963 309.941 48.3683 309.629 48.4803C309.325 48.5923 309.021 48.6483 308.717 48.6483C308.381 48.6483 308.065 48.5803 307.769 48.4443C307.481 48.3003 307.249 48.0963 307.073 47.8323C306.897 47.5683 306.809 47.2483 306.809 46.8723C306.809 46.3363 306.997 45.9083 307.373 45.5883C307.757 45.2603 308.289 45.0963 308.969 45.0963C309.369 45.0963 309.701 45.1443 309.965 45.2403C310.237 45.3283 310.453 45.4323 310.613 45.5523C310.773 45.6643 310.881 45.7563 310.937 45.8283V46.3923C310.657 46.2003 310.369 46.0643 310.073 45.9843C309.777 45.8963 309.461 45.8523 309.125 45.8523C308.813 45.8523 308.557 45.8923 308.357 45.9723C308.165 46.0523 308.021 46.1643 307.925 46.3083C307.829 46.4523 307.781 46.6243 307.781 46.8243ZM307.637 44.2803L307.169 43.5723C307.377 43.4203 307.661 43.2683 308.021 43.1163C308.389 42.9643 308.829 42.8883 309.341 42.8883C309.773 42.8883 310.149 42.9563 310.469 43.0923C310.797 43.2203 311.049 43.4083 311.225 43.6563C311.409 43.9043 311.501 44.2083 311.501 44.5683V48.5283H310.541V44.7003C310.541 44.5083 310.509 44.3523 310.445 44.2323C310.381 44.1043 310.289 44.0043 310.169 43.9323C310.057 43.8603 309.925 43.8083 309.773 43.7763C309.621 43.7443 309.461 43.7283 309.293 43.7283C309.021 43.7283 308.773 43.7603 308.549 43.8243C308.333 43.8883 308.149 43.9643 307.997 44.0523C307.845 44.1403 307.725 44.2163 307.637 44.2803ZM317.267 39.1683H318.227V48.5283H317.267V39.1683ZM312.647 45.7683C312.647 45.1683 312.771 44.6563 313.019 44.2323C313.267 43.8003 313.599 43.4683 314.015 43.2363C314.431 43.0043 314.887 42.8883 315.383 42.8883C315.847 42.8883 316.251 43.0043 316.595 43.2363C316.939 43.4683 317.207 43.8003 317.399 44.2323C317.599 44.6563 317.699 45.1683 317.699 45.7683C317.699 46.3603 317.599 46.8723 317.399 47.3043C317.207 47.7363 316.939 48.0683 316.595 48.3003C316.251 48.5323 315.847 48.6483 315.383 48.6483C314.887 48.6483 314.431 48.5323 314.015 48.3003C313.599 48.0683 313.267 47.7363 313.019 47.3043C312.771 46.8723 312.647 46.3603 312.647 45.7683ZM313.619 45.7683C313.619 46.1923 313.703 46.5523 313.871 46.8483C314.047 47.1443 314.279 47.3683 314.567 47.5203C314.855 47.6723 315.167 47.7483 315.503 47.7483C315.783 47.7483 316.059 47.6723 316.331 47.5203C316.603 47.3683 316.827 47.1443 317.003 46.8483C317.179 46.5523 317.267 46.1923 317.267 45.7683C317.267 45.3443 317.179 44.9843 317.003 44.6883C316.827 44.3923 316.603 44.1683 316.331 44.0163C316.059 43.8643 315.783 43.7883 315.503 43.7883C315.167 43.7883 314.855 43.8643 314.567 44.0163C314.279 44.1683 314.047 44.3923 313.871 44.6883C313.703 44.9843 313.619 45.3443 313.619 45.7683ZM319.97 40.7283C319.97 40.5443 320.034 40.3883 320.162 40.2603C320.298 40.1323 320.454 40.0683 320.63 40.0683C320.814 40.0683 320.97 40.1323 321.098 40.2603C321.226 40.3883 321.29 40.5443 321.29 40.7283C321.29 40.9043 321.226 41.0603 321.098 41.1963C320.97 41.3243 320.814 41.3883 320.63 41.3883C320.454 41.3883 320.298 41.3243 320.162 41.1963C320.034 41.0603 319.97 40.9043 319.97 40.7283ZM320.15 43.0083H321.11V48.5283H320.15V43.0083ZM326.628 45.1683C326.628 44.7123 326.528 44.3683 326.328 44.1363C326.128 43.9043 325.836 43.7883 325.452 43.7883C325.172 43.7883 324.924 43.8483 324.708 43.9683C324.5 44.0803 324.336 44.2403 324.216 44.4483C324.104 44.6563 324.048 44.8963 324.048 45.1683V48.5283H323.088V43.0083H324.048V43.8723C324.232 43.5363 324.46 43.2883 324.732 43.1283C325.012 42.9683 325.332 42.8883 325.692 42.8883C326.276 42.8883 326.736 43.0843 327.072 43.4763C327.416 43.8603 327.588 44.3843 327.588 45.0483V48.5283H326.628V45.1683ZM329.02 48.8883H329.992C329.992 49.1523 330.064 49.3963 330.208 49.6203C330.352 49.8523 330.556 50.0363 330.82 50.1723C331.084 50.3163 331.396 50.3883 331.756 50.3883C332.036 50.3883 332.312 50.3203 332.584 50.1843C332.856 50.0483 333.08 49.8323 333.256 49.5363C333.44 49.2483 333.532 48.8723 333.532 48.4083V43.0083H334.492V48.4083C334.492 49.0403 334.36 49.5683 334.096 49.9923C333.832 50.4243 333.492 50.7483 333.076 50.9643C332.66 51.1803 332.22 51.2883 331.756 51.2883C331.22 51.2883 330.744 51.1883 330.328 50.9883C329.92 50.7883 329.6 50.5043 329.368 50.1363C329.136 49.7763 329.02 49.3603 329.02 48.8883ZM328.912 45.7683C328.912 45.1683 329.036 44.6563 329.284 44.2323C329.532 43.8003 329.864 43.4683 330.28 43.2363C330.696 43.0043 331.152 42.8883 331.648 42.8883C332.112 42.8883 332.516 43.0043 332.86 43.2363C333.204 43.4683 333.472 43.8003 333.664 44.2323C333.864 44.6563 333.964 45.1683 333.964 45.7683C333.964 46.3603 333.864 46.8723 333.664 47.3043C333.472 47.7363 333.204 48.0683 332.86 48.3003C332.516 48.5323 332.112 48.6483 331.648 48.6483C331.152 48.6483 330.696 48.5323 330.28 48.3003C329.864 48.0683 329.532 47.7363 329.284 47.3043C329.036 46.8723 328.912 46.3603 328.912 45.7683ZM329.884 45.7683C329.884 46.1923 329.968 46.5523 330.136 46.8483C330.312 47.1443 330.544 47.3683 330.832 47.5203C331.12 47.6723 331.432 47.7483 331.768 47.7483C332.048 47.7483 332.324 47.6723 332.596 47.5203C332.868 47.3683 333.092 47.1443 333.268 46.8483C333.444 46.5523 333.532 46.1923 333.532 45.7683C333.532 45.4483 333.48 45.1683 333.376 44.9283C333.272 44.6803 333.132 44.4723 332.956 44.3043C332.788 44.1363 332.6 44.0083 332.392 43.9203C332.184 43.8323 331.976 43.7883 331.768 43.7883C331.432 43.7883 331.12 43.8643 330.832 44.0163C330.544 44.1683 330.312 44.3923 330.136 44.6883C329.968 44.9843 329.884 45.3443 329.884 45.7683ZM339.894 40.1283H340.914V48.5283H339.894V40.1283ZM340.458 41.0883V40.1283H342.174C342.718 40.1283 343.202 40.2323 343.626 40.4403C344.058 40.6403 344.398 40.9283 344.646 41.3043C344.902 41.6803 345.03 42.1283 345.03 42.6483C345.03 43.1603 344.902 43.6083 344.646 43.9923C344.398 44.3683 344.058 44.6603 343.626 44.8683C343.202 45.0683 342.718 45.1683 342.174 45.1683H340.458V44.2083H342.174C342.718 44.2083 343.158 44.0763 343.494 43.8123C343.838 43.5483 344.01 43.1603 344.01 42.6483C344.01 42.1283 343.838 41.7403 343.494 41.4843C343.158 41.2203 342.718 41.0883 342.174 41.0883H340.458ZM346.477 46.8243C346.477 47.0323 346.525 47.2123 346.621 47.3643C346.725 47.5163 346.865 47.6323 347.041 47.7123C347.225 47.7843 347.433 47.8203 347.665 47.8203C347.961 47.8203 348.225 47.7603 348.457 47.6403C348.697 47.5203 348.885 47.3523 349.021 47.1363C349.165 46.9123 349.237 46.6563 349.237 46.3683L349.429 47.0883C349.429 47.4403 349.321 47.7323 349.105 47.9643C348.897 48.1963 348.637 48.3683 348.325 48.4803C348.021 48.5923 347.717 48.6483 347.413 48.6483C347.077 48.6483 346.761 48.5803 346.465 48.4443C346.177 48.3003 345.945 48.0963 345.769 47.8323C345.593 47.5683 345.505 47.2483 345.505 46.8723C345.505 46.3363 345.693 45.9083 346.069 45.5883C346.453 45.2603 346.985 45.0963 347.665 45.0963C348.065 45.0963 348.397 45.1443 348.661 45.2403C348.933 45.3283 349.149 45.4323 349.309 45.5523C349.469 45.6643 349.577 45.7563 349.633 45.8283V46.3923C349.353 46.2003 349.065 46.0643 348.769 45.9843C348.473 45.8963 348.157 45.8523 347.821 45.8523C347.509 45.8523 347.253 45.8923 347.053 45.9723C346.861 46.0523 346.717 46.1643 346.621 46.3083C346.525 46.4523 346.477 46.6243 346.477 46.8243ZM346.333 44.2803L345.865 43.5723C346.073 43.4203 346.357 43.2683 346.717 43.1163C347.085 42.9643 347.525 42.8883 348.037 42.8883C348.469 42.8883 348.845 42.9563 349.165 43.0923C349.493 43.2203 349.745 43.4083 349.921 43.6563C350.105 43.9043 350.197 44.2083 350.197 44.5683V48.5283H349.237V44.7003C349.237 44.5083 349.205 44.3523 349.141 44.2323C349.077 44.1043 348.985 44.0043 348.865 43.9323C348.753 43.8603 348.621 43.8083 348.469 43.7763C348.317 43.7443 348.157 43.7283 347.989 43.7283C347.717 43.7283 347.469 43.7603 347.245 43.8243C347.029 43.8883 346.845 43.9643 346.693 44.0523C346.541 44.1403 346.421 44.2163 346.333 44.2803ZM351.45 48.8883H352.422C352.422 49.1523 352.494 49.3963 352.638 49.6203C352.782 49.8523 352.986 50.0363 353.25 50.1723C353.514 50.3163 353.826 50.3883 354.186 50.3883C354.466 50.3883 354.742 50.3203 355.014 50.1843C355.286 50.0483 355.51 49.8323 355.686 49.5363C355.87 49.2483 355.962 48.8723 355.962 48.4083V43.0083H356.922V48.4083C356.922 49.0403 356.79 49.5683 356.526 49.9923C356.262 50.4243 355.922 50.7483 355.506 50.9643C355.09 51.1803 354.65 51.2883 354.186 51.2883C353.65 51.2883 353.174 51.1883 352.758 50.9883C352.35 50.7883 352.03 50.5043 351.798 50.1363C351.566 49.7763 351.45 49.3603 351.45 48.8883ZM351.342 45.7683C351.342 45.1683 351.466 44.6563 351.714 44.2323C351.962 43.8003 352.294 43.4683 352.71 43.2363C353.126 43.0043 353.582 42.8883 354.078 42.8883C354.542 42.8883 354.946 43.0043 355.29 43.2363C355.634 43.4683 355.902 43.8003 356.094 44.2323C356.294 44.6563 356.394 45.1683 356.394 45.7683C356.394 46.3603 356.294 46.8723 356.094 47.3043C355.902 47.7363 355.634 48.0683 355.29 48.3003C354.946 48.5323 354.542 48.6483 354.078 48.6483C353.582 48.6483 353.126 48.5323 352.71 48.3003C352.294 48.0683 351.962 47.7363 351.714 47.3043C351.466 46.8723 351.342 46.3603 351.342 45.7683ZM352.314 45.7683C352.314 46.1923 352.398 46.5523 352.566 46.8483C352.742 47.1443 352.974 47.3683 353.262 47.5203C353.55 47.6723 353.862 47.7483 354.198 47.7483C354.478 47.7483 354.754 47.6723 355.026 47.5203C355.298 47.3683 355.522 47.1443 355.698 46.8483C355.874 46.5523 355.962 46.1923 355.962 45.7683C355.962 45.4483 355.91 45.1683 355.806 44.9283C355.702 44.6803 355.562 44.4723 355.386 44.3043C355.218 44.1363 355.03 44.0083 354.822 43.9203C354.614 43.8323 354.406 43.7883 354.198 43.7883C353.862 43.7883 353.55 43.8643 353.262 44.0163C352.974 44.1683 352.742 44.3923 352.566 44.6883C352.398 44.9843 352.314 45.3443 352.314 45.7683ZM360.802 48.6483C360.29 48.6483 359.834 48.5283 359.434 48.2883C359.042 48.0403 358.734 47.7003 358.51 47.2683C358.294 46.8363 358.186 46.3363 358.186 45.7683C358.186 45.1923 358.298 44.6883 358.522 44.2563C358.754 43.8243 359.074 43.4883 359.482 43.2483C359.898 43.0083 360.378 42.8883 360.922 42.8883C361.466 42.8883 361.93 43.0043 362.314 43.2363C362.706 43.4603 363.006 43.7843 363.214 44.2083C363.422 44.6323 363.526 45.1363 363.526 45.7203C363.526 45.7763 363.522 45.8363 363.514 45.9003C363.514 45.9563 363.514 45.9923 363.514 46.0083H358.798V45.1923H362.758L362.374 45.7443C362.398 45.7043 362.422 45.6443 362.446 45.5643C362.47 45.4763 362.482 45.4043 362.482 45.3483C362.482 45.0203 362.414 44.7363 362.278 44.4963C362.15 44.2563 361.97 44.0683 361.738 43.9323C361.506 43.7963 361.234 43.7283 360.922 43.7283C360.554 43.7283 360.238 43.8083 359.974 43.9683C359.718 44.1203 359.518 44.3443 359.374 44.6403C359.238 44.9283 359.166 45.2843 359.158 45.7083C359.158 46.1403 359.226 46.5083 359.362 46.8123C359.498 47.1163 359.698 47.3483 359.962 47.5083C360.226 47.6683 360.546 47.7483 360.922 47.7483C361.298 47.7483 361.63 47.6683 361.918 47.5083C362.206 47.3403 362.45 47.0883 362.65 46.7523L363.43 47.2443C363.142 47.7083 362.778 48.0603 362.338 48.3003C361.906 48.5323 361.394 48.6483 360.802 48.6483ZM369.999 44.3883H371.139L374.139 48.5283H372.879L369.999 44.3883ZM368.499 40.1283H369.519V48.5283H368.499V40.1283ZM369.063 41.0283V40.1283H370.779C371.323 40.1283 371.807 40.2323 372.231 40.4403C372.663 40.6403 373.003 40.9283 373.251 41.3043C373.507 41.6803 373.635 42.1283 373.635 42.6483C373.635 43.1603 373.507 43.6083 373.251 43.9923C373.003 44.3683 372.663 44.6603 372.231 44.8683C371.807 45.0683 371.323 45.1683 370.779 45.1683H369.063V44.2683H370.779C371.139 44.2683 371.455 44.2043 371.727 44.0763C372.007 43.9483 372.223 43.7643 372.375 43.5243C372.535 43.2843 372.615 42.9923 372.615 42.6483C372.615 42.3043 372.535 42.0123 372.375 41.7723C372.223 41.5323 372.007 41.3483 371.727 41.2203C371.455 41.0923 371.139 41.0283 370.779 41.0283H369.063ZM377.29 48.6483C376.778 48.6483 376.322 48.5283 375.922 48.2883C375.53 48.0403 375.222 47.7003 374.998 47.2683C374.782 46.8363 374.674 46.3363 374.674 45.7683C374.674 45.1923 374.786 44.6883 375.01 44.2563C375.242 43.8243 375.562 43.4883 375.97 43.2483C376.386 43.0083 376.866 42.8883 377.41 42.8883C377.954 42.8883 378.418 43.0043 378.802 43.2363C379.194 43.4603 379.494 43.7843 379.702 44.2083C379.91 44.6323 380.014 45.1363 380.014 45.7203C380.014 45.7763 380.01 45.8363 380.002 45.9003C380.002 45.9563 380.002 45.9923 380.002 46.0083H375.286V45.1923H379.246L378.862 45.7443C378.886 45.7043 378.91 45.6443 378.934 45.5643C378.958 45.4763 378.97 45.4043 378.97 45.3483C378.97 45.0203 378.902 44.7363 378.766 44.4963C378.638 44.2563 378.458 44.0683 378.226 43.9323C377.994 43.7963 377.722 43.7283 377.41 43.7283C377.042 43.7283 376.726 43.8083 376.462 43.9683C376.206 44.1203 376.006 44.3443 375.862 44.6403C375.726 44.9283 375.654 45.2843 375.646 45.7083C375.646 46.1403 375.714 46.5083 375.85 46.8123C375.986 47.1163 376.186 47.3483 376.45 47.5083C376.714 47.6683 377.034 47.7483 377.41 47.7483C377.786 47.7483 378.118 47.6683 378.406 47.5083C378.694 47.3403 378.938 47.0883 379.138 46.7523L379.918 47.2443C379.63 47.7083 379.266 48.0603 378.826 48.3003C378.394 48.5323 377.882 48.6483 377.29 48.6483ZM381.558 46.8363C381.67 47.0043 381.798 47.1603 381.942 47.3043C382.086 47.4483 382.25 47.5643 382.434 47.6523C382.626 47.7323 382.834 47.7723 383.058 47.7723C383.33 47.7723 383.542 47.7123 383.694 47.5923C383.854 47.4643 383.934 47.2923 383.934 47.0763C383.934 46.8843 383.87 46.7243 383.742 46.5963C383.622 46.4603 383.466 46.3483 383.274 46.2603C383.082 46.1643 382.878 46.0763 382.662 45.9963C382.422 45.9003 382.178 45.7883 381.93 45.6603C381.69 45.5243 381.486 45.3523 381.318 45.1443C381.158 44.9283 381.078 44.6603 381.078 44.3403C381.078 44.0123 381.162 43.7403 381.33 43.5243C381.506 43.3083 381.73 43.1483 382.002 43.0443C382.282 42.9403 382.57 42.8883 382.866 42.8883C383.162 42.8883 383.438 42.9363 383.694 43.0323C383.958 43.1283 384.19 43.2563 384.39 43.4163C384.59 43.5763 384.746 43.7603 384.858 43.9683L384.09 44.4603C383.938 44.2523 383.746 44.0803 383.514 43.9443C383.29 43.8083 383.034 43.7403 382.746 43.7403C382.546 43.7403 382.374 43.7843 382.23 43.8723C382.086 43.9603 382.014 44.0963 382.014 44.2803C382.014 44.4243 382.07 44.5523 382.182 44.6643C382.294 44.7763 382.438 44.8763 382.614 44.9643C382.79 45.0523 382.974 45.1363 383.166 45.2163C383.486 45.3443 383.778 45.4843 384.042 45.6363C384.306 45.7803 384.514 45.9563 384.666 46.1643C384.826 46.3723 384.906 46.6403 384.906 46.9683C384.906 47.4483 384.73 47.8483 384.378 48.1683C384.034 48.4883 383.578 48.6483 383.01 48.6483C382.642 48.6483 382.31 48.5843 382.014 48.4563C381.718 48.3203 381.466 48.1483 381.258 47.9403C381.058 47.7323 380.906 47.5203 380.802 47.3043L381.558 46.8363ZM387.07 51.1683H386.11V43.0083H387.07V51.1683ZM391.69 45.7683C391.69 46.3603 391.566 46.8723 391.318 47.3043C391.07 47.7363 390.738 48.0683 390.322 48.3003C389.914 48.5323 389.458 48.6483 388.954 48.6483C388.498 48.6483 388.094 48.5323 387.742 48.3003C387.398 48.0683 387.126 47.7363 386.926 47.3043C386.734 46.8723 386.638 46.3603 386.638 45.7683C386.638 45.1683 386.734 44.6563 386.926 44.2323C387.126 43.8003 387.398 43.4683 387.742 43.2363C388.094 43.0043 388.498 42.8883 388.954 42.8883C389.458 42.8883 389.914 43.0043 390.322 43.2363C390.738 43.4683 391.07 43.8003 391.318 44.2323C391.566 44.6563 391.69 45.1683 391.69 45.7683ZM390.718 45.7683C390.718 45.3443 390.63 44.9843 390.454 44.6883C390.286 44.3923 390.058 44.1683 389.77 44.0163C389.49 43.8643 389.178 43.7883 388.834 43.7883C388.554 43.7883 388.278 43.8643 388.006 44.0163C387.734 44.1683 387.51 44.3923 387.334 44.6883C387.158 44.9843 387.07 45.3443 387.07 45.7683C387.07 46.1923 387.158 46.5523 387.334 46.8483C387.51 47.1443 387.734 47.3683 388.006 47.5203C388.278 47.6723 388.554 47.7483 388.834 47.7483C389.178 47.7483 389.49 47.6723 389.77 47.5203C390.058 47.3683 390.286 47.1443 390.454 46.8483C390.63 46.5523 390.718 46.1923 390.718 45.7683ZM392.533 45.7683C392.533 45.2083 392.657 44.7123 392.905 44.2803C393.161 43.8483 393.505 43.5083 393.937 43.2603C394.369 43.0123 394.853 42.8883 395.389 42.8883C395.933 42.8883 396.417 43.0123 396.841 43.2603C397.273 43.5083 397.613 43.8483 397.861 44.2803C398.117 44.7123 398.245 45.2083 398.245 45.7683C398.245 46.3203 398.117 46.8163 397.861 47.2563C397.613 47.6883 397.273 48.0283 396.841 48.2763C396.417 48.5243 395.933 48.6483 395.389 48.6483C394.853 48.6483 394.369 48.5243 393.937 48.2763C393.505 48.0283 393.161 47.6883 392.905 47.2563C392.657 46.8163 392.533 46.3203 392.533 45.7683ZM393.505 45.7683C393.505 46.1523 393.585 46.4923 393.745 46.7883C393.913 47.0843 394.137 47.3203 394.417 47.4963C394.705 47.6643 395.029 47.7483 395.389 47.7483C395.749 47.7483 396.069 47.6643 396.349 47.4963C396.637 47.3203 396.861 47.0843 397.021 46.7883C397.189 46.4923 397.273 46.1523 397.273 45.7683C397.273 45.3843 397.189 45.0443 397.021 44.7483C396.861 44.4443 396.637 44.2083 396.349 44.0403C396.069 43.8723 395.749 43.7883 395.389 43.7883C395.029 43.7883 394.705 43.8723 394.417 44.0403C394.137 44.2083 393.913 44.4443 393.745 44.7483C393.585 45.0443 393.505 45.3843 393.505 45.7683ZM403.104 45.1683C403.104 44.7123 403.004 44.3683 402.804 44.1363C402.604 43.9043 402.312 43.7883 401.928 43.7883C401.648 43.7883 401.4 43.8483 401.184 43.9683C400.976 44.0803 400.812 44.2403 400.692 44.4483C400.58 44.6563 400.524 44.8963 400.524 45.1683V48.5283H399.564V43.0083H400.524V43.8723C400.708 43.5363 400.936 43.2883 401.208 43.1283C401.488 42.9683 401.808 42.8883 402.168 42.8883C402.752 42.8883 403.212 43.0843 403.548 43.4763C403.892 43.8603 404.064 44.3843 404.064 45.0483V48.5283H403.104V45.1683ZM406.097 46.8363C406.209 47.0043 406.337 47.1603 406.481 47.3043C406.625 47.4483 406.789 47.5643 406.973 47.6523C407.165 47.7323 407.373 47.7723 407.597 47.7723C407.869 47.7723 408.081 47.7123 408.233 47.5923C408.393 47.4643 408.473 47.2923 408.473 47.0763C408.473 46.8843 408.409 46.7243 408.281 46.5963C408.161 46.4603 408.005 46.3483 407.813 46.2603C407.621 46.1643 407.417 46.0763 407.201 45.9963C406.961 45.9003 406.717 45.7883 406.469 45.6603C406.229 45.5243 406.025 45.3523 405.857 45.1443C405.697 44.9283 405.617 44.6603 405.617 44.3403C405.617 44.0123 405.701 43.7403 405.869 43.5243C406.045 43.3083 406.269 43.1483 406.541 43.0443C406.821 42.9403 407.109 42.8883 407.405 42.8883C407.701 42.8883 407.977 42.9363 408.233 43.0323C408.497 43.1283 408.729 43.2563 408.929 43.4163C409.129 43.5763 409.285 43.7603 409.397 43.9683L408.629 44.4603C408.477 44.2523 408.285 44.0803 408.053 43.9443C407.829 43.8083 407.573 43.7403 407.285 43.7403C407.085 43.7403 406.913 43.7843 406.769 43.8723C406.625 43.9603 406.553 44.0963 406.553 44.2803C406.553 44.4243 406.609 44.5523 406.721 44.6643C406.833 44.7763 406.977 44.8763 407.153 44.9643C407.329 45.0523 407.513 45.1363 407.705 45.2163C408.025 45.3443 408.317 45.4843 408.581 45.6363C408.845 45.7803 409.053 45.9563 409.205 46.1643C409.365 46.3723 409.445 46.6403 409.445 46.9683C409.445 47.4483 409.269 47.8483 408.917 48.1683C408.573 48.4883 408.117 48.6483 407.549 48.6483C407.181 48.6483 406.849 48.5843 406.553 48.4563C406.257 48.3203 406.005 48.1483 405.797 47.9403C405.597 47.7323 405.445 47.5203 405.341 47.3043L406.097 46.8363ZM410.709 40.7283C410.709 40.5443 410.773 40.3883 410.901 40.2603C411.037 40.1323 411.193 40.0683 411.369 40.0683C411.553 40.0683 411.709 40.1323 411.837 40.2603C411.965 40.3883 412.029 40.5443 412.029 40.7283C412.029 40.9043 411.965 41.0603 411.837 41.1963C411.709 41.3243 411.553 41.3883 411.369 41.3883C411.193 41.3883 411.037 41.3243 410.901 41.1963C410.773 41.0603 410.709 40.9043 410.709 40.7283ZM410.889 43.0083H411.849V48.5283H410.889V43.0083ZM412.926 43.0083H414.006L415.566 46.9083L417.126 43.0083H418.206L415.566 48.9483L412.926 43.0083ZM421.071 48.6483C420.559 48.6483 420.103 48.5283 419.703 48.2883C419.311 48.0403 419.003 47.7003 418.779 47.2683C418.563 46.8363 418.455 46.3363 418.455 45.7683C418.455 45.1923 418.567 44.6883 418.791 44.2563C419.023 43.8243 419.343 43.4883 419.751 43.2483C420.167 43.0083 420.647 42.8883 421.191 42.8883C421.735 42.8883 422.199 43.0043 422.583 43.2363C422.975 43.4603 423.275 43.7843 423.483 44.2083C423.691 44.6323 423.795 45.1363 423.795 45.7203C423.795 45.7763 423.791 45.8363 423.783 45.9003C423.783 45.9563 423.783 45.9923 423.783 46.0083H419.067V45.1923H423.027L422.643 45.7443C422.667 45.7043 422.691 45.6443 422.715 45.5643C422.739 45.4763 422.751 45.4043 422.751 45.3483C422.751 45.0203 422.683 44.7363 422.547 44.4963C422.419 44.2563 422.239 44.0683 422.007 43.9323C421.775 43.7963 421.503 43.7283 421.191 43.7283C420.823 43.7283 420.507 43.8083 420.243 43.9683C419.987 44.1203 419.787 44.3443 419.643 44.6403C419.507 44.9283 419.435 45.2843 419.427 45.7083C419.427 46.1403 419.495 46.5083 419.631 46.8123C419.767 47.1163 419.967 47.3483 420.231 47.5083C420.495 47.6683 420.815 47.7483 421.191 47.7483C421.567 47.7483 421.899 47.6683 422.187 47.5083C422.475 47.3403 422.719 47.0883 422.919 46.7523L423.699 47.2443C423.411 47.7083 423.047 48.0603 422.607 48.3003C422.175 48.5323 421.663 48.6483 421.071 48.6483ZM428.769 40.1283H429.789V48.5283H428.769V40.1283ZM431.878 46.8363C431.99 47.0043 432.118 47.1603 432.262 47.3043C432.406 47.4483 432.57 47.5643 432.754 47.6523C432.946 47.7323 433.154 47.7723 433.378 47.7723C433.65 47.7723 433.862 47.7123 434.014 47.5923C434.174 47.4643 434.254 47.2923 434.254 47.0763C434.254 46.8843 434.19 46.7243 434.062 46.5963C433.942 46.4603 433.786 46.3483 433.594 46.2603C433.402 46.1643 433.198 46.0763 432.982 45.9963C432.742 45.9003 432.498 45.7883 432.25 45.6603C432.01 45.5243 431.806 45.3523 431.638 45.1443C431.478 44.9283 431.398 44.6603 431.398 44.3403C431.398 44.0123 431.482 43.7403 431.65 43.5243C431.826 43.3083 432.05 43.1483 432.322 43.0443C432.602 42.9403 432.89 42.8883 433.186 42.8883C433.482 42.8883 433.758 42.9363 434.014 43.0323C434.278 43.1283 434.51 43.2563 434.71 43.4163C434.91 43.5763 435.066 43.7603 435.178 43.9683L434.41 44.4603C434.258 44.2523 434.066 44.0803 433.834 43.9443C433.61 43.8083 433.354 43.7403 433.066 43.7403C432.866 43.7403 432.694 43.7843 432.55 43.8723C432.406 43.9603 432.334 44.0963 432.334 44.2803C432.334 44.4243 432.39 44.5523 432.502 44.6643C432.614 44.7763 432.758 44.8763 432.934 44.9643C433.11 45.0523 433.294 45.1363 433.486 45.2163C433.806 45.3443 434.098 45.4843 434.362 45.6363C434.626 45.7803 434.834 45.9563 434.986 46.1643C435.146 46.3723 435.226 46.6403 435.226 46.9683C435.226 47.4483 435.05 47.8483 434.698 48.1683C434.354 48.4883 433.898 48.6483 433.33 48.6483C432.962 48.6483 432.63 48.5843 432.334 48.4563C432.038 48.3203 431.786 48.1483 431.578 47.9403C431.378 47.7323 431.226 47.5203 431.122 47.3043L431.878 46.8363ZM436.718 46.8363C436.83 47.0043 436.958 47.1603 437.102 47.3043C437.246 47.4483 437.41 47.5643 437.594 47.6523C437.786 47.7323 437.994 47.7723 438.218 47.7723C438.49 47.7723 438.702 47.7123 438.854 47.5923C439.014 47.4643 439.094 47.2923 439.094 47.0763C439.094 46.8843 439.03 46.7243 438.902 46.5963C438.782 46.4603 438.626 46.3483 438.434 46.2603C438.242 46.1643 438.038 46.0763 437.822 45.9963C437.582 45.9003 437.338 45.7883 437.09 45.6603C436.85 45.5243 436.646 45.3523 436.478 45.1443C436.318 44.9283 436.238 44.6603 436.238 44.3403C436.238 44.0123 436.322 43.7403 436.49 43.5243C436.666 43.3083 436.89 43.1483 437.162 43.0443C437.442 42.9403 437.73 42.8883 438.026 42.8883C438.322 42.8883 438.598 42.9363 438.854 43.0323C439.118 43.1283 439.35 43.2563 439.55 43.4163C439.75 43.5763 439.906 43.7603 440.018 43.9683L439.25 44.4603C439.098 44.2523 438.906 44.0803 438.674 43.9443C438.45 43.8083 438.194 43.7403 437.906 43.7403C437.706 43.7403 437.534 43.7843 437.39 43.8723C437.246 43.9603 437.174 44.0963 437.174 44.2803C437.174 44.4243 437.23 44.5523 437.342 44.6643C437.454 44.7763 437.598 44.8763 437.774 44.9643C437.95 45.0523 438.134 45.1363 438.326 45.2163C438.646 45.3443 438.938 45.4843 439.202 45.6363C439.466 45.7803 439.674 45.9563 439.826 46.1643C439.986 46.3723 440.066 46.6403 440.066 46.9683C440.066 47.4483 439.89 47.8483 439.538 48.1683C439.194 48.4883 438.738 48.6483 438.17 48.6483C437.802 48.6483 437.47 48.5843 437.174 48.4563C436.878 48.3203 436.626 48.1483 436.418 47.9403C436.218 47.7323 436.066 47.5203 435.962 47.3043L436.718 46.8363ZM442.29 46.3683C442.29 46.8083 442.39 47.1483 442.59 47.3883C442.79 47.6283 443.082 47.7483 443.466 47.7483C443.746 47.7483 443.99 47.6923 444.198 47.5803C444.414 47.4603 444.578 47.2963 444.69 47.0883C444.81 46.8803 444.87 46.6403 444.87 46.3683V43.0083H445.83V48.5283H444.87V47.6643C444.686 47.9923 444.458 48.2403 444.186 48.4083C443.914 48.5683 443.594 48.6483 443.226 48.6483C442.65 48.6483 442.19 48.4523 441.846 48.0603C441.502 47.6683 441.33 47.1443 441.33 46.4883V43.0083H442.29V46.3683ZM449.77 48.6483C449.258 48.6483 448.802 48.5283 448.402 48.2883C448.01 48.0403 447.702 47.7003 447.478 47.2683C447.262 46.8363 447.154 46.3363 447.154 45.7683C447.154 45.1923 447.266 44.6883 447.49 44.2563C447.722 43.8243 448.042 43.4883 448.45 43.2483C448.866 43.0083 449.346 42.8883 449.89 42.8883C450.434 42.8883 450.898 43.0043 451.282 43.2363C451.674 43.4603 451.974 43.7843 452.182 44.2083C452.39 44.6323 452.494 45.1363 452.494 45.7203C452.494 45.7763 452.49 45.8363 452.482 45.9003C452.482 45.9563 452.482 45.9923 452.482 46.0083H447.766V45.1923H451.726L451.342 45.7443C451.366 45.7043 451.39 45.6443 451.414 45.5643C451.438 45.4763 451.45 45.4043 451.45 45.3483C451.45 45.0203 451.382 44.7363 451.246 44.4963C451.118 44.2563 450.938 44.0683 450.706 43.9323C450.474 43.7963 450.202 43.7283 449.89 43.7283C449.522 43.7283 449.206 43.8083 448.942 43.9683C448.686 44.1203 448.486 44.3443 448.342 44.6403C448.206 44.9283 448.134 45.2843 448.126 45.7083C448.126 46.1403 448.194 46.5083 448.33 46.8123C448.466 47.1163 448.666 47.3483 448.93 47.5083C449.194 47.6683 449.514 47.7483 449.89 47.7483C450.266 47.7483 450.598 47.6683 450.886 47.5083C451.174 47.3403 451.418 47.0883 451.618 46.7523L452.398 47.2443C452.11 47.7083 451.746 48.0603 451.306 48.3003C450.874 48.5323 450.362 48.6483 449.77 48.6483Z" fill="#97989B"/>
<path d="M256.255 46.4111L256.556 45.0467H260.99L261.304 46.4111H256.255ZM258.752 42.0175L257.251 45.5242L257.224 45.879L255.901 48.8672H254.086L258.752 38.7837L263.419 48.8672H261.604L260.308 45.9609L260.267 45.5652L258.752 42.0175ZM264.407 38.2243H265.881V48.8672H264.407V38.2243ZM270.494 49.0036C269.857 49.0036 269.293 48.8672 268.802 48.5943C268.32 48.3214 267.947 47.9393 267.683 47.4481C267.419 46.9569 267.287 46.3838 267.287 45.7289C267.287 45.0648 267.419 44.4872 267.683 43.996C267.956 43.5048 268.338 43.1273 268.829 42.8635C269.321 42.5906 269.898 42.4541 270.562 42.4541C271.226 42.4541 271.79 42.5815 272.254 42.8362C272.718 43.0909 273.073 43.4593 273.318 43.9414C273.573 44.4144 273.701 44.9875 273.701 45.6607C273.701 45.7334 273.696 45.8108 273.687 45.8926C273.687 45.9745 273.682 46.0336 273.673 46.07H268.161V45.0603H272.418L271.968 45.688C271.995 45.6334 272.022 45.5606 272.05 45.4696C272.086 45.3696 272.104 45.2877 272.104 45.224C272.104 44.8875 272.036 44.5964 271.899 44.3508C271.772 44.1052 271.59 43.9141 271.354 43.7777C271.126 43.6412 270.858 43.573 270.549 43.573C270.176 43.573 269.857 43.6549 269.593 43.8186C269.33 43.9824 269.13 44.2189 268.993 44.5282C268.857 44.8374 268.784 45.2195 268.775 45.6743C268.775 46.1291 268.843 46.5157 268.979 46.8341C269.116 47.1434 269.316 47.3799 269.58 47.5436C269.853 47.7074 270.18 47.7893 270.562 47.7893C270.962 47.7893 271.313 47.7074 271.613 47.5436C271.913 47.3799 272.163 47.1298 272.363 46.7932L273.632 47.3117C273.305 47.8757 272.882 48.2987 272.363 48.5806C271.845 48.8626 271.222 49.0036 270.494 49.0036ZM276.567 42.5906V48.8672H275.107V42.5906H276.567ZM278.436 44.1597C278.3 44.0506 278.173 43.9687 278.054 43.9141C277.936 43.8596 277.786 43.8323 277.604 43.8323C277.358 43.8323 277.158 43.8959 277.004 44.0233C276.849 44.1506 276.735 44.328 276.663 44.5554C276.599 44.7738 276.567 45.033 276.567 45.3332L276.076 45.0467C276.076 44.5463 276.167 44.1052 276.349 43.7231C276.54 43.332 276.781 43.0227 277.072 42.7953C277.372 42.5679 277.681 42.4541 278 42.4541C278.227 42.4541 278.441 42.4905 278.641 42.5633C278.841 42.627 279.01 42.7452 279.146 42.9181L278.436 44.1597ZM279.284 42.5906H282.845V43.8868H279.284V42.5906ZM280.335 40.4074H281.795V48.8672H280.335V40.4074ZM287.079 46.2883V44.9648H289.876V46.2883H287.079Z" fill="white"/>
<path d="M250.696 48.5453L244.719 38.1961C244.57 37.9425 244.357 37.7323 244.101 37.5862C243.845 37.4401 243.555 37.3633 243.26 37.3633C242.965 37.3633 242.676 37.4401 242.42 37.5862C242.164 37.7323 241.951 37.9425 241.801 38.1961L235.825 48.5453C235.681 48.7906 235.605 49.0695 235.605 49.3535C235.605 49.6375 235.681 49.9165 235.825 50.1617C235.972 50.4168 236.185 50.6282 236.442 50.7742C236.698 50.9201 236.989 50.9955 237.284 50.9924H249.237C249.532 50.9952 249.822 50.9198 250.078 50.7738C250.334 50.6278 250.547 50.4166 250.694 50.1617C250.838 49.9166 250.914 49.6377 250.914 49.3537C250.915 49.0697 250.839 48.7907 250.696 48.5453ZM242.714 42.815C242.714 42.6704 242.771 42.5317 242.874 42.4295C242.976 42.3272 243.115 42.2698 243.26 42.2698C243.405 42.2698 243.544 42.3272 243.647 42.4295C243.749 42.5317 243.807 42.6704 243.807 42.815V45.5408C243.807 45.6854 243.749 45.824 243.647 45.9263C243.544 46.0285 243.405 46.0859 243.26 46.0859C243.115 46.0859 242.976 46.0285 242.874 45.9263C242.771 45.824 242.714 45.6854 242.714 45.5408V42.815ZM243.26 48.8118C243.098 48.8118 242.94 48.7638 242.805 48.6739C242.67 48.5841 242.565 48.4564 242.503 48.3069C242.441 48.1575 242.424 47.9931 242.456 47.8345C242.488 47.6758 242.566 47.5301 242.68 47.4158C242.795 47.3014 242.941 47.2235 243.1 47.192C243.259 47.1604 243.424 47.1766 243.574 47.2385C243.724 47.3004 243.852 47.4052 243.942 47.5397C244.032 47.6742 244.08 47.8323 244.08 47.994C244.08 48.2109 243.994 48.4189 243.84 48.5722C243.686 48.7256 243.478 48.8118 243.26 48.8118Z" fill="#FF3E3E"/>
<defs>
<filter id="filter0_f_179_454" x="334.268" y="80.168" width="28.3184" height="28.2842" filterUnits="userSpaceOnUse" color-interpolation-filters="sRGB">
<feFlood flood-opacity="0" result="BackgroundImageFix"/>
<feBlend mode="normal" in="SourceGraphic" in2="BackgroundImageFix" result="shape"/>
<feGaussianBlur stdDeviation="4" result="effect1_foregroundBlur_179_454"/>
</filter>
<radialGradient id="paint0_radial_179_454" cx="0" cy="0" r="1" gradientUnits="userSpaceOnUse" gradientTransform="translate(122.189 -29.4728) rotate(53.5651) scale(178.406 226.897)">
<stop stop-color="#5D626D"/>
<stop offset="1" stop-opacity="0"/>
</radialGradient>
<radialGradient id="paint1_radial_179_454" cx="0" cy="0" r="1" gradientUnits="userSpaceOnUse" gradientTransform="translate(122.189 -29.4728) rotate(53.5651) scale(178.406 226.897)">
<stop stop-color="#5D626D"/>
<stop offset="1" stop-opacity="0"/>
</radialGradient>
<radialGradient id="paint2_radial_179_454" cx="0" cy="0" r="1" gradientUnits="userSpaceOnUse" gradientTransform="translate(122.189 -29.4728) rotate(53.5651) scale(178.406 226.897)">
<stop stop-color="#5D626D"/>
<stop offset="1" stop-opacity="0"/>
</radialGradient>
<radialGradient id="paint3_radial_179_454" cx="0" cy="0" r="1" gradientUnits="userSpaceOnUse" gradientTransform="translate(122.189 -29.4728) rotate(53.5651) scale(178.406 226.897)">
<stop stop-color="#5D626D"/>
<stop offset="1" stop-opacity="0"/>
</radialGradient>
<radialGradient id="paint4_radial_179_454" cx="0" cy="0" r="1" gradientUnits="userSpaceOnUse" gradientTransform="translate(122.189 -29.4728) rotate(53.5651) scale(178.406 226.897)">
<stop stop-color="#5D626D"/>
<stop offset="1" stop-opacity="0"/>
</radialGradient>
<radialGradient id="paint5_radial_179_454" cx="0" cy="0" r="1" gradientUnits="userSpaceOnUse" gradientTransform="translate(122.189 -29.4728) rotate(53.5651) scale(178.406 226.897)">
<stop stop-color="#5D626D"/>
<stop offset="1" stop-opacity="0"/>
</radialGradient>
<radialGradient id="paint6_radial_179_454" cx="0" cy="0" r="1" gradientUnits="userSpaceOnUse" gradientTransform="translate(122.189 -29.4728) rotate(53.5651) scale(178.406 226.897)">
<stop stop-color="#5D626D"/>
<stop offset="1" stop-opacity="0"/>
</radialGradient>
<radialGradient id="paint7_radial_179_454" cx="0" cy="0" r="1" gradientUnits="userSpaceOnUse" gradientTransform="translate(197.609 6.31814) rotate(63.3307) scale(175.559 234.298)">
<stop stop-color="#5D626D"/>
<stop offset="1" stop-color="#222326"/>
</radialGradient>
<radialGradient id="paint8_radial_179_454" cx="0" cy="0" r="1" gradientUnits="userSpaceOnUse" gradientTransform="translate(198.949 87.9837) rotate(58.2272) scale(147.103 194.051)">
<stop stop-color="#5D626D"/>
<stop offset="1" stop-color="#1F2023"/>
</radialGradient>
<radialGradient id="paint9_radial_179_454" cx="0" cy="0" r="1" gradientUnits="userSpaceOnUse" gradientTransform="translate(198.949 140.361) rotate(58.2272) scale(147.103 194.051)">
<stop stop-color="#5D626D"/>
<stop offset="1" stop-color="#1F2023"/>
</radialGradient>
<linearGradient id="paint10_linear_179_454" x1="-36.7198" y1="71.1046" x2="-34.7187" y2="226.396" gradientUnits="userSpaceOnUse">
<stop stop-color="white"/>
<stop offset="0.114767" stop-color="#FFAC2F"/>
<stop offset="1" stop-opacity="0"/>
</linearGradient>
<linearGradient id="paint11_linear_179_454" x1="35.9428" y1="97.424" x2="97.7353" y2="115.028" gradientUnits="userSpaceOnUse">
<stop stop-color="#383C45"/>
<stop offset="0.514765" stop-color="#14161A"/>
<stop offset="1" stop-color="#12151C"/>
</linearGradient>
<linearGradient id="paint12_linear_179_454" x1="60.5858" y1="156.289" x2="26.9687" y2="114.881" gradientUnits="userSpaceOnUse">
<stop stop-color="white"/>
<stop offset="0.409948" stop-color="white" stop-opacity="0"/>
<stop offset="1" stop-color="#FF9F9F" stop-opacity="0"/>
</linearGradient>
<linearGradient id="paint13_linear_179_454" x1="35.9467" y1="97.423" x2="97.7392" y2="115.027" gradientUnits="userSpaceOnUse">
<stop stop-color="#383C45"/>
<stop offset="0.514765" stop-color="#14161A"/>
<stop offset="1" stop-color="#12151C"/>
</linearGradient>
<linearGradient id="paint14_linear_179_454" x1="60.5897" y1="156.288" x2="26.9727" y2="114.88" gradientUnits="userSpaceOnUse">
<stop stop-color="white"/>
<stop offset="0.409948" stop-color="white" stop-opacity="0"/>
<stop offset="1" stop-color="#FF9F9F" stop-opacity="0"/>
</linearGradient>
<linearGradient id="paint15_linear_179_454" x1="336.114" y1="62.7961" x2="393.457" y2="79.1323" gradientUnits="userSpaceOnUse">
<stop stop-color="#383C45"/>
<stop offset="0.514765" stop-color="#14161A"/>
<stop offset="1" stop-color="#12151C"/>
</linearGradient>
<linearGradient id="paint16_linear_179_454" x1="358.983" y1="117.422" x2="327.787" y2="78.996" gradientUnits="userSpaceOnUse">
<stop stop-color="white"/>
<stop offset="0.409948" stop-color="white" stop-opacity="0"/>
<stop offset="1" stop-color="#FF9F9F" stop-opacity="0"/>
</linearGradient>
<linearGradient id="paint17_linear_179_454" x1="274.041" y1="9.67688" x2="374.842" y2="187.549" gradientUnits="userSpaceOnUse">
<stop stop-color="#383C45"/>
<stop offset="0.514765" stop-color="#14161A"/>
<stop offset="1" stop-color="#12151C"/>
</linearGradient>
<linearGradient id="paint18_linear_179_454" x1="426.999" y1="68.6654" x2="418.128" y2="0.984099" gradientUnits="userSpaceOnUse">
<stop stop-color="white"/>
<stop offset="0.409948" stop-color="white" stop-opacity="0"/>
<stop offset="1" stop-color="#FF9F9F" stop-opacity="0"/>
</linearGradient>
</defs>
</svg>
