<svg width="427" height="348" viewBox="0 0 427 348" fill="none" xmlns="http://www.w3.org/2000/svg">
<circle cx="234.763" cy="176.117" r="140.558" fill="url(#paint0_linear_187_649)" stroke="url(#paint1_linear_187_649)"/>
<circle cx="234.762" cy="176.117" r="82.1429" fill="url(#paint2_linear_187_649)" stroke="url(#paint3_linear_187_649)"/>
<g clip-path="url(#clip0_187_649)">
<path d="M9.65234 281.013L40.2619 252.06L61.5251 296.985L90.3385 259.879L110.515 286.778L142.695 232.507L186.717 292.22" stroke="white" stroke-miterlimit="10"/>
<path d="M189.519 303.722C195.869 302.18 199.766 295.782 198.224 289.433C196.682 283.083 190.284 279.185 183.935 280.727C177.585 282.269 173.688 288.667 175.23 295.017C176.772 301.366 183.169 305.264 189.519 303.722Z" fill="#6D2CFF"/>
<path d="M90.3387 266.15C93.8017 266.15 96.609 263.343 96.609 259.88C96.609 256.417 93.8017 253.609 90.3387 253.609C86.8757 253.609 84.0684 256.417 84.0684 259.88C84.0684 263.343 86.8757 266.15 90.3387 266.15Z" fill="#FE9929"/>
<path d="M18.3005 282.454C18.3005 287.499 14.2135 291.575 9.18006 291.575C4.13583 291.575 0.0488281 287.488 0.0488281 282.454C0.0488281 277.41 4.13583 273.334 9.1693 273.334C14.2135 273.323 18.3005 277.41 18.3005 282.454Z" fill="#6D2CFF"/>
<path d="M50.4038 255.722C51.8706 249.844 48.2945 243.89 42.4163 242.423C36.538 240.956 30.5837 244.532 29.1169 250.41C27.65 256.288 31.2262 262.243 37.1044 263.71C42.9826 265.176 48.937 261.6 50.4038 255.722Z" fill="#FE9929"/>
<path d="M142.89 241.8C147.987 241.8 152.118 237.668 152.118 232.572C152.118 227.475 147.987 223.344 142.89 223.344C137.794 223.344 133.662 227.475 133.662 232.572C133.662 237.668 137.794 241.8 142.89 241.8Z" fill="#FE9929"/>
<path d="M110.516 295.447C115.042 295.447 118.711 291.777 118.711 287.251C118.711 282.725 115.042 279.056 110.516 279.056C105.99 279.056 102.32 282.725 102.32 287.251C102.32 291.777 105.99 295.447 110.516 295.447Z" fill="#6D2CFF"/>
<path d="M61.5265 304.278C65.5538 304.278 68.8185 301.013 68.8185 296.985C68.8185 292.958 65.5538 289.693 61.5265 289.693C57.4991 289.693 54.2344 292.958 54.2344 296.985C54.2344 301.013 57.4991 304.278 61.5265 304.278Z" fill="#6D2CFF"/>
</g>
<path d="M67.0739 172.505C67.0739 195.036 71.5117 217.347 80.134 238.163C88.7564 258.979 101.394 277.893 117.326 293.825C133.258 309.757 152.172 322.395 172.988 331.017C193.805 339.639 216.115 344.077 238.646 344.077" stroke="url(#paint4_linear_187_649)"/>
<circle cx="238.163" cy="343.669" r="4.02063" transform="rotate(180 238.163 343.669)" fill="white"/>
<circle cx="67.1515" cy="172.92" r="3.96181" transform="rotate(180 67.1515 172.92)" fill="#333333"/>
<circle cx="68.4972" cy="138.248" r="3.96181" transform="rotate(180 68.4972 138.248)" fill="white"/>
<circle cx="404.149" cy="206.677" r="3.96181" fill="white"/>
<path d="M200.351 5.75104C178.384 10.7582 157.563 19.8039 139.077 32.3718C120.592 44.9397 104.804 60.7837 92.6153 78.9991C80.4266 97.2144 72.0756 117.444 68.0391 138.534" stroke="url(#paint5_linear_187_649)"/>
<path d="M272.315 339.176C294.282 334.169 315.103 325.123 333.589 312.555C352.074 299.987 367.862 284.143 380.051 265.928C392.239 247.712 400.59 227.482 404.627 206.393" stroke="url(#paint6_linear_187_649)"/>
<circle cx="90.7763" cy="260.259" r="4.02063" transform="rotate(-120 90.7763 260.259)" fill="#FE9929"/>
<circle cx="201.229" cy="6.59881" r="3.96181" transform="rotate(-120 201.229 6.59881)" fill="#313131"/>
<circle cx="271.435" cy="338.328" r="3.96181" transform="rotate(60 271.435 338.328)" fill="#1A1D23"/>
<path d="M406.334 176.117C406.334 153.586 401.896 131.276 393.274 110.459C384.652 89.6433 372.014 70.7293 356.082 54.7973C340.15 38.8653 321.236 26.2274 300.42 17.6051C279.604 8.98277 257.293 4.54492 234.762 4.54492" stroke="url(#paint7_linear_187_649)"/>
<circle cx="235.245" cy="4.95324" r="4.02063" fill="#7C7C7C"/>
<circle cx="406.257" cy="175.702" r="3.96181" fill="#333539"/>
<path d="M323.048 54.5918H373.802C376.9 54.5918 379.416 57.0978 379.416 60.2061V92.1815C379.416 95.279 376.91 97.7958 373.802 97.7958H357.325L360.616 112.982L346.312 97.785H323.048C319.95 97.785 317.434 95.279 317.434 92.1707V60.2061C317.434 57.0978 319.94 54.5918 323.048 54.5918Z" fill="white" stroke="#0A0C10" stroke-miterlimit="10" stroke-linecap="round" stroke-linejoin="round"/>
<path d="M337.837 75.7582C337.837 77.2639 336.621 78.4793 335.116 78.4793C333.61 78.4793 332.395 77.2639 332.395 75.7582C332.395 74.2525 333.61 73.0371 335.116 73.0371C336.621 73.0371 337.837 74.2525 337.837 75.7582Z" fill="#0A0C10"/>
<path d="M351.139 75.7582C351.139 77.2639 349.924 78.4793 348.418 78.4793C346.913 78.4793 345.697 77.2639 345.697 75.7582C345.697 74.2525 346.913 73.0371 348.418 73.0371C349.924 73.0371 351.139 74.2525 351.139 75.7582Z" fill="#0A0C10"/>
<path d="M364.446 75.7582C364.446 77.2639 363.231 78.4793 361.725 78.4793C360.219 78.4793 359.004 77.2639 359.004 75.7582C359.004 74.2525 360.219 73.0371 361.725 73.0371C363.22 73.0371 364.446 74.2525 364.446 75.7582Z" fill="#0A0C10"/>
<path d="M421.761 72.3809H376.298C373.523 72.3809 371.275 74.6287 371.275 77.4036V106.056C371.275 108.83 373.523 111.078 376.298 111.078H377.277L374.33 124.684L387.15 111.078H421.761C424.536 111.078 426.783 108.83 426.783 106.056V77.4036C426.794 74.6287 424.546 72.3809 421.761 72.3809Z" fill="url(#paint8_linear_187_649)"/>
<path d="M389.741 90.5678C389.741 92.0735 388.526 93.2889 387.02 93.2889C385.514 93.2889 384.299 92.0735 384.299 90.5678C384.299 89.062 385.514 87.8467 387.02 87.8467C388.515 87.8467 389.741 89.062 389.741 90.5678Z" fill="white"/>
<path d="M403.034 90.5678C403.034 92.0735 401.819 93.2889 400.313 93.2889C398.807 93.2889 397.592 92.0735 397.592 90.5678C397.592 89.062 398.807 87.8467 400.313 87.8467C401.819 87.8467 403.034 89.062 403.034 90.5678Z" fill="white"/>
<path d="M416.339 90.5678C416.339 92.0735 415.123 93.2889 413.618 93.2889C412.112 93.2889 410.896 92.0735 410.896 90.5678C410.896 89.062 412.112 87.8467 413.618 87.8467C415.123 87.8467 416.339 89.062 416.339 90.5678Z" fill="white"/>
<path d="M213.275 223.2C210.467 224.31 207.667 222.782 207.01 219.807L201.559 195.084C200.9 192.1 202.643 188.786 205.452 187.685C208.26 186.575 211.06 188.102 211.718 191.077L217.169 215.8C217.817 218.776 216.074 222.091 213.275 223.2Z" stroke="white" stroke-miterlimit="10" stroke-linecap="round" stroke-linejoin="round"/>
<path d="M264.881 195.302L239.369 190.002C230.39 189.814 221.43 190.794 212.705 192.916L195.568 197.084C191.786 198.009 187.966 195.689 187.042 191.898L183.439 177.13C182.515 173.348 184.835 169.529 188.627 168.605L202.491 165.229C212.998 162.673 223.042 158.486 232.257 152.818L250.366 135.655L264.881 195.302Z" fill="url(#paint9_linear_187_649)"/>
<path d="M212.091 162.382C208.941 163.476 205.743 164.447 202.489 165.239L188.625 168.615C184.843 169.539 182.523 173.349 183.438 177.14L187.041 191.908C187.965 195.69 191.775 198.01 195.567 197.095L212.704 192.927C214.854 192.399 217.024 191.955 219.193 191.569L212.091 162.382Z" fill="#5008EA"/>
<path d="M269.457 202.347L266.062 203.177C263.666 203.762 261.252 202.29 260.677 199.895L245.171 136.193C244.586 133.798 246.058 131.384 248.453 130.809L251.849 129.979C254.244 129.394 256.659 130.865 257.234 133.261L272.74 196.953C273.324 199.348 271.853 201.762 269.457 202.347Z" fill="url(#paint10_linear_187_649)"/>
<path d="M277.794 140.7L271.814 150.14" stroke="white" stroke-width="2" stroke-miterlimit="10" stroke-linecap="round" stroke-linejoin="round"/>
<path d="M287.432 180.299L277.783 174.659" stroke="white" stroke-width="2" stroke-miterlimit="10" stroke-linecap="round" stroke-linejoin="round"/>
<path d="M276.887 162.503L288.62 159.655" stroke="white" stroke-width="2" stroke-miterlimit="10" stroke-linecap="round" stroke-linejoin="round"/>
<path d="M216.63 212.915L221.173 215.831C221.716 216.175 222.128 216.68 222.362 217.276C222.977 218.838 222.211 220.6 220.648 221.215L208.241 226.112L205.822 214.489L216.63 212.915Z" fill="#222430" stroke="white" stroke-miterlimit="10" stroke-linecap="round" stroke-linejoin="round"/>
<path d="M198.78 176.761C198.096 173.972 195.307 172.276 192.517 172.96C189.728 173.644 188.032 176.433 188.716 179.222C189.4 182.011 192.189 183.706 194.978 183.023C197.741 182.366 199.436 179.55 198.78 176.761Z" fill="#0A0C10"/>
<defs>
<linearGradient id="paint0_linear_187_649" x1="375.325" y1="74.9684" x2="43.1642" y2="337.305" gradientUnits="userSpaceOnUse">
<stop stop-color="#322F52" stop-opacity="0.04"/>
<stop offset="1" stop-color="#666666" stop-opacity="0"/>
</linearGradient>
<linearGradient id="paint1_linear_187_649" x1="349.049" y1="29.6995" x2="238.375" y2="344.454" gradientUnits="userSpaceOnUse">
<stop stop-color="white"/>
<stop offset="0.068074" stop-color="#DC52FF"/>
<stop offset="1" stop-opacity="0"/>
</linearGradient>
<linearGradient id="paint2_linear_187_649" x1="316.908" y1="117.004" x2="25.4672" y2="352.826" gradientUnits="userSpaceOnUse">
<stop stop-color="#0E111E"/>
<stop offset="1" stop-color="#666666" stop-opacity="0"/>
</linearGradient>
<linearGradient id="paint3_linear_187_649" x1="301.552" y1="90.549" x2="236.873" y2="274.494" gradientUnits="userSpaceOnUse">
<stop stop-color="white"/>
<stop offset="0.068074" stop-color="#DC52FF"/>
<stop offset="1" stop-opacity="0"/>
</linearGradient>
<linearGradient id="paint4_linear_187_649" x1="344.026" y1="345.695" x2="248.143" y2="14.2384" gradientUnits="userSpaceOnUse">
<stop stop-color="white"/>
<stop offset="1" stop-color="#292929" stop-opacity="0"/>
</linearGradient>
<linearGradient id="paint5_linear_187_649" x1="63.021" y1="119.881" x2="182.754" y2="28.1377" gradientUnits="userSpaceOnUse">
<stop stop-color="white"/>
<stop offset="1" stop-color="#292929" stop-opacity="0"/>
</linearGradient>
<linearGradient id="paint6_linear_187_649" x1="409.645" y1="225.045" x2="289.912" y2="316.789" gradientUnits="userSpaceOnUse">
<stop stop-color="white"/>
<stop offset="1" stop-color="#292929" stop-opacity="0"/>
</linearGradient>
<linearGradient id="paint7_linear_187_649" x1="129.383" y1="2.92693" x2="225.265" y2="334.384" gradientUnits="userSpaceOnUse">
<stop stop-color="white"/>
<stop offset="1" stop-color="#292929" stop-opacity="0"/>
</linearGradient>
<linearGradient id="paint8_linear_187_649" x1="425.287" y1="129.151" x2="353.436" y2="115.786" gradientUnits="userSpaceOnUse">
<stop stop-color="#5008EA"/>
<stop offset="0.856878" stop-color="#FF9D4E"/>
<stop offset="1"/>
</linearGradient>
<linearGradient id="paint9_linear_187_649" x1="262.68" y1="202.551" x2="158.934" y2="178.464" gradientUnits="userSpaceOnUse">
<stop stop-color="#5008EA"/>
<stop offset="0.856878" stop-color="#FF9D4E"/>
<stop offset="1"/>
</linearGradient>
<linearGradient id="paint10_linear_187_649" x1="294.083" y1="204.408" x2="263.284" y2="211.433" gradientUnits="userSpaceOnUse">
<stop stop-color="#5008EA"/>
<stop offset="1" stop-color="#FF9D4E"/>
</linearGradient>
<clipPath id="clip0_187_649">
<rect width="198.499" height="80.9335" fill="white" transform="translate(0.0488281 223.344)"/>
</clipPath>
</defs>
</svg>
