<svg width="472" height="266" viewBox="0 0 472 266" fill="none" xmlns="http://www.w3.org/2000/svg">
<rect width="472" height="304" rx="12" fill="url(#paint0_linear_960_189)"/>
<mask id="mask0_960_189" style="mask-type:alpha" maskUnits="userSpaceOnUse" x="0" y="0" width="472" height="304">
<rect width="472" height="304" rx="12" fill="url(#paint1_linear_960_189)"/>
</mask>
<g mask="url(#mask0_960_189)">
<path d="M258.5 88L258.5 153" stroke="#14161A" stroke-width="0.8"/>
<path d="M269 81.6923V54.3077C269 51.9286 270.929 50 273.308 50H301.692C304.071 50 306 51.9286 306 54.3077V81.6923C306 84.0714 304.071 86 301.692 86H273.308C270.929 86 269 84.0714 269 81.6923Z" fill="#D9D9D9"/>
<path d="M278.998 76.9999L291.549 74.9082C291.674 74.8874 291.791 74.8342 291.888 74.7539C291.986 74.6736 292.06 74.5692 292.105 74.451L294.119 69.0794L286.919 61.8789L281.547 63.8932C281.429 63.9376 281.324 64.0123 281.244 64.1097C281.164 64.2072 281.111 64.3241 281.09 64.4486L278.998 76.9999Z" stroke="black" stroke-linecap="round" stroke-linejoin="round"/>
<path d="M294.118 69.0798L296.788 66.4102C296.923 66.2752 296.999 66.0921 296.999 65.9013C296.999 65.7104 296.923 65.5273 296.788 65.3923L290.608 59.2098C290.473 59.0748 290.29 58.999 290.099 58.999C289.908 58.999 289.725 59.0748 289.59 59.2098L286.918 61.8793" stroke="black" stroke-linecap="round" stroke-linejoin="round"/>
<path d="M286.558 71.2399C287.552 71.2399 288.358 70.434 288.358 69.4398C288.358 68.4456 287.552 67.6396 286.558 67.6396C285.564 67.6396 284.758 68.4456 284.758 69.4398C284.758 70.434 285.564 71.2399 286.558 71.2399Z" stroke="black" stroke-linecap="round" stroke-linejoin="round"/>
<path d="M278.998 76.9997L285.285 70.7119" stroke="black" stroke-linecap="round" stroke-linejoin="round"/>
<g filter="url(#filter0_di_960_189)">
<path d="M258.5 119.5C161.5 367.5 40.3776 82.1648 -4 198" stroke="url(#paint2_linear_960_189)" stroke-width="0.8"/>
</g>
<circle cx="258.5" cy="121" r="4.5" fill="#14161A" stroke="url(#paint3_linear_960_189)"/>
<circle cx="168.5" cy="223" r="4.5" fill="#14161A" stroke="url(#paint4_linear_960_189)"/>
<circle cx="24.5" cy="168" r="4.5" fill="#14161A" stroke="url(#paint5_linear_960_189)"/>
<circle cx="258.5" cy="88" r="2.5" fill="#14161A" stroke="url(#paint6_linear_960_189)"/>
<circle cx="258.5" cy="154" r="2.5" fill="#14161A" stroke="url(#paint7_linear_960_189)"/>
</g>
<rect x="288" y="153" width="73" height="6" fill="#181B21"/>
<rect x="288" y="169" width="144" height="6" fill="#181B21"/>
<rect x="288" y="185" width="118" height="5" fill="#181B21"/>
<rect x="288" y="200" width="144" height="6" fill="#181B21"/>
<rect x="288" y="216" width="130" height="6" fill="#181B21"/>
<circle cx="132.64" cy="76.6716" r="7.70482" fill="#15171A"/>
<path d="M168.76 45.3711H48.8535V142.163H168.76V45.3711Z" stroke="url(#paint8_linear_960_189)"/>
<path d="M54.6309 109.371V132.077C54.6309 134.456 56.5595 136.384 58.9385 136.384H159.635C162.014 136.384 163.943 134.456 163.943 132.077V117.431C163.943 116.307 163.503 115.227 162.718 114.422L147.209 98.5357C145.547 96.833 142.819 96.8005 141.117 98.4632L126.679 112.565C124.937 114.267 122.131 114.187 120.489 112.389L90.7854 79.8763C89.1722 78.1105 86.4293 77.997 84.6757 79.6235L56.0091 106.213C55.1303 107.028 54.6309 108.172 54.6309 109.371Z" fill="url(#paint9_linear_960_189)"/>
<rect x="45" y="42" width="7.70482" height="7.70482" fill="white"/>
<rect x="165.389" y="42" width="7.70482" height="7.70482" fill="white"/>
<rect x="165.389" y="138.311" width="7.70482" height="7.70482" fill="white"/>
<rect x="45" y="138.311" width="7.70482" height="7.70482" fill="white"/>
<defs>
<filter id="filter0_di_960_189" x="-12.373" y="113.354" width="279.246" height="121.425" filterUnits="userSpaceOnUse" color-interpolation-filters="sRGB">
<feFlood flood-opacity="0" result="BackgroundImageFix"/>
<feColorMatrix in="SourceAlpha" type="matrix" values="0 0 0 0 0 0 0 0 0 0 0 0 0 0 0 0 0 0 127 0" result="hardAlpha"/>
<feOffset dy="2"/>
<feGaussianBlur stdDeviation="4"/>
<feComposite in2="hardAlpha" operator="out"/>
<feColorMatrix type="matrix" values="0 0 0 0 0.011059 0 0 0 0 0.0303698 0 0 0 0 0.204167 0 0 0 0.4 0"/>
<feBlend mode="normal" in2="BackgroundImageFix" result="effect1_dropShadow_960_189"/>
<feBlend mode="normal" in="SourceGraphic" in2="effect1_dropShadow_960_189" result="shape"/>
<feColorMatrix in="SourceAlpha" type="matrix" values="0 0 0 0 0 0 0 0 0 0 0 0 0 0 0 0 0 0 127 0" result="hardAlpha"/>
<feOffset dy="-2"/>
<feGaussianBlur stdDeviation="6"/>
<feComposite in2="hardAlpha" operator="arithmetic" k2="-1" k3="1"/>
<feColorMatrix type="matrix" values="0 0 0 0 0.107992 0 0 0 0 0.0190799 0 0 0 0 0.654167 0 0 0 0.47 0"/>
<feBlend mode="normal" in2="shape" result="effect2_innerShadow_960_189"/>
</filter>
<linearGradient id="paint0_linear_960_189" x1="-10.016" y1="-5.71073" x2="609.056" y2="49.082" gradientUnits="userSpaceOnUse">
<stop stop-color="#212530"/>
<stop offset="0.514765" stop-color="#232731"/>
<stop offset="1" stop-color="#12151C"/>
</linearGradient>
<linearGradient id="paint1_linear_960_189" x1="-10.016" y1="-5.71073" x2="609.056" y2="49.082" gradientUnits="userSpaceOnUse">
<stop stop-color="#212530"/>
<stop offset="0.514765" stop-color="#232731"/>
<stop offset="1" stop-color="#12151C"/>
</linearGradient>
<linearGradient id="paint2_linear_960_189" x1="24.1268" y1="112.013" x2="277.109" y2="206.911" gradientUnits="userSpaceOnUse">
<stop stop-color="#FFAC2F"/>
<stop offset="1" stop-color="#5008EA"/>
</linearGradient>
<linearGradient id="paint3_linear_960_189" x1="253.5" y1="85" x2="260.5" y2="128.5" gradientUnits="userSpaceOnUse">
<stop/>
<stop offset="1" stop-color="white" stop-opacity="0"/>
</linearGradient>
<linearGradient id="paint4_linear_960_189" x1="163.5" y1="187" x2="170.5" y2="230.5" gradientUnits="userSpaceOnUse">
<stop/>
<stop offset="1" stop-color="white" stop-opacity="0"/>
</linearGradient>
<linearGradient id="paint5_linear_960_189" x1="19.5" y1="132" x2="26.5" y2="175.5" gradientUnits="userSpaceOnUse">
<stop/>
<stop offset="1" stop-color="white" stop-opacity="0"/>
</linearGradient>
<linearGradient id="paint6_linear_960_189" x1="255.5" y1="66.4" x2="259.7" y2="92.5" gradientUnits="userSpaceOnUse">
<stop/>
<stop offset="1" stop-color="white" stop-opacity="0"/>
</linearGradient>
<linearGradient id="paint7_linear_960_189" x1="255.5" y1="132.4" x2="259.7" y2="158.5" gradientUnits="userSpaceOnUse">
<stop/>
<stop offset="1" stop-color="white" stop-opacity="0"/>
</linearGradient>
<linearGradient id="paint8_linear_960_189" x1="108.807" y1="45.3711" x2="108.566" y2="159.017" gradientUnits="userSpaceOnUse">
<stop stop-color="#686868"/>
<stop offset="1" stop-color="#0D0D0D"/>
</linearGradient>
<linearGradient id="paint9_linear_960_189" x1="63.4777" y1="49.0273" x2="227.15" y2="139.415" gradientUnits="userSpaceOnUse">
<stop stop-color="#383C45"/>
<stop offset="0.514765" stop-color="#14161A"/>
<stop offset="1" stop-color="#12151C"/>
</linearGradient>
</defs>
</svg>
