<svg width="463" height="280" viewBox="0 0 463 280" fill="none" xmlns="http://www.w3.org/2000/svg">
<path d="M320.82 30.9805V168.105C320.82 175.837 314.552 182.105 306.82 182.105H198.188" stroke="url(#paint0_linear_172_342)"/>
<path d="M260.531 51.5107C261.891 54.252 261.252 166.718 260.665 231.83C260.595 239.616 266.885 245.938 274.671 245.938H298.067" stroke="url(#paint1_linear_172_342)"/>
<path d="M280.729 68.7539V192.15C280.729 199.882 286.997 206.15 294.729 206.15H324.361C332.093 206.15 338.361 212.418 338.361 220.15V247.813" stroke="url(#paint2_linear_172_342)"/>
<path d="M407.846 90.4528L407.846 115.064C407.846 122.796 401.578 129.064 393.846 129.064L306.008 129.064V129.064C303.781 129.064 301.976 130.87 301.976 133.097L301.976 164.487" stroke="url(#paint3_linear_172_342)"/>
<path d="M123.789 63.1201L123.789 197.706" stroke="url(#paint4_linear_172_342)"/>
<path d="M241.685 54.2393L160.648 54.2395C152.916 54.2395 146.648 60.5075 146.648 68.2395V279.91" stroke="url(#paint5_radial_172_342)"/>
<path d="M164.383 236.949L228.887 236.949C236.619 236.949 242.887 230.681 242.887 222.949L242.887 68.7613" stroke="url(#paint6_linear_172_342)"/>
<path d="M73.2656 73.0977H200.466C208.198 73.0977 214.466 79.3657 214.466 87.0977V136.636V200.175" stroke="url(#paint7_linear_172_342)"/>
<path d="M376.539 25.2588L376.539 163.765C376.539 171.497 370.271 177.765 362.539 177.765L339.271 177.765L302.002 177.765" stroke="url(#paint8_linear_172_342)"/>
<path d="M242.98 185.053L184.076 185.053C176.344 185.053 170.076 178.785 170.076 171.053L170.076 148.333L170.076 111.614" stroke="url(#paint9_linear_172_342)"/>
<path d="M189.984 39.6729V88.2577C189.984 95.9897 196.252 102.258 203.984 102.258H231.356" stroke="url(#paint10_linear_172_342)"/>
<path d="M49.3223 115.363V132.38C49.3223 140.112 55.5903 146.38 63.3223 146.38H177.019C184.751 146.38 191.019 152.648 191.019 160.38V274.284" stroke="url(#paint11_linear_172_342)"/>
<g filter="url(#filter0_di_172_342)">
<rect x="136" y="6" width="109.729" height="36.4648" rx="6" fill="#121520"/>
<rect x="136.4" y="6.4" width="108.929" height="35.6648" rx="5.6" stroke="url(#paint12_linear_172_342)" stroke-width="0.8"/>
</g>
<path d="M160.008 30V19.696H164.744C165.896 19.696 166.733 19.9947 167.256 20.592C167.789 21.1787 168.056 21.9787 168.056 22.992C168.056 23.7173 167.875 24.336 167.512 24.848C167.149 25.36 166.627 25.7173 165.944 25.92C166.136 26.0587 166.285 26.208 166.392 26.368C166.499 26.528 166.605 26.7413 166.712 27.008L168.008 30H166.216L164.952 27.12C164.835 26.8427 164.691 26.6453 164.52 26.528C164.36 26.4107 164.083 26.352 163.688 26.352H161.752V30H160.008ZM161.752 24.944H164.28C164.909 24.944 165.405 24.7893 165.768 24.48C166.131 24.1707 166.312 23.6747 166.312 22.992C166.312 21.7013 165.688 21.056 164.44 21.056H161.752V24.944ZM173.379 30.16C172.057 30.16 171.033 29.8347 170.307 29.184C169.582 28.5333 169.219 27.536 169.219 26.192C169.219 24.976 169.529 24.016 170.147 23.312C170.766 22.608 171.705 22.256 172.963 22.256C174.115 22.256 174.979 22.56 175.555 23.168C176.142 23.7653 176.435 24.5387 176.435 25.488V26.896H170.883C170.969 27.632 171.235 28.1387 171.683 28.416C172.131 28.6933 172.814 28.832 173.731 28.832C174.115 28.832 174.51 28.7947 174.915 28.72C175.321 28.6453 175.673 28.5493 175.971 28.432V29.712C175.63 29.8613 175.235 29.9733 174.787 30.048C174.35 30.1227 173.881 30.16 173.379 30.16ZM170.883 25.76H174.899V25.232C174.899 24.7093 174.755 24.304 174.467 24.016C174.179 23.7173 173.694 23.568 173.011 23.568C172.201 23.568 171.641 23.744 171.331 24.096C171.033 24.448 170.883 25.0027 170.883 25.76ZM180.583 30.16C180.06 30.16 179.559 30.1227 179.079 30.048C178.61 29.9733 178.22 29.8827 177.911 29.776V28.304C178.274 28.4427 178.674 28.5493 179.111 28.624C179.548 28.6987 179.964 28.736 180.359 28.736C180.956 28.736 181.383 28.6827 181.639 28.576C181.895 28.4693 182.023 28.2613 182.023 27.952C182.023 27.728 181.943 27.552 181.783 27.424C181.634 27.296 181.404 27.1787 181.095 27.072C180.796 26.9653 180.412 26.8373 179.943 26.688C179.495 26.5387 179.106 26.3787 178.775 26.208C178.444 26.0267 178.188 25.7973 178.007 25.52C177.826 25.2427 177.735 24.88 177.735 24.432C177.735 23.7387 177.986 23.2053 178.487 22.832C178.988 22.448 179.794 22.256 180.903 22.256C181.34 22.256 181.756 22.288 182.151 22.352C182.546 22.416 182.882 22.496 183.159 22.592V24.048C182.86 23.9307 182.53 23.84 182.167 23.776C181.815 23.712 181.484 23.68 181.175 23.68C180.62 23.68 180.199 23.728 179.911 23.824C179.634 23.92 179.495 24.112 179.495 24.4C179.495 24.6987 179.639 24.912 179.927 25.04C180.226 25.1573 180.7 25.3227 181.351 25.536C181.948 25.7173 182.423 25.9093 182.775 26.112C183.127 26.3147 183.378 26.56 183.527 26.848C183.687 27.1253 183.767 27.488 183.767 27.936C183.767 28.6827 183.495 29.2427 182.951 29.616C182.407 29.9787 181.618 30.16 180.583 30.16ZM189.082 30.16C187.76 30.16 186.736 29.8347 186.01 29.184C185.285 28.5333 184.922 27.536 184.922 26.192C184.922 24.976 185.232 24.016 185.85 23.312C186.469 22.608 187.408 22.256 188.666 22.256C189.818 22.256 190.682 22.56 191.258 23.168C191.845 23.7653 192.138 24.5387 192.138 25.488V26.896H186.586C186.672 27.632 186.938 28.1387 187.386 28.416C187.834 28.6933 188.517 28.832 189.434 28.832C189.818 28.832 190.213 28.7947 190.618 28.72C191.024 28.6453 191.376 28.5493 191.674 28.432V29.712C191.333 29.8613 190.938 29.9733 190.49 30.048C190.053 30.1227 189.584 30.16 189.082 30.16ZM186.586 25.76H190.602V25.232C190.602 24.7093 190.458 24.304 190.17 24.016C189.882 23.7173 189.397 23.568 188.714 23.568C187.904 23.568 187.344 23.744 187.034 24.096C186.736 24.448 186.586 25.0027 186.586 25.76ZM196.204 30.16C195.724 30.16 195.276 30.0747 194.86 29.904C194.455 29.7333 194.129 29.4773 193.884 29.136C193.639 28.784 193.516 28.352 193.516 27.84C193.516 27.1147 193.761 26.5333 194.252 26.096C194.753 25.648 195.521 25.424 196.556 25.424H198.988V25.088C198.988 24.7253 198.929 24.4373 198.812 24.224C198.705 24.0107 198.503 23.856 198.204 23.76C197.916 23.664 197.489 23.616 196.924 23.616C196.028 23.616 195.191 23.7493 194.412 24.016V22.72C194.753 22.5813 195.169 22.4693 195.66 22.384C196.151 22.2987 196.679 22.256 197.244 22.256C198.353 22.256 199.196 22.48 199.772 22.928C200.359 23.376 200.652 24.1067 200.652 25.12V30H199.164L199.052 29.232C198.743 29.5307 198.359 29.76 197.9 29.92C197.452 30.08 196.887 30.16 196.204 30.16ZM196.668 28.912C197.191 28.912 197.644 28.8267 198.028 28.656C198.423 28.4747 198.743 28.2347 198.988 27.936V26.608H196.588C196.076 26.608 195.703 26.7093 195.468 26.912C195.244 27.104 195.132 27.4027 195.132 27.808C195.132 28.2027 195.265 28.4853 195.532 28.656C195.799 28.8267 196.177 28.912 196.668 28.912ZM202.586 30V22.416H204.186L204.282 23.296C204.645 23.0613 205.077 22.848 205.578 22.656C206.079 22.464 206.575 22.3307 207.066 22.256V23.584C206.767 23.6373 206.442 23.7173 206.09 23.824C205.749 23.92 205.423 24.032 205.114 24.16C204.805 24.2773 204.543 24.4 204.33 24.528V30H202.586ZM211.752 30.16C210.418 30.16 209.41 29.824 208.728 29.152C208.045 28.4693 207.704 27.488 207.704 26.208C207.704 24.8747 208.077 23.8827 208.824 23.232C209.581 22.5813 210.589 22.256 211.848 22.256C212.37 22.256 212.808 22.2933 213.16 22.368C213.522 22.4427 213.869 22.56 214.2 22.72V24.016C213.645 23.7387 212.973 23.6 212.184 23.6C211.309 23.6 210.637 23.7973 210.168 24.192C209.698 24.576 209.464 25.248 209.464 26.208C209.464 27.1147 209.672 27.7813 210.088 28.208C210.504 28.624 211.192 28.832 212.152 28.832C212.909 28.832 213.597 28.688 214.216 28.4V29.728C213.864 29.8667 213.485 29.9733 213.08 30.048C212.685 30.1227 212.242 30.16 211.752 30.16ZM215.602 30V19.216H217.346V23.152C217.676 22.8853 218.071 22.672 218.53 22.512C218.988 22.3413 219.506 22.256 220.082 22.256C221.042 22.256 221.751 22.4853 222.21 22.944C222.668 23.4027 222.898 24.1173 222.898 25.088V30H221.17V25.168C221.17 24.5813 221.042 24.1707 220.786 23.936C220.54 23.7013 220.108 23.584 219.49 23.584C219.106 23.584 218.716 23.6693 218.322 23.84C217.927 24 217.602 24.2133 217.346 24.48V30H215.602Z" fill="white"/>
<g filter="url(#filter1_di_172_342)">
<rect x="358" y="56" width="96.9336" height="36.4648" rx="6" fill="#121520"/>
<rect x="358.4" y="56.4" width="96.1336" height="35.6648" rx="5.6" stroke="url(#paint13_linear_172_342)" stroke-width="0.8"/>
</g>
<path d="M378.008 79V68.696H382.184C383.709 68.696 384.84 69.1013 385.576 69.912C386.312 70.712 386.68 72.0453 386.68 73.912C386.68 75.672 386.317 76.9627 385.592 77.784C384.867 78.5947 383.731 79 382.184 79H378.008ZM379.752 77.656H381.912C382.584 77.656 383.144 77.56 383.592 77.368C384.04 77.1653 384.376 76.792 384.6 76.248C384.824 75.704 384.936 74.9253 384.936 73.912C384.936 72.8987 384.835 72.1147 384.632 71.56C384.429 71.0053 384.104 70.616 383.656 70.392C383.219 70.168 382.637 70.056 381.912 70.056H379.752V77.656ZM388.399 79V71.416H389.999L390.095 72.296C390.457 72.0613 390.889 71.848 391.391 71.656C391.892 71.464 392.388 71.3307 392.879 71.256V72.584C392.58 72.6373 392.255 72.7173 391.903 72.824C391.561 72.92 391.236 73.032 390.927 73.16C390.617 73.2773 390.356 73.4 390.143 73.528V79H388.399ZM396.032 79.16C395.552 79.16 395.104 79.0747 394.688 78.904C394.283 78.7333 393.958 78.4773 393.712 78.136C393.467 77.784 393.344 77.352 393.344 76.84C393.344 76.1147 393.59 75.5333 394.08 75.096C394.582 74.648 395.35 74.424 396.384 74.424H398.816V74.088C398.816 73.7253 398.758 73.4373 398.64 73.224C398.534 73.0107 398.331 72.856 398.032 72.76C397.744 72.664 397.318 72.616 396.752 72.616C395.856 72.616 395.019 72.7493 394.24 73.016V71.72C394.582 71.5813 394.998 71.4693 395.488 71.384C395.979 71.2987 396.507 71.256 397.072 71.256C398.182 71.256 399.024 71.48 399.6 71.928C400.187 72.376 400.48 73.1067 400.48 74.12V79H398.992L398.88 78.232C398.571 78.5307 398.187 78.76 397.728 78.92C397.28 79.08 396.715 79.16 396.032 79.16ZM396.496 77.912C397.019 77.912 397.472 77.8267 397.856 77.656C398.251 77.4747 398.571 77.2347 398.816 76.936V75.608H396.416C395.904 75.608 395.531 75.7093 395.296 75.912C395.072 76.104 394.96 76.4027 394.96 76.808C394.96 77.2027 395.094 77.4853 395.36 77.656C395.627 77.8267 396.006 77.912 396.496 77.912ZM403.688 79L401.688 71.416H403.432L404.744 76.936L406.232 72.344V71.416H407.56L409.208 76.936L410.52 71.416H412.248L410.264 79H408.616L407 74.04L405.352 79H403.688ZM414.023 69.832V68.392H415.927V69.832H414.023ZM414.167 79V72.744H413.015L413.175 71.416H415.911V79H414.167ZM417.946 79V71.416H419.546L419.626 72.216C419.967 71.9493 420.372 71.7253 420.842 71.544C421.322 71.352 421.85 71.256 422.426 71.256C423.407 71.256 424.122 71.4853 424.57 71.944C425.018 72.4027 425.242 73.1173 425.242 74.088V79H423.514V74.168C423.514 73.5813 423.391 73.1707 423.146 72.936C422.911 72.7013 422.463 72.584 421.802 72.584C421.407 72.584 421.018 72.664 420.634 72.824C420.26 72.984 419.946 73.192 419.69 73.448V79H417.946ZM430.268 81.816C429.702 81.816 429.137 81.7787 428.572 81.704C428.006 81.64 427.526 81.5387 427.132 81.4V80.056C427.558 80.1947 428.049 80.3013 428.604 80.376C429.158 80.4507 429.686 80.488 430.188 80.488C430.956 80.488 431.516 80.4453 431.868 80.36C432.22 80.2747 432.396 80.0827 432.396 79.784C432.396 79.56 432.31 79.4 432.14 79.304C431.969 79.2187 431.644 79.176 431.164 79.176H429.116C427.74 79.176 427.052 78.6907 427.052 77.72C427.052 77.4107 427.142 77.1227 427.324 76.856C427.505 76.5893 427.793 76.3867 428.188 76.248C427.75 76.0347 427.425 75.7413 427.212 75.368C427.009 74.9947 426.908 74.5467 426.908 74.024C426.908 73.0533 427.196 72.3493 427.772 71.912C428.358 71.4747 429.233 71.256 430.396 71.256C430.641 71.256 430.897 71.2773 431.164 71.32C431.43 71.352 431.638 71.384 431.788 71.416H434.572L434.524 72.552H433.244C433.446 72.7227 433.596 72.936 433.692 73.192C433.788 73.448 433.836 73.7253 433.836 74.024C433.836 74.8347 433.59 75.4747 433.1 75.944C432.609 76.4027 431.868 76.632 430.876 76.632C430.705 76.632 430.545 76.6267 430.396 76.616C430.257 76.5947 430.102 76.5733 429.932 76.552C429.612 76.584 429.324 76.6693 429.068 76.808C428.812 76.9467 428.684 77.1333 428.684 77.368C428.684 77.528 428.748 77.6453 428.876 77.72C429.004 77.784 429.217 77.816 429.516 77.816H431.644C432.401 77.816 432.982 77.9813 433.388 78.312C433.804 78.632 434.012 79.1013 434.012 79.72C434.012 80.4667 433.686 81 433.036 81.32C432.396 81.6507 431.473 81.816 430.268 81.816ZM430.396 75.528C431.089 75.528 431.569 75.4107 431.836 75.176C432.113 74.9413 432.252 74.5413 432.252 73.976C432.252 73.4107 432.113 73 431.836 72.744C431.569 72.488 431.089 72.36 430.396 72.36C429.745 72.36 429.27 72.4827 428.972 72.728C428.673 72.9733 428.524 73.3893 428.524 73.976C428.524 74.52 428.662 74.9147 428.94 75.16C429.228 75.4053 429.713 75.528 430.396 75.528Z" fill="white"/>
<g filter="url(#filter2_di_172_342)">
<rect x="8" y="89" width="82.1924" height="36.4648" rx="6" fill="#121520"/>
<rect x="8.4" y="89.4" width="81.3924" height="35.6648" rx="5.6" stroke="url(#paint14_linear_172_342)" stroke-width="0.8"/>
</g>
<path d="M30.84 112.16C29.144 112.16 27.8587 111.696 26.984 110.768C26.12 109.84 25.688 108.587 25.688 107.008C25.688 105.877 25.8693 104.907 26.232 104.096C26.6053 103.275 27.1707 102.645 27.928 102.208C28.6853 101.76 29.6507 101.536 30.824 101.536C31.4213 101.536 31.9653 101.584 32.456 101.68C32.9573 101.765 33.4213 101.883 33.848 102.032V103.552C33.4213 103.381 32.9627 103.253 32.472 103.168C31.992 103.072 31.4853 103.024 30.952 103.024C29.672 103.024 28.7653 103.365 28.232 104.048C27.7093 104.731 27.448 105.717 27.448 107.008C27.448 108.213 27.736 109.131 28.312 109.76C28.888 110.379 29.7787 110.688 30.984 110.688C31.4747 110.688 31.9653 110.651 32.456 110.576C32.9573 110.491 33.4267 110.363 33.864 110.192V111.728C33.4373 111.867 32.9733 111.973 32.472 112.048C31.9813 112.123 31.4373 112.16 30.84 112.16ZM35.5549 112V104.416H37.1549L37.2509 105.296C37.6135 105.061 38.0455 104.848 38.5469 104.656C39.0482 104.464 39.5442 104.331 40.0349 104.256V105.584C39.7362 105.637 39.4109 105.717 39.0589 105.824C38.7175 105.92 38.3922 106.032 38.0829 106.16C37.7735 106.277 37.5122 106.4 37.2989 106.528V112H35.5549ZM44.8324 112.16C43.5097 112.16 42.4857 111.835 41.7604 111.184C41.035 110.533 40.6724 109.536 40.6724 108.192C40.6724 106.976 40.9817 106.016 41.6004 105.312C42.219 104.608 43.1577 104.256 44.4164 104.256C45.5684 104.256 46.4324 104.56 47.0084 105.168C47.595 105.765 47.8884 106.539 47.8884 107.488V108.896H42.3364C42.4217 109.632 42.6884 110.139 43.1364 110.416C43.5844 110.693 44.267 110.832 45.1844 110.832C45.5684 110.832 45.963 110.795 46.3684 110.72C46.7737 110.645 47.1257 110.549 47.4244 110.432V111.712C47.083 111.861 46.6884 111.973 46.2404 112.048C45.803 112.123 45.3337 112.16 44.8324 112.16ZM42.3364 107.76H46.3524V107.232C46.3524 106.709 46.2084 106.304 45.9204 106.016C45.6324 105.717 45.147 105.568 44.4644 105.568C43.6537 105.568 43.0937 105.744 42.7844 106.096C42.4857 106.448 42.3364 107.003 42.3364 107.76ZM51.9541 112.16C51.4741 112.16 51.0261 112.075 50.6101 111.904C50.2048 111.733 49.8795 111.477 49.6341 111.136C49.3888 110.784 49.2661 110.352 49.2661 109.84C49.2661 109.115 49.5115 108.533 50.0021 108.096C50.5035 107.648 51.2715 107.424 52.3061 107.424H54.7381V107.088C54.7381 106.725 54.6795 106.437 54.5621 106.224C54.4555 106.011 54.2528 105.856 53.9541 105.76C53.6661 105.664 53.2395 105.616 52.6741 105.616C51.7781 105.616 50.9408 105.749 50.1621 106.016V104.72C50.5035 104.581 50.9195 104.469 51.4101 104.384C51.9008 104.299 52.4288 104.256 52.9941 104.256C54.1035 104.256 54.9461 104.48 55.5221 104.928C56.1088 105.376 56.4021 106.107 56.4021 107.12V112H54.9141L54.8021 111.232C54.4928 111.531 54.1088 111.76 53.6501 111.92C53.2021 112.08 52.6368 112.16 51.9541 112.16ZM52.4181 110.912C52.9408 110.912 53.3941 110.827 53.7781 110.656C54.1728 110.475 54.4928 110.235 54.7381 109.936V108.608H52.3381C51.8261 108.608 51.4528 108.709 51.2181 108.912C50.9941 109.104 50.8821 109.403 50.8821 109.808C50.8821 110.203 51.0155 110.485 51.2821 110.656C51.5488 110.827 51.9275 110.912 52.4181 110.912ZM61.2321 112.16C60.4215 112.16 59.8135 111.947 59.4081 111.52C59.0135 111.083 58.8161 110.491 58.8161 109.744V105.776H57.6961V104.416H58.8161V102.672L60.5441 102.144V104.416H62.5601L62.4481 105.776H60.5441V109.648C60.5441 110.085 60.6455 110.395 60.8481 110.576C61.0508 110.747 61.3815 110.832 61.8401 110.832C62.1281 110.832 62.4321 110.779 62.7521 110.672V111.904C62.3361 112.075 61.8295 112.16 61.2321 112.16ZM67.9261 112.16C66.6035 112.16 65.5795 111.835 64.8541 111.184C64.1288 110.533 63.7661 109.536 63.7661 108.192C63.7661 106.976 64.0755 106.016 64.6941 105.312C65.3128 104.608 66.2515 104.256 67.5101 104.256C68.6621 104.256 69.5261 104.56 70.1021 105.168C70.6888 105.765 70.9821 106.539 70.9821 107.488V108.896H65.4301C65.5155 109.632 65.7821 110.139 66.2301 110.416C66.6781 110.693 67.3608 110.832 68.2781 110.832C68.6621 110.832 69.0568 110.795 69.4621 110.72C69.8675 110.645 70.2195 110.549 70.5181 110.432V111.712C70.1768 111.861 69.7821 111.973 69.3341 112.048C68.8968 112.123 68.4275 112.16 67.9261 112.16ZM65.4301 107.76H69.4461V107.232C69.4461 106.709 69.3021 106.304 69.0141 106.016C68.7261 105.717 68.2408 105.568 67.5581 105.568C66.7475 105.568 66.1875 105.744 65.8781 106.096C65.5795 106.448 65.4301 107.003 65.4301 107.76Z" fill="white"/>
<g filter="url(#filter3_di_172_342)">
<rect x="296" y="225" width="88.0215" height="36.4648" rx="6" fill="#121520"/>
<rect x="296.4" y="225.4" width="87.2215" height="35.6648" rx="5.6" stroke="url(#paint15_linear_172_342)" stroke-width="0.8"/>
</g>
<path d="M317.68 249V240.056H314.384V238.696H322.704V240.056H319.424V249H317.68ZM326.426 249.16C325.103 249.16 324.079 248.835 323.354 248.184C322.629 247.533 322.266 246.536 322.266 245.192C322.266 243.976 322.575 243.016 323.194 242.312C323.813 241.608 324.751 241.256 326.01 241.256C327.162 241.256 328.026 241.56 328.602 242.168C329.189 242.765 329.482 243.539 329.482 244.488V245.896H323.93C324.015 246.632 324.282 247.139 324.73 247.416C325.178 247.693 325.861 247.832 326.778 247.832C327.162 247.832 327.557 247.795 327.962 247.72C328.367 247.645 328.719 247.549 329.018 247.432V248.712C328.677 248.861 328.282 248.973 327.834 249.048C327.397 249.123 326.927 249.16 326.426 249.16ZM323.93 244.76H327.946V244.232C327.946 243.709 327.802 243.304 327.514 243.016C327.226 242.717 326.741 242.568 326.058 242.568C325.247 242.568 324.687 242.744 324.378 243.096C324.079 243.448 323.93 244.003 323.93 244.76ZM333.63 249.16C333.107 249.16 332.606 249.123 332.126 249.048C331.656 248.973 331.267 248.883 330.958 248.776V247.304C331.32 247.443 331.72 247.549 332.158 247.624C332.595 247.699 333.011 247.736 333.406 247.736C334.003 247.736 334.43 247.683 334.686 247.576C334.942 247.469 335.07 247.261 335.07 246.952C335.07 246.728 334.99 246.552 334.83 246.424C334.68 246.296 334.451 246.179 334.142 246.072C333.843 245.965 333.459 245.837 332.99 245.688C332.542 245.539 332.152 245.379 331.822 245.208C331.491 245.027 331.235 244.797 331.054 244.52C330.872 244.243 330.782 243.88 330.782 243.432C330.782 242.739 331.032 242.205 331.534 241.832C332.035 241.448 332.84 241.256 333.95 241.256C334.387 241.256 334.803 241.288 335.198 241.352C335.592 241.416 335.928 241.496 336.206 241.592V243.048C335.907 242.931 335.576 242.84 335.214 242.776C334.862 242.712 334.531 242.68 334.222 242.68C333.667 242.68 333.246 242.728 332.958 242.824C332.68 242.92 332.542 243.112 332.542 243.4C332.542 243.699 332.686 243.912 332.974 244.04C333.272 244.157 333.747 244.323 334.398 244.536C334.995 244.717 335.47 244.909 335.822 245.112C336.174 245.315 336.424 245.56 336.574 245.848C336.734 246.125 336.814 246.488 336.814 246.936C336.814 247.683 336.542 248.243 335.998 248.616C335.454 248.979 334.664 249.16 333.63 249.16ZM341.185 249.16C340.375 249.16 339.767 248.947 339.361 248.52C338.967 248.083 338.769 247.491 338.769 246.744V242.776H337.649V241.416H338.769V239.672L340.497 239.144V241.416H342.513L342.401 242.776H340.497V246.648C340.497 247.085 340.599 247.395 340.801 247.576C341.004 247.747 341.335 247.832 341.793 247.832C342.081 247.832 342.385 247.779 342.705 247.672V248.904C342.289 249.075 341.783 249.16 341.185 249.16ZM344.679 239.832V238.392H346.583V239.832H344.679ZM344.823 249V242.744H343.671L343.831 241.416H346.567V249H344.823ZM348.602 249V241.416H350.202L350.282 242.216C350.623 241.949 351.028 241.725 351.498 241.544C351.978 241.352 352.506 241.256 353.082 241.256C354.063 241.256 354.778 241.485 355.226 241.944C355.674 242.403 355.898 243.117 355.898 244.088V249H354.17V244.168C354.17 243.581 354.047 243.171 353.802 242.936C353.567 242.701 353.119 242.584 352.458 242.584C352.063 242.584 351.674 242.664 351.29 242.824C350.916 242.984 350.602 243.192 350.346 243.448V249H348.602ZM360.924 251.816C360.358 251.816 359.793 251.779 359.228 251.704C358.662 251.64 358.182 251.539 357.788 251.4V250.056C358.214 250.195 358.705 250.301 359.26 250.376C359.814 250.451 360.342 250.488 360.844 250.488C361.612 250.488 362.172 250.445 362.524 250.36C362.876 250.275 363.052 250.083 363.052 249.784C363.052 249.56 362.966 249.4 362.796 249.304C362.625 249.219 362.3 249.176 361.82 249.176H359.772C358.396 249.176 357.708 248.691 357.708 247.72C357.708 247.411 357.798 247.123 357.98 246.856C358.161 246.589 358.449 246.387 358.844 246.248C358.406 246.035 358.081 245.741 357.868 245.368C357.665 244.995 357.564 244.547 357.564 244.024C357.564 243.053 357.852 242.349 358.428 241.912C359.014 241.475 359.889 241.256 361.052 241.256C361.297 241.256 361.553 241.277 361.82 241.32C362.086 241.352 362.294 241.384 362.444 241.416H365.228L365.18 242.552H363.9C364.102 242.723 364.252 242.936 364.348 243.192C364.444 243.448 364.492 243.725 364.492 244.024C364.492 244.835 364.246 245.475 363.756 245.944C363.265 246.403 362.524 246.632 361.532 246.632C361.361 246.632 361.201 246.627 361.052 246.616C360.913 246.595 360.758 246.573 360.588 246.552C360.268 246.584 359.98 246.669 359.724 246.808C359.468 246.947 359.34 247.133 359.34 247.368C359.34 247.528 359.404 247.645 359.532 247.72C359.66 247.784 359.873 247.816 360.172 247.816H362.3C363.057 247.816 363.638 247.981 364.044 248.312C364.46 248.632 364.668 249.101 364.668 249.72C364.668 250.467 364.342 251 363.692 251.32C363.052 251.651 362.129 251.816 360.924 251.816ZM361.052 245.528C361.745 245.528 362.225 245.411 362.492 245.176C362.769 244.941 362.908 244.541 362.908 243.976C362.908 243.411 362.769 243 362.492 242.744C362.225 242.488 361.745 242.36 361.052 242.36C360.401 242.36 359.926 242.483 359.628 242.728C359.329 242.973 359.18 243.389 359.18 243.976C359.18 244.52 359.318 244.915 359.596 245.16C359.884 245.405 360.369 245.528 361.052 245.528Z" fill="white"/>
<g filter="url(#filter4_di_172_342)">
<rect x="82" y="218" width="93.7422" height="36.4648" rx="6" fill="#121520"/>
<rect x="82.4" y="218.4" width="92.9422" height="35.6648" rx="5.6" stroke="url(#paint16_linear_172_342)" stroke-width="0.8"/>
</g>
<path d="M105.704 241L109.64 230.696H111.592L115.496 241H113.704L112.68 238.344H108.536L107.512 241H105.704ZM108.808 237H112.392L110.6 232.28L108.808 237ZM120.22 241.16C118.887 241.16 117.879 240.824 117.196 240.152C116.514 239.469 116.172 238.488 116.172 237.208C116.172 235.875 116.546 234.883 117.292 234.232C118.05 233.581 119.058 233.256 120.316 233.256C120.839 233.256 121.276 233.293 121.628 233.368C121.991 233.443 122.338 233.56 122.668 233.72V235.016C122.114 234.739 121.442 234.6 120.652 234.6C119.778 234.6 119.106 234.797 118.636 235.192C118.167 235.576 117.932 236.248 117.932 237.208C117.932 238.115 118.14 238.781 118.556 239.208C118.972 239.624 119.66 239.832 120.62 239.832C121.378 239.832 122.066 239.688 122.684 239.4V240.728C122.332 240.867 121.954 240.973 121.548 241.048C121.154 241.123 120.711 241.16 120.22 241.16ZM126.967 241.16C126.156 241.16 125.548 240.947 125.143 240.52C124.748 240.083 124.551 239.491 124.551 238.744V234.776H123.431V233.416H124.551V231.672L126.279 231.144V233.416H128.295L128.183 234.776H126.279V238.648C126.279 239.085 126.38 239.395 126.583 239.576C126.785 239.747 127.116 239.832 127.575 239.832C127.863 239.832 128.167 239.779 128.487 239.672V240.904C128.071 241.075 127.564 241.16 126.967 241.16ZM130.461 231.832V230.392H132.365V231.832H130.461ZM130.605 241V234.744H129.453L129.613 233.416H132.349V241H130.605ZM138.015 241.16C136.65 241.16 135.647 240.819 135.007 240.136C134.378 239.453 134.063 238.477 134.063 237.208C134.063 235.939 134.383 234.963 135.023 234.28C135.663 233.597 136.66 233.256 138.015 233.256C139.38 233.256 140.383 233.597 141.023 234.28C141.663 234.963 141.983 235.939 141.983 237.208C141.983 238.477 141.663 239.453 141.023 240.136C140.394 240.819 139.391 241.16 138.015 241.16ZM138.015 239.688C138.815 239.688 139.38 239.496 139.711 239.112C140.052 238.717 140.223 238.083 140.223 237.208C140.223 236.333 140.052 235.704 139.711 235.32C139.38 234.936 138.815 234.744 138.015 234.744C137.226 234.744 136.66 234.936 136.319 235.32C135.988 235.704 135.823 236.333 135.823 237.208C135.823 238.083 135.988 238.717 136.319 239.112C136.66 239.496 137.226 239.688 138.015 239.688ZM143.68 241V233.416H145.28L145.36 234.216C145.701 233.949 146.107 233.725 146.576 233.544C147.056 233.352 147.584 233.256 148.16 233.256C149.141 233.256 149.856 233.485 150.304 233.944C150.752 234.403 150.976 235.117 150.976 236.088V241H149.248V236.168C149.248 235.581 149.125 235.171 148.88 234.936C148.645 234.701 148.197 234.584 147.536 234.584C147.141 234.584 146.752 234.664 146.368 234.824C145.995 234.984 145.68 235.192 145.424 235.448V241H143.68Z" fill="white"/>
<rect x="128.207" y="100.256" width="203.234" height="54.5059" rx="6.5" fill="url(#paint17_linear_172_342)" stroke="url(#paint18_linear_172_342)"/>
<path d="M187.745 133.849L182.825 120.969H185.085L188.945 131.509L192.805 120.969H195.065L190.185 133.849H187.745ZM197.111 122.389V120.589H199.491V122.389H197.111ZM197.291 133.849V126.029H195.851L196.051 124.369H199.471V133.849H197.291ZM205.174 134.049C204.521 134.049 203.894 134.002 203.294 133.909C202.707 133.815 202.221 133.702 201.834 133.569V131.729C202.287 131.902 202.787 132.035 203.334 132.129C203.881 132.222 204.401 132.269 204.894 132.269C205.641 132.269 206.174 132.202 206.494 132.069C206.814 131.935 206.974 131.675 206.974 131.289C206.974 131.009 206.874 130.789 206.674 130.629C206.487 130.469 206.201 130.322 205.814 130.189C205.441 130.055 204.961 129.895 204.374 129.709C203.814 129.522 203.327 129.322 202.914 129.109C202.501 128.882 202.181 128.595 201.954 128.249C201.727 127.902 201.614 127.449 201.614 126.889C201.614 126.022 201.927 125.355 202.554 124.889C203.181 124.409 204.187 124.169 205.574 124.169C206.121 124.169 206.641 124.209 207.134 124.289C207.627 124.369 208.047 124.469 208.394 124.589V126.409C208.021 126.262 207.607 126.149 207.154 126.069C206.714 125.989 206.301 125.949 205.914 125.949C205.221 125.949 204.694 126.009 204.334 126.129C203.987 126.249 203.814 126.489 203.814 126.849C203.814 127.222 203.994 127.489 204.354 127.649C204.727 127.795 205.321 128.002 206.134 128.269C206.881 128.495 207.474 128.735 207.914 128.989C208.354 129.242 208.667 129.549 208.854 129.909C209.054 130.255 209.154 130.709 209.154 131.269C209.154 132.202 208.814 132.902 208.134 133.369C207.454 133.822 206.467 134.049 205.174 134.049ZM214.711 134.049C213.578 134.049 212.705 133.735 212.091 133.109C211.491 132.482 211.191 131.562 211.191 130.349V124.369H213.371V130.349C213.371 131.055 213.545 131.575 213.891 131.909C214.238 132.242 214.771 132.409 215.491 132.409C216.025 132.409 216.518 132.309 216.971 132.109C217.425 131.909 217.818 131.642 218.151 131.309V124.369H220.311V133.849H218.331L218.231 132.869C217.805 133.202 217.298 133.482 216.711 133.709C216.125 133.935 215.458 134.049 214.711 134.049ZM225.521 134.049C224.921 134.049 224.361 133.942 223.841 133.729C223.334 133.515 222.927 133.195 222.621 132.769C222.314 132.329 222.161 131.789 222.161 131.149C222.161 130.242 222.467 129.515 223.081 128.969C223.707 128.409 224.667 128.129 225.961 128.129H229.001V127.709C229.001 127.255 228.927 126.895 228.781 126.629C228.647 126.362 228.394 126.169 228.021 126.049C227.661 125.929 227.127 125.869 226.421 125.869C225.301 125.869 224.254 126.035 223.281 126.369V124.749C223.707 124.575 224.227 124.435 224.841 124.329C225.454 124.222 226.114 124.169 226.821 124.169C228.207 124.169 229.261 124.449 229.981 125.009C230.714 125.569 231.081 126.482 231.081 127.749V133.849H229.221L229.081 132.889C228.694 133.262 228.214 133.549 227.641 133.749C227.081 133.949 226.374 134.049 225.521 134.049ZM226.101 132.489C226.754 132.489 227.321 132.382 227.801 132.169C228.294 131.942 228.694 131.642 229.001 131.269V129.609H226.001C225.361 129.609 224.894 129.735 224.601 129.989C224.321 130.229 224.181 130.602 224.181 131.109C224.181 131.602 224.347 131.955 224.681 132.169C225.014 132.382 225.487 132.489 226.101 132.489ZM235.858 134.049C235.085 134.049 234.498 133.862 234.098 133.489C233.698 133.102 233.498 132.469 233.498 131.589V120.369H235.678V131.389C235.678 131.762 235.745 132.015 235.878 132.149C236.012 132.282 236.212 132.349 236.478 132.349C236.798 132.349 237.105 132.309 237.398 132.229V133.809C237.145 133.902 236.898 133.962 236.658 133.989C236.432 134.029 236.165 134.049 235.858 134.049ZM243.713 133.849V120.969H245.893V133.849H243.713ZM252.34 134.049C251.487 134.049 250.733 133.902 250.08 133.609C249.427 133.315 248.92 132.829 248.56 132.149C248.2 131.469 248.02 130.555 248.02 129.409C248.02 128.275 248.213 127.322 248.6 126.549C248.987 125.762 249.52 125.169 250.2 124.769C250.893 124.369 251.673 124.169 252.54 124.169C253.113 124.169 253.62 124.235 254.06 124.369C254.513 124.502 254.947 124.709 255.36 124.989V120.369H257.54V133.849H255.68L255.54 132.909C255.113 133.295 254.647 133.582 254.14 133.769C253.633 133.955 253.033 134.049 252.34 134.049ZM252.92 132.409C253.893 132.409 254.707 132.075 255.36 131.409V126.669C254.733 126.109 253.947 125.829 253 125.829C252.08 125.829 251.387 126.135 250.92 126.749C250.453 127.362 250.22 128.255 250.22 129.429C250.22 130.562 250.433 131.342 250.86 131.769C251.3 132.195 251.987 132.409 252.92 132.409ZM264.665 134.049C263.012 134.049 261.732 133.642 260.825 132.829C259.919 132.015 259.465 130.769 259.465 129.089C259.465 127.569 259.852 126.369 260.625 125.489C261.399 124.609 262.572 124.169 264.145 124.169C265.585 124.169 266.665 124.549 267.385 125.309C268.119 126.055 268.485 127.022 268.485 128.209V129.969H261.545C261.652 130.889 261.985 131.522 262.545 131.869C263.105 132.215 263.959 132.389 265.105 132.389C265.585 132.389 266.079 132.342 266.585 132.249C267.092 132.155 267.532 132.035 267.905 131.889V133.489C267.479 133.675 266.985 133.815 266.425 133.909C265.879 134.002 265.292 134.049 264.665 134.049ZM261.545 128.549H266.565V127.889C266.565 127.235 266.385 126.729 266.025 126.369C265.665 125.995 265.059 125.809 264.205 125.809C263.192 125.809 262.492 126.029 262.105 126.469C261.732 126.909 261.545 127.602 261.545 128.549ZM270.608 133.849V124.369H272.608L272.708 125.369C273.134 125.035 273.641 124.755 274.228 124.529C274.828 124.289 275.488 124.169 276.208 124.169C277.434 124.169 278.328 124.455 278.888 125.029C279.448 125.602 279.728 126.495 279.728 127.709V133.849H277.568V127.809C277.568 127.075 277.414 126.562 277.108 126.269C276.814 125.975 276.254 125.829 275.428 125.829C274.934 125.829 274.448 125.929 273.968 126.129C273.501 126.329 273.108 126.589 272.788 126.909V133.849H270.608ZM285.79 134.049C284.777 134.049 284.017 133.782 283.51 133.249C283.017 132.702 282.77 131.962 282.77 131.029V126.069H281.37V124.369H282.77V122.189L284.93 121.529V124.369H287.45L287.31 126.069H284.93V130.909C284.93 131.455 285.057 131.842 285.31 132.069C285.563 132.282 285.977 132.389 286.55 132.389C286.91 132.389 287.29 132.322 287.69 132.189V133.729C287.17 133.942 286.537 134.049 285.79 134.049ZM290.158 122.389V120.589H292.538V122.389H290.158ZM290.338 133.849V126.029H288.898L289.098 124.369H292.518V133.849H290.338ZM298.681 134.049C297.667 134.049 296.907 133.782 296.401 133.249C295.907 132.702 295.661 131.962 295.661 131.029V126.069H294.261V124.369H295.661V122.189L297.821 121.529V124.369H300.341L300.201 126.069H297.821V130.909C297.821 131.455 297.947 131.842 298.201 132.069C298.454 132.282 298.867 132.389 299.441 132.389C299.801 132.389 300.181 132.322 300.581 132.189V133.729C300.061 133.942 299.427 134.049 298.681 134.049ZM303.49 137.369C302.77 137.369 302.157 137.275 301.65 137.089V135.469C301.877 135.549 302.083 135.602 302.27 135.629C302.47 135.655 302.67 135.669 302.87 135.669C303.283 135.669 303.617 135.602 303.87 135.469C304.123 135.335 304.343 135.122 304.53 134.829C304.73 134.549 304.943 134.182 305.17 133.729L300.95 124.369H303.21L306.25 131.409L309.33 124.369H311.57L307.71 133.309C307.377 134.109 307.017 134.809 306.63 135.409C306.257 136.022 305.817 136.502 305.31 136.849C304.817 137.195 304.21 137.369 303.49 137.369Z" fill="white"/>
<circle cx="159.797" cy="128.247" r="15.5273" fill="white"/>
<g clip-path="url(#clip0_172_342)">
<path d="M152.621 125.078H158.357" stroke="#0A0C10" stroke-width="1.04297" stroke-linecap="round" stroke-linejoin="round"/>
<path d="M161.486 125.078H167.223" stroke="#0A0C10" stroke-width="1.04297" stroke-linecap="round" stroke-linejoin="round"/>
<path d="M159.922 126.643C160.786 126.643 161.486 125.942 161.486 125.078C161.486 124.214 160.786 123.514 159.922 123.514C159.058 123.514 158.357 124.214 158.357 125.078C158.357 125.942 159.058 126.643 159.922 126.643Z" stroke="#0A0C10" stroke-width="1.04297" stroke-linecap="round" stroke-linejoin="round"/>
<path d="M154.186 132.9C155.05 132.9 155.75 132.2 155.75 131.336C155.75 130.472 155.05 129.771 154.186 129.771C153.322 129.771 152.621 130.472 152.621 131.336C152.621 132.2 153.322 132.9 154.186 132.9Z" stroke="#0A0C10" stroke-width="1.04297" stroke-linecap="round" stroke-linejoin="round"/>
<path d="M165.658 132.9C166.522 132.9 167.223 132.2 167.223 131.336C167.223 130.472 166.522 129.771 165.658 129.771C164.794 129.771 164.094 130.472 164.094 131.336C164.094 132.2 164.794 132.9 165.658 132.9Z" stroke="#0A0C10" stroke-width="1.04297" stroke-linecap="round" stroke-linejoin="round"/>
<path d="M161.473 125.29C162.506 125.581 163.436 126.155 164.16 126.948C164.883 127.74 165.37 128.72 165.565 129.775" stroke="#0A0C10" stroke-width="1.04297" stroke-linecap="round" stroke-linejoin="round"/>
<path d="M154.279 129.775C154.475 128.72 154.961 127.74 155.685 126.948C156.408 126.155 157.339 125.581 158.372 125.29" stroke="#0A0C10" stroke-width="1.04297" stroke-linecap="round" stroke-linejoin="round"/>
</g>
<defs>
<filter id="filter0_di_172_342" x="128" y="0" width="125.729" height="52.4648" filterUnits="userSpaceOnUse" color-interpolation-filters="sRGB">
<feFlood flood-opacity="0" result="BackgroundImageFix"/>
<feColorMatrix in="SourceAlpha" type="matrix" values="0 0 0 0 0 0 0 0 0 0 0 0 0 0 0 0 0 0 127 0" result="hardAlpha"/>
<feOffset dy="2"/>
<feGaussianBlur stdDeviation="4"/>
<feComposite in2="hardAlpha" operator="out"/>
<feColorMatrix type="matrix" values="0 0 0 0 0.011059 0 0 0 0 0.0303698 0 0 0 0 0.204167 0 0 0 0.4 0"/>
<feBlend mode="normal" in2="BackgroundImageFix" result="effect1_dropShadow_172_342"/>
<feBlend mode="normal" in="SourceGraphic" in2="effect1_dropShadow_172_342" result="shape"/>
<feColorMatrix in="SourceAlpha" type="matrix" values="0 0 0 0 0 0 0 0 0 0 0 0 0 0 0 0 0 0 127 0" result="hardAlpha"/>
<feOffset dy="-2"/>
<feGaussianBlur stdDeviation="6"/>
<feComposite in2="hardAlpha" operator="arithmetic" k2="-1" k3="1"/>
<feColorMatrix type="matrix" values="0 0 0 0 0.107992 0 0 0 0 0.0190799 0 0 0 0 0.654167 0 0 0 0.47 0"/>
<feBlend mode="normal" in2="shape" result="effect2_innerShadow_172_342"/>
</filter>
<filter id="filter1_di_172_342" x="350" y="50" width="112.934" height="52.4648" filterUnits="userSpaceOnUse" color-interpolation-filters="sRGB">
<feFlood flood-opacity="0" result="BackgroundImageFix"/>
<feColorMatrix in="SourceAlpha" type="matrix" values="0 0 0 0 0 0 0 0 0 0 0 0 0 0 0 0 0 0 127 0" result="hardAlpha"/>
<feOffset dy="2"/>
<feGaussianBlur stdDeviation="4"/>
<feComposite in2="hardAlpha" operator="out"/>
<feColorMatrix type="matrix" values="0 0 0 0 0.011059 0 0 0 0 0.0303698 0 0 0 0 0.204167 0 0 0 0.4 0"/>
<feBlend mode="normal" in2="BackgroundImageFix" result="effect1_dropShadow_172_342"/>
<feBlend mode="normal" in="SourceGraphic" in2="effect1_dropShadow_172_342" result="shape"/>
<feColorMatrix in="SourceAlpha" type="matrix" values="0 0 0 0 0 0 0 0 0 0 0 0 0 0 0 0 0 0 127 0" result="hardAlpha"/>
<feOffset dy="-2"/>
<feGaussianBlur stdDeviation="6"/>
<feComposite in2="hardAlpha" operator="arithmetic" k2="-1" k3="1"/>
<feColorMatrix type="matrix" values="0 0 0 0 0.107992 0 0 0 0 0.0190799 0 0 0 0 0.654167 0 0 0 0.47 0"/>
<feBlend mode="normal" in2="shape" result="effect2_innerShadow_172_342"/>
</filter>
<filter id="filter2_di_172_342" x="0" y="83" width="98.1914" height="52.4648" filterUnits="userSpaceOnUse" color-interpolation-filters="sRGB">
<feFlood flood-opacity="0" result="BackgroundImageFix"/>
<feColorMatrix in="SourceAlpha" type="matrix" values="0 0 0 0 0 0 0 0 0 0 0 0 0 0 0 0 0 0 127 0" result="hardAlpha"/>
<feOffset dy="2"/>
<feGaussianBlur stdDeviation="4"/>
<feComposite in2="hardAlpha" operator="out"/>
<feColorMatrix type="matrix" values="0 0 0 0 0.011059 0 0 0 0 0.0303698 0 0 0 0 0.204167 0 0 0 0.4 0"/>
<feBlend mode="normal" in2="BackgroundImageFix" result="effect1_dropShadow_172_342"/>
<feBlend mode="normal" in="SourceGraphic" in2="effect1_dropShadow_172_342" result="shape"/>
<feColorMatrix in="SourceAlpha" type="matrix" values="0 0 0 0 0 0 0 0 0 0 0 0 0 0 0 0 0 0 127 0" result="hardAlpha"/>
<feOffset dy="-2"/>
<feGaussianBlur stdDeviation="6"/>
<feComposite in2="hardAlpha" operator="arithmetic" k2="-1" k3="1"/>
<feColorMatrix type="matrix" values="0 0 0 0 0.107992 0 0 0 0 0.0190799 0 0 0 0 0.654167 0 0 0 0.47 0"/>
<feBlend mode="normal" in2="shape" result="effect2_innerShadow_172_342"/>
</filter>
<filter id="filter3_di_172_342" x="288" y="219" width="104.021" height="52.4648" filterUnits="userSpaceOnUse" color-interpolation-filters="sRGB">
<feFlood flood-opacity="0" result="BackgroundImageFix"/>
<feColorMatrix in="SourceAlpha" type="matrix" values="0 0 0 0 0 0 0 0 0 0 0 0 0 0 0 0 0 0 127 0" result="hardAlpha"/>
<feOffset dy="2"/>
<feGaussianBlur stdDeviation="4"/>
<feComposite in2="hardAlpha" operator="out"/>
<feColorMatrix type="matrix" values="0 0 0 0 0.011059 0 0 0 0 0.0303698 0 0 0 0 0.204167 0 0 0 0.4 0"/>
<feBlend mode="normal" in2="BackgroundImageFix" result="effect1_dropShadow_172_342"/>
<feBlend mode="normal" in="SourceGraphic" in2="effect1_dropShadow_172_342" result="shape"/>
<feColorMatrix in="SourceAlpha" type="matrix" values="0 0 0 0 0 0 0 0 0 0 0 0 0 0 0 0 0 0 127 0" result="hardAlpha"/>
<feOffset dy="-2"/>
<feGaussianBlur stdDeviation="6"/>
<feComposite in2="hardAlpha" operator="arithmetic" k2="-1" k3="1"/>
<feColorMatrix type="matrix" values="0 0 0 0 0.107992 0 0 0 0 0.0190799 0 0 0 0 0.654167 0 0 0 0.47 0"/>
<feBlend mode="normal" in2="shape" result="effect2_innerShadow_172_342"/>
</filter>
<filter id="filter4_di_172_342" x="74" y="212" width="109.742" height="52.4648" filterUnits="userSpaceOnUse" color-interpolation-filters="sRGB">
<feFlood flood-opacity="0" result="BackgroundImageFix"/>
<feColorMatrix in="SourceAlpha" type="matrix" values="0 0 0 0 0 0 0 0 0 0 0 0 0 0 0 0 0 0 127 0" result="hardAlpha"/>
<feOffset dy="2"/>
<feGaussianBlur stdDeviation="4"/>
<feComposite in2="hardAlpha" operator="out"/>
<feColorMatrix type="matrix" values="0 0 0 0 0.011059 0 0 0 0 0.0303698 0 0 0 0 0.204167 0 0 0 0.4 0"/>
<feBlend mode="normal" in2="BackgroundImageFix" result="effect1_dropShadow_172_342"/>
<feBlend mode="normal" in="SourceGraphic" in2="effect1_dropShadow_172_342" result="shape"/>
<feColorMatrix in="SourceAlpha" type="matrix" values="0 0 0 0 0 0 0 0 0 0 0 0 0 0 0 0 0 0 127 0" result="hardAlpha"/>
<feOffset dy="-2"/>
<feGaussianBlur stdDeviation="6"/>
<feComposite in2="hardAlpha" operator="arithmetic" k2="-1" k3="1"/>
<feColorMatrix type="matrix" values="0 0 0 0 0.107992 0 0 0 0 0.0190799 0 0 0 0 0.654167 0 0 0 0.47 0"/>
<feBlend mode="normal" in2="shape" result="effect2_innerShadow_172_342"/>
</filter>
<linearGradient id="paint0_linear_172_342" x1="259.504" y1="30.9805" x2="259.504" y2="182.105" gradientUnits="userSpaceOnUse">
<stop stop-color="#383838"/>
<stop offset="1" stop-opacity="0"/>
</linearGradient>
<linearGradient id="paint1_linear_172_342" x1="268.387" y1="123.205" x2="271.031" y2="314.75" gradientUnits="userSpaceOnUse">
<stop stop-color="#383838"/>
<stop offset="1" stop-color="#FFAC2F"/>
</linearGradient>
<linearGradient id="paint2_linear_172_342" x1="296.603" y1="183.107" x2="338.613" y2="153.139" gradientUnits="userSpaceOnUse">
<stop stop-color="#383838"/>
<stop offset="1" stop-opacity="0"/>
</linearGradient>
<linearGradient id="paint3_linear_172_342" x1="410.053" y1="97.3715" x2="303.737" y2="150.829" gradientUnits="userSpaceOnUse">
<stop stop-color="white"/>
<stop offset="0.068074" stop-color="#DC52FF"/>
<stop offset="1" stop-opacity="0"/>
</linearGradient>
<linearGradient id="paint4_linear_172_342" x1="120.583" y1="72.5942" x2="121.384" y2="193.295" gradientUnits="userSpaceOnUse">
<stop stop-color="#12151C"/>
<stop offset="0.475548" stop-color="#565656"/>
<stop offset="1" stop-opacity="0"/>
</linearGradient>
<radialGradient id="paint5_radial_172_342" cx="0" cy="0" r="1" gradientUnits="userSpaceOnUse" gradientTransform="translate(142.237 113.569) rotate(67.0151) scale(153.01 38.0342)">
<stop stop-color="#868686"/>
<stop offset="1" stop-opacity="0"/>
</radialGradient>
<linearGradient id="paint6_linear_172_342" x1="202.33" y1="232.257" x2="248.141" y2="181.977" gradientUnits="userSpaceOnUse">
<stop stop-color="#712FFF"/>
<stop offset="1" stop-opacity="0"/>
</linearGradient>
<linearGradient id="paint7_linear_172_342" x1="220.546" y1="158.809" x2="141.402" y2="194.751" gradientUnits="userSpaceOnUse">
<stop stop-color="#383838"/>
<stop offset="1" stop-opacity="0"/>
</linearGradient>
<linearGradient id="paint8_linear_172_342" x1="326.265" y1="184.331" x2="275.524" y2="123.654" gradientUnits="userSpaceOnUse">
<stop stop-color="#383838"/>
<stop offset="1" stop-opacity="0"/>
</linearGradient>
<linearGradient id="paint9_linear_172_342" x1="166.937" y1="135.52" x2="209.26" y2="118.348" gradientUnits="userSpaceOnUse">
<stop stop-color="#383838"/>
<stop offset="1" stop-opacity="0"/>
</linearGradient>
<linearGradient id="paint10_linear_172_342" x1="186.528" y1="37.5893" x2="199.905" y2="159.494" gradientUnits="userSpaceOnUse">
<stop stop-color="white"/>
<stop offset="0.114767" stop-color="#FFAC2F"/>
<stop offset="1" stop-opacity="0"/>
</linearGradient>
<linearGradient id="paint11_linear_172_342" x1="45.4917" y1="126.119" x2="167.03" y2="211.634" gradientUnits="userSpaceOnUse">
<stop stop-color="white"/>
<stop offset="0.0709738" stop-color="#652BFF"/>
<stop offset="1" stop-opacity="0"/>
</linearGradient>
<linearGradient id="paint12_linear_172_342" x1="145.234" y1="9.31865" x2="237.449" y2="62.782" gradientUnits="userSpaceOnUse">
<stop stop-color="#FFAC2F"/>
<stop offset="1" stop-color="#5008EA"/>
</linearGradient>
<linearGradient id="paint13_linear_172_342" x1="366.157" y1="59.3186" x2="452.384" y2="103.481" gradientUnits="userSpaceOnUse">
<stop stop-color="#FFAC2F"/>
<stop offset="1" stop-color="#5008EA"/>
</linearGradient>
<linearGradient id="paint14_linear_172_342" x1="14.9166" y1="92.3186" x2="92.5647" y2="126.039" gradientUnits="userSpaceOnUse">
<stop stop-color="#FFAC2F"/>
<stop offset="1" stop-color="#5008EA"/>
</linearGradient>
<linearGradient id="paint15_linear_172_342" x1="303.407" y1="228.319" x2="384.668" y2="266.111" gradientUnits="userSpaceOnUse">
<stop stop-color="#FFAC2F"/>
<stop offset="1" stop-color="#5008EA"/>
</linearGradient>
<linearGradient id="paint16_linear_172_342" x1="89.8885" y1="221.319" x2="174.414" y2="263.184" gradientUnits="userSpaceOnUse">
<stop stop-color="#FFAC2F"/>
<stop offset="1" stop-color="#5008EA"/>
</linearGradient>
<linearGradient id="paint17_linear_172_342" x1="325.491" y1="158.831" x2="137.257" y2="34.1396" gradientUnits="userSpaceOnUse">
<stop stop-color="#5008EA"/>
<stop offset="0.856878" stop-color="#FF9D4E"/>
<stop offset="1"/>
</linearGradient>
<linearGradient id="paint18_linear_172_342" x1="321.341" y1="96.0528" x2="246.27" y2="157.441" gradientUnits="userSpaceOnUse">
<stop stop-color="white"/>
<stop offset="1" stop-color="#12151C"/>
</linearGradient>
<clipPath id="clip0_172_342">
<rect width="16.6875" height="16.6875" fill="white" transform="translate(151.578 119.863)"/>
</clipPath>
</defs>
</svg>
