<svg width="340" height="321" viewBox="0 0 340 321" fill="none" xmlns="http://www.w3.org/2000/svg">
<mask id="mask0_1592_472" style="mask-type:alpha" maskUnits="userSpaceOnUse" x="0" y="0" width="340" height="321">
<rect width="340" height="321" rx="30" fill="#12151C"/>
</mask>
<g mask="url(#mask0_1592_472)">
<path d="M238 5C240.168 7.36269 239.157 104.06 238.22 160.384C238.105 167.331 243.701 173 250.649 173H298" stroke="url(#paint0_linear_1592_472)" stroke-width="0.887005"/>
<path d="M99 87V292.493C99 299.352 104.56 304.911 111.418 304.911H177.988C184.846 304.911 190.406 310.471 190.406 317.329V370.988" stroke="url(#paint1_linear_1592_472)" stroke-width="0.887005"/>
<path d="M197.728 82L59.418 82.0004C52.5597 82.0004 47 87.5602 47 94.4185V439.914" stroke="url(#paint2_radial_1592_472)" stroke-width="0.887005"/>
<path d="M-151 55H60.5259C67.3842 55 72.944 60.5598 72.944 67.4181V155.772V256.545" stroke="url(#paint3_linear_1592_472)" stroke-width="0.887005"/>
<path d="M336.217 25L336.217 254.457C336.217 261.315 330.657 266.875 323.799 266.875L277.109 266.875L218.001 266.875" stroke="url(#paint4_linear_1592_472)" stroke-width="0.887005"/>
<path d="M117.627 213.474L14.4186 213.474C7.56024 213.474 2.00048 207.914 2.00048 201.056L2.00049 155.237L2.00049 97" stroke="url(#paint5_linear_1592_472)" stroke-width="0.887005"/>
<path d="M181.19 96.6555C181.19 101.997 176.847 106.327 171.489 106.327C166.131 106.327 161.789 101.997 161.789 96.6555C161.789 91.3144 166.131 86.9835 171.489 86.9835C176.847 86.9835 181.19 91.3144 181.19 96.6555Z" fill="#2EFF4F" stroke="url(#paint6_linear_1592_472)" stroke-width="0.441595"/>
<path d="M171.284 93.8281V99.1273M173.934 96.4777H168.635" stroke="#12151C" stroke-width="0.88319" stroke-linecap="round" stroke-linejoin="round"/>
<path d="M181.19 170.844C181.19 176.185 176.847 180.516 171.489 180.516C166.131 180.516 161.789 176.185 161.789 170.844C161.789 165.503 166.131 161.172 171.489 161.172C176.847 161.172 181.19 165.503 181.19 170.844Z" fill="#2EFF4F" stroke="url(#paint7_linear_1592_472)" stroke-width="0.441595"/>
<path d="M171.282 168.017V173.316M173.932 170.666H168.633" stroke="#12151C" stroke-width="0.88319" stroke-linecap="round" stroke-linejoin="round"/>
<rect x="60.1795" y="40.1795" width="222.205" height="38.4102" rx="4.1282" fill="url(#paint8_linear_1592_472)" stroke="url(#paint9_linear_1592_472)" stroke-width="0.358974"/>
<g filter="url(#filter0_di_1592_472)">
<rect x="67.9492" y="47.9033" width="22.9629" height="22.9629" rx="3.53276" fill="#6D2CFF"/>
</g>
<path d="M84.7291 59.3851C84.7291 56.4595 82.3556 54.0859 79.43 54.0859C76.5044 54.0859 74.1309 56.4595 74.1309 59.3851C74.1309 62.3106 76.5044 64.6842 79.43 64.6842C82.3556 64.6842 84.7291 62.3106 84.7291 59.3851Z" stroke="white" stroke-width="0.88319" stroke-miterlimit="10"/>
<path d="M82.0804 57.1768L78.371 61.5927L76.7812 59.8263" stroke="white" stroke-width="0.88319" stroke-linecap="round" stroke-linejoin="round"/>
<path d="M109.649 64.2051V55.8826H115.309V56.9811H111.057V59.5011H114.831V60.5866H111.057V64.2051H109.649ZM118.842 64.3343C117.739 64.3343 116.929 64.0586 116.412 63.5072C115.904 62.9558 115.65 62.1675 115.65 61.1423C115.65 60.1171 115.908 59.3288 116.425 58.7774C116.942 58.226 117.748 57.9503 118.842 57.9503C119.944 57.9503 120.754 58.226 121.271 58.7774C121.788 59.3288 122.047 60.1171 122.047 61.1423C122.047 62.1675 121.788 62.9558 121.271 63.5072C120.763 64.0586 119.953 64.3343 118.842 64.3343ZM118.842 63.1454C119.488 63.1454 119.944 62.9903 120.212 62.6802C120.487 62.3614 120.625 61.8488 120.625 61.1423C120.625 60.4359 120.487 59.9275 120.212 59.6174C119.944 59.3072 119.488 59.1522 118.842 59.1522C118.204 59.1522 117.748 59.3072 117.472 59.6174C117.205 59.9275 117.071 60.4359 117.071 61.1423C117.071 61.8488 117.205 62.3614 117.472 62.6802C117.748 62.9903 118.204 63.1454 118.842 63.1454ZM123.417 64.2051V58.0795H124.709L124.787 58.7903C125.08 58.6008 125.429 58.4285 125.834 58.2734C126.239 58.1183 126.639 58.0106 127.036 57.9503V59.0229C126.794 59.066 126.532 59.1306 126.247 59.2168C125.972 59.2943 125.709 59.3848 125.459 59.4882C125.209 59.5829 124.998 59.682 124.826 59.7854V64.2051H123.417ZM128.061 64.2051V58.0795H129.354L129.418 58.7257C129.72 58.4845 130.052 58.2949 130.413 58.1571C130.775 58.0192 131.163 57.9503 131.576 57.9503C132.016 57.9503 132.356 58.0235 132.597 58.17C132.847 58.3079 133.037 58.5017 133.166 58.7515C133.45 58.5189 133.778 58.3294 134.148 58.1829C134.519 58.0279 134.962 57.9503 135.479 57.9503C136.186 57.9503 136.707 58.1312 137.043 58.4931C137.379 58.8549 137.547 59.4106 137.547 60.1602V64.2051H136.164V60.3023C136.164 59.8285 136.065 59.4968 135.867 59.3072C135.669 59.1177 135.346 59.0229 134.898 59.0229C134.605 59.0229 134.325 59.0746 134.058 59.178C133.799 59.2814 133.575 59.4365 133.386 59.6432C133.412 59.738 133.429 59.8371 133.437 59.9405C133.446 60.0439 133.45 60.1559 133.45 60.2765V64.2051H132.145V60.3152C132.145 59.8672 132.068 59.5399 131.912 59.3331C131.757 59.1263 131.464 59.0229 131.034 59.0229C130.732 59.0229 130.444 59.0962 130.168 59.2426C129.901 59.3805 129.66 59.5485 129.444 59.7466V64.2051H128.061ZM142.108 64.2051V55.8826H143.516V64.2051H142.108ZM145.149 64.2051V58.0795H146.441L146.506 58.7257C146.782 58.5103 147.109 58.3294 147.488 58.1829C147.876 58.0279 148.302 57.9503 148.768 57.9503C149.56 57.9503 150.137 58.1355 150.499 58.506C150.861 58.8765 151.042 59.4537 151.042 60.2377V64.2051H149.646V60.3023C149.646 59.8285 149.547 59.4968 149.349 59.3072C149.16 59.1177 148.798 59.0229 148.264 59.0229C147.945 59.0229 147.63 59.0875 147.32 59.2168C147.019 59.346 146.764 59.514 146.558 59.7208V64.2051H145.149ZM158.62 67.3325C158.077 67.3325 157.668 67.1946 157.392 66.9189C157.116 66.6432 156.978 66.2125 156.978 65.6266V63.8174C156.453 64.162 155.82 64.3343 155.079 64.3343C154.2 64.3343 153.506 64.0974 152.998 63.6235C152.49 63.1411 152.236 62.3485 152.236 61.2457C152.236 60.1429 152.485 59.3202 152.985 58.7774C153.493 58.226 154.178 57.9503 155.04 57.9503C155.488 57.9503 155.871 58.0106 156.19 58.1312C156.517 58.2519 156.819 58.4371 157.095 58.6869L157.185 58.0795H158.387V65.5232C158.387 65.7903 158.43 65.9755 158.516 66.0789C158.611 66.1823 158.788 66.234 159.046 66.234C159.132 66.234 159.223 66.2254 159.317 66.2082C159.421 66.1909 159.511 66.1737 159.589 66.1565V67.1774C159.442 67.2291 159.296 67.2678 159.149 67.2937C159.003 67.3195 158.826 67.3325 158.62 67.3325ZM155.44 63.2746C155.776 63.2746 156.069 63.2272 156.319 63.1325C156.569 63.0291 156.789 62.8955 156.978 62.7318V59.6691C156.556 59.2383 156.035 59.0229 155.415 59.0229C154.786 59.0229 154.333 59.2125 154.058 59.5915C153.791 59.962 153.657 60.5091 153.657 61.2328C153.657 61.9909 153.804 62.5208 154.096 62.8223C154.389 63.1238 154.837 63.2746 155.44 63.2746ZM162.225 64.3343C161.493 64.3343 160.929 64.1318 160.533 63.7269C160.145 63.322 159.951 62.7275 159.951 61.9435V58.0795H161.36V61.9435C161.36 62.4002 161.472 62.7362 161.696 62.9515C161.92 63.1669 162.264 63.2746 162.729 63.2746C163.074 63.2746 163.393 63.21 163.686 63.0808C163.979 62.9515 164.233 62.7792 164.448 62.5638V58.0795H165.844V64.2051H164.565L164.5 63.5718C164.224 63.7872 163.897 63.9682 163.518 64.1146C163.139 64.2611 162.708 64.3343 162.225 64.3343ZM168.004 56.8002V55.6371H169.542V56.8002H168.004ZM168.12 64.2051V59.1522H167.19L167.319 58.0795H169.529V64.2051H168.12ZM171.172 64.2051V58.0795H172.464L172.542 58.7903C172.835 58.6008 173.184 58.4285 173.588 58.2734C173.993 58.1183 174.394 58.0106 174.79 57.9503V59.0229C174.549 59.066 174.286 59.1306 174.002 59.2168C173.726 59.2943 173.464 59.3848 173.214 59.4882C172.964 59.5829 172.753 59.682 172.58 59.7854V64.2051H171.172ZM176.745 66.4795C176.279 66.4795 175.883 66.4192 175.556 66.2986V65.2518C175.702 65.3035 175.836 65.338 175.956 65.3552C176.085 65.3725 176.215 65.3811 176.344 65.3811C176.611 65.3811 176.826 65.338 176.99 65.2518C177.154 65.1657 177.296 65.0278 177.417 64.8383C177.546 64.6574 177.684 64.4205 177.83 64.1275L175.103 58.0795H176.564L178.528 62.6285L180.518 58.0795H181.965L179.471 63.8562C179.256 64.3731 179.023 64.8254 178.773 65.2131C178.532 65.6094 178.248 65.9195 177.921 66.1435C177.602 66.3675 177.21 66.4795 176.745 66.4795ZM186.064 64.2051V55.8826H187.472V64.2051H186.064ZM189.105 64.2051V58.0795H190.397L190.462 58.7257C190.738 58.5103 191.065 58.3294 191.444 58.1829C191.832 58.0279 192.258 57.9503 192.724 57.9503C193.516 57.9503 194.093 58.1355 194.455 58.506C194.817 58.8765 194.998 59.4537 194.998 60.2377V64.2051H193.602V60.3023C193.602 59.8285 193.503 59.4968 193.305 59.3072C193.116 59.1177 192.754 59.0229 192.22 59.0229C191.901 59.0229 191.586 59.0875 191.276 59.2168C190.975 59.346 190.721 59.514 190.514 59.7208V64.2051H189.105ZM197.093 56.8002V55.6371H198.631V56.8002H197.093ZM197.21 64.2051V59.1522H196.279L196.408 58.0795H198.618V64.2051H197.21ZM202.6 64.3343C201.946 64.3343 201.455 64.162 201.127 63.8174C200.808 63.4642 200.649 62.986 200.649 62.3829V59.178H199.744V58.0795H200.649V56.6709L202.045 56.2445V58.0795H203.673L203.583 59.178H202.045V62.3054C202.045 62.6586 202.127 62.9085 202.29 63.0549C202.454 63.1928 202.721 63.2617 203.092 63.2617C203.324 63.2617 203.57 63.2186 203.828 63.1325V64.1275C203.492 64.2654 203.083 64.3343 202.6 64.3343ZM205.423 56.8002V55.6371H206.96V56.8002H205.423ZM205.539 64.2051V59.1522H204.608L204.738 58.0795H206.947V64.2051H205.539ZM210.503 64.3343C210.116 64.3343 209.754 64.2654 209.418 64.1275C209.09 63.9897 208.828 63.7829 208.629 63.5072C208.431 63.2229 208.332 62.874 208.332 62.4605C208.332 61.8746 208.53 61.4051 208.927 61.0519C209.332 60.69 209.952 60.5091 210.788 60.5091H212.752V60.2377C212.752 59.9448 212.705 59.7122 212.61 59.5399C212.524 59.3675 212.36 59.2426 212.119 59.1651C211.886 59.0875 211.541 59.0488 211.085 59.0488C210.361 59.0488 209.685 59.1565 209.056 59.3719V58.3251C209.332 58.2131 209.668 58.1226 210.064 58.0537C210.46 57.9848 210.887 57.9503 211.343 57.9503C212.239 57.9503 212.92 58.1312 213.385 58.4931C213.859 58.8549 214.096 59.4451 214.096 60.2635V64.2051H212.894L212.804 63.5848C212.554 63.826 212.244 64.0112 211.873 64.1405C211.511 64.2697 211.055 64.3343 210.503 64.3343ZM210.878 63.3263C211.3 63.3263 211.666 63.2574 211.977 63.1195C212.295 62.9731 212.554 62.7792 212.752 62.538V61.4654H210.813C210.4 61.4654 210.098 61.5472 209.909 61.7109C209.728 61.866 209.637 62.1072 209.637 62.4346C209.637 62.7534 209.745 62.9817 209.961 63.1195C210.176 63.2574 210.482 63.3263 210.878 63.3263ZM217.997 64.3343C217.342 64.3343 216.851 64.162 216.524 63.8174C216.205 63.4642 216.046 62.986 216.046 62.3829V59.178H215.141V58.0795H216.046V56.6709L217.441 56.2445V58.0795H219.07L218.979 59.178H217.441V62.3054C217.441 62.6586 217.523 62.9085 217.687 63.0549C217.851 63.1928 218.118 63.2617 218.488 63.2617C218.721 63.2617 218.966 63.2186 219.225 63.1325V64.1275C218.889 64.2654 218.48 64.3343 217.997 64.3343ZM223.404 64.3343C222.335 64.3343 221.508 64.0715 220.923 63.546C220.337 63.0205 220.044 62.2149 220.044 61.1294C220.044 60.1472 220.294 59.3719 220.793 58.8032C221.293 58.2346 222.051 57.9503 223.068 57.9503C223.998 57.9503 224.696 58.1959 225.161 58.6869C225.635 59.1694 225.872 59.794 225.872 60.5608V61.698H221.388C221.457 62.2925 221.672 62.7017 222.034 62.9257C222.396 63.1497 222.947 63.2617 223.688 63.2617C223.998 63.2617 224.317 63.2315 224.644 63.1712C224.972 63.1109 225.256 63.0334 225.497 62.9386V63.9725C225.222 64.0931 224.903 64.1835 224.541 64.2438C224.188 64.3042 223.809 64.3343 223.404 64.3343ZM221.388 60.7805H224.631V60.354C224.631 59.9319 224.515 59.6045 224.283 59.3719C224.05 59.1306 223.658 59.01 223.107 59.01C222.452 59.01 221.999 59.1522 221.75 59.4365C221.508 59.7208 221.388 60.1688 221.388 60.7805ZM229.776 64.3343C229.225 64.3343 228.738 64.2395 228.316 64.05C227.894 63.8605 227.566 63.546 227.334 63.1066C227.101 62.6672 226.985 62.0771 226.985 61.3362C226.985 60.6039 227.11 59.9879 227.36 59.4882C227.609 58.9799 227.954 58.5965 228.393 58.338C228.841 58.0795 229.345 57.9503 229.905 57.9503C230.276 57.9503 230.603 57.9934 230.888 58.0795C231.181 58.1657 231.461 58.2992 231.728 58.4802V55.4949H233.136V64.2051H231.934L231.844 63.5977C231.568 63.8475 231.267 64.0328 230.939 64.1534C230.612 64.274 230.224 64.3343 229.776 64.3343ZM230.151 63.2746C230.78 63.2746 231.305 63.0592 231.728 62.6285V59.5657C231.323 59.2039 230.814 59.0229 230.203 59.0229C229.608 59.0229 229.16 59.2211 228.859 59.6174C228.557 60.0137 228.406 60.5909 228.406 61.3491C228.406 62.0814 228.544 62.5854 228.82 62.8611C229.104 63.1368 229.548 63.2746 230.151 63.2746Z" fill="white"/>
<rect x="60.1795" y="114.275" width="222.205" height="38.4102" rx="4.1282" fill="url(#paint10_linear_1592_472)" stroke="url(#paint11_linear_1592_472)" stroke-width="0.358974"/>
<g filter="url(#filter1_di_1592_472)">
<rect x="67.9492" y="122.09" width="22.9629" height="22.9629" rx="3.53276" fill="#FE9929"/>
</g>
<path d="M79.43 128.272C76.5044 128.272 74.1309 130.646 74.1309 133.572C74.1309 136.497 76.5044 138.871 79.43 138.871C82.3556 138.871 84.7291 136.497 84.7291 133.572C84.7291 130.646 82.3556 128.272 79.43 128.272Z" stroke="white" stroke-width="0.88319" stroke-miterlimit="10"/>
<path d="M79.4297 130.039V134.013H82.0793" stroke="white" stroke-width="0.88319" stroke-linecap="round" stroke-linejoin="round"/>
<path d="M121.18 138.301L119.242 129.978H120.625L122.033 136.22L123.61 130.986V129.978H124.76L126.53 136.22L127.965 129.978H129.335L127.409 138.301H126.026L124.359 132.472L122.589 138.301H121.18ZM131.66 138.43C131.272 138.43 130.911 138.361 130.575 138.223C130.247 138.085 129.984 137.879 129.786 137.603C129.588 137.319 129.489 136.97 129.489 136.556C129.489 135.97 129.687 135.501 130.084 135.148C130.488 134.786 131.109 134.605 131.944 134.605H133.909V134.333C133.909 134.04 133.861 133.808 133.767 133.636C133.68 133.463 133.517 133.338 133.276 133.261C133.043 133.183 132.698 133.144 132.242 133.144C131.518 133.144 130.842 133.252 130.213 133.468V132.421C130.488 132.309 130.824 132.218 131.221 132.149C131.617 132.08 132.044 132.046 132.5 132.046C133.396 132.046 134.077 132.227 134.542 132.589C135.016 132.951 135.253 133.541 135.253 134.359V138.301H134.051L133.96 137.68C133.711 137.922 133.4 138.107 133.03 138.236C132.668 138.365 132.212 138.43 131.66 138.43ZM132.035 137.422C132.457 137.422 132.823 137.353 133.133 137.215C133.452 137.069 133.711 136.875 133.909 136.634V135.561H131.97C131.557 135.561 131.255 135.643 131.066 135.807C130.885 135.962 130.794 136.203 130.794 136.53C130.794 136.849 130.902 137.077 131.117 137.215C131.333 137.353 131.639 137.422 132.035 137.422ZM137.332 130.896V129.733H138.87V130.896H137.332ZM137.448 138.301V133.248H136.518L136.647 132.175H138.857V138.301H137.448ZM142.839 138.43C142.184 138.43 141.693 138.258 141.366 137.913C141.047 137.56 140.888 137.082 140.888 136.479V133.274H139.983V132.175H140.888V130.767L142.283 130.34V132.175H143.912L143.821 133.274H142.283V136.401C142.283 136.754 142.365 137.004 142.529 137.151C142.693 137.288 142.96 137.357 143.33 137.357C143.563 137.357 143.808 137.314 144.067 137.228V138.223C143.731 138.361 143.321 138.43 142.839 138.43ZM148.497 138.301V133.274H147.606V132.175H148.497V131.426C148.497 130.814 148.665 130.323 149.001 129.952C149.346 129.573 149.854 129.384 150.526 129.384C150.776 129.384 151.004 129.405 151.211 129.448C151.418 129.483 151.607 129.535 151.78 129.604V130.612C151.513 130.517 151.241 130.469 150.966 130.469C150.561 130.469 150.281 130.543 150.126 130.689C149.97 130.836 149.893 131.085 149.893 131.439V132.175H151.495L151.431 133.274H149.893V138.301H148.497ZM155.259 138.43C154.156 138.43 153.346 138.154 152.829 137.603C152.321 137.052 152.067 136.263 152.067 135.238C152.067 134.213 152.325 133.424 152.842 132.873C153.359 132.322 154.164 132.046 155.259 132.046C156.361 132.046 157.171 132.322 157.688 132.873C158.205 133.424 158.463 134.213 158.463 135.238C158.463 136.263 158.205 137.052 157.688 137.603C157.18 138.154 156.37 138.43 155.259 138.43ZM155.259 137.241C155.905 137.241 156.361 137.086 156.628 136.776C156.904 136.457 157.042 135.944 157.042 135.238C157.042 134.532 156.904 134.023 156.628 133.713C156.361 133.403 155.905 133.248 155.259 133.248C154.621 133.248 154.164 133.403 153.889 133.713C153.622 134.023 153.488 134.532 153.488 135.238C153.488 135.944 153.622 136.457 153.889 136.776C154.164 137.086 154.621 137.241 155.259 137.241ZM159.834 138.301V132.175H161.126L161.204 132.886C161.497 132.696 161.846 132.524 162.251 132.369C162.656 132.214 163.056 132.106 163.452 132.046V133.119C163.211 133.162 162.948 133.226 162.664 133.312C162.388 133.39 162.126 133.48 161.876 133.584C161.626 133.679 161.415 133.778 161.243 133.881V138.301H159.834ZM169.369 138.43C168.982 138.43 168.62 138.361 168.284 138.223C167.956 138.085 167.694 137.879 167.495 137.603C167.297 137.319 167.198 136.97 167.198 136.556C167.198 135.97 167.396 135.501 167.793 135.148C168.198 134.786 168.818 134.605 169.654 134.605H171.618V134.333C171.618 134.04 171.57 133.808 171.476 133.636C171.39 133.463 171.226 133.338 170.985 133.261C170.752 133.183 170.407 133.144 169.951 133.144C169.227 133.144 168.551 133.252 167.922 133.468V132.421C168.198 132.309 168.534 132.218 168.93 132.149C169.326 132.08 169.753 132.046 170.209 132.046C171.105 132.046 171.786 132.227 172.251 132.589C172.725 132.951 172.962 133.541 172.962 134.359V138.301H171.76L171.67 137.68C171.42 137.922 171.11 138.107 170.739 138.236C170.377 138.365 169.921 138.43 169.369 138.43ZM169.744 137.422C170.166 137.422 170.532 137.353 170.842 137.215C171.161 137.069 171.42 136.875 171.618 136.634V135.561H169.679C169.266 135.561 168.964 135.643 168.775 135.807C168.594 135.962 168.503 136.203 168.503 136.53C168.503 136.849 168.611 137.077 168.826 137.215C169.042 137.353 169.348 137.422 169.744 137.422ZM177.244 138.301V137.603C177.468 137.077 177.778 136.604 178.174 136.181C178.579 135.759 179.01 135.35 179.467 134.954C179.811 134.652 180.095 134.398 180.319 134.191C180.552 133.976 180.733 133.782 180.862 133.61C180.991 133.437 181.082 133.261 181.134 133.08C181.185 132.89 181.211 132.671 181.211 132.421C181.211 131.973 181.082 131.632 180.823 131.4C180.565 131.167 180.134 131.051 179.531 131.051C179.204 131.051 178.868 131.085 178.523 131.154C178.187 131.223 177.864 131.318 177.554 131.439V130.198C177.855 130.095 178.213 130.013 178.627 129.952C179.04 129.884 179.432 129.849 179.803 129.849C180.733 129.849 181.435 130.077 181.909 130.534C182.383 130.991 182.62 131.615 182.62 132.408C182.62 132.804 182.551 133.157 182.413 133.468C182.275 133.769 182.086 134.058 181.844 134.333C181.603 134.6 181.323 134.876 181.004 135.16C180.608 135.505 180.233 135.841 179.88 136.168C179.535 136.487 179.255 136.836 179.04 137.215H182.71V138.301H177.244ZM187.722 138.301V136.479H183.56V135.484L187.89 129.978H189.117V135.341H189.97V136.479H189.117V138.301H187.722ZM184.93 135.38H187.941V131.581L184.93 135.38ZM190.836 135.367V134.269H195.772V135.367H190.836ZM197.139 138.301V129.978H198.548V133.597H202.554V129.978H203.963V138.301H202.554V134.682H198.548V138.301H197.139ZM208.528 138.43C207.426 138.43 206.616 138.154 206.099 137.603C205.59 137.052 205.336 136.263 205.336 135.238C205.336 134.213 205.595 133.424 206.112 132.873C206.629 132.322 207.434 132.046 208.528 132.046C209.631 132.046 210.441 132.322 210.958 132.873C211.475 133.424 211.733 134.213 211.733 135.238C211.733 136.263 211.475 137.052 210.958 137.603C210.45 138.154 209.64 138.43 208.528 138.43ZM208.528 137.241C209.174 137.241 209.631 137.086 209.898 136.776C210.174 136.457 210.312 135.944 210.312 135.238C210.312 134.532 210.174 134.023 209.898 133.713C209.631 133.403 209.174 133.248 208.528 133.248C207.891 133.248 207.434 133.403 207.158 133.713C206.891 134.023 206.758 134.532 206.758 135.238C206.758 135.944 206.891 136.457 207.158 136.776C207.434 137.086 207.891 137.241 208.528 137.241ZM215.314 138.43C214.581 138.43 214.017 138.228 213.621 137.823C213.233 137.418 213.039 136.823 213.039 136.039V132.175H214.448V136.039C214.448 136.496 214.56 136.832 214.784 137.047C215.008 137.263 215.352 137.37 215.818 137.37C216.162 137.37 216.481 137.306 216.774 137.176C217.067 137.047 217.321 136.875 217.536 136.66V132.175H218.932V138.301H217.653L217.588 137.668C217.312 137.883 216.985 138.064 216.606 138.21C216.227 138.357 215.796 138.43 215.314 138.43ZM220.575 138.301V132.175H221.867L221.945 132.886C222.238 132.696 222.587 132.524 222.992 132.369C223.396 132.214 223.797 132.106 224.193 132.046V133.119C223.952 133.162 223.689 133.226 223.405 133.312C223.129 133.39 222.867 133.48 222.617 133.584C222.367 133.679 222.156 133.778 221.984 133.881V138.301H220.575Z" fill="white"/>
<rect x="60.1795" y="188.372" width="222.205" height="38.4102" rx="4.1282" fill="url(#paint12_linear_1592_472)" stroke="url(#paint13_linear_1592_472)" stroke-width="0.358974"/>
<rect x="67.9492" y="196.278" width="22.9629" height="22.9629" rx="2.64957" fill="url(#paint14_linear_1592_472)"/>
<path d="M83.7094 203.614H75.1481C74.5852 203.614 74.1289 204.071 74.1289 204.633V210.749C74.1289 211.312 74.5852 211.768 75.1481 211.768H83.7094C84.2723 211.768 84.7286 211.312 84.7286 210.749V204.633C84.7286 204.071 84.2723 203.614 83.7094 203.614Z" stroke="white" stroke-width="0.88319" stroke-linecap="round" stroke-linejoin="round"/>
<path d="M75.7578 205.245L79.4269 208.099L83.096 205.245" stroke="white" stroke-width="0.88319" stroke-linecap="round" stroke-linejoin="round"/>
<path d="M122.987 212.397V205.173H120.325V204.075H127.045V205.173H124.395V212.397H122.987ZM127.076 212.397V206.272H128.368L128.445 206.983C128.738 206.793 129.087 206.621 129.492 206.466C129.897 206.311 130.298 206.203 130.694 206.143V207.215C130.453 207.258 130.19 207.323 129.906 207.409C129.63 207.487 129.367 207.577 129.117 207.681C128.868 207.775 128.657 207.874 128.484 207.978V212.397H127.076ZM133.241 212.527C132.854 212.527 132.492 212.458 132.156 212.32C131.828 212.182 131.566 211.975 131.367 211.7C131.169 211.415 131.07 211.066 131.07 210.653C131.07 210.067 131.268 209.597 131.665 209.244C132.07 208.882 132.69 208.701 133.526 208.701H135.49V208.43C135.49 208.137 135.442 207.905 135.348 207.732C135.262 207.56 135.098 207.435 134.857 207.357C134.624 207.28 134.279 207.241 133.823 207.241C133.099 207.241 132.423 207.349 131.794 207.564V206.517C132.07 206.405 132.406 206.315 132.802 206.246C133.198 206.177 133.625 206.143 134.081 206.143C134.977 206.143 135.658 206.324 136.123 206.685C136.597 207.047 136.834 207.637 136.834 208.456V212.397H135.632L135.542 211.777C135.292 212.018 134.982 212.204 134.611 212.333C134.249 212.462 133.793 212.527 133.241 212.527ZM133.616 211.519C134.038 211.519 134.404 211.45 134.714 211.312C135.033 211.165 135.292 210.972 135.49 210.73V209.658H133.551C133.138 209.658 132.836 209.74 132.647 209.903C132.466 210.058 132.375 210.3 132.375 210.627C132.375 210.946 132.483 211.174 132.698 211.312C132.914 211.45 133.22 211.519 133.616 211.519ZM138.396 212.397V206.272H139.688L139.753 206.918C140.029 206.703 140.356 206.522 140.735 206.375C141.123 206.22 141.549 206.143 142.014 206.143C142.807 206.143 143.384 206.328 143.746 206.698C144.108 207.069 144.289 207.646 144.289 208.43V212.397H142.893V208.495C142.893 208.021 142.794 207.689 142.596 207.5C142.406 207.31 142.045 207.215 141.51 207.215C141.192 207.215 140.877 207.28 140.567 207.409C140.265 207.538 140.011 207.706 139.805 207.913V212.397H138.396ZM147.909 212.527C147.487 212.527 147.082 212.497 146.694 212.436C146.315 212.376 146.001 212.303 145.751 212.217V211.028C146.044 211.14 146.367 211.226 146.72 211.286C147.073 211.346 147.409 211.377 147.728 211.377C148.21 211.377 148.555 211.333 148.762 211.247C148.969 211.161 149.072 210.993 149.072 210.743C149.072 210.562 149.007 210.42 148.878 210.317C148.758 210.213 148.572 210.119 148.322 210.033C148.081 209.946 147.771 209.843 147.392 209.722C147.03 209.602 146.716 209.473 146.449 209.335C146.182 209.188 145.975 209.003 145.828 208.779C145.682 208.555 145.609 208.262 145.609 207.9C145.609 207.34 145.811 206.909 146.216 206.608C146.621 206.298 147.271 206.143 148.167 206.143C148.521 206.143 148.857 206.169 149.175 206.22C149.494 206.272 149.766 206.337 149.99 206.414V207.59C149.748 207.495 149.481 207.422 149.188 207.37C148.904 207.319 148.637 207.293 148.387 207.293C147.939 207.293 147.599 207.332 147.366 207.409C147.142 207.487 147.03 207.642 147.03 207.874C147.03 208.116 147.146 208.288 147.379 208.391C147.62 208.486 148.004 208.62 148.529 208.792C149.012 208.938 149.395 209.093 149.679 209.257C149.964 209.421 150.166 209.619 150.287 209.852C150.416 210.076 150.481 210.369 150.481 210.73C150.481 211.333 150.261 211.786 149.822 212.087C149.382 212.38 148.745 212.527 147.909 212.527ZM151.862 212.397V206.272H153.154L153.219 206.918C153.52 206.677 153.852 206.487 154.214 206.349C154.575 206.212 154.963 206.143 155.377 206.143C155.816 206.143 156.156 206.216 156.398 206.362C156.647 206.5 156.837 206.694 156.966 206.944C157.251 206.711 157.578 206.522 157.948 206.375C158.319 206.22 158.763 206.143 159.279 206.143C159.986 206.143 160.507 206.324 160.843 206.685C161.179 207.047 161.347 207.603 161.347 208.353V212.397H159.964V208.495C159.964 208.021 159.865 207.689 159.667 207.5C159.469 207.31 159.146 207.215 158.698 207.215C158.405 207.215 158.125 207.267 157.858 207.37C157.599 207.474 157.375 207.629 157.186 207.836C157.212 207.93 157.229 208.029 157.238 208.133C157.246 208.236 157.251 208.348 157.251 208.469V212.397H155.945V208.508C155.945 208.06 155.868 207.732 155.713 207.525C155.558 207.319 155.265 207.215 154.834 207.215C154.532 207.215 154.244 207.289 153.968 207.435C153.701 207.573 153.46 207.741 153.244 207.939V212.397H151.862ZM163.446 204.993V203.829H164.984V204.993H163.446ZM163.563 212.397V207.345H162.632L162.762 206.272H164.971V212.397H163.563ZM168.954 212.527C168.299 212.527 167.808 212.354 167.48 212.01C167.162 211.657 167.002 211.178 167.002 210.575V207.37H166.098V206.272H167.002V204.863L168.398 204.437V206.272H170.026L169.936 207.37H168.398V210.498C168.398 210.851 168.48 211.101 168.644 211.247C168.807 211.385 169.074 211.454 169.445 211.454C169.677 211.454 169.923 211.411 170.181 211.325V212.32C169.845 212.458 169.436 212.527 168.954 212.527ZM176.15 212.527C175.762 212.527 175.4 212.458 175.064 212.32C174.737 212.182 174.474 211.975 174.276 211.7C174.078 211.415 173.979 211.066 173.979 210.653C173.979 210.067 174.177 209.597 174.573 209.244C174.978 208.882 175.598 208.701 176.434 208.701H178.398V208.43C178.398 208.137 178.351 207.905 178.256 207.732C178.17 207.56 178.006 207.435 177.765 207.357C177.533 207.28 177.188 207.241 176.731 207.241C176.008 207.241 175.331 207.349 174.702 207.564V206.517C174.978 206.405 175.314 206.315 175.71 206.246C176.107 206.177 176.533 206.143 176.99 206.143C177.886 206.143 178.566 206.324 179.032 206.685C179.506 207.047 179.742 207.637 179.742 208.456V212.397H178.541L178.45 211.777C178.2 212.018 177.89 212.204 177.52 212.333C177.158 212.462 176.701 212.527 176.15 212.527ZM176.525 211.519C176.947 211.519 177.313 211.45 177.623 211.312C177.942 211.165 178.2 210.972 178.398 210.73V209.658H176.46C176.046 209.658 175.745 209.74 175.555 209.903C175.374 210.058 175.284 210.3 175.284 210.627C175.284 210.946 175.392 211.174 175.607 211.312C175.822 211.45 176.128 211.519 176.525 211.519ZM181.305 212.397V206.272H182.597L182.661 206.918C182.937 206.703 183.265 206.522 183.644 206.375C184.031 206.22 184.458 206.143 184.923 206.143C185.716 206.143 186.293 206.328 186.655 206.698C187.017 207.069 187.197 207.646 187.197 208.43V212.397H185.802V208.495C185.802 208.021 185.703 207.689 185.505 207.5C185.315 207.31 184.953 207.215 184.419 207.215C184.1 207.215 183.786 207.28 183.476 207.409C183.174 207.538 182.92 207.706 182.713 207.913V212.397H181.305ZM191.754 212.397V204.075H197.556V205.173H193.163V207.693H197.078V208.779H193.163V211.312H197.556V212.397H191.754ZM198.859 212.397V206.272H200.151L200.216 206.918C200.518 206.677 200.849 206.487 201.211 206.349C201.573 206.212 201.961 206.143 202.374 206.143C202.814 206.143 203.154 206.216 203.395 206.362C203.645 206.5 203.835 206.694 203.964 206.944C204.248 206.711 204.575 206.522 204.946 206.375C205.316 206.22 205.76 206.143 206.277 206.143C206.983 206.143 207.505 206.324 207.841 206.685C208.177 207.047 208.345 207.603 208.345 208.353V212.397H206.962V208.495C206.962 208.021 206.863 207.689 206.665 207.5C206.467 207.31 206.143 207.215 205.695 207.215C205.403 207.215 205.123 207.267 204.855 207.37C204.597 207.474 204.373 207.629 204.183 207.836C204.209 207.93 204.227 208.029 204.235 208.133C204.244 208.236 204.248 208.348 204.248 208.469V212.397H202.943V208.508C202.943 208.06 202.865 207.732 202.71 207.525C202.555 207.319 202.262 207.215 201.831 207.215C201.53 207.215 201.241 207.289 200.966 207.435C200.699 207.573 200.457 207.741 200.242 207.939V212.397H198.859ZM211.65 212.527C211.263 212.527 210.901 212.458 210.565 212.32C210.237 212.182 209.975 211.975 209.777 211.7C209.578 211.415 209.479 211.066 209.479 210.653C209.479 210.067 209.677 209.597 210.074 209.244C210.479 208.882 211.099 208.701 211.935 208.701H213.899V208.43C213.899 208.137 213.852 207.905 213.757 207.732C213.671 207.56 213.507 207.435 213.266 207.357C213.033 207.28 212.689 207.241 212.232 207.241C211.508 207.241 210.832 207.349 210.203 207.564V206.517C210.479 206.405 210.815 206.315 211.211 206.246C211.607 206.177 212.034 206.143 212.49 206.143C213.386 206.143 214.067 206.324 214.532 206.685C215.006 207.047 215.243 207.637 215.243 208.456V212.397H214.041L213.951 211.777C213.701 212.018 213.391 212.204 213.02 212.333C212.658 212.462 212.202 212.527 211.65 212.527ZM212.025 211.519C212.447 211.519 212.813 211.45 213.124 211.312C213.442 211.165 213.701 210.972 213.899 210.73V209.658H211.961C211.547 209.658 211.245 209.74 211.056 209.903C210.875 210.058 210.785 210.3 210.785 210.627C210.785 210.946 210.892 211.174 211.108 211.312C211.323 211.45 211.629 211.519 212.025 211.519ZM217.322 204.993V203.829H218.86V204.993H217.322ZM217.438 212.397V207.345H216.508L216.637 206.272H218.847V212.397H217.438ZM222.015 212.527C221.515 212.527 221.136 212.406 220.878 212.165C220.619 211.915 220.49 211.506 220.49 210.937V203.687H221.899V210.808C221.899 211.049 221.942 211.213 222.028 211.299C222.114 211.385 222.243 211.428 222.416 211.428C222.622 211.428 222.821 211.402 223.01 211.351V212.372C222.846 212.432 222.687 212.471 222.532 212.488C222.386 212.514 222.213 212.527 222.015 212.527Z" fill="white"/>
<rect x="112.289" y="243.267" width="117.988" height="38.5014" rx="4.1282" fill="white" stroke="url(#paint15_linear_1592_472)" stroke-width="0.358974"/>
<g filter="url(#filter2_di_1592_472)">
<rect x="123.592" y="250.153" width="26.4957" height="26.4957" rx="5.29914" fill="#6327F4"/>
</g>
<path d="M142.139 263.401C142.139 260.475 139.766 258.102 136.84 258.102C133.915 258.102 131.541 260.475 131.541 263.401C131.541 266.326 133.915 268.7 136.84 268.7C139.766 268.7 142.139 266.326 142.139 263.401Z" stroke="white" stroke-width="0.88319" stroke-miterlimit="10"/>
<path d="M139.491 261.192L135.781 265.608L134.191 263.842" stroke="white" stroke-width="0.88319" stroke-linecap="round" stroke-linejoin="round"/>
<g filter="url(#filter3_di_1592_472)">
<rect x="158.035" y="250.153" width="26.4957" height="26.4957" rx="5.29914" fill="#E98B34"/>
</g>
<path d="M171.284 258.102C168.358 258.102 165.984 260.475 165.984 263.401C165.984 266.326 168.358 268.7 171.284 268.7C174.209 268.7 176.583 266.326 176.583 263.401C176.583 260.475 174.209 258.102 171.284 258.102Z" stroke="white" stroke-width="0.88319" stroke-miterlimit="10"/>
<path d="M171.283 259.868V263.843H173.933" stroke="white" stroke-width="0.88319" stroke-linecap="round" stroke-linejoin="round"/>
<rect x="192.48" y="250.153" width="26.4957" height="26.4957" rx="2.64957" fill="url(#paint16_linear_1592_472)"/>
<path d="M210.01 258.985H201.449C200.886 258.985 200.43 259.442 200.43 260.005V266.12C200.43 266.683 200.886 267.139 201.449 267.139H210.01C210.573 267.139 211.029 266.683 211.029 266.12V260.005C211.029 259.442 210.573 258.985 210.01 258.985Z" stroke="white" stroke-width="0.88319" stroke-linecap="round" stroke-linejoin="round"/>
<path d="M202.061 260.616L205.73 263.47L209.399 260.616" stroke="white" stroke-width="0.88319" stroke-linecap="round" stroke-linejoin="round"/>
</g>
<defs>
<filter id="filter0_di_1592_472" x="60.8837" y="42.6042" width="37.0939" height="37.0939" filterUnits="userSpaceOnUse" color-interpolation-filters="sRGB">
<feFlood flood-opacity="0" result="BackgroundImageFix"/>
<feColorMatrix in="SourceAlpha" type="matrix" values="0 0 0 0 0 0 0 0 0 0 0 0 0 0 0 0 0 0 127 0" result="hardAlpha"/>
<feOffset dy="1.76638"/>
<feGaussianBlur stdDeviation="3.53276"/>
<feComposite in2="hardAlpha" operator="out"/>
<feColorMatrix type="matrix" values="0 0 0 0 0.011059 0 0 0 0 0.0303698 0 0 0 0 0.204167 0 0 0 0.4 0"/>
<feBlend mode="normal" in2="BackgroundImageFix" result="effect1_dropShadow_1592_472"/>
<feBlend mode="normal" in="SourceGraphic" in2="effect1_dropShadow_1592_472" result="shape"/>
<feColorMatrix in="SourceAlpha" type="matrix" values="0 0 0 0 0 0 0 0 0 0 0 0 0 0 0 0 0 0 127 0" result="hardAlpha"/>
<feOffset dy="-1.76638"/>
<feGaussianBlur stdDeviation="5.29914"/>
<feComposite in2="hardAlpha" operator="arithmetic" k2="-1" k3="1"/>
<feColorMatrix type="matrix" values="0 0 0 0 0.107992 0 0 0 0 0.0190799 0 0 0 0 0.654167 0 0 0 0.47 0"/>
<feBlend mode="normal" in2="shape" result="effect2_innerShadow_1592_472"/>
</filter>
<filter id="filter1_di_1592_472" x="60.8837" y="116.791" width="37.0939" height="37.0939" filterUnits="userSpaceOnUse" color-interpolation-filters="sRGB">
<feFlood flood-opacity="0" result="BackgroundImageFix"/>
<feColorMatrix in="SourceAlpha" type="matrix" values="0 0 0 0 0 0 0 0 0 0 0 0 0 0 0 0 0 0 127 0" result="hardAlpha"/>
<feOffset dy="1.76638"/>
<feGaussianBlur stdDeviation="3.53276"/>
<feComposite in2="hardAlpha" operator="out"/>
<feColorMatrix type="matrix" values="0 0 0 0 0.011059 0 0 0 0 0.0303698 0 0 0 0 0.204167 0 0 0 0.4 0"/>
<feBlend mode="normal" in2="BackgroundImageFix" result="effect1_dropShadow_1592_472"/>
<feBlend mode="normal" in="SourceGraphic" in2="effect1_dropShadow_1592_472" result="shape"/>
<feColorMatrix in="SourceAlpha" type="matrix" values="0 0 0 0 0 0 0 0 0 0 0 0 0 0 0 0 0 0 127 0" result="hardAlpha"/>
<feOffset dy="-1.76638"/>
<feGaussianBlur stdDeviation="5.29914"/>
<feComposite in2="hardAlpha" operator="arithmetic" k2="-1" k3="1"/>
<feColorMatrix type="matrix" values="0 0 0 0 0.107992 0 0 0 0 0.0190799 0 0 0 0 0.654167 0 0 0 0.47 0"/>
<feBlend mode="normal" in2="shape" result="effect2_innerShadow_1592_472"/>
</filter>
<filter id="filter2_di_1592_472" x="116.526" y="244.854" width="40.6271" height="40.6266" filterUnits="userSpaceOnUse" color-interpolation-filters="sRGB">
<feFlood flood-opacity="0" result="BackgroundImageFix"/>
<feColorMatrix in="SourceAlpha" type="matrix" values="0 0 0 0 0 0 0 0 0 0 0 0 0 0 0 0 0 0 127 0" result="hardAlpha"/>
<feOffset dy="1.76638"/>
<feGaussianBlur stdDeviation="3.53276"/>
<feComposite in2="hardAlpha" operator="out"/>
<feColorMatrix type="matrix" values="0 0 0 0 0.011059 0 0 0 0 0.0303698 0 0 0 0 0.204167 0 0 0 0.4 0"/>
<feBlend mode="normal" in2="BackgroundImageFix" result="effect1_dropShadow_1592_472"/>
<feBlend mode="normal" in="SourceGraphic" in2="effect1_dropShadow_1592_472" result="shape"/>
<feColorMatrix in="SourceAlpha" type="matrix" values="0 0 0 0 0 0 0 0 0 0 0 0 0 0 0 0 0 0 127 0" result="hardAlpha"/>
<feOffset dy="-1.76638"/>
<feGaussianBlur stdDeviation="5.29914"/>
<feComposite in2="hardAlpha" operator="arithmetic" k2="-1" k3="1"/>
<feColorMatrix type="matrix" values="0 0 0 0 0.107992 0 0 0 0 0.0190799 0 0 0 0 0.654167 0 0 0 0.47 0"/>
<feBlend mode="normal" in2="shape" result="effect2_innerShadow_1592_472"/>
</filter>
<filter id="filter3_di_1592_472" x="150.97" y="244.854" width="40.6271" height="40.6266" filterUnits="userSpaceOnUse" color-interpolation-filters="sRGB">
<feFlood flood-opacity="0" result="BackgroundImageFix"/>
<feColorMatrix in="SourceAlpha" type="matrix" values="0 0 0 0 0 0 0 0 0 0 0 0 0 0 0 0 0 0 127 0" result="hardAlpha"/>
<feOffset dy="1.76638"/>
<feGaussianBlur stdDeviation="3.53276"/>
<feComposite in2="hardAlpha" operator="out"/>
<feColorMatrix type="matrix" values="0 0 0 0 0.011059 0 0 0 0 0.0303698 0 0 0 0 0.204167 0 0 0 0.4 0"/>
<feBlend mode="normal" in2="BackgroundImageFix" result="effect1_dropShadow_1592_472"/>
<feBlend mode="normal" in="SourceGraphic" in2="effect1_dropShadow_1592_472" result="shape"/>
<feColorMatrix in="SourceAlpha" type="matrix" values="0 0 0 0 0 0 0 0 0 0 0 0 0 0 0 0 0 0 127 0" result="hardAlpha"/>
<feOffset dy="-1.76638"/>
<feGaussianBlur stdDeviation="5.29914"/>
<feComposite in2="hardAlpha" operator="arithmetic" k2="-1" k3="1"/>
<feColorMatrix type="matrix" values="0 0 0 0 0.107992 0 0 0 0 0.0190799 0 0 0 0 0.654167 0 0 0 0.47 0"/>
<feBlend mode="normal" in2="shape" result="effect2_innerShadow_1592_472"/>
</filter>
<linearGradient id="paint0_linear_1592_472" x1="250.558" y1="66.9492" x2="251.793" y2="232.481" gradientUnits="userSpaceOnUse">
<stop stop-color="#383838"/>
<stop offset="1" stop-color="#FFAC2F"/>
</linearGradient>
<linearGradient id="paint1_linear_1592_472" x1="124.178" y1="268.364" x2="190.805" y2="220.835" gradientUnits="userSpaceOnUse">
<stop stop-color="#383838"/>
<stop offset="1" stop-opacity="0"/>
</linearGradient>
<radialGradient id="paint2_radial_1592_472" cx="0" cy="0" r="1" gradientUnits="userSpaceOnUse" gradientTransform="translate(40.0041 176.097) rotate(67.0151) scale(242.675 60.3223)">
<stop stop-color="#868686"/>
<stop offset="1" stop-opacity="0"/>
</radialGradient>
<linearGradient id="paint3_linear_1592_472" x1="82.5866" y1="190.938" x2="-8.25658" y2="48.7739" gradientUnits="userSpaceOnUse">
<stop stop-color="#383838"/>
<stop offset="1" stop-opacity="0"/>
</linearGradient>
<linearGradient id="paint4_linear_1592_472" x1="256.482" y1="277.29" x2="176.007" y2="181.055" gradientUnits="userSpaceOnUse">
<stop stop-color="#383838"/>
<stop offset="1" stop-opacity="0"/>
</linearGradient>
<linearGradient id="paint5_linear_1592_472" x1="-2.97817" y1="134.914" x2="64.1467" y2="107.679" gradientUnits="userSpaceOnUse">
<stop stop-color="#383838"/>
<stop offset="1" stop-opacity="0"/>
</linearGradient>
<linearGradient id="paint6_linear_1592_472" x1="177.705" y1="109.772" x2="159.333" y2="87.1428" gradientUnits="userSpaceOnUse">
<stop stop-color="white"/>
<stop offset="0.409948" stop-color="white" stop-opacity="0"/>
<stop offset="1" stop-color="#FF9F9F" stop-opacity="0"/>
</linearGradient>
<linearGradient id="paint7_linear_1592_472" x1="177.705" y1="183.96" x2="159.333" y2="161.331" gradientUnits="userSpaceOnUse">
<stop stop-color="white"/>
<stop offset="0.409948" stop-color="white" stop-opacity="0"/>
<stop offset="1" stop-color="#FF9F9F" stop-opacity="0"/>
</linearGradient>
<linearGradient id="paint8_linear_1592_472" x1="78.0125" y1="22.0513" x2="186.756" y2="210.372" gradientUnits="userSpaceOnUse">
<stop stop-color="#383C45"/>
<stop offset="0.514765" stop-color="#14161A"/>
<stop offset="1" stop-color="#12151C"/>
</linearGradient>
<linearGradient id="paint9_linear_1592_472" x1="238.422" y1="85.0852" x2="228.769" y2="12.8091" gradientUnits="userSpaceOnUse">
<stop stop-color="white"/>
<stop offset="0.409948" stop-color="white" stop-opacity="0"/>
<stop offset="1" stop-color="#FF9F9F" stop-opacity="0"/>
</linearGradient>
<linearGradient id="paint10_linear_1592_472" x1="78.0125" y1="96.147" x2="186.756" y2="284.467" gradientUnits="userSpaceOnUse">
<stop stop-color="#383C45"/>
<stop offset="0.514765" stop-color="#14161A"/>
<stop offset="1" stop-color="#12151C"/>
</linearGradient>
<linearGradient id="paint11_linear_1592_472" x1="238.422" y1="159.181" x2="228.769" y2="86.9048" gradientUnits="userSpaceOnUse">
<stop stop-color="white"/>
<stop offset="0.409948" stop-color="white" stop-opacity="0"/>
<stop offset="1" stop-color="#FF9F9F" stop-opacity="0"/>
</linearGradient>
<linearGradient id="paint12_linear_1592_472" x1="78.0125" y1="170.244" x2="186.756" y2="358.564" gradientUnits="userSpaceOnUse">
<stop stop-color="#383C45"/>
<stop offset="0.514765" stop-color="#14161A"/>
<stop offset="1" stop-color="#12151C"/>
</linearGradient>
<linearGradient id="paint13_linear_1592_472" x1="238.422" y1="233.278" x2="228.769" y2="161.001" gradientUnits="userSpaceOnUse">
<stop stop-color="white"/>
<stop offset="0.409948" stop-color="white" stop-opacity="0"/>
<stop offset="1" stop-color="#FF9F9F" stop-opacity="0"/>
</linearGradient>
<linearGradient id="paint14_linear_1592_472" x1="90.2932" y1="221.202" x2="60.4576" y2="215.973" gradientUnits="userSpaceOnUse">
<stop stop-color="#5008EA"/>
<stop offset="0.856878" stop-color="#FF9D4E"/>
<stop offset="1"/>
</linearGradient>
<linearGradient id="paint15_linear_1592_472" x1="206.985" y1="288.279" x2="189.527" y2="218.936" gradientUnits="userSpaceOnUse">
<stop stop-color="white"/>
<stop offset="0.409948" stop-color="white" stop-opacity="0"/>
<stop offset="1" stop-color="#FF9F9F" stop-opacity="0"/>
</linearGradient>
<linearGradient id="paint16_linear_1592_472" x1="218.262" y1="278.912" x2="183.836" y2="272.878" gradientUnits="userSpaceOnUse">
<stop stop-color="#5008EA"/>
<stop offset="0.856878" stop-color="#FF9D4E"/>
<stop offset="1"/>
</linearGradient>
</defs>
</svg>
