<svg width="95" height="23" viewBox="0 0 95 23" fill="none" xmlns="http://www.w3.org/2000/svg">
<path d="M28.9525 18.6133V5.73328H34.3525C36.2858 5.73328 37.7392 6.23328 38.7125 7.23328C39.6992 8.21995 40.1925 9.88661 40.1925 12.2333C40.1925 14.4466 39.7058 16.0666 38.7325 17.0933C37.7725 18.1066 36.3125 18.6133 34.3525 18.6133H28.9525ZM31.6525 16.5333H33.9725C34.7325 16.5333 35.3725 16.4199 35.8925 16.1933C36.4125 15.9533 36.7992 15.5266 37.0525 14.9133C37.3192 14.2866 37.4525 13.3933 37.4525 12.2333C37.4525 11.0733 37.3325 10.1866 37.0925 9.57328C36.8525 8.95995 36.4792 8.53995 35.9725 8.31328C35.4658 8.08661 34.7992 7.97328 33.9725 7.97328H31.6525V16.5333ZM47.0175 18.8133C45.3775 18.8133 44.0775 18.4066 43.1175 17.5933C42.1575 16.7666 41.6775 15.5199 41.6775 13.8533C41.6775 12.3466 42.0775 11.1533 42.8775 10.2733C43.6908 9.37995 44.8975 8.93328 46.4975 8.93328C47.9642 8.93328 49.0842 9.31995 49.8575 10.0933C50.6442 10.8533 51.0375 11.8533 51.0375 13.0933V14.8133H44.1775C44.3242 15.5733 44.6708 16.0933 45.2175 16.3733C45.7775 16.6533 46.5642 16.7933 47.5775 16.7933C48.0842 16.7933 48.5975 16.7466 49.1175 16.6533C49.6508 16.5599 50.1042 16.4399 50.4775 16.2933V18.2133C50.0375 18.4133 49.5242 18.5599 48.9375 18.6533C48.3508 18.7599 47.7108 18.8133 47.0175 18.8133ZM44.1775 13.1533H48.6775V12.6333C48.6775 12.0866 48.5175 11.6599 48.1975 11.3533C47.8775 11.0333 47.3375 10.8733 46.5775 10.8733C45.6842 10.8733 45.0575 11.0533 44.6975 11.4133C44.3508 11.7733 44.1775 12.3533 44.1775 13.1533ZM52.9173 18.6133V5.73328H61.9773V7.83328H55.6173V11.1333H61.2373V13.2133H55.6173V18.6133H52.9173ZM66.1042 18.8133C65.1842 18.8133 64.5109 18.5999 64.0842 18.1733C63.6709 17.7466 63.4642 17.0666 63.4642 16.1333V5.13328H66.1642V15.9133C66.1642 16.2466 66.2309 16.4799 66.3642 16.6133C66.4976 16.7333 66.6909 16.7933 66.9442 16.7933C67.2909 16.7933 67.6042 16.7466 67.8842 16.6533V18.5133C67.3776 18.7133 66.7842 18.8133 66.1042 18.8133ZM74.1612 18.8133C72.3879 18.8133 71.0879 18.3866 70.2613 17.5333C69.4346 16.6666 69.0213 15.4466 69.0213 13.8733C69.0213 12.2999 69.4346 11.0866 70.2613 10.2333C71.1013 9.36661 72.4013 8.93328 74.1612 8.93328C75.9346 8.93328 77.2346 9.36661 78.0613 10.2333C78.9013 11.0866 79.3213 12.2999 79.3213 13.8733C79.3213 15.4466 78.9079 16.6666 78.0813 17.5333C77.2546 18.3866 75.9479 18.8133 74.1612 18.8133ZM74.1612 16.5133C75.0279 16.5133 75.6479 16.3199 76.0213 15.9333C76.3946 15.5333 76.5813 14.8466 76.5813 13.8733C76.5813 12.8999 76.3946 12.2199 76.0213 11.8333C75.6479 11.4333 75.0279 11.2333 74.1612 11.2333C73.3079 11.2333 72.6946 11.4333 72.3213 11.8333C71.9479 12.2199 71.7613 12.8999 71.7613 13.8733C71.7613 14.8466 71.9479 15.5333 72.3213 15.9333C72.6946 16.3199 73.3079 16.5133 74.1612 16.5133ZM82.4002 18.6133L79.9002 9.13328H82.6002L84.0402 15.2933L85.6202 10.3533V9.13328H87.6802L89.4802 15.2933L90.8802 9.13328H93.5602L91.0802 18.6133H88.6002L86.7802 13.0733L84.9202 18.6133H82.4002Z" fill="white"/>
<rect x="12.2285" y="0.613281" width="4.0662" height="22.2508" rx="2.0331" fill="url(#paint0_linear_1125_3324)"/>
<rect x="6.50391" y="6.05713" width="4.0662" height="14.0187" rx="2.0331" fill="url(#paint1_linear_1125_3324)"/>
<rect x="0.578125" y="6.47607" width="4.0662" height="7.52311" rx="2.0331" fill="url(#paint2_linear_1125_3324)"/>
<rect x="17.9531" y="12.7334" width="4.0662" height="7.52311" rx="2.0331" fill="url(#paint3_linear_1125_3324)"/>
<defs>
<linearGradient id="paint0_linear_1125_3324" x1="14.2616" y1="0.613281" x2="14.2616" y2="22.8641" gradientUnits="userSpaceOnUse">
<stop stop-color="#FFE194"/>
<stop offset="1" stop-color="#CE6300"/>
</linearGradient>
<linearGradient id="paint1_linear_1125_3324" x1="8.53701" y1="6.05713" x2="8.53701" y2="20.0758" gradientUnits="userSpaceOnUse">
<stop stop-color="#FFE194"/>
<stop offset="1" stop-color="#CE6300"/>
</linearGradient>
<linearGradient id="paint2_linear_1125_3324" x1="2.61122" y1="6.47607" x2="2.61122" y2="13.9992" gradientUnits="userSpaceOnUse">
<stop stop-color="#FFE194"/>
<stop offset="1" stop-color="#CE6300"/>
</linearGradient>
<linearGradient id="paint3_linear_1125_3324" x1="19.9862" y1="12.7334" x2="19.9862" y2="20.2565" gradientUnits="userSpaceOnUse">
<stop stop-color="#FFE194"/>
<stop offset="1" stop-color="#CE6300"/>
</linearGradient>
</defs>
</svg>
