<svg width="40" height="41" viewBox="0 0 40 41" fill="none" xmlns="http://www.w3.org/2000/svg">
<g filter="url(#filter0_f_569_69)">
<path d="M18.8625 5.80575L14.3761 10.2922C13.8877 10.7806 13.8877 11.5724 14.3761 12.0608L18.8625 16.5472C19.3509 17.0356 20.1427 17.0356 20.6311 16.5472L25.1176 12.0608C25.6059 11.5724 25.6059 10.7806 25.1176 10.2922L20.6311 5.80575C20.1427 5.31736 19.3509 5.31736 18.8625 5.80575Z" stroke="#FF166A" stroke-width="1.54514" stroke-linecap="round" stroke-linejoin="round"/>
<path d="M28.0402 14.9854L23.5538 19.4719C23.0654 19.9603 23.0654 20.7521 23.5538 21.2405L28.0402 25.7269C28.5286 26.2153 29.3205 26.2153 29.8088 25.7269L34.2953 21.2405C34.7837 20.7521 34.7837 19.9603 34.2953 19.4719L29.8088 14.9854C29.3205 14.497 28.5286 14.497 28.0402 14.9854Z" stroke="#FF166A" stroke-width="1.54514" stroke-linecap="round" stroke-linejoin="round"/>
<path d="M9.68281 14.9854L5.19637 19.4719C4.70798 19.9603 4.70798 20.7521 5.19637 21.2405L9.68281 25.7269C10.1712 26.2153 10.963 26.2153 11.4514 25.7269L15.9379 21.2405C16.4263 20.7521 16.4263 19.9603 15.9379 19.4719L11.4514 14.9854C10.963 14.497 10.1712 14.497 9.68281 14.9854Z" stroke="#FF166A" stroke-width="1.54514" stroke-linecap="round" stroke-linejoin="round"/>
<path d="M18.8625 24.1651L14.3761 28.6516C13.8877 29.1399 13.8877 29.9318 14.3761 30.4202L18.8625 34.9066C19.3509 35.395 20.1427 35.395 20.6311 34.9066L25.1175 30.4202C25.6059 29.9318 25.6059 29.1399 25.1175 28.6516L20.6311 24.1651C20.1427 23.6767 19.3509 23.6767 18.8625 24.1651Z" stroke="#FF166A" stroke-width="1.54514" stroke-linecap="round" stroke-linejoin="round"/>
</g>
<path d="M18.8629 5.80504L14.3765 10.2915C13.8881 10.7799 13.8881 11.5717 14.3765 12.0601L18.8629 16.5465C19.3513 17.0349 20.1432 17.0349 20.6315 16.5465L25.118 12.0601C25.6064 11.5717 25.6064 10.7799 25.118 10.2915L20.6315 5.80504C20.1432 5.31665 19.3513 5.31665 18.8629 5.80504Z" stroke="#FF2976" stroke-width="1.72101" stroke-linecap="round" stroke-linejoin="round"/>
<path d="M28.0407 14.9847L23.5542 19.4712C23.0658 19.9596 23.0658 20.7514 23.5542 21.2398L28.0407 25.7262C28.5291 26.2146 29.3209 26.2146 29.8093 25.7262L34.2957 21.2398C34.7841 20.7514 34.7841 19.9596 34.2957 19.4712L29.8093 14.9847C29.3209 14.4963 28.5291 14.4963 28.0407 14.9847Z" stroke="#FF2976" stroke-width="1.72101" stroke-linecap="round" stroke-linejoin="round"/>
<path d="M9.68325 14.9847L5.19681 19.4712C4.70842 19.9596 4.70842 20.7514 5.19681 21.2398L9.68325 25.7262C10.1716 26.2146 10.9635 26.2146 11.4519 25.7262L15.9383 21.2398C16.4267 20.7514 16.4267 19.9596 15.9383 19.4712L11.4519 14.9847C10.9635 14.4963 10.1716 14.4963 9.68325 14.9847Z" stroke="#FF2976" stroke-width="1.72101" stroke-linecap="round" stroke-linejoin="round"/>
<path d="M18.8629 24.1644L14.3765 28.6508C13.8881 29.1392 13.8881 29.9311 14.3765 30.4195L18.8629 34.9059C19.3513 35.3943 20.1432 35.3943 20.6315 34.9059L25.118 30.4195C25.6064 29.9311 25.6064 29.1392 25.118 28.6508L20.6315 24.1644C20.1432 23.676 19.3513 23.676 18.8629 24.1644Z" stroke="#FF2976" stroke-width="1.72101" stroke-linecap="round" stroke-linejoin="round"/>
<defs>
<filter id="filter0_f_569_69" x="0.0566406" y="0.666992" width="39.377" height="39.3789" filterUnits="userSpaceOnUse" color-interpolation-filters="sRGB">
<feFlood flood-opacity="0" result="BackgroundImageFix"/>
<feBlend mode="normal" in="SourceGraphic" in2="BackgroundImageFix" result="shape"/>
<feGaussianBlur stdDeviation="2" result="effect1_foregroundBlur_569_69"/>
</filter>
</defs>
</svg>
