<svg width="22" height="14" viewBox="0 0 22 14" fill="none" xmlns="http://www.w3.org/2000/svg">
<g opacity="0.36">
<path d="M1.00781 2.77344H8.74152" stroke="white" stroke-width="1.0546" stroke-linecap="round" stroke-linejoin="round"/>
<path d="M12.959 2.77344H20.6927" stroke="white" stroke-width="1.0546" stroke-linecap="round" stroke-linejoin="round"/>
<path d="M10.8475 4.88049C12.0123 4.88049 12.9567 3.93618 12.9567 2.7713C12.9567 1.60643 12.0123 0.662109 10.8475 0.662109C9.6826 0.662109 8.73828 1.60643 8.73828 2.7713C8.73828 3.93618 9.6826 4.88049 10.8475 4.88049Z" stroke="white" stroke-width="1.0546" stroke-linecap="round" stroke-linejoin="round"/>
<path d="M3.117 13.3199C4.28188 13.3199 5.2262 12.3756 5.2262 11.2108C5.2262 10.0459 4.28188 9.10156 3.117 9.10156C1.95213 9.10156 1.00781 10.0459 1.00781 11.2108C1.00781 12.3756 1.95213 13.3199 3.117 13.3199Z" stroke="white" stroke-width="1.0546" stroke-linecap="round" stroke-linejoin="round"/>
<path d="M18.5838 13.3199C19.7487 13.3199 20.693 12.3756 20.693 11.2108C20.693 10.0459 19.7487 9.10156 18.5838 9.10156C17.4189 9.10156 16.4746 10.0459 16.4746 11.2108C16.4746 12.3756 17.4189 13.3199 18.5838 13.3199Z" stroke="white" stroke-width="1.0546" stroke-linecap="round" stroke-linejoin="round"/>
<path d="M12.9375 3.05859C14.3301 3.45049 15.5851 4.22463 16.5602 5.29328C17.5354 6.36193 18.1917 7.68237 18.4548 9.10494" stroke="white" stroke-width="1.0546" stroke-linecap="round" stroke-linejoin="round"/>
<path d="M3.24219 9.10494C3.50538 7.68241 4.16172 6.36202 5.13685 5.29339C6.11198 4.22475 7.36692 3.45058 8.75948 3.05859" stroke="white" stroke-width="1.0546" stroke-linecap="round" stroke-linejoin="round"/>
</g>
</svg>
