<svg width="45" height="30" viewBox="0 0 45 30" fill="none" xmlns="http://www.w3.org/2000/svg">
<path d="M33.7594 29.2617C32.2037 29.2617 31.2454 28.5355 29.6795 27.6803C28.1136 26.8251 23.5846 23.3817 23.5846 19.0953C23.5846 16.1876 22.8433 13.8357 21.5808 11.9615C20.3278 10.1016 18.6302 8.81306 16.8642 7.90346C16.0132 7.46524 15.1276 7.10684 14.2458 6.81066C13.7317 6.63812 13.4333 6.07999 13.6564 5.58101C15.0701 2.41655 18.2185 0.214844 21.8759 0.214844C26.8544 0.214844 30.8905 4.29554 30.8905 9.32956C30.8905 10.4065 30.7058 11.44 30.3666 12.399C31.8035 11.4199 33.5348 10.8486 35.3978 10.8486C40.3763 10.8486 44.4121 14.9293 44.4121 19.9633C44.4121 26.0235 39.1453 29.2617 33.7594 29.2617Z" fill="white"/>
<path d="M0.841797 19.2038C0.841797 24.0083 3.97457 28.0115 8.12473 28.896C8.76531 29.1327 9.45688 29.2617 10.1783 29.2617H24.1843C24.654 29.2617 24.8585 28.6266 24.4999 28.3197C22.0522 26.2256 20.2331 23.2743 20.2331 19.0953C20.2331 16.7991 19.6579 15.1266 18.8107 13.8693C17.9538 12.5976 16.7487 11.6471 15.3429 10.9228C13.9241 10.1922 12.3837 9.72668 10.9127 9.39671C10.5662 9.35251 10.2136 9.32956 9.85639 9.32956C4.87767 9.32956 0.841797 13.7504 0.841797 19.2038Z" fill="white"/>
</svg>
