<svg width="23" height="19" viewBox="0 0 23 19" fill="none" xmlns="http://www.w3.org/2000/svg">
<path d="M20.2017 10.7773C20.68 10.501 20.8437 9.88921 20.5673 9.41097L19.9189 8.28925C19.6425 7.81125 19.0311 7.64763 18.553 7.92375L9.89191 12.9256C9.22513 13.3107 9.22544 14.2732 9.89247 14.6579L11.1899 15.406C11.4993 15.5844 11.8804 15.5843 12.1896 15.4056L20.2017 10.7773Z" fill="#FBBC04"/>
<path d="M19.4065 16.6137C19.4065 16.9692 19.5953 17.298 19.9023 17.4773L21.2008 18.2356C21.8675 18.6249 22.7051 18.144 22.7051 17.372V7.26442C22.7051 6.49243 21.8675 6.01158 21.2008 6.40087L19.9023 7.15915C19.5953 7.33842 19.4065 7.6672 19.4065 8.0227V16.6137Z" fill="#34A853"/>
<path d="M22.681 1.13588C22.681 0.361442 21.8386 -0.119075 21.172 0.275104L7.09944 8.59645C6.78926 8.77987 6.40438 8.78221 6.09198 8.60259L4.09163 7.45238C3.61362 7.17753 3.00334 7.34146 2.72739 7.81883L2.0787 8.94103C1.80199 9.41972 1.96626 10.0321 2.4454 10.3081L6.55969 12.6775C6.56819 12.6824 6.57342 12.6914 6.57342 12.7012C6.57342 12.7216 6.59486 12.7349 6.61309 12.7258L6.61767 12.7235C6.62024 12.7222 6.62307 12.7215 6.62595 12.7215C6.63086 12.7215 6.63557 12.7196 6.63904 12.7161L6.64285 12.7123C6.64471 12.7104 6.6468 12.7088 6.64907 12.7075L22.1906 3.50153C22.4946 3.32148 22.681 2.99442 22.681 2.64114V1.13588Z" fill="#EA4335"/>
<path d="M4.09348 16.6144C4.09348 16.9699 3.90474 17.2987 3.59774 17.4779L2.29919 18.2362C1.63253 18.6255 0.794922 18.1446 0.794922 17.3727V7.26504C0.794922 6.49305 1.63253 6.01221 2.29918 6.40149L3.59774 7.15978C3.90474 7.33904 4.09348 7.66782 4.09348 8.02333V16.6144Z" fill="#4285F4"/>
<path d="M2.30697 0.574288C1.6403 0.189399 0.806976 0.670524 0.806976 1.44032V2.93531C0.806976 3.29248 0.997468 3.62252 1.30673 3.80119L6.03755 6.53433C6.34682 6.71301 6.72791 6.71317 7.03733 6.53474L8.33448 5.78675C9.00156 5.40209 9.00181 4.43944 8.33493 4.05443L2.30697 0.574288Z" fill="#C5221F"/>
</svg>
