<svg width="33" height="22" viewBox="0 0 33 22" fill="none" xmlns="http://www.w3.org/2000/svg">
<path d="M13.3961 3.82616C11.2928 0.550896 6.93287 -0.398877 3.65761 1.70438C1.62842 3.00735 0.40615 5.25876 0.418055 7.67023C0.420701 11.5672 3.58088 14.7247 7.47919 14.7221C8.81787 14.7208 10.1288 14.3398 11.2598 13.6215C10.7055 15.2684 9.6724 17.0251 7.97127 18.7858C7.29267 19.4868 7.31252 20.6046 8.0136 21.2832C8.71469 21.9618 9.83246 21.942 10.5111 21.2409C16.801 14.7221 15.9848 7.63584 13.3974 3.83542V3.82616H13.3961ZM30.328 3.82616C28.2247 0.550896 23.8648 -0.398877 20.5895 1.70438C18.5603 3.00735 17.3381 5.25876 17.35 7.67023C17.3526 11.5672 20.5128 14.7247 24.4111 14.7221C25.7498 14.7208 27.0607 14.3398 28.1917 13.6215C27.6374 15.2684 26.6043 17.0251 24.9032 18.7858C24.2246 19.4868 24.2444 20.6046 24.9455 21.2832C25.6466 21.9618 26.7644 21.942 27.443 21.2409C33.7329 14.7221 32.9167 7.63584 30.3293 3.83542V3.82616H30.328Z" fill="white"/>
</svg>
