<svg width="41" height="31" viewBox="0 0 41 31" fill="none" xmlns="http://www.w3.org/2000/svg">
<path d="M20.8976 7.20166L20.6439 7.21816C19.0941 7.31894 17.6029 6.67787 16.4908 5.59367C14.6872 3.83528 12.0373 1.67115 9.19846 0.76943C7.63503 0.272825 6.04496 1.15455 5.51945 2.7085C4.8206 4.77505 4.28963 8.0534 5.70981 11.9684C6.14825 13.1771 6.02923 14.5058 5.38707 15.6197C5.19799 15.9477 5.03937 16.2749 4.91318 16.6316C4.58256 17.5661 3.88691 18.3928 2.90581 18.5344L1.69906 18.7087C1.13324 18.7904 0.75657 19.3363 0.880994 19.8943C0.992534 20.3945 1.47 20.7248 1.9774 20.6527L3.87194 20.3838C4.31882 20.3203 4.73793 20.6156 4.82866 21.0577C4.90268 21.4185 4.73713 21.7861 4.41793 21.9697L2.59224 23.0201C2.12524 23.2888 1.95914 23.8818 2.21862 24.354C2.48742 24.8432 3.10742 25.0132 3.58816 24.7297L4.15362 24.3961C4.96955 23.9149 6.01518 24.24 6.57355 25.0052C9.33741 28.793 14.7144 30.7145 20.8976 30.7145C27.0808 30.7145 32.4577 28.793 35.2216 25.0052C35.7799 24.24 36.8256 23.9149 37.6415 24.3961L38.207 24.7297C38.6877 25.0132 39.3077 24.8432 39.5765 24.354C39.836 23.8818 39.6699 23.2888 39.2029 23.0201L37.3772 21.9697C37.058 21.7861 36.8924 21.4185 36.9665 21.0577C37.0572 20.6156 37.4763 20.3203 37.9232 20.3838L39.8177 20.6527C40.3251 20.7248 40.8026 20.3945 40.9141 19.8943C41.0385 19.3363 40.6619 18.7904 40.0961 18.7087L38.8893 18.5344C37.9082 18.3928 37.2126 17.5661 36.8819 16.6316C36.7557 16.2749 36.5971 15.9477 36.4081 15.6197C35.7659 14.5058 35.6469 13.1771 36.0853 11.9684C37.5055 8.0534 36.9745 4.77505 36.2757 2.7085C35.7502 1.15454 34.1601 0.272825 32.5967 0.76943C29.7578 1.67115 27.1079 3.83528 25.3043 5.59367C24.1922 6.67787 22.7011 7.31894 21.1512 7.21816L20.8976 7.20166ZM14.7806 13.0799C15.902 13.0799 16.8196 13.9616 16.8196 15.0393C16.8196 16.1169 15.902 16.9987 14.7806 16.9987C13.6591 16.9987 12.7416 16.1169 12.7416 15.0393C12.7416 13.9616 13.6591 13.0799 14.7806 13.0799ZM27.0145 13.0799C28.136 13.0799 29.0535 13.9616 29.0535 15.0393C29.0535 16.1169 28.136 16.9987 27.0145 16.9987C25.8931 16.9987 24.9755 16.1169 24.9755 15.0393C24.9755 13.9616 25.8931 13.0799 27.0145 13.0799ZM19.805 20.7641C19.3746 19.9428 19.9703 18.9581 20.8976 18.9581C21.8248 18.9581 22.4205 19.9428 21.9901 20.7641L21.799 21.1287C21.6137 21.4823 21.5642 21.9043 21.7581 22.2532C22.2875 23.2057 23.283 23.8566 24.4658 23.8566C25.9781 23.8566 27.2299 22.8083 27.4791 21.4247C27.529 21.1477 27.7525 20.9175 28.034 20.9175C28.3155 20.9175 28.5474 21.147 28.5094 21.4259C28.2479 23.3434 26.5295 24.8363 24.4658 24.8363C22.5139 24.8363 19.2812 24.8363 17.3293 24.8363C15.2657 24.8363 13.5472 23.3434 13.2858 21.4259C13.2477 21.147 13.4796 20.9175 13.7611 20.9175C14.0426 20.9175 14.2661 21.1477 14.316 21.4247C14.5652 22.8083 15.817 23.8566 17.3293 23.8566C18.5121 23.8566 19.5076 23.2057 20.037 22.2532C20.231 21.9043 20.1814 21.4823 19.9961 21.1287L19.805 20.7641Z" fill="white"/>
</svg>
