<svg width="26" height="26" viewBox="0 0 26 26" fill="none" xmlns="http://www.w3.org/2000/svg">
<path d="M17.8995 17.4729C17.8995 17.4729 21.5862 13.7873 22.8461 12.5288C26.8017 8.5747 24.8231 0.662541 24.8231 0.662541C24.8231 0.662541 16.911 -1.3155 12.9554 2.64009C9.99868 5.59681 8.0295 7.63297 8.0295 7.63297C8.0295 7.63297 3.06766 6.59519 0.0996094 9.56225L15.9225 25.3851C18.8905 22.418 17.8995 17.4729 17.8995 17.4729ZM15.9604 5.87263C16.9706 4.86243 18.6034 4.86243 19.6121 5.87263C20.6223 6.87987 20.6223 8.51412 19.6121 9.52284C18.6034 10.5316 16.9706 10.5316 15.9604 9.52284C14.9517 8.51461 14.9517 6.88135 15.9604 5.87263ZM1.35411 24.0912C1.35411 24.0912 5.22744 24.0912 7.80983 21.5088L3.9365 17.6355C1.35411 18.9269 1.35411 24.0912 1.35411 24.0912Z" fill="white"/>
</svg>
