<svg width="32" height="36" viewBox="0 0 32 36" fill="none" xmlns="http://www.w3.org/2000/svg">
<path d="M0.628051 27.4458C-0.532243 25.4918 0.269111 22.9599 2.34055 22.0351L6.75946 20.0623C9.04896 19.0402 11.6883 19.1817 13.8561 20.4428C16.0125 21.6972 17.4427 23.9085 17.7059 26.3949L18.233 31.3741C18.4698 33.612 16.7107 35.5576 14.4673 35.5389C12.2024 35.5201 10.4693 33.5097 10.7778 31.2589L11.3328 27.2086C11.4021 26.7029 11.1589 26.2055 10.7179 25.9509C10.2764 25.696 9.725 25.7353 9.32386 26.0501L6.21123 28.4929C4.41566 29.9021 1.79474 29.4105 0.628051 27.4458Z" fill="#E01E5A"/>
<path d="M18.0523 17.8717C18.0523 20.389 19.2461 22.7562 21.2677 24.2478L25.1609 27.1203C26.9962 28.4745 29.5997 27.9061 30.7079 25.9093C31.8141 23.916 30.9295 21.4012 28.8212 20.5457L25.0909 19.0319C24.6183 18.8401 24.3089 18.3799 24.3089 17.8685C24.3089 17.3603 24.6144 16.9023 25.0827 16.7084L28.859 15.1447C30.9494 14.2791 31.8148 11.7749 30.7069 9.79724C29.5977 7.81726 27.011 7.25793 25.1871 8.60367L21.2676 11.4956C19.2461 12.9872 18.0523 15.3544 18.0523 17.8717Z" fill="#2EB67D"/>
<path d="M13.8561 15.2332C16.0125 13.9788 17.4427 11.7675 17.7059 9.28107L18.2292 4.33736C18.4674 2.0869 16.688 0.135048 14.4321 0.172403C12.1796 0.209702 10.4662 2.21387 10.773 4.45262L11.3325 8.53539C11.402 9.04236 11.1582 9.54099 10.716 9.79627C10.2753 10.0507 9.72503 10.0129 9.32306 9.70046L6.11762 7.20912C4.33367 5.8226 1.74187 6.31881 0.592425 8.26694C-0.550009 10.2032 0.245899 12.7057 2.29512 13.6206L6.75944 15.6136C9.04894 16.6358 11.6883 16.4943 13.8561 15.2332Z" fill="#36C5F0"/>
</svg>
