<svg width="15" height="25" viewBox="0 0 15 25" fill="none" xmlns="http://www.w3.org/2000/svg">
<path d="M4.54274 10.8684C4.57873 11.2822 4.61471 11.687 4.65069 12.0829C4.68668 12.4787 4.71366 12.8835 4.73166 13.2973C4.8576 14.8445 4.97454 16.3738 5.08249 17.8851C5.20843 19.3964 5.32538 20.9167 5.43332 22.446C5.45132 22.6439 5.45132 22.8418 5.43332 23.0397C5.43332 23.2376 5.41533 23.4355 5.37935 23.6334C5.28939 24.1552 4.99253 24.479 4.48877 24.6049C3.94902 24.7129 3.53522 24.533 3.24736 24.0652C3.1574 23.9033 3.07644 23.7414 3.00447 23.5794C2.9325 23.4175 2.86054 23.2556 2.78857 23.0937C2.53669 22.356 2.32979 21.6184 2.16786 20.8807C2.00594 20.1431 1.86201 19.3874 1.73607 18.6138C1.53816 17.2644 1.33126 15.933 1.11536 14.6197C0.917454 13.2883 0.791513 11.9479 0.737538 10.5986C0.665572 9.62701 0.620594 8.65547 0.602602 7.68393C0.584611 6.71238 0.575615 5.74084 0.575615 4.7693C0.575615 4.37349 0.593606 3.99566 0.629589 3.63583C0.683564 3.25801 0.728543 2.88918 0.764526 2.52935C0.764526 2.40341 0.782517 2.29547 0.8185 2.20551C0.854483 2.09756 0.890466 1.98961 0.926449 1.88166C1.0344 1.64777 1.17833 1.45886 1.35825 1.31493C1.53816 1.171 1.73607 1.09003 1.95197 1.07204C2.16786 1.03606 2.38376 1.06305 2.59966 1.153C2.81556 1.24296 3.00447 1.39589 3.16639 1.61179C3.32832 1.80969 3.44526 2.03459 3.51723 2.28647C3.58919 2.52036 3.64317 2.76324 3.67915 3.01513C3.71513 3.26701 3.75112 3.52788 3.7871 3.79776C3.84108 4.06763 3.88605 4.36449 3.92204 4.68834C4.01199 4.58039 4.07496 4.49943 4.11095 4.44545C4.16492 4.37349 4.2099 4.30152 4.24588 4.22955C4.51576 3.81575 4.80362 3.41994 5.10948 3.04211C5.41533 2.66429 5.76617 2.32245 6.16198 2.0166C6.66574 1.5848 7.20549 1.23397 7.78122 0.964094C8.35695 0.676229 8.98665 0.487318 9.67033 0.39736C10.354 0.325394 10.9567 0.424347 11.4785 0.69422C12.0182 0.946101 12.486 1.33292 12.8818 1.85467C13.3856 2.53835 13.7274 3.30299 13.9073 4.14859C14.0872 4.99419 14.1142 5.83979 13.9883 6.68539C13.8624 7.51301 13.5925 8.30463 13.1787 9.06028C12.7649 9.81592 12.2161 10.4456 11.5324 10.9494C10.9027 11.4172 10.2371 11.714 9.53539 11.84C8.85171 11.9479 8.13205 11.9479 7.37641 11.84C6.89064 11.786 6.41386 11.678 5.94608 11.5161C5.4783 11.3542 5.04651 11.1113 4.65069 10.7875C4.6327 10.8234 4.61471 10.8414 4.59672 10.8414C4.57873 10.8414 4.56074 10.8504 4.54274 10.8684ZM4.65069 7.9538C4.86659 7.98978 5.03751 8.02576 5.16345 8.06175C5.28939 8.07974 5.38835 8.11572 5.46031 8.1697C5.55027 8.22367 5.62224 8.30463 5.67621 8.41258C5.73018 8.52053 5.79316 8.66446 5.86512 8.84438C5.93709 8.97032 6.00905 9.06927 6.08102 9.14124C6.15299 9.2132 6.26093 9.26718 6.40487 9.30316C6.62076 9.33914 6.84566 9.37513 7.07955 9.41111C7.31344 9.44709 7.54733 9.47408 7.78122 9.49207C8.8787 9.54605 9.80526 9.14124 10.5609 8.27765C10.8848 7.93581 11.1276 7.55798 11.2896 7.14418C11.4695 6.71238 11.5684 6.28059 11.5864 5.84879C11.6224 5.399 11.5774 4.94921 11.4515 4.49943C11.3255 4.04964 11.1276 3.63583 10.8578 3.25801C10.462 2.75425 9.98518 2.58333 9.42744 2.74525C9.17556 2.79923 8.92368 2.87119 8.6718 2.96115C8.43791 3.05111 8.20402 3.16805 7.97013 3.31199C7.10654 3.85173 6.41386 4.51742 5.89211 5.30904C5.38835 6.10067 4.97454 6.98226 4.65069 7.9538Z" fill="white"/>
</svg>
