<svg width="27" height="29" viewBox="0 0 27 29" fill="none" xmlns="http://www.w3.org/2000/svg">
<path d="M13.6351 1.69918C13.6351 0.920395 13.0037 0.289062 12.2249 0.289062H6.81948C3.05534 0.289062 0.00390625 3.3405 0.00390625 7.10464V15.0214C0.00390625 22.2011 5.8242 28.0214 13.0039 28.0214H19.5108C23.5345 28.0214 26.7964 24.7595 26.7964 20.7358V14.8603C26.7964 14.0815 26.1651 13.4502 25.3863 13.4502C24.6075 13.4502 23.9762 14.0815 23.9762 14.8603V19.3257C23.9762 22.5706 21.3456 25.2012 18.1007 25.2012H13.4002C7.55918 25.2012 2.82415 20.4661 2.82415 14.6252V8.51476C2.82415 5.52941 5.24425 3.1093 8.2296 3.1093H12.2249C13.0037 3.1093 13.6351 2.47797 13.6351 1.69918Z" fill="white"/>
<path d="M16.9253 1.69918C16.9253 2.47797 17.5567 3.1093 18.3355 3.1093H18.4064C19.7258 3.1093 20.3866 4.70459 19.4536 5.6376L11.933 13.1582C11 14.0912 9.4047 13.4304 9.4047 12.111V12.0401C9.4047 11.2613 8.77337 10.6299 7.99458 10.6299C7.2158 10.6299 6.58446 11.2613 6.58446 12.0401V15.5654C6.58446 18.2911 8.79413 20.5008 11.5199 20.5008H15.0452C15.824 20.5008 16.4553 19.8694 16.4553 19.0907C16.4553 18.3119 15.824 17.6805 15.0452 17.6805H14.9744C13.655 17.6805 12.9943 16.0854 13.9272 15.1525L21.4481 7.63178C22.381 6.69886 23.9762 7.3596 23.9762 8.67897V8.74978C23.9762 9.52857 24.6075 10.1599 25.3863 10.1599C26.1651 10.1599 26.7964 9.52857 26.7964 8.74978V5.22448C26.7964 2.49872 24.5867 0.289062 21.861 0.289062H18.3355C17.5567 0.289062 16.9253 0.920395 16.9253 1.69918Z" fill="white"/>
</svg>
