<svg width="23" height="22" viewBox="0 0 23 22" fill="none" xmlns="http://www.w3.org/2000/svg">
<path d="M4.51439 2.20227C3.82031 2.20227 3.25743 2.76515 3.25743 3.45923V13.5149C3.25743 14.209 3.82031 14.7718 4.51439 14.7718H16.5635C17.2301 14.7718 17.8696 15.037 18.3409 15.5083L20.8548 18.0223V3.45923C20.8548 2.76515 20.292 2.20227 19.5979 2.20227H4.51439ZM19.5979 0.945312C20.9864 0.945312 22.1118 2.07068 22.1118 3.45923V19.5396C22.1118 19.8869 20.6788 21.3195 20.332 21.3195C20.165 21.3195 20.0052 21.2531 19.8873 21.1349L16.3011 17.5486C16.0654 17.3129 15.7457 17.1805 15.4126 17.1801H3.36305C1.9745 17.1801 0.849134 16.0548 0.849134 14.6662V4.61057C0.669946 1.01307 3.12584 0.945312 4.51439 0.945312H19.5979Z" fill="white"/>
<path d="M4.51392 1.62805C3.81984 1.62805 3.25696 2.19093 3.25696 2.88501V12.9407C3.25696 13.6347 3.81984 14.1976 4.51392 14.1976H16.563C17.2296 14.1976 17.8691 14.4628 18.3405 14.9341L20.8544 17.448V2.88501C20.8544 2.19093 20.2915 1.62805 19.5974 1.62805H4.51392ZM19.5974 0.371094C20.986 0.371094 22.1113 1.49646 22.1113 2.88501V18.9654C22.1113 19.3127 21.8297 19.5939 21.4828 19.5939C21.3159 19.5939 21.156 19.5275 21.0382 19.4093L17.4519 15.823C17.2163 15.5874 16.8965 15.455 16.5634 15.4546H4.51392C3.12537 15.4546 2 14.3292 2 12.9407V2.88501C2 1.49646 3.12537 0.371094 4.51392 0.371094H19.5974Z" fill="white"/>
<path d="M10.8811 6.35279C10.2566 5.38022 8.96191 5.09819 7.98934 5.72274C7.38678 6.10965 7.02383 6.77819 7.02737 7.49427C7.02815 8.65145 7.96655 9.58906 9.12413 9.58828C9.52165 9.58789 9.91091 9.47476 10.2468 9.26147C10.0822 9.7505 9.77539 10.2721 9.27025 10.795C9.06875 11.0031 9.07464 11.3351 9.28282 11.5366C9.49101 11.7381 9.82292 11.7322 10.0244 11.524C11.8922 9.58828 11.6498 7.48405 10.8815 6.35554V6.35279H10.8811ZM15.909 6.35279C15.2844 5.38022 13.9897 5.09819 13.0172 5.72274C12.4146 6.10965 12.0517 6.77819 12.0552 7.49427C12.056 8.65145 12.9944 9.58906 14.152 9.58828C14.5495 9.58789 14.9387 9.47476 15.2746 9.26147C15.11 9.7505 14.8032 10.2721 14.2981 10.795C14.0966 11.0031 14.1025 11.3351 14.3107 11.5366C14.5188 11.7381 14.8508 11.7322 15.0523 11.524C16.92 9.58828 16.6777 7.48405 15.9093 6.35554V6.35279H15.909Z" fill="white"/>
</svg>
