<svg width="23" height="22" viewBox="0 0 23 22" fill="none" xmlns="http://www.w3.org/2000/svg">
<path d="M10.8361 0.750691C11.1777 -0.0706012 12.3411 -0.0706027 12.6827 0.75069L15.0222 6.37543C15.1662 6.72166 15.4918 6.95823 15.8656 6.9882L21.938 7.47502C22.8246 7.5461 23.1842 8.65261 22.5086 9.23128L17.8821 13.1944C17.5973 13.4383 17.473 13.8211 17.56 14.1859L18.9734 20.1115C19.1798 20.9767 18.2386 21.6606 17.4795 21.1969L12.2807 18.0215C11.9607 17.826 11.5582 17.826 11.2382 18.0215L6.03937 21.1969C5.28027 21.6606 4.33901 20.9767 4.5454 20.1115L5.95888 14.1859C6.04588 13.8211 5.92151 13.4383 5.63672 13.1944L1.01021 9.23128C0.334675 8.65261 0.6942 7.5461 1.58085 7.47502L7.65323 6.9882C8.02702 6.95823 8.35263 6.72167 8.49664 6.37543L10.8361 0.750691Z" fill="url(#paint0_linear_257_2099)"/>
<defs>
<linearGradient id="paint0_linear_257_2099" x1="1.12102" y1="-3.5201" x2="24.1843" y2="-2.73732" gradientUnits="userSpaceOnUse">
<stop stop-color="#FFC52F"/>
<stop offset="1" stop-color="#FF8E26" stop-opacity="0.98"/>
</linearGradient>
</defs>
</svg>
