<svg width="21" height="17" viewBox="0 0 21 17" fill="none" xmlns="http://www.w3.org/2000/svg">
<path d="M18.8427 0.975098H2.27742C1.87802 0.975098 1.49498 1.14376 1.21256 1.44397C0.930145 1.74419 0.771484 2.15137 0.771484 2.57594V15.3827C0.771484 15.8072 0.930145 16.2144 1.21256 16.5146C1.49498 16.8149 1.87802 16.9835 2.27742 16.9835H18.8427C19.2421 16.9835 19.6252 16.8149 19.9076 16.5146C20.19 16.2144 20.3487 15.8072 20.3487 15.3827V2.57594C20.3487 2.15137 20.19 1.74419 19.9076 1.44397C19.6252 1.14376 19.2421 0.975098 18.8427 0.975098ZM4.53633 12.9814C4.53633 13.1937 4.457 13.3973 4.31579 13.5474C4.17458 13.6975 3.98306 13.7818 3.78336 13.7818C3.58366 13.7818 3.39214 13.6975 3.25093 13.5474C3.10972 13.3973 3.03039 13.1937 3.03039 12.9814V4.9772C3.03039 4.76492 3.10972 4.56133 3.25093 4.41122C3.39214 4.26111 3.58366 4.17678 3.78336 4.17678C3.98306 4.17678 4.17458 4.26111 4.31579 4.41122C4.457 4.56133 4.53633 4.76492 4.53633 4.9772V12.9814ZM11.4354 8.99831L10.2721 9.39852L10.9911 10.4491C11.0493 10.5345 11.0911 10.6312 11.114 10.7338C11.137 10.8363 11.1408 10.9427 11.1251 11.0468C11.1094 11.1509 11.0746 11.2507 11.0226 11.3405C10.9706 11.4303 10.9025 11.5083 10.8222 11.5702C10.7419 11.632 10.6509 11.6764 10.5544 11.7008C10.4579 11.7252 10.3578 11.7292 10.2599 11.7126C10.162 11.6959 10.0681 11.6589 9.98361 11.6036C9.89914 11.5484 9.82573 11.476 9.76758 11.3906L9.05414 10.341L8.33599 11.3926C8.21855 11.5651 8.04145 11.6809 7.84367 11.7146C7.64589 11.7482 7.44362 11.697 7.28137 11.5722C7.11911 11.4473 7.01016 11.2591 6.97847 11.0488C6.94679 10.8386 6.99497 10.6236 7.11242 10.4511L7.8315 9.40053L6.66817 9.00032C6.57417 8.96747 6.48718 8.91526 6.41216 8.84667C6.33714 8.77809 6.27556 8.69447 6.23095 8.60058C6.14084 8.41098 6.12527 8.19109 6.18768 7.98928C6.21858 7.88936 6.26769 7.79689 6.33221 7.71714C6.39673 7.63739 6.4754 7.57194 6.56371 7.52451C6.74208 7.42872 6.94893 7.41218 7.13877 7.47852L8.30117 7.87873V6.57804C8.30117 6.36576 8.3805 6.16217 8.52171 6.01206C8.66292 5.86195 8.85444 5.77762 9.05414 5.77762C9.25384 5.77762 9.44536 5.86195 9.58657 6.01206C9.72777 6.16217 9.80711 6.36576 9.80711 6.57804V7.87873L10.9695 7.47852C11.0635 7.44567 11.1627 7.43282 11.2613 7.44071C11.36 7.44861 11.4562 7.47708 11.5446 7.52451C11.6329 7.57194 11.7115 7.63739 11.7761 7.71714C11.8406 7.79689 11.8897 7.88936 11.9206 7.98928C11.9515 8.08921 11.9636 8.19462 11.9562 8.29951C11.9487 8.4044 11.9219 8.5067 11.8773 8.60058C11.8327 8.69447 11.7711 8.77809 11.6961 8.84667C11.6211 8.91526 11.5341 8.96747 11.4401 9.00032L11.4354 8.99831ZM18.2121 8.99831L17.0488 9.39852L17.7679 10.4491C17.826 10.5345 17.8678 10.6312 17.8908 10.7338C17.9137 10.8363 17.9175 10.9427 17.9018 11.0468C17.8861 11.1509 17.8513 11.2507 17.7993 11.3405C17.7474 11.4303 17.6793 11.5083 17.5989 11.5702C17.5186 11.632 17.4276 11.6764 17.3311 11.7008C17.2346 11.7252 17.1345 11.7292 17.0366 11.7126C16.9387 11.6959 16.8448 11.6589 16.7603 11.6036C16.6759 11.5484 16.6024 11.476 16.5443 11.3906L15.8309 10.341L15.1127 11.3926C14.9953 11.5651 14.8182 11.6809 14.6204 11.7146C14.4226 11.7482 14.2203 11.697 14.0581 11.5722C13.8958 11.4473 13.7869 11.2591 13.7552 11.0488C13.7235 10.8386 13.7717 10.6236 13.8891 10.4511L14.6082 9.40053L13.4449 9.00032C13.3509 8.96747 13.2639 8.91526 13.1889 8.84667C13.1139 8.77809 13.0523 8.69447 13.0077 8.60058C12.9176 8.41098 12.902 8.19109 12.9644 7.98928C12.9953 7.88936 13.0444 7.79689 13.1089 7.71714C13.1734 7.63739 13.2521 7.57194 13.3404 7.52451C13.5188 7.42872 13.7256 7.41218 13.9155 7.47852L15.0779 7.87873V6.57804C15.0779 6.36576 15.1572 6.16217 15.2984 6.01206C15.4396 5.86195 15.6312 5.77762 15.8309 5.77762C16.0306 5.77762 16.2221 5.86195 16.3633 6.01206C16.5045 6.16217 16.5838 6.36576 16.5838 6.57804V7.87873L17.7462 7.47852C17.8402 7.44567 17.9394 7.43282 18.038 7.44071C18.1367 7.44861 18.233 7.47708 18.3213 7.52451C18.4096 7.57194 18.4883 7.63739 18.5528 7.71714C18.6173 7.79689 18.6664 7.88936 18.6973 7.98928C18.7282 8.08921 18.7403 8.19462 18.7329 8.29951C18.7254 8.4044 18.6987 8.5067 18.654 8.60058C18.6094 8.69447 18.5478 8.77809 18.4728 8.84667C18.3978 8.91526 18.3108 8.96747 18.2168 9.00032L18.2121 8.99831Z" fill="#8B8B8B"/>
</svg>
