<svg width="20" height="20" viewBox="0 0 20 20" fill="none" xmlns="http://www.w3.org/2000/svg">
<path d="M19.4751 10.1528C19.4751 10.2002 19.4751 10.2458 19.4751 10.2942C19.4439 11.6216 18.9574 13.1314 16.9003 13.1314C14.7723 13.1314 14.3254 11.5118 14.3254 10.1528V6.42945C14.3256 6.32736 14.3051 6.22632 14.2651 6.1326C14.2252 6.03888 14.1666 5.95449 14.093 5.88465C14.0194 5.81482 13.9325 5.76104 13.8375 5.72666C13.7426 5.69227 13.6416 5.67802 13.541 5.68479C13.3515 5.70126 13.1752 5.78986 13.0477 5.93273C12.9203 6.07559 12.851 6.26208 12.8541 6.45458V6.82691C12.1899 6.22441 11.3611 5.83968 10.4767 5.72339C9.59229 5.60709 8.69384 5.7647 7.89967 6.17544C7.10551 6.58619 6.45289 7.2308 6.02778 8.02437C5.60267 8.81794 5.42501 9.72324 5.5182 10.621C5.6114 11.5188 5.97107 12.367 6.54986 13.0538C7.12864 13.7406 7.89937 14.2338 8.76054 14.4685C9.6217 14.7032 10.5329 14.6683 11.3741 14.3685C12.2153 14.0687 12.9471 13.5179 13.473 12.7889C13.5649 12.9517 13.6688 13.1072 13.7838 13.2543C14.2776 13.8761 15.2183 14.6207 16.9003 14.6207C17.1843 14.6217 17.468 14.5983 17.7481 14.5509C17.8174 14.5392 17.8885 14.5479 17.9531 14.5758C18.0177 14.6037 18.073 14.6497 18.1126 14.7085C18.1521 14.7672 18.1742 14.8362 18.1763 14.9072C18.1784 14.9783 18.1603 15.0484 18.1242 15.1094C17.2596 16.5775 16.0266 17.7878 14.5504 18.6175C13.0742 19.4472 11.4074 19.8667 9.71919 19.8334C4.68168 19.731 0.549966 15.6316 0.355013 10.5353C0.305148 9.24919 0.509169 7.9659 0.95514 6.76053C1.40111 5.55516 2.08008 4.45191 2.95232 3.51533C3.82456 2.57875 4.87256 1.82764 6.03502 1.30594C7.19747 0.784238 8.45104 0.502427 9.72238 0.476989C10.9937 0.451551 12.2573 0.682997 13.4392 1.15779C14.6211 1.63258 15.6976 2.34118 16.6058 3.24214C17.5139 4.1431 18.2354 5.21832 18.7281 6.40491C19.2208 7.5915 19.4747 8.86563 19.4751 10.1528ZM6.9687 10.1528C6.9687 10.7419 7.14129 11.3178 7.46463 11.8076C7.78798 12.2974 8.24756 12.6792 8.78527 12.9047C9.32298 13.1301 9.91465 13.1891 10.4855 13.0742C11.0563 12.9592 11.5806 12.6756 11.9922 12.259C12.4037 11.8424 12.684 11.3117 12.7975 10.7339C12.9111 10.1561 12.8528 9.55716 12.6301 9.01288C12.4073 8.4686 12.0302 8.0034 11.5463 7.6761C11.0623 7.3488 10.4934 7.17411 9.91139 7.17411C9.13094 7.17411 8.38245 7.48793 7.83059 8.04654C7.27873 8.60514 6.9687 9.36277 6.9687 10.1528Z" fill="#8B8B8B"/>
</svg>
