<svg width="1752" height="1070" viewBox="0 0 1752 1070" fill="none" xmlns="http://www.w3.org/2000/svg">
<mask id="mask0_172_83" style="mask-type:alpha" maskUnits="userSpaceOnUse" x="0" y="0" width="1752" height="1070">
<rect x="0.384766" y="0.550293" width="1751.48" height="1069.28" fill="url(#paint0_radial_172_83)"/>
</mask>
<g mask="url(#mask0_172_83)">
<g opacity="0.3">
<mask id="mask1_172_83" style="mask-type:alpha" maskUnits="userSpaceOnUse" x="538" y="346" width="643" height="441">
<ellipse cx="859.439" cy="566.333" rx="321.08" ry="220.232" fill="white"/>
</mask>
<g mask="url(#mask1_172_83)">
<path d="M1035.94 702.402C1035.94 783.389 952.466 849.194 849.288 849.194C746.109 849.194 662.638 783.389 662.638 702.402C662.638 621.415 746.109 555.609 849.288 555.609C952.466 555.609 1035.94 621.415 1035.94 702.402Z" stroke="white" stroke-width="0.8"/>
<path d="M1001.54 729.468C1001.54 795.507 933.47 849.194 849.288 849.194C765.105 849.194 697.033 795.507 697.033 729.468C697.033 663.428 765.105 609.741 849.288 609.741C933.47 609.741 1001.54 663.428 1001.54 729.468Z" stroke="white" stroke-width="0.8"/>
<path d="M967.618 756.162C967.618 807.459 914.733 849.194 849.286 849.194C783.839 849.194 730.955 807.459 730.955 756.162C730.955 704.866 783.839 663.13 849.286 663.13C914.733 663.13 967.618 704.866 967.618 756.162Z" stroke="white" stroke-width="0.8"/>
<path d="M933.695 782.857C933.695 819.41 895.999 849.194 849.287 849.194C802.575 849.194 764.879 819.41 764.879 782.857C764.879 746.304 802.575 716.52 849.287 716.52C895.999 716.52 933.695 746.304 933.695 782.857Z" stroke="white" stroke-width="0.8"/>
<path d="M901.657 808.069C901.657 830.698 878.305 849.195 849.287 849.195C820.27 849.195 796.918 830.698 796.918 808.069C796.918 785.44 820.27 766.944 849.287 766.944C878.305 766.944 901.657 785.44 901.657 808.069Z" stroke="white" stroke-width="0.8"/>
<path d="M1070.05 674.966C1070.05 771.109 972.046 849.194 850.956 849.194C729.865 849.194 631.865 771.109 631.865 674.966C631.865 578.822 729.865 500.737 850.956 500.737C972.046 500.737 1070.05 578.822 1070.05 674.966Z" stroke="white" stroke-width="0.8"/>
<path d="M1102.67 649.012C1102.67 759.489 990.062 849.194 850.955 849.194C711.849 849.194 599.244 759.489 599.244 649.012C599.244 538.535 711.849 448.83 850.955 448.83C990.062 448.83 1102.67 538.535 1102.67 649.012Z" stroke="white" stroke-width="0.8"/>
<path d="M1136.22 622.317C1136.22 747.538 1008.59 849.194 850.955 849.194C693.318 849.194 565.691 747.538 565.691 622.317C565.691 497.097 693.318 395.441 850.955 395.441C1008.59 395.441 1136.22 497.097 1136.22 622.317Z" stroke="white" stroke-width="0.8"/>
</g>
<path d="M1180.12 566.332C1180.12 626.978 1144.28 681.926 1086.25 721.73C1028.22 761.533 948.032 786.165 859.439 786.165C770.846 786.165 690.657 761.533 632.628 721.73C574.597 681.926 538.759 626.978 538.759 566.332C538.759 505.687 574.597 450.739 632.628 410.935C690.657 371.132 770.846 346.5 859.439 346.5C948.032 346.5 1028.22 371.132 1086.25 410.935C1144.28 450.739 1180.12 505.687 1180.12 566.332Z" stroke="white" stroke-width="0.8"/>
<path d="M1238.7 544.087C1238.7 611.889 1196.44 673.326 1128.01 717.831C1059.58 762.334 965.019 789.873 860.552 789.873C756.084 789.873 661.526 762.334 593.096 717.831C524.662 673.326 482.404 611.889 482.404 544.087C482.404 476.285 524.662 414.848 593.096 370.343C661.526 325.84 756.084 298.301 860.552 298.301C965.019 298.301 1059.58 325.84 1128.01 370.343C1196.44 414.848 1238.7 476.285 1238.7 544.087Z" stroke="white" stroke-width="0.8"/>
<path d="M1287.64 525.549C1287.64 600.514 1239.91 668.439 1162.62 717.643C1085.33 766.843 978.534 797.288 860.551 797.288C742.567 797.288 635.772 766.843 558.486 717.643C481.194 668.439 433.463 600.514 433.463 525.549C433.463 450.584 481.194 382.659 558.486 333.455C635.772 284.254 742.567 253.81 860.551 253.81C978.534 253.81 1085.33 284.254 1162.62 333.455C1239.91 382.659 1287.64 450.584 1287.64 525.549Z" stroke="white" stroke-width="0.8"/>
<path d="M1344.74 513.685C1344.74 597.042 1290.87 672.568 1203.64 727.275C1116.43 781.978 995.912 815.826 862.775 815.826C729.638 815.826 609.124 781.978 521.907 727.275C434.684 672.568 380.814 597.042 380.814 513.685C380.814 430.327 434.684 354.801 521.907 300.094C609.124 245.391 729.638 211.543 862.775 211.543C995.912 211.543 1116.43 245.391 1203.64 300.094C1290.87 354.801 1344.74 430.327 1344.74 513.685Z" stroke="white" stroke-width="0.8"/>
<path d="M1398.87 506.269C1398.87 599.25 1338.65 683.489 1241.16 744.503C1143.68 805.513 1008.98 843.262 860.181 843.262C711.379 843.262 576.684 805.513 479.201 744.503C381.713 683.489 321.494 599.25 321.494 506.269C321.494 413.288 381.713 329.049 479.201 268.035C576.684 207.025 711.379 169.276 860.181 169.276C1008.98 169.276 1143.68 207.025 1241.16 268.035C1338.65 329.049 1398.87 413.288 1398.87 506.269Z" stroke="white" stroke-width="0.8"/>
<path d="M1463.38 502.191C1463.38 605.101 1395.9 698.331 1286.67 765.854C1177.45 833.373 1026.53 875.148 859.81 875.148C693.091 875.148 542.173 833.373 432.949 765.854C323.718 698.331 256.24 605.101 256.24 502.191C256.24 399.281 323.718 306.051 432.949 238.528C542.173 171.009 693.091 129.234 859.81 129.234C1026.53 129.234 1177.45 171.009 1286.67 238.528C1395.9 306.051 1463.38 399.281 1463.38 502.191Z" stroke="white" stroke-width="0.8"/>
<path d="M1529.37 510.348C1529.37 625.34 1454.67 729.508 1333.77 804.947C1212.87 880.383 1045.83 927.054 861.292 927.054C676.758 927.054 509.713 880.383 388.815 804.947C267.91 729.508 193.209 625.34 193.209 510.348C193.209 395.355 267.91 291.187 388.815 215.748C509.713 140.312 676.758 93.6407 861.292 93.6407C1045.83 93.6407 1212.87 140.312 1333.77 215.748C1454.67 291.187 1529.37 395.355 1529.37 510.348Z" stroke="white" stroke-width="0.8"/>
<path d="M1609.59 521.1C1609.59 649.914 1525.91 766.595 1390.49 851.092C1255.08 935.586 1067.98 987.859 861.293 987.859C654.608 987.859 467.508 935.586 332.093 851.092C196.672 766.595 112.992 649.914 112.992 521.1C112.992 392.285 196.672 275.604 332.093 191.107C467.508 106.613 654.608 54.3399 861.293 54.3399C1067.98 54.3399 1255.08 106.613 1390.49 191.107C1525.91 275.604 1609.59 392.285 1609.59 521.1Z" stroke="white" stroke-width="0.8"/>
<path d="M1690.41 542.604C1690.41 688.008 1597.68 819.704 1447.63 915.069C1297.59 1010.43 1090.29 1069.43 861.293 1069.43C632.293 1069.43 424.992 1010.43 274.953 915.069C124.909 819.704 32.1793 688.008 32.1793 542.604C32.1793 397.2 124.909 265.503 274.953 170.138C424.992 74.7765 632.293 15.7809 861.293 15.7809C1090.29 15.7809 1297.59 74.7765 1447.63 170.138C1597.68 265.503 1690.41 397.2 1690.41 542.604Z" stroke="white" stroke-width="0.8"/>
<path d="M731.435 768.12C731.435 768.12 651.304 738.181 417.917 812.333C184.53 886.486 12.25 1037.76 12.25 1037.76" stroke="white" stroke-width="0.8"/>
<path d="M785.75 785.313C785.75 785.313 700.382 775.257 555.785 856.824C411.188 938.392 313.307 1039.98 313.307 1039.98" stroke="white" stroke-width="0.8"/>
<path d="M573.582 1036.27C573.582 1036.27 640.319 939.134 728.56 864.981C816.802 790.829 861.247 790.041 861.247 790.041" stroke="white" stroke-width="0.8"/>
<path d="M936.047 785.175C936.047 785.175 896.144 815.299 858.327 898.35C820.509 981.4 806.42 1039.24 806.42 1039.24" stroke="white" stroke-width="0.8"/>
<path d="M998.754 773.218C1001.72 777.42 1011.53 809.367 1013.31 883.519C1015.09 957.672 1018.99 1020.7 1020.72 1042.95" stroke="white" stroke-width="0.8"/>
<path d="M1041.32 760.24C1060.02 751.69 1106.59 754.197 1150.49 839.027C1194.38 923.858 1233.04 1010.32 1246.88 1042.95" stroke="white" stroke-width="0.8"/>
<path d="M1051.56 756.464C1082.95 727.544 1176.74 699.769 1296.57 824.938C1416.4 950.108 1477.99 1019.96 1493.81 1039.24" stroke="white" stroke-width="0.8"/>
<path d="M1051.66 756.441C1092.44 712.691 1235.47 648.012 1441.91 785.638C1648.35 923.265 1734.56 998.703 1751.86 1019.22" stroke="white" stroke-width="0.8"/>
<path d="M1740.74 813.816C1580.08 713.463 1199.96 576.315 1038.01 761.4" stroke="white" stroke-width="0.8"/>
<path d="M1736.29 684.791C1574.64 610.886 1207.18 521.651 1023.87 766.057" stroke="white" stroke-width="0.8"/>
<path d="M1733.32 580.236C1560.3 533.026 1175.65 501.922 1012.52 769.464" stroke="white" stroke-width="0.8"/>
<path d="M1736.29 494.961C1554.37 467.277 1153.21 481.502 995.416 773.959" stroke="white" stroke-width="0.8"/>
<path d="M1737.03 418.584C1547.94 403.012 1133.93 450.038 983.25 776.902" stroke="white" stroke-width="0.8"/>
<path d="M968.535 779.915C1024.89 639.767 1229.09 356 1736.29 345.915" stroke="white" stroke-width="0.8"/>
<path d="M1726.09 284.012C1525.38 287.473 1089.2 390.764 945.053 789.407" stroke="white" stroke-width="0.8"/>
<path d="M941.68 784.41C988.148 605.95 1212.33 242.547 1738.52 211.699" stroke="white" stroke-width="0.8"/>
<path d="M1577.6 170.174C1403.59 204.037 1030.82 372.22 927.01 786.287" stroke="white" stroke-width="0.8"/>
<path d="M915.471 787.446C952.918 548.119 1153.82 253.262 1471.2 116.228" stroke="white" stroke-width="0.8"/>
<path d="M1346.62 83.6011C1241.82 148.361 953.474 446.363 900.084 788.651" stroke="white" stroke-width="0.8"/>
<path d="M1263.57 56.9062C1177.55 128.834 921.653 464.948 887.246 789.438" stroke="white" stroke-width="0.8"/>
<path d="M1184.97 30.2114C1119.71 94.9711 906.118 447.568 874.084 789.856" stroke="white" stroke-width="0.8"/>
<path d="M0.384766 851.633C136.825 786.132 459.598 673.888 687.394 762.871" stroke="white" stroke-width="0.8"/>
<path d="M1103.4 21.313C1055.94 82.8594 883.242 436.529 861.293 790.087" stroke="white" stroke-width="0.8"/>
<path d="M1035.18 9.44873C995.385 76.433 854.814 451.767 849.475 789.902" stroke="white" stroke-width="0.8"/>
<path d="M971.409 -2.41553C939.276 68.0292 822.539 460.923 836.776 789.566" stroke="white" stroke-width="0.8"/>
<path d="M886.875 -2.41553C865.124 68.0292 799.575 462.844 825.676 789.114" stroke="white" stroke-width="0.8"/>
<path d="M813.835 -5.38184C801.971 98.9258 773.368 542.618 813.707 788.21" stroke="white" stroke-width="0.8"/>
<path d="M738.57 0.550293C737.829 92.252 749.334 513.473 799.757 786.947" stroke="white" stroke-width="0.8"/>
<path d="M658.486 15.3809C666.643 98.4315 721.469 489.715 789.69 785.731" stroke="white" stroke-width="0.8"/>
<path d="M586.027 25.2124C612.475 142.867 713.832 576.343 776.713 783.97" stroke="white" stroke-width="0.8"/>
<path d="M506.027 42.2119C551.26 152.699 697.367 554.696 762.027 780.712" stroke="white" stroke-width="0.8"/>
<path d="M433.805 76.9272C478.79 153.798 641.283 477.999 756.367 780.54" stroke="white" stroke-width="0.8"/>
<path d="M361.135 111.779C418.479 182.965 604.373 461.046 747.932 779.011" stroke="white" stroke-width="0.8"/>
<path d="M258.805 144.406C333.699 197.795 563.135 420.716 736.948 776.647" stroke="white" stroke-width="0.8"/>
<path d="M119.029 168.691C296.995 197.61 594.068 526.383 723.834 765.895" stroke="white" stroke-width="0.8"/>
<path d="M1.12695 218.373C202.08 239.877 459.852 394.577 713.453 762.373" stroke="white" stroke-width="0.8"/>
<path d="M3.35156 289.559C140.533 300.682 469.121 453.714 702.701 758.48" stroke="white" stroke-width="0.8"/>
<path d="M5.57617 366.677C280.681 399.304 624.134 650.6 702.735 767.76" stroke="white" stroke-width="0.8"/>
<path d="M1.12695 443.054C176.868 457.143 513.554 568.603 698.935 766.59" stroke="white" stroke-width="0.8"/>
<path d="M0.384766 528.329C191.698 523.138 516.181 597.411 694.74 765.292" stroke="white" stroke-width="0.8"/>
<path d="M0.384766 614.346C138.802 599.516 469.354 607.513 691.218 764.122" stroke="white" stroke-width="0.8"/>
<path d="M0.384766 717.418C142.51 681.825 476.371 638.699 690.523 763.868" stroke="white" stroke-width="0.8"/>
</g>
</g>
<path d="M1166.78 526.712C1205.84 494.149 1273.75 456.837 1273.75 456.837" stroke="url(#paint1_linear_172_83)" stroke-width="0.8" stroke-linecap="round"/>
<path d="M566.778 606.337C529.778 570.587 482.528 531.462 482.528 531.462" stroke="url(#paint2_linear_172_83)" stroke-width="0.8" stroke-linecap="round"/>
<path d="M587.341 464.15C562.716 420.4 525.084 357.394 525.084 357.394" stroke="url(#paint3_linear_172_83)" stroke-width="0.8" stroke-linecap="round"/>
<path d="M960.528 634.962C973.778 588.462 1025.22 504.578 1025.22 504.578" stroke="url(#paint4_linear_172_83)" stroke-width="0.8" stroke-linecap="round"/>
<path d="M820.153 580.087C820.778 547.649 821.653 524.149 821.653 524.149" stroke="url(#paint5_linear_172_83)" stroke-width="0.8" stroke-linecap="round"/>
<path d="M1239.56 325.399C1273.78 300.931 1281.75 296.243 1281.75 296.243" stroke="url(#paint6_linear_172_83)" stroke-width="0.8" stroke-linecap="round"/>
<path d="M1375.15 606.4C1415.03 605.65 1438.12 608.266 1438.12 608.266" stroke="url(#paint7_linear_172_83)" stroke-width="0.8" stroke-linecap="round"/>
<path d="M322.527 526.337C286.652 511.65 256.402 501.587 256.402 501.587" stroke="url(#paint8_linear_172_83)" stroke-width="0.8" stroke-linecap="round"/>
<defs>
<radialGradient id="paint0_radial_172_83" cx="0" cy="0" r="1" gradientUnits="userSpaceOnUse" gradientTransform="translate(876.124 535.189) rotate(90) scale(534.638 875.739)">
<stop stop-color="#D9D9D9"/>
<stop offset="0.796875" stop-color="#D9D9D9" stop-opacity="0"/>
</radialGradient>
<linearGradient id="paint1_linear_172_83" x1="1274.04" y1="457.616" x2="1180.24" y2="525.857" gradientUnits="userSpaceOnUse">
<stop stop-color="#EC8429"/>
<stop offset="1" stop-color="#C16317" stop-opacity="0"/>
</linearGradient>
<linearGradient id="paint2_linear_172_83" x1="479.318" y1="524.892" x2="578.092" y2="585.71" gradientUnits="userSpaceOnUse">
<stop stop-color="#C16317"/>
<stop offset="1" stop-color="#7F169E" stop-opacity="0"/>
</linearGradient>
<linearGradient id="paint3_linear_172_83" x1="524.484" y1="357.974" x2="580.353" y2="459.631" gradientUnits="userSpaceOnUse">
<stop stop-color="#C16317"/>
<stop offset="1" stop-color="#7F169E" stop-opacity="0"/>
</linearGradient>
<linearGradient id="paint4_linear_172_83" x1="1025.9" y1="505.057" x2="986.622" y2="614.202" gradientUnits="userSpaceOnUse">
<stop stop-color="#EAEAEA"/>
<stop offset="1" stop-color="#7F169E" stop-opacity="0"/>
</linearGradient>
<linearGradient id="paint5_linear_172_83" x1="822.528" y1="524.149" x2="823.86" y2="580.303" gradientUnits="userSpaceOnUse">
<stop stop-color="white"/>
<stop offset="1" stop-color="#7F169E" stop-opacity="0"/>
</linearGradient>
<linearGradient id="paint6_linear_172_83" x1="1281.17" y1="296.887" x2="1241.36" y2="328.918" gradientUnits="userSpaceOnUse">
<stop stop-color="#C16317"/>
<stop offset="1" stop-color="#7F169E" stop-opacity="0"/>
</linearGradient>
<linearGradient id="paint7_linear_172_83" x1="1437.26" y1="608.368" x2="1386.21" y2="606.209" gradientUnits="userSpaceOnUse">
<stop stop-color="#FF9234"/>
<stop offset="1" stop-color="#FFA759" stop-opacity="0"/>
</linearGradient>
<linearGradient id="paint8_linear_172_83" x1="256.523" y1="502.392" x2="303.574" y2="522.321" gradientUnits="userSpaceOnUse">
<stop stop-color="#EA8530"/>
<stop offset="1" stop-color="#E9854E" stop-opacity="0"/>
</linearGradient>
</defs>
</svg>
